<svg xmlns="http://www.w3.org/2000/svg" width="512" height="512" viewBox="0 0 1 1"><defs><linearGradient id="a" y1="0%" x2="0" y2="100%"><stop offset="0%" stop-color="#f9aa4b"/><stop offset="100%" stop-color="#f7931a"/></linearGradient></defs><path d="M63.04 39.741c-4.274 17.14-21.637 27.576-38.782 23.301C7.118 58.768-3.313 41.404.963 24.262 5.235 7.122 22.598-3.317 39.738.957c17.14 4.274 27.576 21.64 23.302 38.784" fill="url(#a)" transform="scale(.01563)"/><path d="M.72.429C.73.362.68.327.61.303l.023-.09L.578.199.556.287a2.296 2.296 0 0 0-.044-.01l.022-.09L.48.174l-.022.09A1.836 1.836 0 0 1 .422.256L.346.237.332.296l.04.01c.022.005.026.02.025.031L.372.44l.005.002L.371.441.336.584C.333.591.326.601.31.597L.27.587.244.65l.072.018.039.01L.33.77l.055.014.022-.09.044.011-.022.09.055.014.022-.091C.6.735.67.728.7.644.725.574.7.535.65.51.685.5.712.478.72.429M.595.605C.578.673.463.636.426.627l.03-.12c.038.008.157.027.14.098M.611.428C.597.49.502.458.47.451L.498.34c.03.008.13.022.114.087" fill="#fff"/></svg>