<svg data-name="Layer 1" xmlns="http://www.w3.org/2000/svg" width="200" viewBox="0 0 200 85.58"><title>nemLogo</title><path fill="#fff" d="M0 31.94h14.88v7.53a32 32 0 0 1 2.79-3.21 19.49 19.49 0 0 1 3.38-2.71 16.76 16.76 0 0 1 4.11-1.87 17.33 17.33 0 0 1 5.09-.69q8.52 0 13.17 5.19t4.65 14.29v34H33.19V55.21q0-5.27-2.35-8a8.38 8.38 0 0 0-6.66-2.69 8.84 8.84 0 0 0-6.8 2.69q-2.5 2.68-2.5 8v29.2H0V31.94zm84.77 53.64a29.9 29.9 0 0 1-10.91-2A25.24 25.24 0 0 1 65.15 78a25.78 25.78 0 0 1-5.74-8.53 28.41 28.41 0 0 1-2.06-11v-.2a29.34 29.34 0 0 1 1.91-10.57 26.89 26.89 0 0 1 5.34-8.71 24.89 24.89 0 0 1 18.7-8 25.56 25.56 0 0 1 11.36 2.35 23.1 23.1 0 0 1 8 6.31 26.28 26.28 0 0 1 4.7 9.1 37.67 37.67 0 0 1 1.47 10.72v1.86q0 .98-.15 2.06H72.14a12.53 12.53 0 0 0 4.45 7.68 13.33 13.33 0 0 0 8.37 2.59 16.57 16.57 0 0 0 6.66-1.27 22.64 22.64 0 0 0 6.07-4.11l8.52 7.54a26.4 26.4 0 0 1-9 7.2 27.94 27.94 0 0 1-12.44 2.56zm9.59-31.52a14.5 14.5 0 0 0-3.53-8.08 9.76 9.76 0 0 0-7.54-3.08 10 10 0 0 0-7.59 3 15.23 15.23 0 0 0-3.77 8.13h22.43zm23.78-22.12h14.88v7.53a32 32 0 0 1 2.81-3.24 19.49 19.49 0 0 1 3.38-2.71 16.57 16.57 0 0 1 4.16-1.87 19.54 19.54 0 0 1 14.1 1.48 14.65 14.65 0 0 1 5.82 6.21 23.91 23.91 0 0 1 7.64-6.26 21 21 0 0 1 9.59-2.12q8.32 0 13 4.89t4.7 14.39v34.17h-14.88v-29.2q0-5.27-2.25-8a8 8 0 0 0-6.46-2.69 8.41 8.41 0 0 0-6.61 2.69q-2.4 2.68-2.4 8v29.2h-14.88v-29.2q0-5.27-2.25-8a8 8 0 0 0-6.46-2.69 8.41 8.41 0 0 0-6.61 2.69q-2.4 2.68-2.4 8v29.2h-14.88V31.94z"/></svg>