<svg xmlns="http://www.w3.org/2000/svg" xmlns:xlink="http://www.w3.org/1999/xlink" width="194.128" height="298.174" viewBox="0 0 194.128 298.174"><path d="M193.576 130.346c-.345-.169-.67-.379-1.007-.568-23.245-13.076-48.122-21.049-74.648-23.877a196.464 196.464 0 0 0-15.913-1.04 194.195 194.195 0 0 0-28.38 1.378 192.475 192.475 0 0 0-20.359 3.599c-18.212 4.233-35.437 10.983-51.693 20.212-1.216.688-1.087.458-1.076 1.878.03 3.359.158 6.712.349 10.06.276 4.879.708 9.748 1.358 14.602a192.066 192.066 0 0 0 4.772 24.016c12.51 46.932 42.153 86.576 81.581 112.211l.333.222a195.14 195.14 0 0 0 7.376 4.552c.329.193.669.366 1.07.585.588-.343 1.089-.629 1.585-.922a198.584 198.584 0 0 0 5.721-3.519 193.227 193.227 0 0 0 33.894-27.416c16.423-16.673 29.426-35.688 38.973-57.059 6.014-13.459 10.384-27.439 13.165-41.914a193.606 193.606 0 0 0 2.785-20.375c.139-1.654.244-3.309.335-4.966.172-3.113.275-6.23.32-9.35.008-.463-.011-.926.011-1.388.018-.441-.159-.728-.552-.921m-9.03 22.082a173.605 173.605 0 0 1-3.245 21.471 175.222 175.222 0 0 1-6.165 21.675c-.072.196-.14.396-.21.591-.271.755-.552 1.506-.834 2.257-.248.662-.493 1.326-.748 1.985l-.045.114c-14.595 37.617-41.711 68.696-76.083 87.819-.099.059-.193.12-.291.18l-.021-.012c-1.665-.821-5.318-3.065-9.159-5.628-29.799-21.259-52.922-49.817-66.093-82.712a169.947 169.947 0 0 1-12.255-63.45c24.544-14.201 51.769-21.984 79.253-23.334l.487-.022a166.03 166.03 0 0 1 3.384-.122c.288-.008.573-.018.861-.024a184.34 184.34 0 0 1 3.566-.043c.14 0 .279-.003.419-.003 1.382 0 2.765.017 4.146.049h.026c.82.021 1.639.058 2.458.088 4.601.205 10.044.647 14.438 1.13 2.311.279 4.615.614 6.917.983a175.598 175.598 0 0 1 32.609 8.522 174.572 174.572 0 0 1 27.212 12.746c.019.32.05.641.05.963a169.9 169.9 0 0 1-.677 14.777"/><path fill="#E65025" d="M96.947 113.174c-1.189.002-2.377.016-3.566.043-.288.005-.573.016-.861.024-1.128.031-2.257.069-3.384.121l-.487.023c-27.485 1.349-54.709 9.134-79.254 23.334 0 14.452 1.819 28.516 5.256 42.015a171.53 171.53 0 0 0 7 21.435c13.172 32.895 36.296 61.453 66.093 82.712 3.842 2.562 7.495 4.807 9.16 5.629a.106.106 0 0 1 .021.011c.099-.06.193-.121.291-.18l.092-.053V113.171c-.12.001-.24.003-.361.003"/><path fill="#C44227" d="M185.171 136.689a174.67 174.67 0 0 0-27.212-12.746 175.558 175.558 0 0 0-32.609-8.522 180.185 180.185 0 0 0-6.914-.983c-4.396-.482-9.839-.925-14.439-1.13-.819-.03-1.638-.068-2.458-.088h-.026a179.12 179.12 0 0 0-4.147-.049h-.056v175.115c34.328-19.126 61.407-50.182 75.989-87.766.017-.038.031-.076.046-.114.255-.659.5-1.323.747-1.985.283-.751.563-1.502.835-2.257.07-.195.138-.395.208-.591a175.056 175.056 0 0 0 6.167-21.675 173.795 173.795 0 0 0 3.245-21.471c.433-4.916.673-9.84.676-14.775-.001-.322-.033-.642-.052-.963"/><g opacity=".1"><defs><path id="a" d="M.491 104.8h193.638v193.374H.491z"/></defs><clipPath id="b"><use xlink:href="#a" overflow="visible"/></clipPath><path clip-path="url(#b)" fill="#FFF" d="M97.338 298.174c-.4-.219-.741-.392-1.071-.585-43.264-25.336-75.976-67.04-89.288-116.983a191.685 191.685 0 0 1-4.772-24.017C1.112 148.404.57 140.183.499 131.927c-.012-1.419-.14-1.188 1.075-1.878 16.257-9.229 33.482-15.979 51.694-20.211a193.01 193.01 0 0 1 20.36-3.6 194.6 194.6 0 0 1 28.379-1.378c5.316.134 10.621.476 15.913 1.041 26.525 2.828 51.403 10.8 74.649 23.878.336.188.661.398 1.006.567.394.193.571.48.55.92-.021.461-.002.923-.01 1.387-.068 4.779-.258 9.553-.656 14.316a193.27 193.27 0 0 1-2.784 20.375c-2.782 14.476-7.151 28.456-13.166 41.915-9.546 21.37-22.549 40.386-38.973 57.059a193.392 193.392 0 0 1-39.613 30.935c-.497.292-.997.578-1.585.921M9.396 136.65v1.146c.005 6.788.448 13.551 1.259 20.29a173.465 173.465 0 0 0 3.161 18.091 14.845 14.845 0 0 0 1.031 3.047c8.295 17.654 27.515 27.042 46.574 22.728 14.533-3.289 26.306-14.489 30.35-28.825 1.118-3.964 1.499-8.017 1.625-12.106.083-2.7.335-5.38.843-8.034 3.1-16.241 13.962-29.659 29.173-36.025.853-.356 1.723-.671 2.581-1.013.12-.049.317-.064.259-.288-2.389-.852-16.745-2.283-25.354-2.454-18.474-.364-36.577 2.063-54.281 7.37A174.081 174.081 0 0 0 9.396 136.65m136.326 110.763c.508-.24.706-.631.961-.947a171.302 171.302 0 0 0 10.431-14.415c11.593-17.916 19.681-37.29 24.188-58.152a173.795 173.795 0 0 0 3.245-21.471c.433-4.916.673-9.84.676-14.775 0-.341-.034-.68-.054-1.018-.479-.282-.903-.543-1.338-.788a169.055 169.055 0 0 0-11.602-5.992c-5.692-2.656-11.465-5.113-17.465-6.995-7.305-2.291-14.684-2.544-22.128-.75-21.188 5.109-34.729 25.849-30.718 47.264 2.225 11.875 8.594 21.033 18.81 27.502.684.432 1.384.84 2.071 1.263 7.466 4.567 13.314 10.685 17.491 18.369 4.396 8.08 6.372 16.728 5.863 25.922-.089 1.612-.276 3.219-.431 4.983m-48.319 41.325c.379-.214.815-.452 1.243-.704 11.645-6.849 22.336-14.961 32.144-24.245a7.368 7.368 0 0 0 1.497-2.037c.627-1.235 1.269-2.467 1.869-3.717 4.641-9.646 5.635-19.641 2.556-29.914-5.984-19.973-25.241-31.434-44.524-29.024-5.509.688-10.665 2.442-15.473 5.144-9.189 5.163-18.989 7.288-29.473 6.286-5.145-.491-10.075-1.806-14.805-3.882a48.906 48.906 0 0 1-10.392-6.21c-.224-.174-.476-.312-.892-.581.138.458.194.712.288.952a173.86 173.86 0 0 0 15.286 30.033 175.712 175.712 0 0 0 22.598 28.479 176.534 176.534 0 0 0 27.949 23.249c4.45 2.985 8.761 5.618 10.129 6.171"/></g><path fill="#FFF" d="M193.576 130.346c-.345-.169-.67-.379-1.007-.568-23.245-13.076-48.122-21.049-74.648-23.877a196.464 196.464 0 0 0-15.913-1.04 194.195 194.195 0 0 0-28.38 1.378 192.475 192.475 0 0 0-20.359 3.599c-18.212 4.233-35.437 10.983-51.693 20.212-1.216.688-1.087.458-1.076 1.878.03 3.359.158 6.712.349 10.06.276 4.879.708 9.748 1.358 14.602a192.066 192.066 0 0 0 4.772 24.016c12.51 46.932 42.153 86.576 81.581 112.211l.333.222a195.14 195.14 0 0 0 7.376 4.552c.329.193.669.366 1.07.585.588-.343 1.089-.629 1.585-.922a198.584 198.584 0 0 0 5.721-3.519 193.227 193.227 0 0 0 33.894-27.416c16.423-16.673 29.426-35.688 38.973-57.059 6.014-13.459 10.384-27.439 13.165-41.914a193.606 193.606 0 0 0 2.785-20.375c.139-1.654.244-3.309.335-4.966.172-3.113.275-6.23.32-9.35.008-.463-.011-.926.011-1.388.018-.441-.159-.728-.552-.921m-9.03 22.082a173.605 173.605 0 0 1-3.245 21.471 175.222 175.222 0 0 1-6.165 21.675c-.072.196-.14.396-.21.591-.271.755-.552 1.506-.834 2.257-.248.662-.493 1.326-.748 1.985l-.045.114c-14.595 37.617-41.711 68.696-76.083 87.819-.099.059-.193.12-.291.18l-.021-.012c-1.665-.821-5.318-3.065-9.159-5.628-29.799-21.259-52.922-49.817-66.093-82.712a169.947 169.947 0 0 1-12.255-63.45c24.544-14.201 51.769-21.984 79.253-23.334l.487-.022a166.03 166.03 0 0 1 3.384-.122c.288-.008.573-.018.861-.024a184.34 184.34 0 0 1 3.566-.043c.14 0 .279-.003.419-.003 1.382 0 2.765.017 4.146.049h.026c.82.021 1.639.058 2.458.088 4.601.205 10.044.647 14.438 1.13 2.311.279 4.615.614 6.917.983a175.598 175.598 0 0 1 32.609 8.522 174.572 174.572 0 0 1 27.212 12.746c.019.32.05.641.05.963a169.9 169.9 0 0 1-.677 14.777"/><path fill="#C0C0C0" d="M115.191 197.121c-2.957-1.031-5.902-2.1-8.86-3.122-.592-.205-.914-.507-1.143-1.121-.598-1.604-1.325-3.158-1.974-4.745-.082-.2-.056-.507.038-.709a943.551 943.551 0 0 1 4.226-8.923c.175-.363.141-.595-.114-.902a39.709 39.709 0 0 0-5.116-5.11c-.294-.241-.511-.26-.849-.099a1097.02 1097.02 0 0 1-4.09 1.946v54.236c1.196.568 2.397 1.129 3.591 1.705.975.468 1 .523 1.751-.211 1.579-1.547 3.117-3.139 4.677-4.705.304-.306.35-.587.148-1.001-1.412-2.928-2.789-5.874-4.193-8.805-.163-.339-.156-.592-.003-.944a126.275 126.275 0 0 0 2.015-4.857c.154-.396.356-.606.746-.741 2.77-.97 5.531-1.955 8.295-2.935.056-.021.111-.047.17-.059.962-.168 1.44-.702 1.346-1.714-.021-.225.075-.462.117-.695v-4.315c-.066-.469-.171-.937-.188-1.408-.016-.428-.194-.627-.59-.766"/><path fill="#FFF" d="M92.537 176.604c-.369.178-.632.139-.996-.021a164.446 164.446 0 0 0-4.86-2.011c-.32-.126-.524-.26-.645-.607-.97-2.788-1.964-5.568-2.951-8.351-.02-.056-.043-.111-.062-.168-.423-1.284-.423-1.281-1.787-1.404-.216-.021-.428-.08-.642-.121h-4.316c-.472.066-.943.176-1.416.186-.447.009-.623.232-.754.606-.86 2.445-1.732 4.888-2.601 7.33-.234.658-.443 1.327-.719 1.967-.095.216-.331.423-.553.519a185.146 185.146 0 0 1-5.074 2.112c-.233.094-.584.06-.819-.051a895.984 895.984 0 0 1-8.869-4.197c-.332-.158-.575-.183-.85.093a1296.44 1296.44 0 0 1-5.115 5.108c-.276.274-.306.53-.127.902 1.419 2.946 2.805 5.907 4.219 8.858.165.341.142.591-.01.94a156.67 156.67 0 0 0-2.031 4.914c-.129.325-.279.518-.618.638-2.993 1.047-5.975 2.131-8.974 3.159-.619.213-.93.498-.903 1.174.014.368-.102.742-.16 1.115v4.315c.063.412.189.826.175 1.235-.023.596.283.832.784 1.006 2.392.83 4.778 1.683 7.165 2.527.639.227 1.27.478 1.917.678.346.105.489.312.618.635.674 1.683 1.395 3.346 2.067 5.029.087.219.081.548-.02.762a885.719 885.719 0 0 1-4.224 8.922c-.174.364-.134.596.121.902a39.261 39.261 0 0 0 5.115 5.11c.293.245.519.252.852.091 2.95-1.412 5.91-2.802 8.859-4.214.34-.163.593-.151.944.002 1.643.716 3.311 1.374 4.959 2.079.222.096.473.306.552.52a684.892 684.892 0 0 1 3.015 8.455c.483 1.385.46 1.39 1.893 1.521.196.018.387.075.582.114h4.316c.453-.063.904-.175 1.357-.18.486-.006.691-.227.843-.661 1.017-2.919 2.074-5.825 3.076-8.749.218-.639.546-.979 1.197-1.218 1.588-.587 3.125-1.305 4.69-1.951.175-.07.438-.084.605-.006 1.652.777 3.298 1.566 4.946 2.352v-54.236c-1.592.756-3.184 1.508-4.771 2.27M78.428 220.21c-10.354-.015-18.767-8.434-18.746-18.755.022-10.403 8.408-18.772 18.799-18.76 10.332.013 18.756 8.463 18.716 18.781-.039 10.372-8.431 18.748-18.769 18.734"/><path fill="#FFF" d="M78.461 192.098a9.305 9.305 0 0 0-9.378 9.332 9.312 9.312 0 0 0 9.333 9.378 9.305 9.305 0 0 0 9.375-9.334 9.298 9.298 0 0 0-9.33-9.376"/><path fill="#C0C0C0" d="M153.713 166.13c-.054-.935-.106-1.87-.161-2.805-.061-.303-.146-.603-.176-.908-.026-.278-.148-.399-.411-.477-1.961-.559-3.914-1.141-5.875-1.695-.392-.11-.614-.295-.785-.685-.448-1.021-.979-2.004-1.46-3.012a.642.642 0 0 1-.003-.461 607.418 607.418 0 0 1 2.412-5.957c.099-.242.069-.393-.109-.582a25.664 25.664 0 0 0-3.516-3.128c-.198-.147-.341-.151-.555-.034-1.864 1.029-3.738 2.041-5.602 3.073-.232.129-.404.113-.647.022a102.1 102.1 0 0 0-3.234-1.124c-.213-.07-.35-.15-.441-.371-.735-1.775-1.485-3.545-2.231-5.315l-.047-.107c-.322-.819-.322-.816-1.213-.846-.142-.004-.282-.034-.422-.053l-2.805.162c-.306.06-.605.149-.913.172-.29.022-.396.175-.469.423-.466 1.623-.941 3.242-1.415 4.862-.127.436-.237.878-.394 1.305a.734.734 0 0 1-.339.357 128.983 128.983 0 0 1-3.219 1.564.75.75 0 0 1-.534-.003 600.504 600.504 0 0 1-5.921-2.395c-.222-.09-.38-.098-.548.093a807.504 807.504 0 0 1-3.133 3.51c-.169.189-.178.356-.048.592 1.031 1.86 2.044 3.734 3.073 5.598.121.216.116.38.029.612a97.216 97.216 0 0 0-1.135 3.271c-.072.216-.163.347-.378.437-1.906.793-3.804 1.609-5.713 2.39-.395.161-.588.359-.545.796.024.24-.038.487-.062.731l.163 2.806c.057.264.154.529.159.796.007.388.215.528.547.623 1.586.451 3.168.914 4.751 1.374.424.124.844.263 1.271.367.229.058.33.187.427.391.5 1.069 1.031 2.123 1.532 3.19a.706.706 0 0 1 .015.496 579.025 579.025 0 0 1-2.409 5.957c-.099.243-.065.392.112.58a25.612 25.612 0 0 0 3.515 3.13c.199.147.347.144.557.026 1.865-1.027 3.736-2.041 5.6-3.07.214-.119.38-.12.614-.034 1.093.404 2.203.769 3.301 1.166.146.052.317.18.377.316.771 1.788 1.53 3.582 2.276 5.38.367.881.352.887 1.287.919.129.004.256.035.383.053l2.805-.162c.292-.06.581-.147.875-.167.315-.022.441-.175.522-.463.553-1.935 1.129-3.863 1.672-5.802.117-.423.316-.654.731-.835 1.011-.439 1.981-.965 2.976-1.443a.548.548 0 0 1 .394-.026c1.902.764 3.804 1.534 5.7 2.314.65.268.668.303 1.13-.203.968-1.064 1.906-2.154 2.861-3.231.187-.21.206-.395.06-.657-1.027-1.849-2.031-3.712-3.056-5.563-.118-.215-.123-.379-.037-.613a81.266 81.266 0 0 0 1.127-3.233c.085-.263.209-.406.458-.51 1.762-.733 3.519-1.477 5.279-2.217.036-.015.07-.035.108-.043.618-.146.909-.513.81-1.166-.019-.149.035-.306.052-.458m-23.772 12.195c-6.729.379-12.512-4.775-12.886-11.484-.375-6.762 4.761-12.514 11.513-12.896 6.715-.381 12.506 4.795 12.868 11.501.364 6.742-4.777 12.501-11.495 12.879"/><path fill="#C0C0C0" d="M128.907 160.056a6.055 6.055 0 0 0-5.743 6.416 6.06 6.06 0 0 0 6.418 5.743 6.056 6.056 0 0 0 5.741-6.417 6.054 6.054 0 0 0-6.416-5.742"/><path fill="#FFF" d="M.5.951h14.437v7.276a30.957 30.957 0 0 1 2.705-3.109 18.835 18.835 0 0 1 3.277-2.629A16.248 16.248 0 0 1 24.908.671C26.363.224 28.008 0 29.845 0c5.507 0 9.764 1.678 12.772 5.034 3.005 3.356 4.511 7.978 4.511 13.864v32.954H32.694V23.526c0-3.409-.76-5.984-2.279-7.719-1.52-1.737-3.673-2.606-6.459-2.606s-4.985.869-6.599 2.606c-1.614 1.735-2.421 4.31-2.421 7.719v28.326H.5V.951zm82.226 52.04c-3.798 0-7.328-.634-10.587-1.9-3.262-1.265-6.079-3.07-8.452-5.413-2.375-2.341-4.226-5.111-5.556-8.31-1.33-3.195-1.995-6.756-1.995-10.683v-.189c0-3.609.618-7.027 1.852-10.256 1.235-3.229 2.959-6.045 5.176-8.452 2.216-2.405 4.859-4.304 7.93-5.697C74.164.698 77.565 0 81.303 0c4.24 0 7.912.76 11.016 2.279 3.1 1.521 5.681 3.562 7.74 6.126 2.056 2.564 3.575 5.508 4.558 8.832.979 3.323 1.471 6.789 1.471 10.398 0 .57-.016 1.172-.047 1.804-.033.634-.08 1.299-.142 1.995H70.477c.696 3.292 2.137 5.777 4.321 7.455 2.183 1.678 4.89 2.516 8.12 2.516 2.405 0 4.559-.41 6.457-1.234 1.899-.821 3.86-2.152 5.888-3.989l8.262 7.312a25.619 25.619 0 0 1-8.735 6.981c-3.421 1.676-7.442 2.516-12.064 2.516m9.308-30.579c-.445-3.229-1.583-5.841-3.418-7.834-1.837-1.995-4.274-2.993-7.312-2.993-3.04 0-5.493.983-7.36 2.945-1.869 1.963-3.087 4.591-3.656 7.882h21.746zM115.097.951h14.436v7.276a30.957 30.957 0 0 1 2.705-3.109 18.872 18.872 0 0 1 3.277-2.629c1.201-.765 2.547-1.371 4.035-1.818C141.037.224 142.7 0 144.537 0c3.354 0 6.251.702 8.688 2.104 2.438 1.403 4.321 3.411 5.65 6.026 2.216-2.677 4.685-4.702 7.408-6.073C169.003.687 172.107 0 175.589 0c5.381 0 9.592 1.583 12.631 4.749 3.039 3.167 4.559 7.82 4.559 13.96v33.143h-14.435V23.526c0-3.409-.729-5.984-2.185-7.719-1.457-1.737-3.547-2.606-6.268-2.606-2.723 0-4.858.869-6.41 2.606-1.552 1.735-2.327 4.31-2.327 7.719v28.326H146.72V23.526c0-3.409-.729-5.984-2.185-7.719-1.457-1.737-3.547-2.606-6.268-2.606-2.723 0-4.86.869-6.41 2.606-1.552 1.735-2.326 4.31-2.326 7.719v28.326h-14.436V.951z"/><path fill="#E65025" d="M4.531 86.909C1.844 84.266.5 80.873.5 76.725s1.344-7.543 4.031-10.183c2.689-2.641 6.026-3.961 10.015-3.961 4.399 0 7.854 1.807 10.362 5.42l-2.82 1.602c-.788-1.2-1.859-2.164-3.212-2.891a9.006 9.006 0 0 0-4.33-1.091c-3.028 0-5.54 1.037-7.534 3.112-1.995 2.073-2.99 4.738-2.99 7.992 0 3.228 1.003 5.886 3.01 7.972 2.008 2.088 4.512 3.131 7.514 3.131a8.839 8.839 0 0 0 4.319-1.11c1.347-.741 2.421-1.697 3.223-2.871l2.86 1.56c-2.641 3.642-6.108 5.463-10.402 5.463-3.989 0-7.326-1.321-10.015-3.961"/><path fill="none" stroke="#E65025" stroke-miterlimit="10" d="M4.531 86.909C1.844 84.266.5 80.873.5 76.725s1.344-7.543 4.031-10.183c2.689-2.641 6.026-3.961 10.015-3.961 4.399 0 7.854 1.807 10.362 5.42l-2.82 1.602c-.788-1.2-1.859-2.164-3.212-2.891a9.006 9.006 0 0 0-4.33-1.091c-3.028 0-5.54 1.037-7.534 3.112-1.995 2.073-2.99 4.738-2.99 7.992 0 3.228 1.003 5.886 3.01 7.972 2.008 2.088 4.512 3.131 7.514 3.131a8.839 8.839 0 0 0 4.319-1.11c1.347-.741 2.421-1.697 3.223-2.871l2.86 1.56c-2.641 3.642-6.108 5.463-10.402 5.463-3.989 0-7.326-1.321-10.015-3.961z"/><path fill="#E65025" d="M31.026 86.848c-2.522-2.681-3.783-6.055-3.783-10.123s1.261-7.442 3.783-10.124c2.522-2.681 5.779-4.02 9.771-4.02 3.992 0 7.259 1.339 9.801 4.02 2.542 2.682 3.814 6.056 3.814 10.124 0 4.067-1.272 7.441-3.814 10.123-2.542 2.681-5.809 4.021-9.801 4.021s-7.249-1.341-9.771-4.021m-.262-10.123c0 3.227.915 5.885 2.744 7.972 1.829 2.088 4.259 3.131 7.29 3.131 3.004 0 5.437-1.042 7.3-3.131 1.861-2.087 2.793-4.745 2.793-7.972s-.929-5.886-2.784-7.972c-1.856-2.088-4.292-3.133-7.31-3.133-3.031 0-5.46 1.039-7.29 3.112-1.829 2.075-2.743 4.738-2.743 7.993"/><path fill="none" stroke="#E65025" stroke-miterlimit="10" d="M31.026 86.848c-2.522-2.681-3.783-6.055-3.783-10.123s1.261-7.442 3.783-10.124c2.522-2.681 5.779-4.02 9.771-4.02 3.992 0 7.259 1.339 9.801 4.02 2.542 2.682 3.814 6.056 3.814 10.124 0 4.067-1.272 7.441-3.814 10.123-2.542 2.681-5.809 4.021-9.801 4.021s-7.249-1.341-9.771-4.021zm-.262-10.123c0 3.227.915 5.885 2.744 7.972 1.829 2.088 4.259 3.131 7.29 3.131 3.004 0 5.437-1.042 7.3-3.131 1.861-2.087 2.793-4.745 2.793-7.972s-.929-5.886-2.784-7.972c-1.856-2.088-4.292-3.133-7.31-3.133-3.031 0-5.46 1.039-7.29 3.112-1.829 2.075-2.743 4.738-2.743 7.993z"/><path fill="#E65025" d="M59.509 90.369V63.042h10.983c2.534 0 4.601.749 6.203 2.249 1.6 1.5 2.4 3.498 2.4 5.993 0 2.362-.689 4.244-2.071 5.647-1.379 1.403-3.071 2.186-5.072 2.35l7.382 11.089h-4.021l-6.921-10.803H62.91V90.37h-3.401zm3.4-13.845h7.164c1.613 0 2.934-.494 3.959-1.48 1.027-.987 1.542-2.241 1.542-3.76 0-1.561-.514-2.818-1.542-3.771-1.025-.955-2.347-1.432-3.959-1.432h-7.164v10.443z"/><path fill="none" stroke="#E65025" stroke-miterlimit="10" d="M59.509 90.369V63.042h10.983c2.534 0 4.601.749 6.203 2.249 1.6 1.5 2.4 3.498 2.4 5.993 0 2.362-.689 4.244-2.071 5.647-1.379 1.403-3.071 2.186-5.072 2.35l7.382 11.089h-4.021l-6.921-10.803H62.91V90.37h-3.401zm3.4-13.845h7.164c1.613 0 2.934-.494 3.959-1.48 1.027-.987 1.542-2.241 1.542-3.76 0-1.561-.514-2.818-1.542-3.771-1.025-.955-2.347-1.432-3.959-1.432h-7.164v10.443z"/><path fill="#E65025" d="M84.202 90.369V63.041h17.907v3.04H87.602v8.784h14.205v3.04H87.602v9.422h14.507v3.042z"/><path fill="none" stroke="#E65025" stroke-miterlimit="10" d="M84.202 90.369V63.041h17.907v3.04H87.602v8.784h14.205v3.04H87.602v9.422h14.507v3.042z"/></svg>