<?xml version="1.0" encoding="utf-8"?>
<!-- Generator: Adobe Illustrator 17.0.0, SVG Export Plug-In . SVG Version: 6.00 Build 0)  -->
<!DOCTYPE svg PUBLIC "-//W3C//DTD SVG 1.1//EN" "http://www.w3.org/Graphics/SVG/1.1/DTD/svg11.dtd">
<svg version="1.1" id="Layer_1" xmlns="http://www.w3.org/2000/svg" xmlns:xlink="http://www.w3.org/1999/xlink" x="0px" y="0px"
	 width="250px" height="300px" viewBox="0 0 250 300" enable-background="new 0 0 250 300" xml:space="preserve">
<g>
	<g>
		<path fill="#A4A2A2" d="M26.362,76.216c0-4.072,1.351-7.391,4.053-9.954c2.702-2.563,6.097-3.845,10.186-3.845
			c4.987,0,8.691,2.158,11.113,6.473l-4.883,2.416c-0.586-1.126-1.445-2.056-2.578-2.789c-1.133-0.732-2.351-1.1-3.652-1.1
			c-2.422,0-4.427,0.828-6.016,2.484c-1.589,1.656-2.383,3.762-2.383,6.314s0.791,4.661,2.373,6.324s3.59,2.494,6.025,2.494
			c1.302,0,2.52-0.37,3.652-1.109c1.133-0.74,1.992-1.673,2.578-2.799l4.883,2.376c-2.474,4.355-6.179,6.532-11.113,6.532
			c-4.076,0-7.468-1.29-10.176-3.87C27.716,83.584,26.362,80.269,26.362,76.216z"/>
		<path fill="#A4A2A2" d="M57.758,86.159c-2.624-2.583-3.936-5.897-3.936-9.943s1.312-7.356,3.936-9.934
			c2.624-2.577,5.96-3.865,10.01-3.865c4.023,0,7.35,1.295,9.98,3.885c2.63,2.59,3.945,5.895,3.945,9.914s-1.315,7.327-3.945,9.924
			c-2.63,2.597-5.957,3.895-9.98,3.895C63.718,90.034,60.382,88.743,57.758,86.159z M61.88,69.901
			c-1.478,1.656-2.217,3.762-2.217,6.314s0.745,4.661,2.236,6.324c1.491,1.663,3.45,2.494,5.879,2.494
			c2.428,0,4.381-0.831,5.859-2.494c1.478-1.663,2.217-3.771,2.217-6.324s-0.739-4.658-2.217-6.314
			c-1.478-1.656-3.435-2.484-5.869-2.484C65.32,67.417,63.357,68.245,61.88,69.901z"/>
		<path fill="#A4A2A2" d="M85.678,89.546v-26.68h12.48c2.747,0,4.935,0.801,6.562,2.402c1.627,1.602,2.441,3.665,2.441,6.191
			c0,2.188-0.58,3.962-1.738,5.322c-1.159,1.36-2.539,2.229-4.141,2.607l6.035,10.156h-6.562l-5.234-9.473h-4.16v9.473H85.678z
			 M91.362,75.073h5.996c1.146,0,2.093-0.329,2.842-0.986c0.749-0.657,1.123-1.546,1.123-2.666c0-1.067-0.375-1.927-1.123-2.578
			c-0.749-0.651-1.696-0.977-2.842-0.977h-5.996V75.073z"/>
		<path fill="#A4A2A2" d="M111.382,89.546v-26.68h18.887v5h-13.203v5.605h12.91v5h-12.91v6.074h13.203v5H111.382z"/>
	</g>
	<g>
		<g>
			<path fill="#F6F6F6" d="M26.362,1.154H41.14v7.449c0.842-1.109,1.766-2.171,2.771-3.183c1.004-1.011,2.122-1.908,3.354-2.692
				c1.23-0.784,2.592-1.403,4.083-1.861c1.49-0.457,3.175-0.686,5.056-0.686c5.638,0,9.997,1.718,13.076,5.153
				c3.078,3.436,4.618,8.167,4.618,14.194v33.736H59.321V24.267c0-3.491-0.778-6.127-2.333-7.904
				c-1.556-1.778-3.76-2.668-6.611-2.668c-2.852,0-5.104,0.89-6.757,2.668c-1.652,1.777-2.479,4.413-2.479,7.904v28.998H26.362
				V1.154z"/>
			<path fill="#F6F6F6" d="M110.542,54.431c-3.888,0-7.503-0.649-10.84-1.944c-3.339-1.296-6.222-3.143-8.653-5.542
				c-2.431-2.397-4.327-5.233-5.688-8.507C84,35.166,83.32,31.52,83.32,27.501v-0.194c0-3.694,0.632-7.194,1.896-10.499
				c1.264-3.306,3.029-6.189,5.299-8.653c2.268-2.463,4.974-4.407,8.118-5.833c3.143-1.425,6.626-2.139,10.451-2.139
				c4.342,0,8.101,0.778,11.277,2.333c3.175,1.556,5.817,3.646,7.924,6.271c2.105,2.625,3.661,5.639,4.667,9.041
				c1.004,3.403,1.507,6.952,1.507,10.646c0,0.583-0.017,1.2-0.049,1.847c-0.034,0.649-0.082,1.329-0.146,2.042H98
				c0.712,3.37,2.187,5.915,4.423,7.632c2.236,1.718,5.007,2.576,8.313,2.576c2.462,0,4.667-0.42,6.611-1.264
				c1.945-0.842,3.953-2.203,6.028-4.083l8.458,7.486c-2.464,3.047-5.444,5.429-8.944,7.146
				C119.389,53.572,115.272,54.431,110.542,54.431z M120.07,23.126c-0.454-3.305-1.621-5.979-3.5-8.021
				c-1.881-2.042-4.375-3.063-7.486-3.063c-3.111,0-5.624,1.006-7.535,3.014c-1.912,2.01-3.16,4.7-3.743,8.069H120.07z"/>
			<path fill="#F6F6F6" d="M143.68,1.154h14.778v7.449c0.842-1.109,1.766-2.171,2.771-3.183c1.004-1.011,2.122-1.908,3.354-2.692
				c1.23-0.784,2.608-1.403,4.132-1.861c1.522-0.457,3.224-0.686,5.104-0.686c3.435,0,6.4,0.718,8.896,2.154
				c2.495,1.437,4.424,3.492,5.785,6.169c2.268-2.74,4.796-4.814,7.583-6.217c2.787-1.403,5.963-2.105,9.528-2.105
				c5.508,0,9.819,1.621,12.93,4.861c3.111,3.242,4.667,8.006,4.667,14.292v33.93H208.43V24.267c0-3.491-0.746-6.127-2.236-7.904
				c-1.492-1.778-3.631-2.668-6.417-2.668c-2.788,0-4.975,0.89-6.563,2.668c-1.589,1.777-2.382,4.413-2.382,7.904v28.998h-14.777
				V24.267c0-3.491-0.746-6.127-2.236-7.904c-1.492-1.778-3.631-2.668-6.417-2.668c-2.788,0-4.975,0.89-6.563,2.668
				c-1.589,1.777-2.382,4.413-2.382,7.904v28.998H143.68V1.154z"/>
		</g>
		<path fill="#A4A2A2" d="M124.819,299.142c-0.407-0.222-0.753-0.399-1.087-0.594c-43.983-25.757-77.239-68.154-90.774-118.93
			c-2.141-8.033-3.748-16.172-4.851-24.414c-1.113-8.322-1.663-16.68-1.735-25.072c-0.012-1.443-0.142-1.209,1.093-1.91
			c16.527-9.382,34.039-16.245,52.553-20.547c6.835-1.588,13.734-2.812,20.698-3.659c9.582-1.165,19.201-1.644,28.851-1.402
			c5.405,0.136,10.799,0.484,16.178,1.057c26.967,2.875,52.257,10.981,75.89,24.275c0.341,0.192,0.672,0.405,1.023,0.577
			c0.4,0.196,0.58,0.487,0.56,0.934c-0.022,0.469-0.003,0.94-0.01,1.41c-0.071,4.859-0.262,9.712-0.668,14.555
			c-0.582,6.953-1.514,13.861-2.831,20.713c-2.828,14.716-7.27,28.929-13.383,42.612c-9.706,21.725-22.925,41.057-39.622,58.008
			c-12.053,12.236-25.482,22.715-40.272,31.448C125.926,298.503,125.417,298.794,124.819,299.142z M35.415,134.933
			c0,0.462,0,0.813,0,1.163c0.005,6.902,0.456,13.778,1.281,20.628c0.745,6.186,1.819,12.317,3.213,18.391
			c0.246,1.072,0.578,2.095,1.049,3.098c8.433,17.948,27.973,27.492,47.349,23.106c14.775-3.345,26.743-14.731,30.854-29.305
			c1.137-4.03,1.524-8.149,1.652-12.307c0.084-2.746,0.342-5.47,0.858-8.17c3.152-16.51,14.195-30.152,29.659-36.623
			c0.866-0.363,1.751-0.682,2.623-1.031c0.124-0.049,0.322-0.065,0.263-0.291c-2.429-0.866-17.024-2.322-25.777-2.494
			c-18.781-0.37-37.185,2.098-55.184,7.493C60.036,122.553,47.45,127.985,35.415,134.933z M174.009,247.537
			c0.516-0.243,0.718-0.64,0.977-0.961c3.787-4.703,7.325-9.586,10.605-14.655c11.784-18.214,20.006-37.91,24.589-59.121
			c1.557-7.207,2.654-14.481,3.299-21.826c0.439-4.998,0.684-10.004,0.687-15.022c0-0.346-0.035-0.692-0.054-1.035
			c-0.487-0.287-0.921-0.551-1.362-0.801c-3.856-2.176-7.78-4.22-11.793-6.092c-5.786-2.7-11.655-5.198-17.756-7.111
			c-7.426-2.328-14.928-2.587-22.496-0.762c-21.541,5.194-35.307,26.278-31.229,48.049c2.261,12.072,8.737,21.384,19.123,27.959
			c0.695,0.44,1.405,0.855,2.107,1.284c7.588,4.644,13.534,10.862,17.782,18.674c4.467,8.216,6.476,17.007,5.959,26.354
			C174.357,244.11,174.167,245.743,174.009,247.537z M124.887,289.55c0.385-0.218,0.828-0.46,1.262-0.716
			c11.838-6.962,22.707-15.209,32.678-24.648c0.636-0.602,1.128-1.299,1.521-2.072c0.639-1.257,1.29-2.509,1.901-3.779
			c4.718-9.806,5.729-19.967,2.599-30.411c-6.085-20.305-25.662-31.957-45.265-29.507c-5.601,0.7-10.843,2.483-15.73,5.229
			c-9.342,5.248-19.304,7.41-29.964,6.391c-5.23-0.5-10.242-1.836-15.05-3.947c-3.786-1.662-7.302-3.776-10.565-6.313
			c-0.227-0.176-0.483-0.316-0.906-0.59c0.14,0.466,0.198,0.724,0.293,0.967c4.187,10.683,9.374,20.858,15.539,30.534
			c6.655,10.445,14.316,20.094,22.973,28.951c8.657,8.857,18.13,16.734,28.414,23.635
			C119.111,286.31,123.495,288.987,124.887,289.55z"/>
	</g>
</g>
</svg>
