<?xml version="1.0" encoding="utf-8"?>
<!-- Generator: Adobe Illustrator 16.0.0, SVG Export Plug-In . SVG Version: 6.00 Build 0)  -->
<!DOCTYPE svg PUBLIC "-//W3C//DTD SVG 1.1//EN" "http://www.w3.org/Graphics/SVG/1.1/DTD/svg11.dtd">
<svg version="1.1" id="Layer_1" xmlns="http://www.w3.org/2000/svg" xmlns:xlink="http://www.w3.org/1999/xlink" x="0px" y="0px"
	 width="194.128px" height="298.174px" viewBox="0 0 194.128 298.174" enable-background="new 0 0 194.128 298.174"
	 xml:space="preserve">
<g>
	<path d="M193.576,130.346c-0.345-0.169-0.67-0.379-1.007-0.568c-23.245-13.076-48.122-21.049-74.648-23.877
		c-5.292-0.564-10.597-0.907-15.913-1.04c-9.492-0.239-18.955,0.231-28.38,1.378c-6.849,0.833-13.636,2.036-20.359,3.599
		c-18.212,4.233-35.437,10.983-51.693,20.212c-1.216,0.688-1.087,0.458-1.076,1.878c0.03,3.359,0.158,6.712,0.349,10.06
		c0.276,4.879,0.708,9.748,1.358,14.602c1.085,8.107,2.666,16.115,4.772,24.016c12.51,46.932,42.153,86.576,81.581,112.211
		c0.111,0.073,0.221,0.148,0.333,0.222c2.425,1.569,4.88,3.09,7.376,4.552c0.329,0.193,0.669,0.366,1.07,0.585
		c0.588-0.343,1.089-0.629,1.585-0.922c1.932-1.142,3.836-2.317,5.721-3.519c12.308-7.844,23.61-16.979,33.894-27.416
		c16.423-16.673,29.426-35.688,38.973-57.059c6.014-13.459,10.384-27.439,13.165-41.914c1.296-6.742,2.211-13.535,2.785-20.375
		c0.139-1.654,0.244-3.309,0.335-4.966c0.172-3.113,0.275-6.23,0.32-9.35c0.008-0.463-0.011-0.926,0.011-1.388
		C194.146,130.826,193.969,130.539,193.576,130.346 M184.546,152.428c-0.634,7.226-1.715,14.381-3.245,21.471
		c-1.602,7.413-3.664,14.636-6.165,21.675c-0.072,0.196-0.14,0.396-0.21,0.591c-0.271,0.755-0.552,1.506-0.834,2.257
		c-0.248,0.662-0.493,1.326-0.748,1.985c-0.016,0.038-0.03,0.076-0.045,0.114c-14.595,37.617-41.711,68.696-76.083,87.819
		c-0.099,0.059-0.193,0.12-0.291,0.18c-0.007-0.004-0.016-0.009-0.021-0.012c-1.665-0.821-5.318-3.065-9.159-5.628
		c-29.799-21.259-52.922-49.817-66.093-82.712c-2.789-6.961-5.137-14.114-7-21.436c-3.438-13.498-5.255-27.562-5.255-42.014
		c24.544-14.201,51.769-21.984,79.253-23.334c0.161-0.008,0.325-0.015,0.487-0.022c1.128-0.053,2.255-0.092,3.384-0.122
		c0.288-0.008,0.573-0.018,0.861-0.024c1.189-0.026,2.377-0.04,3.566-0.043c0.14,0,0.279-0.003,0.419-0.003
		c1.382,0,2.765,0.017,4.146,0.049c0.009,0,0.019,0,0.026,0c0.82,0.021,1.639,0.058,2.458,0.088
		c4.601,0.205,10.044,0.647,14.438,1.13c2.311,0.279,4.615,0.614,6.917,0.983c11.062,1.78,21.983,4.622,32.609,8.522
		c9.339,3.429,18.446,7.678,27.212,12.746c0.019,0.32,0.05,0.641,0.05,0.963C185.22,142.588,184.978,147.512,184.546,152.428"/>
	<path fill="#E65025" d="M96.947,113.174c-1.189,0.002-2.377,0.016-3.566,0.043c-0.288,0.005-0.573,0.016-0.861,0.024
		c-1.128,0.031-2.257,0.069-3.384,0.121c-0.163,0.008-0.325,0.016-0.487,0.023c-27.485,1.349-54.709,9.134-79.254,23.334
		c0,14.452,1.819,28.516,5.256,42.015c1.865,7.321,4.212,14.474,7,21.435c13.172,32.895,36.296,61.453,66.093,82.712
		c3.842,2.562,7.495,4.807,9.16,5.629c0.006,0.002,0.015,0.007,0.021,0.011c0.099-0.06,0.193-0.121,0.291-0.18
		c0.032-0.018,0.062-0.036,0.092-0.053V113.171C97.188,113.172,97.068,113.174,96.947,113.174"/>
	<path fill="#C44227" d="M185.171,136.689c-8.765-5.067-17.872-9.316-27.212-12.746c-10.624-3.9-21.547-6.742-32.609-8.522
		c-2.301-0.369-4.605-0.704-6.914-0.983c-4.396-0.482-9.839-0.925-14.439-1.13c-0.819-0.03-1.638-0.068-2.458-0.088
		c-0.009,0-0.018,0-0.026,0c-1.382-0.032-2.764-0.049-4.147-0.049c-0.018,0-0.038,0-0.056,0v175.115
		c34.328-19.126,61.407-50.182,75.989-87.766c0.017-0.038,0.031-0.076,0.046-0.114c0.255-0.659,0.5-1.323,0.747-1.985
		c0.283-0.751,0.563-1.502,0.835-2.257c0.07-0.195,0.138-0.395,0.208-0.591c2.502-7.039,4.565-14.262,6.167-21.675
		c1.531-7.09,2.609-14.245,3.245-21.471c0.433-4.916,0.673-9.84,0.676-14.775C185.222,137.33,185.19,137.01,185.171,136.689"/>
	<g opacity="0.1">
		<g>
			<defs>
				<rect id="SVGID_1_" x="0.491" y="104.8" width="193.638" height="193.374"/>
			</defs>
			<clipPath id="SVGID_2_">
				<use xlink:href="#SVGID_1_"  overflow="visible"/>
			</clipPath>
			<path clip-path="url(#SVGID_2_)" fill="#FFFFFF" d="M97.338,298.174c-0.4-0.219-0.741-0.392-1.071-0.585
				c-43.264-25.336-75.976-67.04-89.288-116.983c-2.107-7.901-3.688-15.909-4.772-24.017c-1.095-8.185-1.637-16.406-1.708-24.662
				c-0.012-1.419-0.14-1.188,1.075-1.878c16.257-9.229,33.482-15.979,51.694-20.211c6.724-1.562,13.51-2.766,20.36-3.6
				c9.424-1.145,18.888-1.616,28.379-1.378c5.316,0.134,10.621,0.476,15.913,1.041c26.525,2.828,51.403,10.8,74.649,23.878
				c0.336,0.188,0.661,0.398,1.006,0.567c0.394,0.193,0.571,0.48,0.55,0.92c-0.021,0.461-0.002,0.923-0.01,1.387
				c-0.068,4.779-0.258,9.553-0.656,14.316c-0.572,6.841-1.489,13.634-2.784,20.375c-2.782,14.476-7.151,28.456-13.166,41.915
				c-9.546,21.37-22.549,40.386-38.973,57.059c-11.856,12.036-25.064,22.344-39.613,30.935
				C98.426,297.545,97.926,297.831,97.338,298.174 M9.396,136.65c0,0.455,0,0.8,0,1.146c0.005,6.788,0.448,13.551,1.259,20.29
				c0.732,6.086,1.79,12.116,3.161,18.091c0.241,1.054,0.567,2.061,1.031,3.047c8.295,17.654,27.515,27.042,46.574,22.728
				c14.533-3.289,26.306-14.489,30.35-28.825c1.118-3.964,1.499-8.017,1.625-12.106c0.083-2.7,0.335-5.38,0.843-8.034
				c3.1-16.241,13.962-29.659,29.173-36.025c0.853-0.356,1.723-0.671,2.581-1.013c0.12-0.049,0.317-0.064,0.259-0.288
				c-2.389-0.852-16.745-2.283-25.354-2.454c-18.474-0.364-36.577,2.063-54.281,7.37C33.614,124.473,21.234,129.817,9.396,136.65
				 M145.722,247.413c0.508-0.24,0.706-0.631,0.961-0.947c3.725-4.624,7.205-9.429,10.431-14.415
				c11.593-17.916,19.681-37.29,24.188-58.152c1.531-7.09,2.609-14.245,3.245-21.471c0.433-4.916,0.673-9.84,0.676-14.775
				c0-0.341-0.034-0.68-0.054-1.018c-0.479-0.282-0.903-0.543-1.338-0.788c-3.794-2.14-7.654-4.151-11.602-5.992
				c-5.692-2.656-11.465-5.113-17.465-6.995c-7.305-2.291-14.684-2.544-22.128-0.75c-21.188,5.109-34.729,25.849-30.718,47.264
				c2.225,11.875,8.594,21.033,18.81,27.502c0.684,0.432,1.384,0.84,2.071,1.263c7.466,4.567,13.314,10.685,17.491,18.369
				c4.396,8.08,6.372,16.728,5.863,25.922C146.064,244.042,145.877,245.649,145.722,247.413 M97.403,288.738
				c0.379-0.214,0.815-0.452,1.243-0.704c11.645-6.849,22.336-14.961,32.144-24.245c0.626-0.592,1.109-1.277,1.497-2.037
				c0.627-1.235,1.269-2.467,1.869-3.717c4.641-9.646,5.635-19.641,2.556-29.914c-5.984-19.973-25.241-31.434-44.524-29.024
				c-5.509,0.688-10.665,2.442-15.473,5.144c-9.189,5.163-18.989,7.288-29.473,6.286c-5.145-0.491-10.075-1.806-14.805-3.882
				c-3.724-1.635-7.182-3.714-10.392-6.21c-0.224-0.174-0.476-0.312-0.892-0.581c0.138,0.458,0.194,0.712,0.288,0.952
				c4.119,10.507,9.222,20.516,15.286,30.033c6.546,10.275,14.082,19.766,22.598,28.479c8.515,8.712,17.833,16.46,27.949,23.249
				C91.724,285.552,96.035,288.185,97.403,288.738"/>
		</g>
	</g>
	<path fill="#FFFFFF" d="M193.576,130.346c-0.345-0.169-0.67-0.379-1.007-0.568c-23.245-13.076-48.122-21.049-74.648-23.877
		c-5.292-0.564-10.597-0.907-15.913-1.04c-9.492-0.239-18.955,0.231-28.38,1.378c-6.849,0.833-13.636,2.036-20.359,3.599
		c-18.212,4.233-35.437,10.983-51.693,20.212c-1.216,0.688-1.087,0.458-1.076,1.878c0.03,3.359,0.158,6.712,0.349,10.06
		c0.276,4.879,0.708,9.748,1.358,14.602c1.085,8.107,2.666,16.115,4.772,24.016c12.51,46.932,42.153,86.576,81.581,112.211
		c0.111,0.073,0.221,0.148,0.333,0.222c2.425,1.569,4.88,3.09,7.376,4.552c0.329,0.193,0.669,0.366,1.07,0.585
		c0.588-0.343,1.089-0.629,1.585-0.922c1.932-1.142,3.836-2.317,5.721-3.519c12.308-7.844,23.61-16.979,33.894-27.416
		c16.423-16.673,29.426-35.688,38.973-57.059c6.014-13.459,10.384-27.439,13.165-41.914c1.296-6.742,2.211-13.535,2.785-20.375
		c0.139-1.654,0.244-3.309,0.335-4.966c0.172-3.113,0.275-6.23,0.32-9.35c0.008-0.463-0.011-0.926,0.011-1.388
		C194.146,130.826,193.969,130.539,193.576,130.346 M184.546,152.428c-0.634,7.226-1.715,14.381-3.245,21.471
		c-1.602,7.413-3.664,14.636-6.165,21.675c-0.072,0.196-0.14,0.396-0.21,0.591c-0.271,0.755-0.552,1.506-0.834,2.257
		c-0.248,0.662-0.493,1.326-0.748,1.985c-0.016,0.038-0.03,0.076-0.045,0.114c-14.595,37.617-41.711,68.696-76.083,87.819
		c-0.099,0.059-0.193,0.12-0.291,0.18c-0.007-0.004-0.016-0.009-0.021-0.012c-1.665-0.821-5.318-3.065-9.159-5.628
		c-29.799-21.259-52.922-49.817-66.093-82.712c-2.789-6.961-5.137-14.114-7-21.436c-3.438-13.498-5.255-27.562-5.255-42.014
		c24.544-14.201,51.769-21.984,79.253-23.334c0.161-0.008,0.325-0.015,0.487-0.022c1.128-0.053,2.255-0.092,3.384-0.122
		c0.288-0.008,0.573-0.018,0.861-0.024c1.189-0.026,2.377-0.04,3.566-0.043c0.14,0,0.279-0.003,0.419-0.003
		c1.382,0,2.765,0.017,4.146,0.049c0.009,0,0.019,0,0.026,0c0.82,0.021,1.639,0.058,2.458,0.088
		c4.601,0.205,10.044,0.647,14.438,1.13c2.311,0.279,4.615,0.614,6.917,0.983c11.062,1.78,21.983,4.622,32.609,8.522
		c9.339,3.429,18.446,7.678,27.212,12.746c0.019,0.32,0.05,0.641,0.05,0.963C185.22,142.588,184.978,147.512,184.546,152.428"/>
	<path fill="#C0C0C0" d="M115.191,197.121c-2.957-1.031-5.902-2.1-8.86-3.122c-0.592-0.205-0.914-0.507-1.143-1.121
		c-0.598-1.604-1.325-3.158-1.974-4.745c-0.082-0.2-0.056-0.507,0.038-0.709c1.394-2.981,2.801-5.957,4.226-8.923
		c0.175-0.363,0.141-0.595-0.114-0.902c-1.55-1.861-3.256-3.561-5.116-5.11c-0.294-0.241-0.511-0.26-0.849-0.099
		c-1.361,0.652-2.725,1.299-4.09,1.946v54.236c1.196,0.568,2.397,1.129,3.591,1.705c0.975,0.468,1,0.523,1.751-0.211
		c1.579-1.547,3.117-3.139,4.677-4.705c0.304-0.306,0.35-0.587,0.148-1.001c-1.412-2.928-2.789-5.874-4.193-8.805
		c-0.163-0.339-0.156-0.592-0.003-0.944c0.703-1.604,1.379-3.224,2.015-4.857c0.154-0.396,0.356-0.606,0.746-0.741
		c2.77-0.97,5.531-1.955,8.295-2.935c0.056-0.021,0.111-0.047,0.17-0.059c0.962-0.168,1.44-0.702,1.346-1.714
		c-0.021-0.225,0.075-0.462,0.117-0.695v-4.315c-0.066-0.469-0.171-0.937-0.188-1.408
		C115.765,197.459,115.587,197.26,115.191,197.121"/>
	<path fill="#FFFFFF" d="M92.537,176.604c-0.369,0.178-0.632,0.139-0.996-0.021c-1.607-0.701-3.232-1.362-4.86-2.011
		c-0.32-0.126-0.524-0.26-0.645-0.607c-0.97-2.788-1.964-5.568-2.951-8.351c-0.02-0.056-0.043-0.111-0.062-0.168
		c-0.423-1.284-0.423-1.281-1.787-1.404c-0.216-0.021-0.428-0.08-0.642-0.121h-4.316c-0.472,0.066-0.943,0.176-1.416,0.186
		c-0.447,0.009-0.623,0.232-0.754,0.606c-0.86,2.445-1.732,4.888-2.601,7.33c-0.234,0.658-0.443,1.327-0.719,1.967
		c-0.095,0.216-0.331,0.423-0.553,0.519c-1.683,0.727-3.372,1.436-5.074,2.112c-0.233,0.094-0.584,0.06-0.819-0.051
		c-2.964-1.381-5.919-2.783-8.869-4.197c-0.332-0.158-0.575-0.183-0.85,0.093c-1.699,1.709-3.407,3.409-5.115,5.108
		c-0.276,0.274-0.306,0.53-0.127,0.902c1.419,2.946,2.805,5.907,4.219,8.858c0.165,0.341,0.142,0.591-0.01,0.94
		c-0.709,1.624-1.378,3.268-2.031,4.914c-0.129,0.325-0.279,0.518-0.618,0.638c-2.993,1.047-5.975,2.131-8.974,3.159
		c-0.619,0.213-0.93,0.498-0.903,1.174c0.014,0.368-0.102,0.742-0.16,1.115v4.315c0.063,0.412,0.189,0.826,0.175,1.235
		c-0.023,0.596,0.283,0.832,0.784,1.006c2.392,0.83,4.778,1.683,7.165,2.527c0.639,0.227,1.27,0.478,1.917,0.678
		c0.346,0.105,0.489,0.312,0.618,0.635c0.674,1.683,1.395,3.346,2.067,5.029c0.087,0.219,0.081,0.548-0.02,0.762
		c-1.391,2.982-2.8,5.956-4.224,8.922c-0.174,0.364-0.134,0.596,0.121,0.902c1.549,1.861,3.251,3.563,5.115,5.11
		c0.293,0.245,0.519,0.252,0.852,0.091c2.95-1.412,5.91-2.802,8.859-4.214c0.34-0.163,0.593-0.151,0.944,0.002
		c1.643,0.716,3.311,1.374,4.959,2.079c0.222,0.096,0.473,0.306,0.552,0.52c1.023,2.812,2.029,5.63,3.015,8.455
		c0.483,1.385,0.46,1.39,1.893,1.521c0.196,0.018,0.387,0.075,0.582,0.114h4.316c0.453-0.063,0.904-0.175,1.357-0.18
		c0.486-0.006,0.691-0.227,0.843-0.661c1.017-2.919,2.074-5.825,3.076-8.749c0.218-0.639,0.546-0.979,1.197-1.218
		c1.588-0.587,3.125-1.305,4.69-1.951c0.175-0.07,0.438-0.084,0.605-0.006c1.652,0.777,3.298,1.566,4.946,2.352v-54.236
		C95.716,175.09,94.124,175.842,92.537,176.604 M78.428,220.21c-10.354-0.015-18.767-8.434-18.746-18.755
		c0.022-10.403,8.408-18.772,18.799-18.76c10.332,0.013,18.756,8.463,18.716,18.781C97.158,211.848,88.766,220.224,78.428,220.21"/>
	<path fill="#FFFFFF" d="M78.461,192.098c-5.209-0.009-9.364,4.124-9.378,9.332c-0.014,5.199,4.132,9.367,9.333,9.378
		c5.208,0.009,9.36-4.126,9.375-9.334C87.806,196.267,83.665,192.106,78.461,192.098"/>
	<path fill="#C0C0C0" d="M153.713,166.13c-0.054-0.935-0.106-1.87-0.161-2.805c-0.061-0.303-0.146-0.603-0.176-0.908
		c-0.026-0.278-0.148-0.399-0.411-0.477c-1.961-0.559-3.914-1.141-5.875-1.695c-0.392-0.11-0.614-0.295-0.785-0.685
		c-0.448-1.021-0.979-2.004-1.46-3.012c-0.061-0.127-0.056-0.326-0.003-0.461c0.795-1.991,1.597-3.977,2.412-5.957
		c0.099-0.242,0.069-0.393-0.109-0.582c-1.076-1.151-2.248-2.192-3.516-3.128c-0.198-0.147-0.341-0.151-0.555-0.034
		c-1.864,1.029-3.738,2.041-5.602,3.073c-0.232,0.129-0.404,0.113-0.647,0.022c-1.07-0.396-2.151-0.764-3.234-1.124
		c-0.213-0.07-0.35-0.15-0.441-0.371c-0.735-1.775-1.485-3.545-2.231-5.315c-0.015-0.036-0.031-0.071-0.047-0.107
		c-0.322-0.819-0.322-0.816-1.213-0.846c-0.142-0.004-0.282-0.034-0.422-0.053c-0.935,0.053-1.87,0.108-2.805,0.162
		c-0.306,0.06-0.605,0.149-0.913,0.172c-0.29,0.022-0.396,0.175-0.469,0.423c-0.466,1.623-0.941,3.242-1.415,4.862
		c-0.127,0.436-0.237,0.878-0.394,1.305c-0.053,0.143-0.199,0.287-0.339,0.357c-1.066,0.535-2.139,1.059-3.219,1.564
		c-0.147,0.068-0.378,0.06-0.534-0.003c-1.977-0.786-3.95-1.587-5.921-2.395c-0.222-0.09-0.38-0.098-0.548,0.093
		c-1.041,1.174-2.086,2.343-3.133,3.51c-0.169,0.189-0.178,0.356-0.048,0.592c1.031,1.86,2.044,3.734,3.073,5.598
		c0.121,0.216,0.116,0.38,0.029,0.612c-0.401,1.083-0.773,2.175-1.135,3.271c-0.072,0.216-0.163,0.347-0.378,0.437
		c-1.906,0.793-3.804,1.609-5.713,2.39c-0.395,0.161-0.588,0.359-0.545,0.796c0.024,0.24-0.038,0.487-0.062,0.731
		c0.055,0.935,0.109,1.87,0.163,2.806c0.057,0.264,0.154,0.529,0.159,0.796c0.007,0.388,0.215,0.528,0.547,0.623
		c1.586,0.451,3.168,0.914,4.751,1.374c0.424,0.124,0.844,0.263,1.271,0.367c0.229,0.058,0.33,0.187,0.427,0.391
		c0.5,1.069,1.031,2.123,1.532,3.19c0.064,0.139,0.071,0.354,0.015,0.496c-0.792,1.99-1.595,3.976-2.409,5.957
		c-0.099,0.243-0.065,0.392,0.112,0.58c1.076,1.151,2.246,2.194,3.515,3.13c0.199,0.147,0.347,0.144,0.557,0.026
		c1.865-1.027,3.736-2.041,5.6-3.07c0.214-0.119,0.38-0.12,0.614-0.034c1.093,0.404,2.203,0.769,3.301,1.166
		c0.146,0.052,0.317,0.18,0.377,0.316c0.771,1.788,1.53,3.582,2.276,5.38c0.367,0.881,0.352,0.887,1.287,0.919
		c0.129,0.004,0.256,0.035,0.383,0.053c0.935-0.055,1.87-0.109,2.805-0.162c0.292-0.06,0.581-0.147,0.875-0.167
		c0.315-0.022,0.441-0.175,0.522-0.463c0.553-1.935,1.129-3.863,1.672-5.802c0.117-0.423,0.316-0.654,0.731-0.835
		c1.011-0.439,1.981-0.965,2.976-1.443c0.11-0.053,0.28-0.071,0.394-0.026c1.902,0.764,3.804,1.534,5.7,2.314
		c0.65,0.268,0.668,0.303,1.13-0.203c0.968-1.064,1.906-2.154,2.861-3.231c0.187-0.21,0.206-0.395,0.06-0.657
		c-1.027-1.849-2.031-3.712-3.056-5.563c-0.118-0.215-0.123-0.379-0.037-0.613c0.398-1.069,0.774-2.147,1.127-3.233
		c0.085-0.263,0.209-0.406,0.458-0.51c1.762-0.733,3.519-1.477,5.279-2.217c0.036-0.015,0.07-0.035,0.108-0.043
		c0.618-0.146,0.909-0.513,0.81-1.166C153.642,166.439,153.696,166.282,153.713,166.13 M129.941,178.325
		c-6.729,0.379-12.512-4.775-12.886-11.484c-0.375-6.762,4.761-12.514,11.513-12.896c6.715-0.381,12.506,4.795,12.868,11.501
		C141.8,172.188,136.659,177.947,129.941,178.325"/>
	<path fill="#C0C0C0" d="M128.907,160.056c-3.385,0.188-5.929,3.03-5.743,6.416c0.186,3.379,3.038,5.932,6.418,5.743
		c3.383-0.189,5.928-3.032,5.741-6.417C135.136,162.415,132.29,159.866,128.907,160.056"/>
	<path fill="#FFFFFF" d="M0.5,0.951h14.437v7.276c0.821-1.084,1.724-2.12,2.705-3.109c0.981-0.988,2.072-1.863,3.277-2.629
		c1.201-0.765,2.531-1.371,3.989-1.818C26.363,0.224,28.008,0,29.845,0c5.507,0,9.764,1.678,12.772,5.034
		c3.005,3.356,4.511,7.978,4.511,13.864v32.954H32.694V23.526c0-3.409-0.76-5.984-2.279-7.719c-1.52-1.737-3.673-2.606-6.459-2.606
		s-4.985,0.869-6.599,2.606c-1.614,1.735-2.421,4.31-2.421,7.719v28.326H0.5V0.951z"/>
	<path fill="#FFFFFF" d="M82.726,52.991c-3.798,0-7.328-0.634-10.587-1.9c-3.262-1.265-6.079-3.07-8.452-5.413
		c-2.375-2.341-4.226-5.111-5.556-8.31c-1.33-3.195-1.995-6.756-1.995-10.683v-0.189c0-3.609,0.618-7.027,1.852-10.256
		c1.235-3.229,2.959-6.045,5.176-8.452c2.216-2.405,4.859-4.304,7.93-5.697C74.164,0.698,77.565,0,81.303,0
		c4.24,0,7.912,0.76,11.016,2.279C95.419,3.8,98,5.841,100.059,8.405c2.056,2.564,3.575,5.508,4.558,8.832
		c0.979,3.323,1.471,6.789,1.471,10.398c0,0.57-0.016,1.172-0.047,1.804c-0.033,0.634-0.08,1.299-0.142,1.995H70.477
		c0.696,3.292,2.137,5.777,4.321,7.455c2.183,1.678,4.89,2.516,8.12,2.516c2.405,0,4.559-0.41,6.457-1.234
		c1.899-0.821,3.86-2.152,5.888-3.989l8.262,7.312c-2.406,2.977-5.318,5.304-8.735,6.981C91.369,52.151,87.348,52.991,82.726,52.991
		 M92.034,22.412c-0.445-3.229-1.583-5.841-3.418-7.834c-1.837-1.995-4.274-2.993-7.312-2.993c-3.04,0-5.493,0.983-7.36,2.945
		c-1.869,1.963-3.087,4.591-3.656,7.882H92.034z"/>
	<path fill="#FFFFFF" d="M115.097,0.951h14.436v7.276c0.821-1.084,1.724-2.12,2.705-3.109c0.981-0.988,2.073-1.863,3.277-2.629
		c1.201-0.765,2.547-1.371,4.035-1.818C141.037,0.224,142.7,0,144.537,0c3.354,0,6.251,0.702,8.688,2.104
		c2.438,1.403,4.321,3.411,5.65,6.026c2.216-2.677,4.685-4.702,7.408-6.073C169.003,0.687,172.107,0,175.589,0
		c5.381,0,9.592,1.583,12.631,4.749c3.039,3.167,4.559,7.82,4.559,13.96v33.143h-14.435V23.526c0-3.409-0.729-5.984-2.185-7.719
		c-1.457-1.737-3.547-2.606-6.268-2.606c-2.723,0-4.858,0.869-6.41,2.606c-1.552,1.735-2.327,4.31-2.327,7.719v28.326h-14.434
		V23.526c0-3.409-0.729-5.984-2.185-7.719c-1.457-1.737-3.547-2.606-6.268-2.606c-2.723,0-4.86,0.869-6.41,2.606
		c-1.552,1.735-2.326,4.31-2.326,7.719v28.326h-14.436V0.951z"/>
	<path fill="#E65025" d="M4.531,86.909C1.844,84.266,0.5,80.873,0.5,76.725c0-4.148,1.344-7.543,4.031-10.183
		c2.689-2.641,6.026-3.961,10.015-3.961c4.399,0,7.854,1.807,10.362,5.42l-2.82,1.602c-0.788-1.2-1.859-2.164-3.212-2.891
		c-1.354-0.728-2.797-1.091-4.33-1.091c-3.028,0-5.54,1.037-7.534,3.112c-1.995,2.073-2.99,4.738-2.99,7.992
		c0,3.228,1.003,5.886,3.01,7.972c2.008,2.088,4.512,3.131,7.514,3.131c1.533,0,2.973-0.371,4.319-1.11
		c1.347-0.741,2.421-1.697,3.223-2.871l2.86,1.56c-2.641,3.642-6.108,5.463-10.402,5.463C10.557,90.87,7.22,89.549,4.531,86.909"/>
	<path fill="none" stroke="#E65025" stroke-miterlimit="10" d="M4.531,86.909C1.844,84.266,0.5,80.873,0.5,76.725
		c0-4.148,1.344-7.543,4.031-10.183c2.689-2.641,6.026-3.961,10.015-3.961c4.399,0,7.854,1.807,10.362,5.42l-2.82,1.602
		c-0.788-1.2-1.859-2.164-3.212-2.891c-1.354-0.728-2.797-1.091-4.33-1.091c-3.028,0-5.54,1.037-7.534,3.112
		c-1.995,2.073-2.99,4.738-2.99,7.992c0,3.228,1.003,5.886,3.01,7.972c2.008,2.088,4.512,3.131,7.514,3.131
		c1.533,0,2.973-0.371,4.319-1.11c1.347-0.741,2.421-1.697,3.223-2.871l2.86,1.56c-2.641,3.642-6.108,5.463-10.402,5.463
		C10.557,90.87,7.22,89.549,4.531,86.909z"/>
	<path fill="#E65025" d="M31.026,86.848c-2.522-2.681-3.783-6.055-3.783-10.123c0-4.068,1.261-7.442,3.783-10.124
		c2.522-2.681,5.779-4.02,9.771-4.02c3.992,0,7.259,1.339,9.801,4.02c2.542,2.682,3.814,6.056,3.814,10.124
		c0,4.067-1.272,7.441-3.814,10.123c-2.542,2.681-5.809,4.021-9.801,4.021C36.805,90.869,33.548,89.528,31.026,86.848
		 M30.764,76.725c0,3.227,0.915,5.885,2.744,7.972c1.829,2.088,4.259,3.131,7.29,3.131c3.004,0,5.437-1.042,7.3-3.131
		c1.861-2.087,2.793-4.745,2.793-7.972s-0.929-5.886-2.784-7.972c-1.856-2.088-4.292-3.133-7.31-3.133
		c-3.031,0-5.46,1.039-7.29,3.112C31.678,70.807,30.764,73.47,30.764,76.725"/>
	<path fill="none" stroke="#E65025" stroke-miterlimit="10" d="M31.026,86.848c-2.522-2.681-3.783-6.055-3.783-10.123
		c0-4.068,1.261-7.442,3.783-10.124c2.522-2.681,5.779-4.02,9.771-4.02c3.992,0,7.259,1.339,9.801,4.02
		c2.542,2.682,3.814,6.056,3.814,10.124c0,4.067-1.272,7.441-3.814,10.123c-2.542,2.681-5.809,4.021-9.801,4.021
		C36.805,90.869,33.548,89.528,31.026,86.848z M30.764,76.725c0,3.227,0.915,5.885,2.744,7.972c1.829,2.088,4.259,3.131,7.29,3.131
		c3.004,0,5.437-1.042,7.3-3.131c1.861-2.087,2.793-4.745,2.793-7.972s-0.929-5.886-2.784-7.972
		c-1.856-2.088-4.292-3.133-7.31-3.133c-3.031,0-5.46,1.039-7.29,3.112C31.678,70.807,30.764,73.47,30.764,76.725z"/>
	<path fill="#E65025" d="M59.509,90.369V63.042h10.983c2.534,0,4.601,0.749,6.203,2.249c1.6,1.5,2.4,3.498,2.4,5.993
		c0,2.362-0.689,4.244-2.071,5.647c-1.379,1.403-3.071,2.186-5.072,2.35l7.382,11.089h-4.021l-6.921-10.803h-5.482v10.803H59.509z
		 M62.909,76.524h7.164c1.613,0,2.934-0.494,3.959-1.48c1.027-0.987,1.542-2.241,1.542-3.76c0-1.561-0.514-2.818-1.542-3.771
		c-1.025-0.955-2.347-1.432-3.959-1.432h-7.164V76.524z"/>
	<path fill="none" stroke="#E65025" stroke-miterlimit="10" d="M59.509,90.369V63.042h10.983c2.534,0,4.601,0.749,6.203,2.249
		c1.6,1.5,2.4,3.498,2.4,5.993c0,2.362-0.689,4.244-2.071,5.647c-1.379,1.403-3.071,2.186-5.072,2.35l7.382,11.089h-4.021
		l-6.921-10.803h-5.482v10.803H59.509z M62.909,76.524h7.164c1.613,0,2.934-0.494,3.959-1.48c1.027-0.987,1.542-2.241,1.542-3.76
		c0-1.561-0.514-2.818-1.542-3.771c-1.025-0.955-2.347-1.432-3.959-1.432h-7.164V76.524z"/>
	<polygon fill="#E65025" points="84.202,90.369 84.202,63.041 102.109,63.041 102.109,66.081 87.602,66.081 87.602,74.865 
		101.807,74.865 101.807,77.905 87.602,77.905 87.602,87.327 102.109,87.327 102.109,90.369 	"/>
	<polygon fill="none" stroke="#E65025" stroke-miterlimit="10" points="84.202,90.369 84.202,63.041 102.109,63.041 102.109,66.081 
		87.602,66.081 87.602,74.865 101.807,74.865 101.807,77.905 87.602,77.905 87.602,87.327 102.109,87.327 102.109,90.369 	"/>
</g>
</svg>
