<?xml version="1.0" encoding="utf-8"?>
<!-- Generator: Adobe Illustrator 16.0.0, SVG Export Plug-In . SVG Version: 6.00 Build 0)  -->
<!DOCTYPE svg PUBLIC "-//W3C//DTD SVG 1.1//EN" "http://www.w3.org/Graphics/SVG/1.1/DTD/svg11.dtd">
<svg version="1.1" id="Layer_1" xmlns="http://www.w3.org/2000/svg" xmlns:xlink="http://www.w3.org/1999/xlink" x="0px" y="0px"
	 width="194.126px" height="298.172px" viewBox="0 0 194.126 298.172" enable-background="new 0 0 194.126 298.172"
	 xml:space="preserve">
<g>
	<path d="M193.574,130.345c-0.345-0.169-0.67-0.379-1.007-0.568c-23.245-13.076-48.121-21.049-74.647-23.876
		c-5.292-0.564-10.597-0.907-15.913-1.04c-9.492-0.239-18.955,0.231-28.38,1.378c-6.849,0.833-13.635,2.036-20.359,3.599
		c-18.211,4.233-35.436,10.983-51.693,20.211c-1.215,0.688-1.086,0.458-1.075,1.878c0.03,3.359,0.158,6.712,0.348,10.06
		c0.277,4.879,0.709,9.748,1.358,14.602c1.085,8.107,2.667,16.115,4.772,24.016c12.51,46.931,42.154,86.575,81.58,112.21
		c0.111,0.073,0.221,0.148,0.334,0.222c2.424,1.569,4.879,3.09,7.375,4.552c0.33,0.193,0.669,0.366,1.07,0.585
		c0.588-0.343,1.089-0.629,1.585-0.922c1.932-1.142,3.836-2.317,5.721-3.519c12.308-7.844,23.61-16.979,33.893-27.416
		c16.424-16.673,29.426-35.688,38.973-57.058c6.014-13.459,10.384-27.439,13.165-41.914c1.296-6.742,2.211-13.535,2.785-20.375
		c0.139-1.654,0.244-3.309,0.335-4.966c0.172-3.113,0.275-6.23,0.32-9.35c0.008-0.463-0.011-0.926,0.011-1.388
		C194.144,130.825,193.967,130.538,193.574,130.345 M184.544,152.427c-0.635,7.226-1.715,14.381-3.245,21.471
		c-1.602,7.413-3.664,14.636-6.165,21.675c-0.072,0.196-0.14,0.396-0.21,0.591c-0.271,0.755-0.552,1.506-0.834,2.257
		c-0.248,0.662-0.492,1.326-0.748,1.985c-0.016,0.038-0.03,0.076-0.045,0.114c-14.594,37.616-41.71,68.695-76.082,87.818
		c-0.099,0.059-0.193,0.12-0.292,0.18c-0.006-0.004-0.015-0.009-0.021-0.012c-1.666-0.821-5.318-3.065-9.16-5.628
		c-29.797-21.259-52.92-49.817-66.092-82.711c-2.788-6.961-5.135-14.114-7-21.436c-3.438-13.498-5.255-27.562-5.255-42.014
		c24.544-14.201,51.769-21.984,79.253-23.334c0.162-0.008,0.325-0.015,0.487-0.021c1.128-0.054,2.256-0.092,3.384-0.122
		c0.287-0.008,0.573-0.018,0.86-0.024c1.189-0.025,2.378-0.039,3.567-0.042c0.14,0,0.279-0.003,0.419-0.003
		c1.383,0,2.765,0.017,4.146,0.049c0.008,0,0.019,0,0.026,0c0.82,0.021,1.639,0.058,2.458,0.088
		c4.601,0.205,10.044,0.647,14.438,1.13c2.311,0.279,4.615,0.614,6.917,0.983c11.061,1.78,21.983,4.622,32.609,8.522
		c9.338,3.429,18.445,7.678,27.211,12.746c0.019,0.32,0.05,0.641,0.05,0.963C185.218,142.587,184.976,147.511,184.544,152.427"/>
	<path fill="#209DD8" d="M96.947,113.173c-1.189,0.002-2.378,0.016-3.567,0.042c-0.287,0.006-0.573,0.017-0.86,0.024
		c-1.128,0.03-2.257,0.068-3.384,0.12c-0.163,0.009-0.325,0.017-0.487,0.023c-27.485,1.349-54.709,9.134-79.254,23.334
		c0,14.452,1.818,28.516,5.256,42.015c1.865,7.321,4.212,14.474,6.999,21.435c13.173,32.894,36.296,61.452,66.094,82.711
		c3.841,2.562,7.495,4.807,9.16,5.629c0.006,0.002,0.014,0.007,0.02,0.011c0.099-0.06,0.193-0.121,0.291-0.18
		c0.032-0.018,0.062-0.036,0.092-0.053V113.17C97.188,113.171,97.067,113.173,96.947,113.173"/>
	<path fill="#0F86AA" d="M185.169,136.688c-8.765-5.067-17.871-9.316-27.21-12.746c-10.626-3.9-21.548-6.742-32.609-8.522
		c-2.302-0.369-4.605-0.704-6.915-0.983c-4.396-0.482-9.838-0.925-14.438-1.13c-0.82-0.03-1.64-0.067-2.459-0.088
		c-0.009,0-0.018,0-0.026,0c-1.382-0.032-2.763-0.049-4.147-0.049c-0.018,0-0.038,0-0.056,0v175.114
		c34.328-19.126,61.407-50.182,75.988-87.765c0.017-0.038,0.031-0.076,0.046-0.114c0.255-0.659,0.5-1.323,0.748-1.985
		c0.282-0.751,0.562-1.502,0.835-2.257c0.069-0.195,0.138-0.395,0.207-0.591c2.502-7.039,4.565-14.262,6.167-21.675
		c1.531-7.09,2.609-14.245,3.245-21.471c0.433-4.916,0.673-9.84,0.676-14.775C185.22,137.329,185.189,137.009,185.169,136.688"/>
	<g opacity="0.1">
		<g>
			<defs>
				<rect id="SVGID_1_" x="0.49" y="104.799" width="193.637" height="193.373"/>
			</defs>
			<clipPath id="SVGID_2_">
				<use xlink:href="#SVGID_1_"  overflow="visible"/>
			</clipPath>
			<path clip-path="url(#SVGID_2_)" fill="#FFFFFF" d="M97.337,298.172c-0.4-0.219-0.741-0.392-1.071-0.585
				c-43.263-25.336-75.975-67.04-89.288-116.982c-2.106-7.901-3.687-15.909-4.772-24.017c-1.095-8.185-1.636-16.406-1.707-24.662
				c-0.012-1.419-0.141-1.188,1.075-1.878c16.256-9.229,33.481-15.979,51.694-20.21c6.724-1.562,13.508-2.766,20.359-3.6
				c9.425-1.145,18.887-1.616,28.379-1.378c5.316,0.134,10.621,0.476,15.913,1.041c26.525,2.828,51.402,10.8,74.648,23.877
				c0.336,0.188,0.661,0.398,1.006,0.567c0.394,0.193,0.571,0.48,0.55,0.92c-0.021,0.461-0.002,0.923-0.01,1.387
				c-0.068,4.779-0.258,9.553-0.656,14.316c-0.572,6.841-1.489,13.634-2.784,20.375c-2.782,14.476-7.151,28.456-13.166,41.915
				c-9.546,21.369-22.548,40.385-38.972,57.058c-11.856,12.036-25.064,22.344-39.613,30.935
				C98.425,297.543,97.925,297.829,97.337,298.172 M9.395,136.649c0,0.455,0,0.8,0,1.146c0.006,6.788,0.449,13.551,1.26,20.29
				c0.732,6.086,1.79,12.116,3.16,18.091c0.241,1.054,0.568,2.061,1.031,3.047c8.295,17.654,27.515,27.042,46.575,22.728
				c14.532-3.289,26.305-14.489,30.349-28.825c1.118-3.964,1.5-8.017,1.625-12.106c0.083-2.7,0.337-5.38,0.844-8.034
				c3.1-16.241,13.962-29.659,29.173-36.025c0.853-0.356,1.723-0.671,2.581-1.013c0.12-0.049,0.317-0.064,0.259-0.288
				c-2.389-0.852-16.745-2.283-25.354-2.454c-18.474-0.363-36.577,2.063-54.281,7.37C33.613,124.472,21.233,129.816,9.395,136.649
				 M145.721,247.411c0.508-0.24,0.706-0.631,0.961-0.947c3.725-4.624,7.205-9.429,10.431-14.415
				c11.592-17.915,19.68-37.289,24.187-58.151c1.531-7.09,2.609-14.245,3.245-21.471c0.433-4.916,0.673-9.84,0.675-14.775
				c0.001-0.341-0.033-0.68-0.053-1.018c-0.479-0.282-0.906-0.543-1.338-0.788c-3.794-2.14-7.654-4.151-11.602-5.992
				c-5.691-2.656-11.464-5.113-17.464-6.995c-7.305-2.291-14.684-2.544-22.128-0.75c-21.188,5.109-34.729,25.849-30.718,47.264
				c2.225,11.875,8.594,21.033,18.81,27.502c0.684,0.432,1.384,0.84,2.071,1.263c7.466,4.567,13.314,10.685,17.491,18.369
				c4.396,8.079,6.372,16.727,5.862,25.921C146.063,244.04,145.876,245.647,145.721,247.411 M97.402,288.736
				c0.379-0.214,0.815-0.452,1.243-0.704c11.645-6.849,22.336-14.961,32.144-24.245c0.626-0.592,1.109-1.277,1.497-2.037
				c0.627-1.235,1.269-2.467,1.869-3.717c4.641-9.646,5.635-19.641,2.556-29.914c-5.984-19.972-25.241-31.433-44.524-29.023
				c-5.51,0.688-10.665,2.442-15.473,5.144c-9.189,5.163-18.988,7.288-29.473,6.286c-5.145-0.491-10.075-1.806-14.805-3.882
				c-3.724-1.635-7.181-3.714-10.392-6.21c-0.224-0.174-0.476-0.312-0.892-0.581c0.138,0.458,0.195,0.712,0.289,0.952
				c4.119,10.507,9.221,20.515,15.285,30.032c6.547,10.275,14.082,19.766,22.597,28.479c8.515,8.712,17.833,16.46,27.949,23.249
				C91.722,285.55,96.034,288.183,97.402,288.736"/>
		</g>
	</g>
	<path fill="#FFFFFF" d="M193.574,130.345c-0.345-0.169-0.67-0.379-1.007-0.568c-23.245-13.076-48.121-21.049-74.647-23.876
		c-5.292-0.564-10.597-0.907-15.913-1.04c-9.492-0.239-18.955,0.231-28.38,1.378c-6.849,0.833-13.635,2.036-20.359,3.599
		c-18.211,4.233-35.436,10.983-51.693,20.211c-1.215,0.688-1.086,0.458-1.075,1.878c0.03,3.359,0.158,6.712,0.348,10.06
		c0.277,4.879,0.709,9.748,1.358,14.602c1.085,8.107,2.667,16.115,4.772,24.016c12.51,46.931,42.154,86.575,81.58,112.21
		c0.111,0.073,0.221,0.148,0.334,0.222c2.424,1.569,4.879,3.09,7.375,4.552c0.33,0.193,0.669,0.366,1.07,0.585
		c0.588-0.343,1.089-0.629,1.585-0.922c1.932-1.142,3.836-2.317,5.721-3.519c12.308-7.844,23.61-16.979,33.893-27.416
		c16.424-16.673,29.426-35.688,38.973-57.058c6.014-13.459,10.384-27.439,13.165-41.914c1.296-6.742,2.211-13.535,2.785-20.375
		c0.139-1.654,0.244-3.309,0.335-4.966c0.172-3.113,0.275-6.23,0.32-9.35c0.008-0.463-0.011-0.926,0.011-1.388
		C194.144,130.825,193.967,130.538,193.574,130.345 M184.544,152.427c-0.635,7.226-1.715,14.381-3.245,21.471
		c-1.602,7.413-3.664,14.636-6.165,21.675c-0.072,0.196-0.14,0.396-0.21,0.591c-0.271,0.755-0.552,1.506-0.834,2.257
		c-0.248,0.662-0.492,1.326-0.748,1.985c-0.016,0.038-0.03,0.076-0.045,0.114c-14.594,37.616-41.71,68.695-76.082,87.818
		c-0.099,0.059-0.193,0.12-0.292,0.18c-0.006-0.004-0.015-0.009-0.021-0.012c-1.666-0.821-5.318-3.065-9.16-5.628
		c-29.797-21.259-52.92-49.817-66.092-82.711c-2.788-6.961-5.135-14.114-7-21.436c-3.438-13.498-5.255-27.562-5.255-42.014
		c24.544-14.201,51.769-21.984,79.253-23.334c0.162-0.008,0.325-0.015,0.487-0.021c1.128-0.054,2.256-0.092,3.384-0.122
		c0.287-0.008,0.573-0.018,0.86-0.024c1.189-0.025,2.378-0.039,3.567-0.042c0.14,0,0.279-0.003,0.419-0.003
		c1.383,0,2.765,0.017,4.146,0.049c0.008,0,0.019,0,0.026,0c0.82,0.021,1.639,0.058,2.458,0.088
		c4.601,0.205,10.044,0.647,14.438,1.13c2.311,0.279,4.615,0.614,6.917,0.983c11.061,1.78,21.983,4.622,32.609,8.522
		c9.338,3.429,18.445,7.678,27.211,12.746c0.019,0.32,0.05,0.641,0.05,0.963C185.218,142.587,184.976,147.511,184.544,152.427"/>
	<path fill="#FFFFFF" d="M68.389,187.983h15.833v-16.261H68.389V187.983z M72.784,176.331h7.044v7.044h-7.044V176.331z"/>
	<path fill="#FFFFFF" d="M68.389,166.378h15.833v-16.26H68.389V166.378z M72.784,154.726h7.044v7.044h-7.044V154.726z"/>
	<path fill="#FFFFFF" d="M68.389,209.596h15.833v-16.261H68.389V209.596z M72.784,197.943h7.044v7.044h-7.044V197.943z"/>
	<path fill="#FFFFFF" d="M68.389,230.899h15.833v-16.26H68.389V230.899z M72.784,219.247h7.044v7.045h-7.044V219.247z"/>
	<path fill="#C0C0C0" d="M134.392,223.714v9.154c0,3.631-2.942,6.573-6.572,6.573H97.742v4.828h34.41
		c3.631,0,6.573-2.941,6.573-6.572v-14.074c-0.934,0.08-1.875,0.129-2.829,0.129C135.392,223.752,134.89,223.736,134.392,223.714"/>
	<path fill="#FFFFFF" d="M67.664,239.441c-3.63,0-6.572-2.942-6.572-6.573v-84.72c0-3.629,2.942-6.573,6.572-6.573h10.071
		c0,1.704,1.38,3.085,3.085,3.085h16.922v-4.802c-1.836,0-3.343-1.352-3.613-3.112c-0.029-0.183-0.057-0.366-0.057-0.557
		c0-2.026,1.644-3.67,3.67-3.67v-4.801c-4.679,0-8.471,3.792-8.471,8.471c0,0.188,0.016,0.372,0.027,0.557H63.332
		c-3.63,0-6.573,2.943-6.573,6.573v94.379c0,3.63,2.943,6.572,6.573,6.572h34.41v-4.829H67.664z"/>
	<path fill="#C0C0C0" d="M101.411,136.189c0,0.19-0.028,0.374-0.055,0.557c-0.271,1.76-1.778,3.112-3.615,3.112v4.802h16.922
		c1.705,0,3.085-1.38,3.086-3.085h10.071c3.63,0,6.571,2.944,6.571,6.573v9.155c0.501-0.022,1.001-0.038,1.505-0.038
		c0.953,0,1.896,0.049,2.828,0.128V143.32c0-3.631-2.942-6.574-6.573-6.574h-25.966c0.011-0.184,0.028-0.369,0.028-0.557
		c0-4.679-3.793-8.471-8.473-8.471v4.802C99.769,132.52,101.411,134.163,101.411,136.189"/>
	<path fill="#C0C0C0" d="M136.157,162.366c-15.572,0-28.195,12.623-28.195,28.195c0,15.573,12.623,28.197,28.195,28.197
		s28.195-12.624,28.195-28.197C164.352,174.989,151.729,162.366,136.157,162.366 M131.565,203.616l-4.782-4.781l-7.36-7.359
		l4.782-4.782l7.36,7.359l16.544-16.545l4.782,4.781L131.565,203.616z"/>
	<path fill="#FFFFFF" d="M0.5,0.951h14.436v7.276c0.822-1.084,1.724-2.12,2.706-3.109c0.98-0.988,2.072-1.863,3.276-2.629
		c1.202-0.765,2.531-1.371,3.989-1.818C26.363,0.224,28.009,0,29.844,0c5.508,0,9.765,1.678,12.773,5.034
		c3.006,3.356,4.511,7.978,4.511,13.864v32.953H32.693V23.526c0-3.409-0.759-5.984-2.279-7.719c-1.52-1.737-3.673-2.606-6.458-2.606
		c-2.786,0-4.986,0.869-6.6,2.606c-1.614,1.735-2.421,4.31-2.421,7.719v28.325H0.5V0.951z"/>
	<path fill="#FFFFFF" d="M82.726,52.991c-3.798,0-7.328-0.634-10.588-1.9c-3.262-1.265-6.078-3.07-8.452-5.413
		c-2.374-2.341-4.226-5.111-5.555-8.31c-1.33-3.195-1.995-6.756-1.995-10.683v-0.189c0-3.609,0.618-7.027,1.852-10.256
		c1.235-3.229,2.958-6.045,5.175-8.452c2.216-2.405,4.859-4.304,7.93-5.697C74.163,0.698,77.564,0,81.302,0
		c4.24,0,7.913,0.76,11.015,2.279C95.418,3.8,98,5.841,100.058,8.405c2.056,2.564,3.575,5.508,4.558,8.832
		c0.979,3.323,1.471,6.789,1.471,10.398c0,0.57-0.016,1.172-0.047,1.804c-0.032,0.634-0.079,1.299-0.142,1.995H70.476
		c0.696,3.292,2.137,5.777,4.321,7.455c2.185,1.678,4.89,2.516,8.12,2.516c2.404,0,4.559-0.41,6.457-1.234
		c1.899-0.821,3.86-2.152,5.888-3.989l8.261,7.312c-2.406,2.977-5.317,5.304-8.736,6.98C91.368,52.151,87.347,52.991,82.726,52.991
		 M92.033,22.412c-0.444-3.229-1.584-5.841-3.418-7.834c-1.837-1.995-4.273-2.993-7.312-2.993c-3.04,0-5.494,0.983-7.36,2.945
		c-1.869,1.963-3.087,4.591-3.656,7.882H92.033z"/>
	<path fill="#FFFFFF" d="M115.096,0.951h14.436v7.276c0.821-1.084,1.724-2.12,2.705-3.109c0.981-0.988,2.073-1.863,3.277-2.629
		c1.201-0.765,2.547-1.371,4.035-1.818c1.486-0.446,3.149-0.67,4.986-0.67c3.354,0,6.251,0.702,8.688,2.104
		c2.438,1.403,4.321,3.411,5.65,6.026c2.216-2.677,4.685-4.702,7.407-6.073C169.001,0.687,172.105,0,175.587,0
		c5.381,0,9.592,1.583,12.631,4.749c3.039,3.167,4.559,7.82,4.559,13.96v33.142h-14.435V23.526c0-3.409-0.729-5.984-2.185-7.719
		c-1.457-1.737-3.546-2.606-6.268-2.606c-2.723,0-4.858,0.869-6.409,2.606c-1.552,1.735-2.327,4.31-2.327,7.719v28.325H146.72
		V23.526c0-3.409-0.729-5.984-2.185-7.719c-1.457-1.737-3.547-2.606-6.268-2.606c-2.723,0-4.86,0.869-6.41,2.606
		c-1.552,1.735-2.326,4.31-2.326,7.719v28.325h-14.436V0.951z"/>
	<polygon fill="#209DD8" points="0.5,90.369 0.5,63.04 18.406,63.04 18.406,66.081 3.9,66.081 3.9,74.864 18.105,74.864 
		18.105,77.905 3.9,77.905 3.9,90.369 	"/>
	<polygon fill="none" stroke="#209DD8" stroke-miterlimit="10" points="0.5,90.369 0.5,63.04 18.406,63.04 18.406,66.081 
		3.9,66.081 3.9,74.864 18.105,74.864 18.105,77.905 3.9,77.905 3.9,90.369 	"/>
	<polygon fill="#209DD8" points="23.066,90.369 23.066,63.04 40.973,63.04 40.973,66.081 26.467,66.081 26.467,74.864 
		40.672,74.864 40.672,77.905 26.467,77.905 26.467,87.327 40.973,87.327 40.973,90.369 	"/>
	<polygon fill="none" stroke="#209DD8" stroke-miterlimit="10" points="23.066,90.369 23.066,63.04 40.973,63.04 40.973,66.081 
		26.467,66.081 26.467,74.864 40.672,74.864 40.672,77.905 26.467,77.905 26.467,87.327 40.973,87.327 40.973,90.369 	"/>
	<path fill="#209DD8" d="M43.533,90.368l11.024-27.328h4.221l10.983,27.328h-3.88l-2.42-6.062H49.855l-2.421,6.062H43.533z
		 M50.876,81.266H62.48l-5.823-14.745L50.876,81.266z"/>
	<path fill="none" stroke="#209DD8" stroke-miterlimit="10" d="M43.533,90.368l11.024-27.328h4.221l10.983,27.328h-3.88l-2.42-6.062
		H49.855l-2.421,6.062H43.533z M50.876,81.266H62.48l-5.823-14.745L50.876,81.266z"/>
	<polygon fill="#209DD8" points="68.701,66.081 68.701,63.04 89.427,63.04 89.427,66.081 80.745,66.081 80.745,90.369 
		77.344,90.369 77.344,66.081 	"/>
	<polygon fill="none" stroke="#209DD8" stroke-miterlimit="10" points="68.701,66.081 68.701,63.04 89.427,63.04 89.427,66.081 
		80.745,66.081 80.745,90.369 77.344,90.369 77.344,66.081 	"/>
	<path fill="#209DD8" d="M93.928,79.765V63.04h3.401v16.625c0,2.534,0.662,4.528,1.984,5.982c1.321,1.454,3.229,2.181,5.718,2.181
		c2.491,0,4.408-0.723,5.751-2.17c1.341-1.448,2.014-3.444,2.014-5.993V63.04h3.399v16.685c0,3.469-0.955,6.193-2.863,8.172
		c-1.908,1.981-4.672,2.972-8.289,2.972c-3.593,0-6.343-0.991-8.251-2.972C94.883,85.917,93.928,83.207,93.928,79.765"/>
	<path fill="none" stroke="#209DD8" stroke-miterlimit="10" d="M93.928,79.765V63.04h3.401v16.625c0,2.534,0.662,4.528,1.984,5.982
		c1.321,1.454,3.229,2.181,5.718,2.181c2.491,0,4.408-0.723,5.751-2.17c1.341-1.448,2.014-3.444,2.014-5.993V63.04h3.399v16.685
		c0,3.469-0.955,6.193-2.863,8.172c-1.908,1.981-4.672,2.972-8.289,2.972c-3.593,0-6.343-0.991-8.251-2.972
		C94.883,85.917,93.928,83.207,93.928,79.765z"/>
	<path fill="#209DD8" d="M122.639,90.369V63.041h10.982c2.534,0,4.601,0.749,6.203,2.249c1.6,1.5,2.4,3.498,2.4,5.993
		c0,2.362-0.69,4.244-2.071,5.647c-1.38,1.403-3.072,2.186-5.071,2.35l7.381,11.089h-4.021l-6.921-10.803h-5.483v10.803H122.639z
		 M126.039,76.524h7.164c1.614,0,2.935-0.494,3.96-1.48c1.027-0.987,1.541-2.241,1.541-3.76c0-1.561-0.514-2.818-1.541-3.771
		c-1.025-0.955-2.346-1.432-3.96-1.432h-7.164V76.524z"/>
	<path fill="none" stroke="#209DD8" stroke-miterlimit="10" d="M122.639,90.369V63.041h10.982c2.534,0,4.601,0.749,6.203,2.249
		c1.6,1.5,2.4,3.498,2.4,5.993c0,2.362-0.69,4.244-2.071,5.647c-1.38,1.403-3.072,2.186-5.071,2.35l7.381,11.089h-4.021
		l-6.921-10.803h-5.483v10.803H122.639z M126.039,76.524h7.164c1.614,0,2.935-0.494,3.96-1.48c1.027-0.987,1.541-2.241,1.541-3.76
		c0-1.561-0.514-2.818-1.541-3.771c-1.025-0.955-2.346-1.432-3.96-1.432h-7.164V76.524z"/>
	<polygon fill="#209DD8" points="147.585,90.369 147.585,63.04 165.493,63.04 165.493,66.081 150.986,66.081 150.986,74.864 
		165.19,74.864 165.19,77.905 150.986,77.905 150.986,87.327 165.493,87.327 165.493,90.369 	"/>
	<polygon fill="none" stroke="#209DD8" stroke-miterlimit="10" points="147.585,90.369 147.585,63.04 165.493,63.04 165.493,66.081 
		150.986,66.081 150.986,74.864 165.19,74.864 165.19,77.905 150.986,77.905 150.986,87.327 165.493,87.327 165.493,90.369 	"/>
	<path fill="#209DD8" d="M169.251,86.505l2.041-2.626c2.267,2.632,5.122,3.949,8.562,3.949c2.215,0,3.842-0.476,4.881-1.429
		c1.042-0.952,1.562-2.06,1.562-3.326c0-1.278-0.555-2.297-1.663-3.055c-1.108-0.76-2.456-1.36-4.043-1.801
		c-1.585-0.442-3.176-0.885-4.769-1.328c-1.594-0.443-2.943-1.217-4.05-2.325c-1.107-1.104-1.661-2.57-1.661-4.393
		c0-2.232,0.887-4.054,2.663-5.47c1.771-1.414,4.026-2.121,6.76-2.121c4.015,0,7.236,1.274,9.663,3.823l-2.04,2.504
		c-1.934-2.19-4.568-3.287-7.902-3.287c-1.641,0-2.989,0.408-4.042,1.224s-1.58,1.87-1.58,3.163c0,0.97,0.401,1.772,1.205,2.405
		c0.802,0.633,1.792,1.121,2.967,1.462c1.175,0.34,2.473,0.718,3.892,1.13c1.418,0.412,2.722,0.867,3.912,1.363
		c1.188,0.497,2.188,1.303,2.997,2.416c0.807,1.112,1.212,2.458,1.212,4.035c0,2.217-0.827,4.112-2.48,5.688
		c-1.654,1.575-4.188,2.363-7.602,2.363C175.307,90.868,171.813,89.415,169.251,86.505"/>
	<path fill="none" stroke="#209DD8" stroke-miterlimit="10" d="M169.251,86.505l2.041-2.626c2.267,2.632,5.122,3.949,8.562,3.949
		c2.215,0,3.842-0.476,4.881-1.429c1.042-0.952,1.562-2.06,1.562-3.326c0-1.278-0.555-2.297-1.663-3.055
		c-1.108-0.76-2.456-1.36-4.043-1.801c-1.585-0.442-3.176-0.885-4.769-1.328c-1.594-0.443-2.943-1.217-4.05-2.325
		c-1.107-1.104-1.661-2.57-1.661-4.393c0-2.232,0.887-4.054,2.663-5.47c1.771-1.414,4.026-2.121,6.76-2.121
		c4.015,0,7.236,1.274,9.663,3.823l-2.04,2.504c-1.934-2.19-4.568-3.287-7.902-3.287c-1.641,0-2.989,0.408-4.042,1.224
		s-1.58,1.87-1.58,3.163c0,0.97,0.401,1.772,1.205,2.405c0.802,0.633,1.792,1.121,2.967,1.462c1.175,0.34,2.473,0.718,3.892,1.13
		c1.418,0.412,2.722,0.867,3.912,1.363c1.188,0.497,2.188,1.303,2.997,2.416c0.807,1.112,1.212,2.458,1.212,4.035
		c0,2.217-0.827,4.112-2.48,5.688c-1.654,1.575-4.188,2.363-7.602,2.363C175.307,90.868,171.813,89.415,169.251,86.505z"/>
</g>
</svg>
