<svg xmlns="http://www.w3.org/2000/svg" xmlns:xlink="http://www.w3.org/1999/xlink" width="194.126" height="298.172" viewBox="0 0 194.126 298.172"><path d="M193.574 130.345c-.345-.169-.67-.379-1.007-.568-23.245-13.076-48.121-21.049-74.647-23.876a196.464 196.464 0 0 0-15.913-1.04 194.195 194.195 0 0 0-28.38 1.378 192.52 192.52 0 0 0-20.359 3.599c-18.211 4.233-35.436 10.983-51.693 20.211-1.215.688-1.086.458-1.075 1.878.03 3.359.158 6.712.348 10.06.277 4.879.709 9.748 1.358 14.602a192.247 192.247 0 0 0 4.772 24.016c12.51 46.931 42.154 86.575 81.58 112.21l.334.222a194.307 194.307 0 0 0 7.375 4.552c.33.193.669.366 1.07.585.588-.343 1.089-.629 1.585-.922a198.584 198.584 0 0 0 5.721-3.519 193.184 193.184 0 0 0 33.893-27.416c16.424-16.673 29.426-35.688 38.973-57.058 6.014-13.459 10.384-27.439 13.165-41.914a193.606 193.606 0 0 0 2.785-20.375c.139-1.654.244-3.309.335-4.966.172-3.113.275-6.23.32-9.35.008-.463-.011-.926.011-1.388.019-.441-.158-.728-.551-.921m-9.03 22.082a173.795 173.795 0 0 1-3.245 21.471 175.222 175.222 0 0 1-6.165 21.675c-.072.196-.14.396-.21.591-.271.755-.552 1.506-.834 2.257-.248.662-.492 1.326-.748 1.985l-.045.114c-14.594 37.616-41.71 68.695-76.082 87.818-.099.059-.193.12-.292.18a.225.225 0 0 0-.021-.012c-1.666-.821-5.318-3.065-9.16-5.628-29.797-21.259-52.92-49.817-66.092-82.711a169.947 169.947 0 0 1-12.255-63.45c24.544-14.201 51.769-21.984 79.253-23.334a159.363 159.363 0 0 1 3.871-.143c.287-.008.573-.018.86-.024 1.189-.025 2.378-.039 3.567-.042.14 0 .279-.003.419-.003 1.383 0 2.765.017 4.146.049h.026c.82.021 1.639.058 2.458.088 4.601.205 10.044.647 14.438 1.13 2.311.279 4.615.614 6.917.983a175.619 175.619 0 0 1 32.609 8.522 174.604 174.604 0 0 1 27.211 12.746c.019.32.05.641.05.963a169.495 169.495 0 0 1-.676 14.775"/><path fill="#209DD8" d="M96.947 113.173c-1.189.002-2.378.016-3.567.042-.287.006-.573.017-.86.024a173.559 173.559 0 0 0-3.871.143c-27.485 1.349-54.709 9.134-79.254 23.334 0 14.452 1.818 28.516 5.256 42.015a171.69 171.69 0 0 0 6.999 21.435c13.173 32.894 36.296 61.452 66.094 82.711 3.841 2.562 7.495 4.807 9.16 5.629a.1.1 0 0 1 .02.011c.099-.06.193-.121.291-.18l.092-.053V113.17l-.36.003"/><path fill="#0F86AA" d="M185.169 136.688a174.691 174.691 0 0 0-27.21-12.746 175.619 175.619 0 0 0-32.609-8.522 180.236 180.236 0 0 0-6.915-.983c-4.396-.482-9.838-.925-14.438-1.13-.82-.03-1.64-.067-2.459-.088h-.026a179.053 179.053 0 0 0-4.147-.049h-.056v175.114c34.328-19.126 61.407-50.182 75.988-87.765.017-.038.031-.076.046-.114.255-.659.5-1.323.748-1.985.282-.751.562-1.502.835-2.257l.207-.591a175.056 175.056 0 0 0 6.167-21.675 173.795 173.795 0 0 0 3.245-21.471c.433-4.916.673-9.84.676-14.775-.001-.322-.032-.642-.052-.963"/><g opacity=".1"><defs><path id="a" d="M.49 104.799h193.637v193.373H.49z"/></defs><clipPath id="b"><use xlink:href="#a" overflow="visible"/></clipPath><path clip-path="url(#b)" fill="#FFF" d="M97.337 298.172c-.4-.219-.741-.392-1.071-.585-43.263-25.336-75.975-67.04-89.288-116.982a192.046 192.046 0 0 1-4.772-24.017C1.111 148.403.57 140.182.499 131.926c-.012-1.419-.141-1.188 1.075-1.878 16.256-9.229 33.481-15.979 51.694-20.21a192.946 192.946 0 0 1 20.359-3.6 194.6 194.6 0 0 1 28.379-1.378c5.316.134 10.621.476 15.913 1.041 26.525 2.828 51.402 10.8 74.648 23.877.336.188.661.398 1.006.567.394.193.571.48.55.92-.021.461-.002.923-.01 1.387-.068 4.779-.258 9.553-.656 14.316a193.27 193.27 0 0 1-2.784 20.375c-2.782 14.476-7.151 28.456-13.166 41.915-9.546 21.369-22.548 40.385-38.972 57.058a193.392 193.392 0 0 1-39.613 30.935c-.497.292-.997.578-1.585.921M9.395 136.649v1.146c.006 6.788.449 13.551 1.26 20.29a173.726 173.726 0 0 0 3.16 18.091 14.905 14.905 0 0 0 1.031 3.047c8.295 17.654 27.515 27.042 46.575 22.728 14.532-3.289 26.305-14.489 30.349-28.825 1.118-3.964 1.5-8.017 1.625-12.106.083-2.7.337-5.38.844-8.034 3.1-16.241 13.962-29.659 29.173-36.025.853-.356 1.723-.671 2.581-1.013.12-.049.317-.064.259-.288-2.389-.852-16.745-2.283-25.354-2.454-18.474-.363-36.577 2.063-54.281 7.37a174.068 174.068 0 0 0-37.222 16.073m136.326 110.762c.508-.24.706-.631.961-.947a171.302 171.302 0 0 0 10.431-14.415c11.592-17.915 19.68-37.289 24.187-58.151a173.795 173.795 0 0 0 3.245-21.471c.433-4.916.673-9.84.675-14.775.001-.341-.033-.68-.053-1.018-.479-.282-.906-.543-1.338-.788a169.055 169.055 0 0 0-11.602-5.992c-5.691-2.656-11.464-5.113-17.464-6.995-7.305-2.291-14.684-2.544-22.128-.75-21.188 5.109-34.729 25.849-30.718 47.264 2.225 11.875 8.594 21.033 18.81 27.502.684.432 1.384.84 2.071 1.263 7.466 4.567 13.314 10.685 17.491 18.369 4.396 8.079 6.372 16.727 5.862 25.921-.088 1.612-.275 3.219-.43 4.983m-48.319 41.325c.379-.214.815-.452 1.243-.704 11.645-6.849 22.336-14.961 32.144-24.245a7.368 7.368 0 0 0 1.497-2.037c.627-1.235 1.269-2.467 1.869-3.717 4.641-9.646 5.635-19.641 2.556-29.914-5.984-19.972-25.241-31.433-44.524-29.023-5.51.688-10.665 2.442-15.473 5.144-9.189 5.163-18.988 7.288-29.473 6.286-5.145-.491-10.075-1.806-14.805-3.882a48.931 48.931 0 0 1-10.392-6.21c-.224-.174-.476-.312-.892-.581.138.458.195.712.289.952a173.845 173.845 0 0 0 15.285 30.032 175.815 175.815 0 0 0 22.597 28.479 176.534 176.534 0 0 0 27.949 23.249c4.45 2.985 8.762 5.618 10.13 6.171"/></g><path fill="#FFF" d="M193.574 130.345c-.345-.169-.67-.379-1.007-.568-23.245-13.076-48.121-21.049-74.647-23.876a196.464 196.464 0 0 0-15.913-1.04 194.195 194.195 0 0 0-28.38 1.378 192.52 192.52 0 0 0-20.359 3.599c-18.211 4.233-35.436 10.983-51.693 20.211-1.215.688-1.086.458-1.075 1.878.03 3.359.158 6.712.348 10.06.277 4.879.709 9.748 1.358 14.602a192.247 192.247 0 0 0 4.772 24.016c12.51 46.931 42.154 86.575 81.58 112.21l.334.222a194.307 194.307 0 0 0 7.375 4.552c.33.193.669.366 1.07.585.588-.343 1.089-.629 1.585-.922a198.584 198.584 0 0 0 5.721-3.519 193.184 193.184 0 0 0 33.893-27.416c16.424-16.673 29.426-35.688 38.973-57.058 6.014-13.459 10.384-27.439 13.165-41.914a193.606 193.606 0 0 0 2.785-20.375c.139-1.654.244-3.309.335-4.966.172-3.113.275-6.23.32-9.35.008-.463-.011-.926.011-1.388.019-.441-.158-.728-.551-.921m-9.03 22.082a173.795 173.795 0 0 1-3.245 21.471 175.222 175.222 0 0 1-6.165 21.675c-.072.196-.14.396-.21.591-.271.755-.552 1.506-.834 2.257-.248.662-.492 1.326-.748 1.985l-.045.114c-14.594 37.616-41.71 68.695-76.082 87.818-.099.059-.193.12-.292.18a.225.225 0 0 0-.021-.012c-1.666-.821-5.318-3.065-9.16-5.628-29.797-21.259-52.92-49.817-66.092-82.711a169.947 169.947 0 0 1-12.255-63.45c24.544-14.201 51.769-21.984 79.253-23.334a159.363 159.363 0 0 1 3.871-.143c.287-.008.573-.018.86-.024 1.189-.025 2.378-.039 3.567-.042.14 0 .279-.003.419-.003 1.383 0 2.765.017 4.146.049h.026c.82.021 1.639.058 2.458.088 4.601.205 10.044.647 14.438 1.13 2.311.279 4.615.614 6.917.983a175.619 175.619 0 0 1 32.609 8.522 174.604 174.604 0 0 1 27.211 12.746c.019.32.05.641.05.963a169.495 169.495 0 0 1-.676 14.775"/><path fill="#FFF" d="M68.389 187.983h15.833v-16.261H68.389v16.261zm4.395-11.652h7.044v7.044h-7.044v-7.044zm-4.395-9.953h15.833v-16.26H68.389v16.26zm4.395-11.652h7.044v7.044h-7.044v-7.044zm-4.395 54.87h15.833v-16.261H68.389v16.261zm4.395-11.653h7.044v7.044h-7.044v-7.044zm-4.395 32.956h15.833v-16.26H68.389v16.26zm4.395-11.652h7.044v7.045h-7.044v-7.045z"/><path fill="#C0C0C0" d="M134.392 223.714v9.154a6.572 6.572 0 0 1-6.572 6.573H97.742v4.828h34.41a6.571 6.571 0 0 0 6.573-6.572v-14.074c-.934.08-1.875.129-2.829.129-.504 0-1.006-.016-1.504-.038"/><path fill="#FFF" d="M67.664 239.441a6.572 6.572 0 0 1-6.572-6.573v-84.72a6.573 6.573 0 0 1 6.572-6.573h10.071a3.084 3.084 0 0 0 3.085 3.085h16.922v-4.802a3.66 3.66 0 0 1-3.613-3.112 3.528 3.528 0 0 1-.057-.557 3.671 3.671 0 0 1 3.67-3.67v-4.801a8.47 8.47 0 0 0-8.471 8.471c0 .188.016.372.027.557H63.332a6.573 6.573 0 0 0-6.573 6.573v94.379a6.572 6.572 0 0 0 6.573 6.572h34.41v-4.829H67.664z"/><path fill="#C0C0C0" d="M101.411 136.189c0 .19-.028.374-.055.557a3.661 3.661 0 0 1-3.615 3.112v4.802h16.922a3.085 3.085 0 0 0 3.086-3.085h10.071a6.572 6.572 0 0 1 6.571 6.573v9.155a34.238 34.238 0 0 1 1.505-.038c.953 0 1.896.049 2.828.128V143.32a6.573 6.573 0 0 0-6.573-6.574h-25.966c.011-.184.028-.369.028-.557a8.471 8.471 0 0 0-8.473-8.471v4.802a3.67 3.67 0 0 1 3.671 3.669m34.746 26.177c-15.572 0-28.195 12.623-28.195 28.195 0 15.573 12.623 28.197 28.195 28.197s28.195-12.624 28.195-28.197c0-15.572-12.623-28.195-28.195-28.195m-4.592 41.25l-4.782-4.781-7.36-7.359 4.782-4.782 7.36 7.359 16.544-16.545 4.782 4.781-21.326 21.327z"/><path fill="#FFF" d="M.5.951h14.436v7.276a30.967 30.967 0 0 1 2.706-3.109 18.828 18.828 0 0 1 3.276-2.629A16.265 16.265 0 0 1 24.907.671C26.363.224 28.009 0 29.844 0c5.508 0 9.765 1.678 12.773 5.034 3.006 3.356 4.511 7.978 4.511 13.864v32.953H32.693V23.526c0-3.409-.759-5.984-2.279-7.719-1.52-1.737-3.673-2.606-6.458-2.606-2.786 0-4.986.869-6.6 2.606-1.614 1.735-2.421 4.31-2.421 7.719v28.325H.5V.951zm82.226 52.04c-3.798 0-7.328-.634-10.588-1.9-3.262-1.265-6.078-3.07-8.452-5.413-2.374-2.341-4.226-5.111-5.555-8.31-1.33-3.195-1.995-6.756-1.995-10.683v-.189c0-3.609.618-7.027 1.852-10.256 1.235-3.229 2.958-6.045 5.175-8.452 2.216-2.405 4.859-4.304 7.93-5.697C74.163.698 77.564 0 81.302 0c4.24 0 7.913.76 11.015 2.279C95.418 3.8 98 5.841 100.058 8.405c2.056 2.564 3.575 5.508 4.558 8.832.979 3.323 1.471 6.789 1.471 10.398 0 .57-.016 1.172-.047 1.804a50.255 50.255 0 0 1-.142 1.995H70.476c.696 3.292 2.137 5.777 4.321 7.455 2.185 1.678 4.89 2.516 8.12 2.516 2.404 0 4.559-.41 6.457-1.234 1.899-.821 3.86-2.152 5.888-3.989l8.261 7.312a25.589 25.589 0 0 1-8.736 6.98c-3.419 1.677-7.44 2.517-12.061 2.517m9.307-30.579c-.444-3.229-1.584-5.841-3.418-7.834-1.837-1.995-4.273-2.993-7.312-2.993-3.04 0-5.494.983-7.36 2.945-1.869 1.963-3.087 4.591-3.656 7.882h21.746zM115.096.951h14.436v7.276a30.957 30.957 0 0 1 2.705-3.109 18.872 18.872 0 0 1 3.277-2.629c1.201-.765 2.547-1.371 4.035-1.818 1.486-.446 3.149-.67 4.986-.67 3.354 0 6.251.702 8.688 2.104 2.438 1.403 4.321 3.411 5.65 6.026 2.216-2.677 4.685-4.702 7.407-6.073C169.001.687 172.105 0 175.587 0c5.381 0 9.592 1.583 12.631 4.749 3.039 3.167 4.559 7.82 4.559 13.96v33.142h-14.435V23.526c0-3.409-.729-5.984-2.185-7.719-1.457-1.737-3.546-2.606-6.268-2.606-2.723 0-4.858.869-6.409 2.606-1.552 1.735-2.327 4.31-2.327 7.719v28.325H146.72V23.526c0-3.409-.729-5.984-2.185-7.719-1.457-1.737-3.547-2.606-6.268-2.606-2.723 0-4.86.869-6.41 2.606-1.552 1.735-2.326 4.31-2.326 7.719v28.325h-14.436V.951z"/><path fill="#209DD8" d="M.5 90.369V63.04h17.906v3.041H3.9v8.783h14.205v3.041H3.9v12.464z"/><path fill="none" stroke="#209DD8" stroke-miterlimit="10" d="M.5 90.369V63.04h17.906v3.041H3.9v8.783h14.205v3.041H3.9v12.464z"/><path fill="#209DD8" d="M23.066 90.369V63.04h17.907v3.041H26.467v8.783h14.205v3.041H26.467v9.422h14.506v3.042z"/><path fill="none" stroke="#209DD8" stroke-miterlimit="10" d="M23.066 90.369V63.04h17.907v3.041H26.467v8.783h14.205v3.041H26.467v9.422h14.506v3.042z"/><path fill="#209DD8" d="M43.533 90.368L54.557 63.04h4.221l10.983 27.328h-3.88l-2.42-6.062H49.855l-2.421 6.062h-3.901zm7.343-9.102H62.48l-5.823-14.745-5.781 14.745z"/><path fill="none" stroke="#209DD8" stroke-miterlimit="10" d="M43.533 90.368L54.557 63.04h4.221l10.983 27.328h-3.88l-2.42-6.062H49.855l-2.421 6.062h-3.901zm7.343-9.102H62.48l-5.823-14.745-5.781 14.745z"/><path fill="#209DD8" d="M68.701 66.081V63.04h20.726v3.041h-8.682v24.288h-3.401V66.081z"/><path fill="none" stroke="#209DD8" stroke-miterlimit="10" d="M68.701 66.081V63.04h20.726v3.041h-8.682v24.288h-3.401V66.081z"/><path fill="#209DD8" d="M93.928 79.765V63.04h3.401v16.625c0 2.534.662 4.528 1.984 5.982 1.321 1.454 3.229 2.181 5.718 2.181 2.491 0 4.408-.723 5.751-2.17 1.341-1.448 2.014-3.444 2.014-5.993V63.04h3.399v16.685c0 3.469-.955 6.193-2.863 8.172-1.908 1.981-4.672 2.972-8.289 2.972-3.593 0-6.343-.991-8.251-2.972-1.909-1.98-2.864-4.69-2.864-8.132"/><path fill="none" stroke="#209DD8" stroke-miterlimit="10" d="M93.928 79.765V63.04h3.401v16.625c0 2.534.662 4.528 1.984 5.982 1.321 1.454 3.229 2.181 5.718 2.181 2.491 0 4.408-.723 5.751-2.17 1.341-1.448 2.014-3.444 2.014-5.993V63.04h3.399v16.685c0 3.469-.955 6.193-2.863 8.172-1.908 1.981-4.672 2.972-8.289 2.972-3.593 0-6.343-.991-8.251-2.972-1.909-1.98-2.864-4.69-2.864-8.132z"/><path fill="#209DD8" d="M122.639 90.369V63.041h10.982c2.534 0 4.601.749 6.203 2.249 1.6 1.5 2.4 3.498 2.4 5.993 0 2.362-.69 4.244-2.071 5.647-1.38 1.403-3.072 2.186-5.071 2.35l7.381 11.089h-4.021l-6.921-10.803h-5.483v10.803h-3.399zm3.4-13.845h7.164c1.614 0 2.935-.494 3.96-1.48 1.027-.987 1.541-2.241 1.541-3.76 0-1.561-.514-2.818-1.541-3.771-1.025-.955-2.346-1.432-3.96-1.432h-7.164v10.443z"/><path fill="none" stroke="#209DD8" stroke-miterlimit="10" d="M122.639 90.369V63.041h10.982c2.534 0 4.601.749 6.203 2.249 1.6 1.5 2.4 3.498 2.4 5.993 0 2.362-.69 4.244-2.071 5.647-1.38 1.403-3.072 2.186-5.071 2.35l7.381 11.089h-4.021l-6.921-10.803h-5.483v10.803h-3.399zm3.4-13.845h7.164c1.614 0 2.935-.494 3.96-1.48 1.027-.987 1.541-2.241 1.541-3.76 0-1.561-.514-2.818-1.541-3.771-1.025-.955-2.346-1.432-3.96-1.432h-7.164v10.443z"/><path fill="#209DD8" d="M147.585 90.369V63.04h17.908v3.041h-14.507v8.783h14.204v3.041h-14.204v9.422h14.507v3.042z"/><path fill="none" stroke="#209DD8" stroke-miterlimit="10" d="M147.585 90.369V63.04h17.908v3.041h-14.507v8.783h14.204v3.041h-14.204v9.422h14.507v3.042z"/><path fill="#209DD8" d="M169.251 86.505l2.041-2.626c2.267 2.632 5.122 3.949 8.562 3.949 2.215 0 3.842-.476 4.881-1.429 1.042-.952 1.562-2.06 1.562-3.326 0-1.278-.555-2.297-1.663-3.055-1.108-.76-2.456-1.36-4.043-1.801l-4.769-1.328c-1.594-.443-2.943-1.217-4.05-2.325-1.107-1.104-1.661-2.57-1.661-4.393 0-2.232.887-4.054 2.663-5.47 1.771-1.414 4.026-2.121 6.76-2.121 4.015 0 7.236 1.274 9.663 3.823l-2.04 2.504c-1.934-2.19-4.568-3.287-7.902-3.287-1.641 0-2.989.408-4.042 1.224s-1.58 1.87-1.58 3.163c0 .97.401 1.772 1.205 2.405.802.633 1.792 1.121 2.967 1.462 1.175.34 2.473.718 3.892 1.13a37.05 37.05 0 0 1 3.912 1.363c1.188.497 2.188 1.303 2.997 2.416.807 1.112 1.212 2.458 1.212 4.035 0 2.217-.827 4.112-2.48 5.688-1.654 1.575-4.188 2.363-7.602 2.363-4.429-.001-7.923-1.454-10.485-4.364"/><path fill="none" stroke="#209DD8" stroke-miterlimit="10" d="M169.251 86.505l2.041-2.626c2.267 2.632 5.122 3.949 8.562 3.949 2.215 0 3.842-.476 4.881-1.429 1.042-.952 1.562-2.06 1.562-3.326 0-1.278-.555-2.297-1.663-3.055-1.108-.76-2.456-1.36-4.043-1.801l-4.769-1.328c-1.594-.443-2.943-1.217-4.05-2.325-1.107-1.104-1.661-2.57-1.661-4.393 0-2.232.887-4.054 2.663-5.47 1.771-1.414 4.026-2.121 6.76-2.121 4.015 0 7.236 1.274 9.663 3.823l-2.04 2.504c-1.934-2.19-4.568-3.287-7.902-3.287-1.641 0-2.989.408-4.042 1.224s-1.58 1.87-1.58 3.163c0 .97.401 1.772 1.205 2.405.802.633 1.792 1.121 2.967 1.462 1.175.34 2.473.718 3.892 1.13a37.05 37.05 0 0 1 3.912 1.363c1.188.497 2.188 1.303 2.997 2.416.807 1.112 1.212 2.458 1.212 4.035 0 2.217-.827 4.112-2.48 5.688-1.654 1.575-4.188 2.363-7.602 2.363-4.429-.001-7.923-1.454-10.485-4.364z"/></svg>