<?xml version="1.0" encoding="utf-8"?>
<!-- Generator: Adobe Illustrator 16.0.0, SVG Export Plug-In . SVG Version: 6.00 Build 0)  -->
<!DOCTYPE svg PUBLIC "-//W3C//DTD SVG 1.1//EN" "http://www.w3.org/Graphics/SVG/1.1/DTD/svg11.dtd">
<svg version="1.1" id="Layer_1" xmlns="http://www.w3.org/2000/svg" xmlns:xlink="http://www.w3.org/1999/xlink" x="0px" y="0px"
	 width="196.858px" height="298.96px" viewBox="22.39 0 196.858 298.96" enable-background="new 22.39 0 196.858 298.96"
	 xml:space="preserve">
<g>
	<g>
		<path fill="#F6F6F6" d="M22.39,0.972h14.778v7.449c0.842-1.109,1.766-2.171,2.771-3.183c1.004-1.011,2.122-1.908,3.354-2.692
			c1.23-0.784,2.592-1.403,4.083-1.861C48.867,0.229,50.551,0,52.432,0c5.638,0,9.997,1.718,13.076,5.153
			c3.078,3.436,4.618,8.167,4.618,14.194v33.736H55.349V24.085c0-3.491-0.778-6.127-2.333-7.904
			c-1.556-1.778-3.76-2.668-6.611-2.668c-2.852,0-5.104,0.89-6.757,2.668c-1.652,1.777-2.479,4.413-2.479,7.904v28.998H22.39V0.972z
			"/>
		<path fill="#F6F6F6" d="M106.57,54.249c-3.888,0-7.503-0.649-10.84-1.944c-3.339-1.296-6.222-3.143-8.653-5.542
			c-2.431-2.397-4.327-5.233-5.688-8.507c-1.361-3.272-2.042-6.918-2.042-10.937v-0.194c0-3.694,0.632-7.194,1.896-10.499
			c1.264-3.306,3.029-6.189,5.299-8.653C88.81,5.51,91.516,3.566,94.66,2.14C97.803,0.714,101.286,0,105.112,0
			c4.342,0,8.101,0.778,11.277,2.333c3.176,1.556,5.817,3.646,7.924,6.271c2.105,2.625,3.662,5.639,4.668,9.041
			c1.004,3.403,1.506,6.952,1.506,10.646c0,0.583-0.016,1.2-0.049,1.847c-0.033,0.649-0.082,1.329-0.146,2.042H94.029
			c0.712,3.37,2.187,5.915,4.423,7.632c2.236,1.718,5.007,2.576,8.313,2.576c2.462,0,4.667-0.42,6.611-1.264
			c1.944-0.842,3.953-2.203,6.028-4.083l8.457,7.486c-2.463,3.047-5.443,5.429-8.943,7.146
			C115.417,53.39,111.3,54.249,106.57,54.249z M116.098,22.944c-0.453-3.305-1.621-5.979-3.5-8.021
			c-1.881-2.042-4.375-3.063-7.486-3.063c-3.111,0-5.624,1.006-7.535,3.014c-1.912,2.01-3.16,4.7-3.743,8.069L116.098,22.944
			L116.098,22.944z"/>
		<path fill="#F6F6F6" d="M139.708,0.972h14.778v7.449c0.842-1.109,1.766-2.171,2.771-3.183c1.004-1.011,2.122-1.908,3.354-2.692
			c1.229-0.784,2.607-1.403,4.132-1.861C166.266,0.229,167.967,0,169.848,0c3.435,0,6.399,0.718,8.896,2.154
			c2.495,1.437,4.424,3.492,5.784,6.169c2.269-2.74,4.797-4.814,7.584-6.218C194.896,0.702,198.073,0,201.639,0
			c5.508,0,9.819,1.621,12.93,4.861c3.111,3.242,4.668,8.006,4.668,14.292v33.93h-14.778V24.085c0-3.491-0.746-6.127-2.235-7.904
			c-1.492-1.778-3.632-2.668-6.418-2.668c-2.787,0-4.975,0.89-6.562,2.668c-1.59,1.777-2.383,4.413-2.383,7.904v28.998h-14.776
			V24.085c0-3.491-0.746-6.127-2.235-7.904c-1.492-1.778-3.632-2.668-6.418-2.668c-2.787,0-4.975,0.89-6.562,2.668
			c-1.59,1.777-2.383,4.413-2.383,7.904v28.998h-14.777L139.708,0.972L139.708,0.972z"/>
	</g>
	<g>
		<path fill="#A4A2A2" d="M22.4,89.305v-26.68h18.887v5H28.083v5.605h12.91v5h-12.91v11.074L22.4,89.305L22.4,89.305z"/>
		<path fill="#A4A2A2" d="M45.232,89.305v-26.68h18.887v5H50.915v5.605h12.91v5h-12.91v6.074h13.203v5L45.232,89.305L45.232,89.305z
			"/>
		<path fill="#A4A2A2" d="M65.74,89.305l10.273-26.68h7.129l10.273,26.68H86.97l-1.68-4.512H73.865l-1.68,4.512H65.74z
			 M75.408,79.794h8.32l-4.16-11.484L75.408,79.794z"/>
		<path fill="#A4A2A2" d="M91.658,67.626v-5h21.309v5h-7.793v21.68H99.49v-21.68H91.658z"/>
		<path fill="#A4A2A2" d="M116.58,78.622V62.626h5.684v15.868c0,1.917,0.547,3.446,1.644,4.588c1.096,1.142,2.644,1.712,4.646,1.712
			s3.545-0.57,4.627-1.712s1.623-2.671,1.623-4.588V62.626h5.84v15.996c0,3.411-1.025,6.126-3.076,8.145s-5.053,3.027-9.004,3.027
			s-6.937-1.009-8.955-3.027C117.589,84.748,116.58,82.033,116.58,78.622z"/>
		<path fill="#A4A2A2" d="M145.936,89.305v-26.68h12.479c2.747,0,4.935,0.801,6.562,2.402c1.627,1.602,2.441,3.665,2.441,6.191
			c0,2.188-0.58,3.962-1.738,5.322s-2.539,2.229-4.141,2.607l6.035,10.156h-6.562l-5.234-9.473h-4.159v9.473h-5.683V89.305z
			 M151.619,74.833h5.996c1.146,0,2.093-0.329,2.842-0.986c0.749-0.657,1.123-1.546,1.123-2.666c0-1.067-0.375-1.927-1.123-2.578
			c-0.749-0.651-1.695-0.977-2.842-0.977h-5.996V74.833z"/>
		<path fill="#A4A2A2" d="M171.639,89.305v-26.68h18.887v5h-13.203v5.605h12.91v5h-12.91v6.074h13.203v5L171.639,89.305
			L171.639,89.305z"/>
		<path fill="#A4A2A2" d="M193.104,85.569l3.125-4.444c2.316,2.434,5.143,3.656,8.477,3.669c1.497,0,2.643-0.291,3.438-0.875
			c0.795-0.583,1.191-1.287,1.191-2.113c0-0.721-0.378-1.317-1.133-1.789c-0.756-0.472-1.693-0.844-2.812-1.116
			s-2.354-0.572-3.701-0.9c-1.348-0.327-2.586-0.746-3.72-1.256c-1.133-0.51-2.079-1.313-2.842-2.411
			c-0.762-1.097-1.144-2.437-1.144-4.018c0-2.284,0.922-4.202,2.765-5.754c1.842-1.551,4.293-2.326,7.354-2.326
			c4.258,0,7.739,1.228,10.444,3.683l-3.185,4.24c-2.102-1.948-4.67-2.923-7.709-2.923c-0.026,0-0.047,0-0.06,0
			c-1.172,0-2.093,0.235-2.764,0.706c-0.671,0.471-1.006,1.105-1.006,1.905c0,0.632,0.385,1.157,1.153,1.576
			c0.77,0.42,1.715,0.773,2.838,1.062s2.351,0.604,3.682,0.945c1.331,0.341,2.564,0.777,3.702,1.307
			c1.136,0.529,2.083,1.346,2.84,2.45s1.136,2.456,1.136,4.057c0,2.558-0.915,4.623-2.744,6.194
			c-1.83,1.571-4.482,2.356-7.959,2.356C199.717,89.794,195.928,88.385,193.104,85.569z"/>
	</g>
	<path fill="#A4A2A2" d="M120.848,298.96c-0.408-0.222-0.754-0.399-1.088-0.594c-43.983-25.757-77.239-68.154-90.774-118.931
		c-2.141-8.033-3.748-16.172-4.851-24.414c-1.113-8.321-1.663-16.68-1.735-25.071c-0.012-1.443-0.142-1.209,1.093-1.91
		c16.527-9.382,34.039-16.245,52.553-20.547c6.835-1.588,13.734-2.812,20.698-3.659c9.582-1.165,19.201-1.644,28.852-1.402
		c5.404,0.136,10.799,0.484,16.178,1.057c26.967,2.875,52.256,10.98,75.89,24.275c0.341,0.192,0.672,0.405,1.022,0.577
		c0.4,0.196,0.58,0.487,0.561,0.934c-0.021,0.469-0.003,0.94-0.01,1.41c-0.071,4.859-0.262,9.712-0.668,14.555
		c-0.582,6.953-1.514,13.861-2.832,20.713c-2.827,14.716-7.27,28.929-13.383,42.611c-9.705,21.726-22.924,41.058-39.621,58.009
		c-12.053,12.235-25.482,22.715-40.272,31.448C121.954,298.32,121.445,298.611,120.848,298.96z M31.443,134.75
		c0,0.462,0,0.813,0,1.163c0.005,6.902,0.456,13.778,1.281,20.628c0.745,6.186,1.819,12.316,3.213,18.391
		c0.246,1.072,0.578,2.096,1.049,3.099c8.433,17.948,27.973,27.491,47.349,23.106c14.775-3.346,26.743-14.731,30.854-29.306
		c1.137-4.03,1.523-8.149,1.651-12.308c0.084-2.746,0.343-5.469,0.858-8.17c3.152-16.51,14.195-30.151,29.658-36.623
		c0.867-0.363,1.752-0.682,2.623-1.031c0.125-0.049,0.322-0.065,0.264-0.291c-2.43-0.866-17.023-2.322-25.777-2.494
		c-18.781-0.37-37.185,2.098-55.184,7.493C56.064,122.371,43.478,127.803,31.443,134.75z M170.037,247.354
		c0.516-0.242,0.718-0.64,0.977-0.961c3.787-4.703,7.325-9.586,10.605-14.654c11.783-18.215,20.006-37.91,24.589-59.121
		c1.558-7.207,2.653-14.481,3.299-21.826c0.438-4.998,0.685-10.004,0.687-15.022c0-0.346-0.034-0.692-0.053-1.035
		c-0.488-0.287-0.922-0.551-1.363-0.801c-3.855-2.176-7.779-4.22-11.793-6.092c-5.785-2.7-11.654-5.198-17.756-7.111
		c-7.426-2.328-14.928-2.587-22.496-0.762c-21.541,5.194-35.307,26.278-31.229,48.05c2.262,12.071,8.737,21.383,19.123,27.959
		c0.695,0.439,1.405,0.854,2.107,1.283c7.588,4.645,13.533,10.862,17.781,18.674c4.467,8.217,6.477,17.008,5.959,26.354
		C170.385,243.928,170.195,245.561,170.037,247.354z M120.915,289.368c0.385-0.218,0.828-0.46,1.262-0.716
		c11.839-6.963,22.707-15.209,32.679-24.648c0.636-0.602,1.127-1.299,1.521-2.072c0.64-1.257,1.29-2.509,1.901-3.779
		c4.718-9.805,5.729-19.967,2.599-30.41c-6.085-20.305-25.662-31.957-45.265-29.508c-5.602,0.701-10.843,2.483-15.73,5.229
		c-9.342,5.248-19.304,7.41-29.964,6.392c-5.23-0.5-10.242-1.836-15.05-3.947c-3.786-1.662-7.302-3.776-10.565-6.312
		c-0.227-0.177-0.483-0.316-0.906-0.591c0.14,0.466,0.198,0.724,0.293,0.968c4.187,10.683,9.374,20.857,15.539,30.533
		c6.655,10.445,14.316,20.094,22.973,28.951c8.657,8.857,18.13,16.734,28.414,23.635
		C115.139,286.128,119.523,288.805,120.915,289.368z"/>
</g>
</svg>
