<svg id="レイヤー_1" xmlns="http://www.w3.org/2000/svg" viewBox="0 0 224.8 97"><style>.st0{fill:#9fa0a0}.st1{fill:none;stroke:#000}.st2{fill:#fff}.st3{fill:#86c0e9}.st4{fill:#fabe00}.st5{fill:#34b7af}.st6{fill:#c5c4c7}.st7{fill:#615f5f}</style><path class="st0" d="M7.8-487h454v2H7.8z"/><path class="st1" d="M-72.2-566h594v839.8h-594z"/><path d="M10-495.9v-10.4h1.6v1.5c.8-1.1 1.9-1.7 3.3-1.7.6 0 1.2.1 1.7.3.5.2.9.5 1.2.9.3.4.4.8.5 1.3.1.3.1.9.1 1.7v6.4h-1.8v-6.3c0-.7-.1-1.2-.2-1.6-.1-.4-.4-.6-.7-.8-.4-.2-.8-.3-1.2-.3-.8 0-1.4.2-1.9.7-.5.5-.8 1.4-.8 2.7v5.7H10zm18.2-3.3l1.8.2c-.3 1.1-.8 1.9-1.6 2.5s-1.8.9-3 .9c-1.5 0-2.7-.5-3.6-1.4-.9-.9-1.3-2.2-1.3-3.9 0-1.7.4-3.1 1.3-4.1.9-1 2.1-1.4 3.5-1.4s2.5.5 3.4 1.4c.9.9 1.3 2.3 1.3 4v.5h-7.7c.1 1.1.4 2 1 2.6.6.6 1.3.9 2.2.9.6 0 1.2-.2 1.7-.5.4-.4.8-1 1-1.7zm-5.8-2.8h5.8c-.1-.9-.3-1.5-.7-2-.6-.7-1.3-1-2.2-1-.8 0-1.5.3-2 .8s-.8 1.3-.9 2.2zm9.8 6.1v-10.4h1.6v1.5c.3-.5.8-.9 1.3-1.2.5-.3 1.2-.5 1.8-.5.8 0 1.4.2 1.9.5s.8.8 1 1.3c.8-1.2 1.9-1.8 3.2-1.8 1 0 1.8.3 2.4.9.6.6.8 1.4.8 2.6v7.1h-1.8v-6.5c0-.7-.1-1.2-.2-1.5-.1-.3-.3-.6-.6-.7-.3-.2-.7-.3-1.1-.3-.7 0-1.3.2-1.8.7-.5.5-.7 1.3-.7 2.3v6h-1.8v-6.7c0-.8-.1-1.4-.4-1.8-.3-.4-.8-.6-1.4-.6-.5 0-1 .1-1.4.4-.4.3-.7.6-.9 1.1s-.3 1.2-.3 2.2v5.4h-1.6zm23.5 0v-1.5c-.8 1.2-1.9 1.7-3.3 1.7-.6 0-1.2-.1-1.7-.4-.5-.2-.9-.5-1.2-.9-.3-.4-.4-.8-.5-1.3-.1-.3-.1-.9-.1-1.6v-6.4h1.8v5.8c0 .9 0 1.5.1 1.9.1.5.3.8.7 1.1.4.3.8.4 1.3.4s1-.1 1.5-.4c.5-.3.8-.6 1-1.1.2-.5.3-1.1.3-2v-5.6h1.8v10.4h-1.7zm16.7-1.3c-.6.6-1.3 1-1.9 1.2-.6.2-1.3.3-2 .3-1.2 0-2-.3-2.7-.8-.6-.6-.9-1.3-.9-2.1 0-.5.1-1 .4-1.4.2-.4.5-.8.9-1s.8-.4 1.3-.6c.3-.1.9-.2 1.6-.3 1.4-.2 2.5-.4 3.2-.6v-.5c0-.7-.2-1.2-.5-1.5-.5-.4-1.1-.6-2-.6-.8 0-1.4.1-1.8.4-.4.3-.7.8-.9 1.5l-1.8-.2c.2-.7.4-1.3.8-1.8s.9-.8 1.6-1c.7-.2 1.5-.4 2.4-.4.9 0 1.6.1 2.2.3.6.2 1 .5 1.2.8.3.3.4.7.5 1.2.1.3.1.8.1 1.6v2.3c0 1.6 0 2.7.1 3.1.1.4.2.9.4 1.3h-1.8c-.2-.2-.4-.7-.4-1.2zm-.1-3.9c-.6.3-1.6.5-2.9.7-.7.1-1.3.2-1.6.4-.3.1-.5.3-.7.6-.2.3-.2.5-.2.8 0 .5.2.9.5 1.2.4.3.9.5 1.6.5.7 0 1.3-.1 1.8-.4.5-.3.9-.7 1.2-1.2.2-.4.3-1 .3-1.8v-.8zm4.4 5.2v-10.4h1.6v1.6c.4-.7.8-1.2 1.1-1.5.3-.2.7-.4 1.1-.4.6 0 1.2.2 1.8.6l-.6 1.6c-.4-.2-.8-.4-1.3-.4-.4 0-.7.1-1 .3-.3.2-.5.6-.6 1-.2.6-.3 1.3-.3 2v5.4h-1.8zm10.5-1.5l.2 1.6c-.5.1-.9.2-1.3.2-.6 0-1.1-.1-1.5-.3s-.6-.5-.7-.8c-.1-.3-.2-1-.2-2.1v-6h-1.3v-1.4h1.3v-2.6l1.8-1.1v3.6h1.8v1.4h-1.8v6c0 .5 0 .8.1 1s.2.3.3.3c.1.1.3.1.6.1.1.1.4.1.7.1zm131.2 1.2l2.7-7.2h1l2.9 7.2h-1l-.8-2.2h-3l-.8 2.2h-1zm2.1-2.9h2.4l-.7-2c-.2-.6-.4-1.1-.5-1.5-.1.5-.2.9-.4 1.4l-.8 2.1zm8.7 2.9v-.8c-.4.6-1 .9-1.6.9-.3 0-.6-.1-.9-.2-.3-.1-.5-.3-.6-.4-.1-.2-.2-.4-.3-.7 0-.2-.1-.4-.1-.8v-3.2h.9v2.9c0 .5 0 .8.1.9.1.2.2.4.4.5.2.1.4.2.7.2.3 0 .5-.1.7-.2.2-.1.4-.3.5-.6.1-.2.1-.6.1-1v-2.8h.9v5.2h-.8zm2 .4l.9.1c0 .3.1.5.3.6.2.2.5.2.9.2s.7-.1 1-.2c.2-.2.4-.4.5-.7 0-.2.1-.5.1-1.1-.4.4-.9.7-1.4.7-.7 0-1.3-.3-1.7-.8-.4-.5-.6-1.1-.6-1.8 0-.5.1-1 .3-1.4.2-.4.4-.7.8-1 .3-.2.7-.3 1.2-.3.6 0 1.1.2 1.5.8v-.6h.8v4.5c0 .8-.1 1.4-.2 1.7-.2.3-.4.6-.8.8-.4.2-.8.3-1.3.3-.6 0-1.1-.1-1.5-.4-.7-.4-.8-.8-.8-1.4zm.7-3.1c0 .7.1 1.2.4 1.5.3.3.6.5 1 .5s.8-.2 1-.5c.3-.3.4-.8.4-1.5 0-.6-.1-1.1-.4-1.4s-.6-.5-1-.5-.7.2-1 .5c-.2.4-.4.8-.4 1.4zm6.2 2.7v-1h-1v1h1zm4.1-1.8l.9-.1c.1.5.3.8.5 1.1.2.2.5.3.9.3s.8-.1 1.1-.4c.3-.3.4-.6.4-1.1 0-.4-.1-.7-.4-1-.3-.3-.6-.4-1-.4-.2 0-.4 0-.6.1l.1-.8h.1c.4 0 .7-.1 1-.3.3-.2.4-.5.4-.9 0-.3-.1-.6-.3-.8-.2-.2-.5-.3-.9-.3-.3 0-.6.1-.9.3-.2.2-.4.5-.4 1l-.9-.2c.1-.6.4-1 .7-1.4.4-.3.9-.5 1.4-.5.4 0 .8.1 1.1.3.3.2.6.4.8.7.2.3.3.6.3.9 0 .3-.1.6-.2.8-.2.3-.4.5-.7.6.4.1.8.3 1 .6.2.3.4.7.4 1.2 0 .6-.2 1.2-.7 1.6-.5.4-1 .7-1.7.7-.6 0-1.2-.2-1.6-.6-.5-.4-.7-.9-.8-1.4zm8.9 1.8h-.9v-5.6c-.2.2-.5.4-.8.6-.3.2-.7.4-.9.5v-.8c.5-.2.9-.5 1.3-.8.4-.3.6-.6.8-1h.6v7.1zm3.2 0c0 .3-.1.5-.1.7-.1.2-.2.3-.4.4l.2.4c.3-.1.5-.3.6-.5.1-.2.2-.5.2-.9v-1h-1v1h.5zm9.2-.8v.8h-4.7c0-.2 0-.4.1-.6.1-.3.3-.6.6-1 .3-.3.7-.7 1.2-1.1.8-.6 1.3-1.1 1.6-1.5.3-.4.4-.7.4-1.1 0-.3-.1-.6-.4-.9-.2-.2-.6-.4-1-.4s-.8.1-1 .4c-.3.3-.4.6-.4 1.1l-.9-.1c.1-.7.3-1.2.7-1.5.4-.4.9-.5 1.6-.5.7 0 1.2.2 1.6.6.4.4.6.9.6 1.4 0 .3-.1.6-.2.8-.1.3-.3.6-.6.9l-1.3 1.3c-.5.4-.9.7-1 .9-.1.2-.3.3-.4.5h3.5zm1-2.7c0-.8.1-1.5.3-2 .2-.5.4-.9.8-1.2.3-.3.8-.4 1.3-.4.4 0 .7.1 1 .2.3.2.5.4.7.7.2.3.3.6.4 1.1.1.4.2 1 .2 1.7 0 .8-.1 1.5-.3 2-.2.5-.4.9-.8 1.2-.3.3-.8.4-1.3.4-.7 0-1.2-.2-1.6-.7-.5-.7-.7-1.7-.7-3zm.9 0c0 1.2.1 2 .4 2.4.3.4.6.6 1 .6s.7-.2 1-.6c.3-.4.4-1.2.4-2.3 0-1.2-.1-2-.4-2.3-.3-.4-.6-.6-1-.6s-.7.2-1 .5c-.3.3-.4 1.1-.4 2.3zm7.9 3.5h-.9v-5.6c-.2.2-.5.4-.8.6-.3.2-.7.4-.9.5v-.8c.5-.2.9-.5 1.3-.8.4-.3.6-.6.8-1h.6v7.1zm2.3-1.8l.9-.1c.1.4.2.8.5 1 .2.2.5.3.9.3s.8-.2 1.1-.5c.3-.3.4-.7.4-1.3 0-.5-.1-.9-.4-1.2-.3-.3-.6-.4-1.1-.4-.3 0-.5.1-.8.2-.2.1-.4.3-.5.5l-.8-.1.7-3.7h3.5v.8h-2.9l-.4 1.9c.4-.3.9-.5 1.3-.5.6 0 1.1.2 1.6.7.4.4.6 1 .6 1.7 0 .6-.2 1.2-.6 1.7-.5.6-1.1.9-1.9.9-.6 0-1.2-.2-1.6-.5-.2-.4-.5-.8-.5-1.4zm8.7 1.8v-7.2h2.5c.6 0 1 0 1.3.1.4.1.8.3 1 .5.4.3.7.7.8 1.2.2.5.3 1.1.3 1.7 0 .5-.1 1-.2 1.4-.1.4-.3.8-.5 1-.2.3-.4.5-.7.6-.2.2-.5.3-.9.4-.3.1-.7.1-1.2.1h-2.4zm.9-.8h1.5c.5 0 .8 0 1.1-.1.3-.1.5-.2.6-.4.2-.2.4-.5.5-.9s.2-.8.2-1.4c0-.7-.1-1.3-.4-1.7-.2-.4-.5-.7-.9-.8-.3-.1-.7-.1-1.2-.1h-1.5v5.4zm9.7-.9l.9.1c-.1.5-.4.9-.8 1.2-.4.3-.9.4-1.5.4-.8 0-1.4-.2-1.8-.7-.4-.5-.7-1.1-.7-2 0-.9.2-1.5.7-2 .4-.5 1-.7 1.7-.7s1.3.2 1.7.7c.4.5.7 1.1.7 2v.2H292c0 .6.2 1 .5 1.3.3.3.7.5 1.1.5.3 0 .6-.1.8-.3.2 0 .4-.3.5-.7zm-2.9-1.4h2.9c0-.4-.2-.8-.3-1-.3-.3-.6-.5-1.1-.5-.4 0-.7.1-1 .4-.3.3-.4.7-.5 1.1zm4.6 1.6l.9-.1c0 .3.2.6.4.8.2.2.5.3.9.3s.7-.1.9-.2c.2-.2.3-.4.3-.6 0-.2-.1-.4-.3-.5-.1-.1-.4-.2-.9-.3-.6-.2-1.1-.3-1.3-.4-.2-.1-.4-.3-.6-.5-.1-.2-.2-.4-.2-.7 0-.2.1-.4.2-.6.1-.2.2-.4.4-.5.1-.1.3-.2.6-.3.2-.1.5-.1.8-.1.4 0 .8.1 1.1.2.3.1.5.3.7.5.1.2.2.5.3.8l-.9.1c0-.3-.2-.5-.3-.6-.2-.2-.5-.2-.8-.2-.4 0-.7.1-.9.2-.2.1-.3.3-.3.5 0 .1 0 .2.1.3.1.1.2.2.3.2.1 0 .3.1.8.2.6.2 1.1.3 1.3.4.2.1.4.3.6.5.1.2.2.5.2.8 0 .3-.1.6-.3.8s-.4.5-.7.6c-.3.1-.7.2-1.1.2-.7 0-1.2-.1-1.5-.4-.4-.5-.6-.9-.7-1.4zm5.4-4.6v-1h.9v1h-.9zm0 6.1v-5.2h.9v5.2h-.9zm2 .4l.9.1c0 .3.1.5.3.6.2.2.5.2.9.2s.7-.1 1-.2c.2-.2.4-.4.5-.7 0-.2.1-.5.1-1.1-.4.4-.9.7-1.4.7-.7 0-1.3-.3-1.7-.8-.4-.5-.6-1.1-.6-1.8 0-.5.1-1 .3-1.4.2-.4.4-.7.8-1 .3-.2.7-.3 1.2-.3.6 0 1.1.2 1.5.8v-.6h.8v4.5c0 .8-.1 1.4-.2 1.7-.2.3-.4.6-.8.8-.4.2-.8.3-1.3.3-.6 0-1.1-.1-1.5-.4-.6-.4-.8-.8-.8-1.4zm.7-3.1c0 .7.1 1.2.4 1.5.3.3.6.5 1 .5s.7-.2 1-.5c.3-.3.4-.8.4-1.5 0-.6-.1-1.1-.4-1.4s-.6-.5-1-.5-.7.2-1 .5c-.2.4-.4.8-.4 1.4zm5 2.7v-5.2h.8v.7c.4-.6.9-.8 1.7-.8.3 0 .6.1.9.2.3.1.5.3.6.4l.3.6v4.1h-.9v-3.1c0-.4 0-.6-.1-.8-.1-.2-.2-.3-.4-.4-.2-.1-.4-.2-.6-.2-.4 0-.7.1-1 .4-.3.2-.4.7-.4 1.3v2.8h-.9zm9.2 0h-.9v-7.2h.9v2.6c.4-.5.8-.7 1.4-.7.3 0 .6.1.9.2.3.1.5.3.7.5.2.2.3.5.4.8.1.3.2.7.2 1.1 0 .9-.2 1.6-.7 2.1-.4.5-1 .7-1.6.7-.6 0-1.1-.3-1.4-.8v.7zm-.1-2.6c0 .6.1 1.1.3 1.3.3.5.7.7 1.1.7.4 0 .7-.2 1-.5.3-.3.4-.8.4-1.5s-.1-1.2-.4-1.5c-.3-.3-.6-.5-1-.5s-.7.2-1 .5c-.2.4-.4.9-.4 1.5zm4.8 4.6l-.1-.8c.2.1.4.1.5.1.2 0 .4 0 .5-.1l.3-.3c.1-.1.1-.3.3-.7 0 0 0-.1.1-.2l-2-5.2h.9l1.1 3c.1.4.3.8.4 1.2.1-.4.2-.8.4-1.2l1.1-3h.9l-2 5.3c-.2.6-.4 1-.5 1.2-.2.3-.3.5-.5.6-.2.1-.4.2-.7.2-.3 0-.5 0-.7-.1zm7.6-4.3l.9-.1c0 .4.1.7.3.9.2.2.4.4.7.6.3.1.7.2 1.1.2.4 0 .7-.1 1-.2.3-.1.5-.3.6-.4.1-.2.2-.4.2-.6 0-.2-.1-.4-.2-.6-.1-.2-.3-.3-.6-.4-.2-.1-.6-.2-1.3-.3-.7-.2-1.1-.3-1.4-.4-.3-.2-.6-.4-.8-.7-.2-.3-.2-.6-.2-.9 0-.4.1-.7.3-1 .2-.3.5-.6.9-.7.4-.2.8-.2 1.3-.2s1 .1 1.4.3c.4.2.7.4.9.8.2.3.3.7.4 1.1l-.9.1c0-.4-.2-.8-.5-1-.3-.2-.7-.3-1.2-.3-.6 0-1 .1-1.3.3-.3.2-.4.5-.4.8 0 .3.1.5.3.6.2.2.7.3 1.4.5.8.2 1.3.3 1.6.5.4.2.7.4.9.7.2.3.3.6.3 1s-.1.7-.3 1.1c-.2.3-.5.6-.9.8-.4.2-.9.3-1.4.3-.6 0-1.2-.1-1.6-.3-.4-.2-.8-.5-1-.9-.4-.7-.5-1.1-.5-1.6zm6.9-3.8v-1h.9v1h-.9zm0 6.1v-5.2h.9v5.2h-.9zm2 .4l.9.1c0 .3.1.5.3.6.2.2.5.2.9.2s.7-.1 1-.2c.2-.2.4-.4.5-.7 0-.2.1-.5.1-1.1-.4.4-.9.7-1.4.7-.7 0-1.3-.3-1.7-.8-.4-.5-.6-1.1-.6-1.8 0-.5.1-1 .3-1.4.2-.4.4-.7.8-1 .3-.2.7-.3 1.2-.3.6 0 1.1.2 1.5.8v-.6h.8v4.5c0 .8-.1 1.4-.2 1.7-.2.3-.4.6-.8.8-.4.2-.8.3-1.3.3-.6 0-1.1-.1-1.5-.4-.6-.4-.8-.8-.8-1.4zm.8-3.1c0 .7.1 1.2.4 1.5.3.3.6.5 1 .5s.7-.2 1-.5c.3-.3.4-.8.4-1.5 0-.6-.1-1.1-.4-1.4-.3-.3-.6-.5-1-.5s-.7.2-1 .5c-.3.4-.4.8-.4 1.4zm5 2.7v-5.2h.8v.7c.4-.6.9-.8 1.7-.8.3 0 .6.1.9.2.3.1.5.3.6.4l.3.6v4.1h-.9v-3.1c0-.4 0-.6-.1-.8-.1-.2-.2-.3-.4-.4-.2-.1-.4-.2-.6-.2-.4 0-.7.1-1 .4-.3.2-.4.7-.4 1.3v2.8h-.9zm8.9 0v-.8c-.4.6-1 .9-1.6.9-.3 0-.6-.1-.9-.2-.3-.1-.5-.3-.6-.4-.1-.2-.2-.4-.3-.7 0-.2-.1-.4-.1-.8v-3.2h.9v2.9c0 .5 0 .8.1.9.1.2.2.4.4.5.2.1.4.2.7.2.3 0 .5-.1.7-.2.2-.1.4-.3.5-.6.1-.2.1-.6.1-1v-2.8h.9v5.2h-.8zm2.2 0v-5.2h.8v.7c.2-.3.4-.5.6-.6.3-.2.6-.2.9-.2.4 0 .7.1.9.2.2.2.4.4.5.7.4-.6.9-.9 1.6-.9.5 0 .9.1 1.2.4.3.3.4.7.4 1.3v3.6h-.9v-3.3c0-.4 0-.6-.1-.8-.1-.2-.2-.3-.3-.4-.2-.1-.3-.1-.5-.1-.4 0-.7.1-.9.4-.2.2-.4.6-.4 1.2v3h-.9v-3.4c0-.4-.1-.7-.2-.9-.1-.2-.4-.3-.7-.3-.2 0-.5.1-.7.2-.2.1-.4.3-.5.6-.1.2-.1.6-.1 1.1v2.7h-.7zm13.2 0l-2.8-7.2h1l1.9 5.2c.1.4.3.8.4 1.2.1-.4.2-.8.4-1.2l1.9-5.2h1l-2.8 7.2h-1zm5.3-6.1v-1h-.9v1h.9zm0 6.1v-5.2h-.9v5.2h.9zm1-1.5l.9-.1c0 .3.2.6.4.8.2.2.5.3.9.3s.7-.1.9-.2c.2-.2.3-.4.3-.6 0-.2-.1-.4-.3-.5-.1-.1-.4-.2-.9-.3-.6-.2-1.1-.3-1.3-.4-.2-.1-.4-.3-.6-.5-.1-.2-.2-.4-.2-.7 0-.2.1-.4.2-.6.1-.2.2-.4.4-.5.1-.1.3-.2.6-.3.2-.1.5-.1.8-.1.4 0 .8.1 1.1.2.3.1.5.3.7.5.1.2.2.5.3.8l-.9.1c0-.3-.2-.5-.3-.6-.2-.2-.5-.2-.8-.2-.4 0-.7.1-.9.2-.2.1-.3.3-.3.5 0 .1 0 .2.1.3.1.1.2.2.3.2.1 0 .3.1.8.2.6.2 1.1.3 1.3.4.2.1.4.3.6.5.1.2.2.5.2.8 0 .3-.1.6-.3.8-.2.3-.4.5-.7.6-.3.1-.7.2-1.1.2-.7 0-1.2-.1-1.5-.4-.4-.5-.6-.9-.7-1.4zm8.7 1.5v-.8c-.4.6-1 .9-1.6.9-.3 0-.6-.1-.9-.2-.3-.1-.5-.3-.6-.4-.1-.2-.2-.4-.3-.7 0-.2-.1-.4-.1-.8v-3.2h.9v2.9c0 .5 0 .8.1.9.1.2.2.4.4.5.2.1.4.2.7.2.3 0 .5-.1.7-.2.2-.1.4-.3.5-.6.1-.2.1-.6.1-1v-2.8h.9v5.2h-.8zm5.6-.6c-.3.3-.6.5-.9.6-.3.1-.6.2-1 .2-.6 0-1-.1-1.3-.4-.3-.3-.5-.6-.5-1.1 0-.3.1-.5.2-.7.1-.2.3-.4.5-.5l.6-.3c.2 0 .4-.1.8-.1.7-.1 1.2-.2 1.6-.3v-.2c0-.4-.1-.6-.3-.7-.2-.2-.6-.3-1-.3s-.7.1-.9.2c-.2.1-.3.4-.4.8l-.9-.1c.1-.4.2-.7.4-.9.2-.2.4-.4.8-.5.3-.1.7-.2 1.2-.2.4 0 .8.1 1.1.2.3.1.5.2.6.4l.3.6v2c0 .8 0 1.3.1 1.5 0 .2.1.4.2.6h-.9c-.3-.4-.3-.6-.3-.8zm-.1-2c-.3.1-.8.2-1.5.3-.4.1-.6.1-.8.2-.2.1-.3.2-.4.3-.1.1-.1.3-.1.4 0 .2.1.4.3.6.2.2.4.2.8.2.3 0 .7-.1.9-.2.3-.1.5-.3.6-.6.1-.2.1-.5.1-.9l.1-.3zm2.2 2.6v-7.2h.9v7.2h-.9zm10.2-2.5l1 .2c-.2.8-.6 1.4-1.1 1.8-.5.4-1.1.6-1.9.6-.8 0-1.4-.2-1.9-.5s-.9-.8-1.1-1.4c-.3-.6-.4-1.2-.4-1.9s.1-1.4.4-2c.3-.6.7-1 1.2-1.3.5-.3 1.1-.4 1.7-.4.7 0 1.3.2 1.8.5.5.4.8.9 1 1.5l-.9.2c-.2-.5-.4-.9-.7-1.1-.3-.2-.7-.4-1.2-.4s-1 .1-1.4.4c-.4.3-.6.6-.8 1.1-.1.4-.2.9-.2 1.4 0 .6.1 1.1.3 1.6.2.5.5.8.8 1 .4.2.8.3 1.2.3.5 0 1-.2 1.3-.5.6 0 .8-.5.9-1.1zm1.7-.1c0-1 .3-1.7.8-2.1.4-.4 1-.6 1.6-.6.7 0 1.3.2 1.7.7.5.5.7 1.1.7 1.9 0 .7-.1 1.2-.3 1.6-.2.4-.5.7-.9.9-.4.2-.8.3-1.3.3-.7 0-1.3-.2-1.8-.7-.3-.4-.5-1.1-.5-2zm.9 0c0 .7.1 1.2.4 1.5.3.3.7.5 1.1.5.4 0 .8-.2 1.1-.5.3-.3.4-.8.4-1.5 0-.6-.1-1.1-.4-1.5-.3-.3-.7-.5-1.1-.5-.4 0-.8.2-1.1.5-.2.4-.4.9-.4 1.5zm5 2.6v-5.2h.8v.7c.4-.6.9-.8 1.7-.8.3 0 .6.1.9.2.3.1.5.3.6.4l.3.6v4.1h-1v-3.1c0-.4 0-.6-.1-.8-.1-.2-.2-.3-.4-.4-.2-.1-.4-.2-.6-.2-.4 0-.7.1-1 .4-.3.2-.4.7-.4 1.3v2.8h-.8zm9-1.9l.9.1c-.1.6-.3 1.1-.7 1.4-.4.3-.9.5-1.4.5-.7 0-1.3-.2-1.7-.7-.4-.5-.6-1.1-.6-2 0-.6.1-1 .3-1.5.2-.4.5-.7.8-.9.4-.2.8-.3 1.2-.3.6 0 1 .1 1.4.4.4.3.6.7.7 1.2l-.9.1c-.1-.3-.2-.6-.4-.8-.2-.2-.5-.3-.7-.3-.4 0-.8.2-1.1.5-.3.3-.4.8-.4 1.5s.1 1.2.4 1.5c.3.3.6.5 1 .5.3 0 .6-.1.9-.3.1-.1.2-.4.3-.9zm5.1.2l.9.1c-.1.5-.4.9-.8 1.2-.4.3-.9.4-1.5.4-.8 0-1.4-.2-1.8-.7-.4-.5-.7-1.1-.7-2 0-.9.2-1.5.7-2 .4-.5 1-.7 1.7-.7s1.3.2 1.7.7c.4.5.7 1.1.7 2v.2h-3.9c0 .6.2 1 .5 1.3.3.3.7.5 1.1.5.3 0 .6-.1.8-.3.3 0 .5-.3.6-.7zm-2.9-1.4h2.9c0-.4-.2-.8-.3-1-.3-.3-.6-.5-1.1-.5-.4 0-.7.1-1 .4-.3.3-.4.7-.5 1.1zm4.9 5.1v-7.2h.8v.7c.2-.3.4-.5.6-.6.2-.1.5-.2.9-.2s.8.1 1.2.3c.3.2.6.5.8 1 .2.4.3.9.3 1.4 0 .5-.1 1-.3 1.4-.2.4-.5.7-.8 1-.4.2-.7.3-1.2.3-.3 0-.6-.1-.8-.2-.2-.1-.4-.3-.6-.5v2.5h-.9zm.8-4.5c0 .7.1 1.2.4 1.5.3.3.6.5 1 .5s.7-.2 1-.5c.3-.3.4-.8.4-1.5s-.1-1.2-.4-1.5c-.3-.3-.6-.5-1-.5s-.7.2-1 .5c-.3.3-.4.8-.4 1.5zm6.7 1.7l.1.8c-.2.1-.5.1-.7.1-.3 0-.6-.1-.7-.2-.2-.1-.3-.2-.4-.4-.1-.2-.1-.5-.1-1v-3h-.7v-.7h.7v-1.3l.9-.5v1.8h.9v.7h-.9v3.5c0 .1.1.1.2.2.1 0 .2.1.3.1.1 0 .3 0 .4-.1zm.5-.7l.9-.1c0 .3.2.6.4.8.2.2.5.3.9.3s.7-.1.9-.2c.2-.2.3-.4.3-.6 0-.2-.1-.4-.3-.5-.1-.1-.4-.2-.9-.3-.6-.2-1.1-.3-1.3-.4-.2-.1-.4-.3-.6-.5-.1-.2-.2-.4-.2-.7 0-.2.1-.4.2-.6.1-.2.2-.4.4-.5.1-.1.3-.2.6-.3.2-.1.5-.1.8-.1.4 0 .8.1 1.1.2.3.1.5.3.7.5.1.2.2.5.3.8l-.9.1c0-.3-.2-.5-.3-.6-.2-.2-.5-.2-.8-.2-.4 0-.7.1-.9.2-.2.1-.3.3-.3.5 0 .1 0 .2.1.3.1.1.2.2.3.2.1 0 .3.1.8.2.6.2 1.1.3 1.3.4.2.1.4.3.6.5.1.2.2.5.2.8 0 .3-.1.6-.3.8-.2.3-.4.5-.7.6-.3.1-.7.2-1.1.2-.7 0-1.2-.1-1.5-.4-.3-.5-.6-.9-.7-1.4zm5.6 1.5v-1h1v1c0 .4-.1.7-.2.9-.1.2-.3.4-.6.5l-.2-.4c.2-.1.3-.2.4-.4.1-.2.1-.4.1-.7h-.5zm5.6 0v-7.2h1v7.2h-1zm2.5 0v-5.2h.8v.7c.4-.6.9-.8 1.7-.8.3 0 .6.1.9.2.3.1.5.3.6.4l.3.6v4.1h-.9v-3.1c0-.4 0-.6-.1-.8-.1-.2-.2-.3-.4-.4-.2-.1-.4-.2-.6-.2-.4 0-.7.1-1 .4-.3.2-.4.7-.4 1.3v2.8h-.9zm9-1.9l.9.1c-.1.6-.3 1.1-.7 1.4-.4.3-.9.5-1.4.5-.7 0-1.3-.2-1.7-.7-.4-.5-.6-1.1-.6-2 0-.6.1-1 .3-1.5.2-.4.5-.7.8-.9.4-.2.8-.3 1.2-.3.6 0 1 .1 1.4.4.4.3.6.7.7 1.2l-.9.1c-.1-.3-.2-.6-.4-.8-.2-.2-.5-.3-.7-.3-.4 0-.8.2-1.1.5-.3.3-.4.8-.4 1.5s.1 1.2.4 1.5c.3.3.6.5 1 .5.3 0 .6-.1.9-.3 0-.1.2-.4.3-.9zm1.8 1.9v-1h1v1h-1zm-183.6 67.4v-10h3.8c.8 0 1.4.1 1.8.3.5.2.8.5 1.1.9.3.4.4.9.4 1.3s-.1.8-.4 1.2c-.2.4-.6.7-1.1.9.6.2 1.1.5 1.4.9.3.4.5.9.5 1.5 0 .5-.1.9-.3 1.3-.2.4-.4.7-.7.9-.3.2-.7.4-1.1.5-.4.1-1 .2-1.6.2h-3.8zm1.3-5.8h2.2c.6 0 1 0 1.3-.1.3-.1.6-.3.8-.5.2-.2.3-.5.3-.9 0-.3-.1-.6-.2-.9-.2-.3-.4-.4-.7-.5-.3-.1-.8-.1-1.5-.1h-2v3zm0 4.7h3.4c.3-.1.6-.1.8-.3.2-.1.4-.3.5-.6.1-.2.2-.5.2-.8 0-.4-.1-.7-.3-1-.2-.3-.5-.5-.8-.6-.3-.1-.8-.2-1.5-.2H277v3.5zm17.6 0c-.4.4-.8.8-1.3 1-.5.2-1 .3-1.6.3-1 0-1.8-.3-2.4-1-.5-.6-.7-1.2-.7-1.9 0-.6.2-1.2.6-1.7.4-.5 1-.9 1.8-1.3-.5-.5-.8-.9-.9-1.3-.2-.3-.2-.6-.2-.9 0-.6.2-1.1.7-1.6.5-.4 1.1-.7 1.8-.7s1.2.2 1.7.6c.4.4.7.9.7 1.5 0 1-.6 1.8-1.9 2.5l1.8 2.3c.2-.4.4-.9.5-1.4l1.3.3c-.2.9-.5 1.6-.9 2.2.5.6 1 1.1 1.6 1.5l-.8 1c-.8-.4-1.3-.8-1.8-1.4zm-.8-1l-2.2-2.8c-.7.4-1.1.8-1.3 1.1-.2.3-.3.7-.3 1 0 .4.2.8.5 1.3.3.4.8.7 1.4.7.4 0 .7-.1 1.1-.3.2-.3.5-.6.8-1zm-1.8-4.3c.5-.3.9-.6 1-.8.2-.2.2-.5.2-.8 0-.3-.1-.6-.3-.8-.2-.2-.5-.3-.8-.3-.3 0-.6.1-.8.3-.2.2-.3.5-.3.8 0 .2 0 .3.1.5s.2.4.4.5l.5.6zm11.9 6.4l-2.6-10h1.4l1.5 6.6c.2.7.3 1.4.4 2 .3-1.1.4-1.7.5-1.9l1.9-6.8h1.6l1.4 5.1c.4 1.3.6 2.4.8 3.5.1-.6.3-1.4.5-2.2l1.6-6.4h1.3l-2.7 10h-1.3l-2.1-7.6c-.2-.6-.3-1-.3-1.2-.1.5-.2.9-.3 1.2l-2.1 7.6h-1.5zm-28.2 17v-10h3.8c.8 0 1.4.1 1.8.3.5.2.8.5 1.1.9.3.4.4.9.4 1.3s-.1.8-.4 1.2c-.2.4-.6.7-1.1.9.6.2 1.1.5 1.4.9.3.4.5.9.5 1.5 0 .5-.1.9-.3 1.3-.2.4-.4.7-.7.9-.3.2-.7.4-1.1.5-.4.1-1 .2-1.6.2h-3.8zm1.3-5.8h2.2c.6 0 1 0 1.3-.1.3-.1.6-.3.8-.5.2-.2.3-.5.3-.9 0-.3-.1-.6-.2-.9-.2-.3-.4-.4-.7-.5-.3-.1-.8-.1-1.5-.1h-2v3zm0 4.7h3.4c.3-.1.6-.1.8-.3.2-.1.4-.3.5-.6.1-.2.2-.5.2-.8 0-.4-.1-.7-.3-1-.2-.3-.5-.5-.8-.6-.3-.1-.8-.2-1.5-.2H277v3.5zm7.9 1.1v-10h1.2v10h-1.2zm7.9-.9c-.4.4-.9.7-1.3.8-.4.2-.9.2-1.4.2-.8 0-1.4-.2-1.9-.6-.4-.4-.6-.9-.6-1.5 0-.4.1-.7.2-1 .2-.3.4-.5.6-.7.3-.2.6-.3.9-.4.2-.1.6-.1 1.1-.2 1-.1 1.7-.3 2.2-.4v-.3c0-.5-.1-.9-.4-1.1-.3-.3-.8-.4-1.4-.4-.6 0-1 .1-1.3.3-.3.2-.5.6-.6 1.1l-1.2-.2c.1-.5.3-.9.5-1.2s.6-.6 1.1-.7c.5-.2 1-.3 1.7-.3.6 0 1.1.1 1.5.2.4.1.7.3.9.5.2.2.3.5.4.8 0 .2.1.6.1 1.1v1.6c0 1.1 0 1.9.1 2.2l.3.9H293c-.1 0-.2-.3-.2-.7zm-.1-2.7c-.4.2-1.1.3-2 .5-.5.1-.9.2-1.1.2-.2.1-.4.2-.5.4-.1.2-.2.4-.2.6 0 .3.1.6.4.8.3.2.6.3 1.1.3.5 0 .9-.1 1.3-.3.4-.2.6-.5.8-.8.1-.3.2-.7.2-1.2v-.5zm7.9 1l1.2.2c-.1.8-.5 1.5-1 1.9-.5.5-1.2.7-2 .7-1 0-1.8-.3-2.4-1-.6-.6-.9-1.6-.9-2.8 0-.8.1-1.5.4-2.1.3-.6.7-1 1.2-1.3.5-.3 1.1-.4 1.7-.4.8 0 1.4.2 1.9.6.5.4.8 1 1 1.7l-1.2.2c-.1-.5-.3-.9-.6-1.1-.3-.2-.6-.4-1-.4-.6 0-1.1.2-1.5.7-.4.4-.6 1.1-.6 2.1s.2 1.7.6 2.1c.4.4.9.7 1.5.7.5 0 .9-.1 1.2-.4.2-.4.4-.8.5-1.4zm2.2 2.6v-10h1.2v5.7l2.9-2.9h1.6l-2.8 2.7 3 4.6h-1.5l-2.4-3.7-.9.8v2.9h-1.1zm11.3-5.8v-1.4h1.4v1.4h-1.4zm0 5.8v-1.4h1.4v1.4h-1.4zm-31.2 13.5l1.3.3c-.3 1.1-.8 1.9-1.5 2.5-.7.6-1.6.9-2.6.9-1.1 0-2-.2-2.6-.7-.7-.4-1.2-1.1-1.5-1.9-.4-.8-.5-1.7-.5-2.7 0-1 .2-2 .6-2.7.4-.8 1-1.4 1.7-1.8.7-.4 1.5-.6 2.4-.6 1 0 1.8.3 2.5.8s1.2 1.2 1.4 2.2l-1.3.3c-.2-.7-.6-1.3-1-1.6-.4-.3-1-.5-1.7-.5-.8 0-1.4.2-1.9.6-.5.4-.9.9-1.1 1.5-.2.6-.3 1.3-.3 1.9 0 .9.1 1.6.4 2.2.2.6.6 1.1 1.2 1.4.5.3 1.1.5 1.7.5.7 0 1.4-.2 1.9-.6.4-.5.7-1.1.9-2zm2.9 3.5v-10h2l2.4 7.1c.2.7.4 1.2.5 1.5.1-.4.3-.9.5-1.6l2.4-7h1.8v10h-1.3v-8.4l-2.9 8.4H290l-2.9-8.5v8.5h-1.3zm14.6 0v-4.2l-3.9-5.8h1.6l2 3c.4.6.7 1.1 1 1.7.3-.5.7-1.1 1.1-1.8l1.9-3h1.5l-4 5.8v4.2h-1.2zm6.4 0v-10h1.3v5l5-5h1.8l-4.2 4.1 4.4 6h-1.8l-3.6-5.1-1.6 1.6v3.5h-1.3zm9.6-5.8v-1.4h1.4v1.4h-1.4zm0 5.8v-1.4h1.4v1.4h-1.4zm7.5 0v-10h1.3v5l5-5h1.8l-4.2 4.1 4.4 6h-1.8l-3.6-5.1-1.6 1.6v3.5h-1.3zm13.5 0h-1.2v-7.9c-.3.3-.7.6-1.2.8-.5.3-.9.5-1.3.6v-1.2c.7-.3 1.3-.7 1.8-1.2s.9-.9 1.1-1.3h.8v10.2zm3.2-4.9c0-1.2.1-2.1.4-2.9.2-.7.6-1.3 1.1-1.7.5-.4 1.1-.6 1.8-.6.5 0 1 .1 1.4.3.4.2.7.5 1 .9.3.4.5.9.6 1.5.2.6.2 1.4.2 2.4 0 1.2-.1 2.1-.4 2.9-.2.7-.6 1.3-1.1 1.7-.5.4-1.1.6-1.8.6-1 0-1.7-.3-2.3-1-.6-.9-.9-2.2-.9-4.1zm1.3 0c0 1.7.2 2.8.6 3.3.4.5.9.8 1.4.8.6 0 1-.3 1.4-.8.4-.5.6-1.6.6-3.3 0-1.7-.2-2.8-.6-3.3-.4-.5-.9-.8-1.4-.8-.6 0-1 .2-1.4.7-.4.6-.6 1.7-.6 3.4zm6.5 0c0-1.2.1-2.1.4-2.9.2-.7.6-1.3 1.1-1.7.5-.4 1.1-.6 1.8-.6.5 0 1 .1 1.4.3.4.2.7.5 1 .9.3.4.5.9.6 1.5.2.6.2 1.4.2 2.4 0 1.2-.1 2.1-.4 2.9-.2.7-.6 1.3-1.1 1.7-.5.4-1.1.6-1.8.6-1 0-1.7-.3-2.3-1-.6-.9-.9-2.2-.9-4.1zm1.3 0c0 1.7.2 2.8.6 3.3.4.5.9.8 1.4.8.6 0 1-.3 1.4-.8.4-.5.6-1.6.6-3.3 0-1.7-.2-2.8-.6-3.3-.4-.5-.9-.8-1.4-.8-.6 0-1 .2-1.4.7-.4.6-.6 1.7-.6 3.4zm-73.9 21.9v-10h4.4c.9 0 1.6.1 2 .3.5.2.8.5 1.1 1 .3.5.4 1 .4 1.5 0 .7-.2 1.3-.7 1.8-.5.5-1.2.8-2.1.9.4.2.6.3.8.5.4.4.8.8 1.1 1.3l1.7 2.7h-1.7l-1.3-2.1c-.4-.6-.7-1.1-1-1.4l-.7-.7-.6-.3H277v4.5h-1.2zm1.3-5.6h2.9c.6 0 1.1-.1 1.4-.2.3-.1.6-.3.8-.6.2-.3.3-.6.3-.9 0-.5-.2-.9-.5-1.2-.3-.3-.9-.5-1.6-.5h-3.2v3.4zm13.5 1.7v-1.2h4.2v3.7c-.7.5-1.3.9-2 1.2-.7.3-1.4.4-2.1.4-1 0-1.9-.2-2.7-.6-.8-.4-1.4-1-1.8-1.8-.4-.8-.6-1.7-.6-2.7 0-1 .2-1.9.6-2.7.4-.8 1-1.5 1.8-1.9.8-.4 1.6-.6 2.6-.6.7 0 1.4.1 2 .4.6.2 1 .6 1.4 1 .3.4.6 1 .8 1.6l-1.2.3c-.2-.5-.3-.9-.6-1.2-.2-.3-.5-.5-1-.7-.4-.2-.9-.3-1.4-.3-.6 0-1.1.1-1.6.3-.4.2-.8.4-1.1.7-.3.3-.5.6-.6 1-.3.6-.4 1.3-.4 2 0 .9.2 1.6.5 2.2.3.6.8 1 1.3 1.3.6.3 1.2.4 1.9.4.6 0 1.1-.1 1.7-.3s1-.5 1.2-.7v-1.9h-2.9zm6.1 3.9v-10h3.8c.8 0 1.4.1 1.8.3.5.2.8.5 1.1.9.3.4.4.9.4 1.3s-.1.8-.4 1.2c-.2.4-.6.7-1.1.9.6.2 1.1.5 1.4.9.3.4.5.9.5 1.5 0 .5-.1.9-.3 1.3-.2.4-.4.7-.7.9-.3.2-.7.4-1.1.5-.4.1-1 .2-1.6.2h-3.8zm1.3-5.8h2.2c.6 0 1 0 1.3-.1.3-.1.6-.3.8-.5.2-.2.3-.5.3-.9 0-.3-.1-.6-.2-.9-.2-.3-.4-.4-.7-.5-.3-.1-.8-.1-1.5-.1h-2v3zm0 4.7h3.4c.3-.1.6-.1.8-.3.2-.1.4-.3.5-.6.1-.2.2-.5.2-.8 0-.4-.1-.7-.3-1-.2-.3-.5-.5-.8-.6-.3-.1-.8-.2-1.5-.2H298v3.5zm8.3-4.7v-1.4h1.4v1.4h-1.4zm0 5.8v-1.4h1.4v1.4h-1.4zm11.5 0v-10h4.4c.9 0 1.6.1 2 .3.5.2.8.5 1.1 1 .3.5.4 1 .4 1.5 0 .7-.2 1.3-.7 1.8-.5.5-1.2.8-2.1.9.4.2.6.3.8.5.4.4.8.8 1.1 1.3l1.7 2.7h-1.7l-1.3-2.1c-.4-.6-.7-1.1-1-1.4l-.7-.7-.6-.3H319v4.5h-1.2zm1.3-5.6h2.9c.6 0 1.1-.1 1.4-.2.3-.1.6-.3.8-.6.2-.3.3-.6.3-.9 0-.5-.2-.9-.5-1.2-.3-.3-.9-.5-1.6-.5h-3.2v3.4zm13.5 1.7v-1.2h4.2v3.7c-.7.5-1.3.9-2 1.2-.7.3-1.4.4-2.1.4-1 0-1.9-.2-2.7-.6-.8-.4-1.4-1-1.8-1.8-.4-.8-.6-1.7-.6-2.7 0-1 .2-1.9.6-2.7.4-.8 1-1.5 1.8-1.9.8-.4 1.6-.6 2.6-.6.7 0 1.4.1 2 .4.6.2 1 .6 1.4 1 .3.4.6 1 .8 1.6l-1.2.3c-.2-.5-.3-.9-.6-1.2-.2-.3-.5-.5-1-.7-.4-.2-.9-.3-1.4-.3-.6 0-1.1.1-1.6.3-.4.2-.8.4-1.1.7-.3.3-.5.6-.6 1-.3.6-.4 1.3-.4 2 0 .9.2 1.6.5 2.2.3.6.8 1 1.3 1.3.6.3 1.2.4 1.9.4.6 0 1.1-.1 1.7-.3s1-.5 1.2-.7v-1.9h-2.9zm6.1 3.9v-10h3.8c.8 0 1.4.1 1.8.3.5.2.8.5 1.1.9.3.4.4.9.4 1.3s-.1.8-.4 1.2c-.2.4-.6.7-1.1.9.6.2 1.1.5 1.4.9.3.4.5.9.5 1.5 0 .5-.1.9-.3 1.3-.2.4-.4.7-.7.9-.3.2-.7.4-1.1.5-.4.1-1 .2-1.6.2h-3.8zm1.3-5.8h2.2c.6 0 1 0 1.3-.1.3-.1.6-.3.8-.5.2-.2.3-.5.3-.9 0-.3-.1-.6-.2-.9-.2-.3-.4-.4-.7-.5-.3-.1-.8-.1-1.5-.1h-2v3zm0 4.7h3.4c.3-.1.6-.1.8-.3.2-.1.4-.3.5-.6.1-.2.2-.5.2-.8 0-.4-.1-.7-.3-1-.2-.3-.5-.5-.8-.6-.3-.1-.8-.2-1.5-.2H340v3.5zm11.5-3.8c0-1.2.1-2.1.4-2.9.2-.7.6-1.3 1.1-1.7.5-.4 1.1-.6 1.8-.6.5 0 1 .1 1.4.3.4.2.7.5 1 .9.3.4.5.9.6 1.5.2.6.2 1.4.2 2.4 0 1.2-.1 2.1-.4 2.9-.2.7-.6 1.3-1.1 1.7-.5.4-1.1.6-1.8.6-1 0-1.7-.3-2.3-1-.6-.9-.9-2.2-.9-4.1zm1.3 0c0 1.7.2 2.8.6 3.3.4.5.9.8 1.4.8.6 0 1-.3 1.4-.8.4-.5.6-1.6.6-3.3 0-1.7-.2-2.8-.6-3.3-.4-.5-.9-.8-1.4-.8-.6 0-1 .2-1.4.7-.4.6-.6 1.7-.6 3.4zm-72.4 18v-1.2h4.2v3.7c-.7.5-1.3.9-2 1.2-.7.3-1.4.4-2.1.4-1 0-1.9-.2-2.7-.6-.8-.4-1.4-1-1.8-1.8-.4-.8-.6-1.7-.6-2.7 0-1 .2-1.9.6-2.7.4-.8 1-1.5 1.8-1.9.8-.4 1.6-.6 2.6-.6.7 0 1.4.1 2 .4.6.2 1 .6 1.4 1 .3.4.6 1 .8 1.6l-1.2.3c-.2-.5-.3-.9-.6-1.2-.2-.3-.5-.5-1-.7-.4-.2-.9-.3-1.4-.3-.6 0-1.1.1-1.6.3-.4.2-.8.4-1.1.7-.3.3-.5.6-.6 1-.3.6-.4 1.3-.4 2 0 .9.2 1.6.5 2.2.3.6.8 1 1.3 1.3.6.3 1.2.4 1.9.4.6 0 1.1-.1 1.7-.3s1-.5 1.2-.7v-1.9h-2.9zm6.1 3.9v-7.3h1.1v1.1c.3-.5.5-.9.8-1 .2-.2.5-.2.8-.2.4 0 .8.1 1.3.4l-.4 1.1c-.3-.2-.6-.3-.9-.3-.3 0-.5.1-.7.2-.2.2-.4.4-.5.7-.1.4-.2.9-.2 1.4v3.8h-1.3zm9.4-.9c-.4.4-.9.7-1.3.8-.4.2-.9.2-1.4.2-.8 0-1.4-.2-1.9-.6-.4-.4-.6-.9-.6-1.5 0-.4.1-.7.2-1 .2-.3.4-.5.6-.7.3-.2.6-.3.9-.4.2-.1.6-.1 1.1-.2 1-.1 1.7-.3 2.2-.4v-.3c0-.5-.1-.9-.4-1.1-.3-.3-.8-.4-1.4-.4-.6 0-1 .1-1.3.3-.3.2-.5.6-.6 1.1l-1.2-.2c.1-.5.3-.9.5-1.2.3-.3.6-.6 1.1-.7.5-.2 1-.3 1.7-.3.6 0 1.1.1 1.5.2.4.1.7.3.9.5.2.2.3.5.4.8 0 .2.1.6.1 1.1v1.6c0 1.1 0 1.9.1 2.2l.3.9h-1.3c-.1 0-.2-.3-.2-.7zm-.1-2.7c-.4.2-1.1.3-2 .5-.5.1-.9.2-1.1.2-.2.1-.4.2-.5.4-.1.2-.2.4-.2.6 0 .3.1.6.4.8s.6.3 1.1.3c.5 0 .9-.1 1.3-.3.4-.2.6-.5.8-.8.1-.3.2-.7.2-1.2v-.5zm3.1 6.4l-.1-1.1c.3.1.5.1.7.1.3 0 .5 0 .7-.1.2-.1.3-.2.4-.4.1-.1.2-.4.4-.9 0-.1.1-.2.1-.3l-2.8-7.3h1.3l1.5 4.2c.2.5.4 1.1.5 1.7.1-.5.3-1.1.5-1.6l1.5-4.2h1.2l-2.7 7.4c-.3.8-.5 1.3-.7 1.6-.2.4-.5.7-.8.9-.3.2-.6.3-1 .3-.2-.1-.4-.2-.7-.3zm11.3-8.6v-1.4h1.4v1.4h-1.4zm0 5.8v-1.4h1.4v1.4h-1.4zm-27.3 13.5l1.3.3c-.3 1.1-.8 1.9-1.5 2.5-.7.6-1.6.9-2.6.9-1.1 0-2-.2-2.6-.7-.7-.4-1.2-1.1-1.5-1.9-.4-.8-.5-1.7-.5-2.7 0-1 .2-2 .6-2.7.4-.8 1-1.4 1.7-1.8.7-.4 1.5-.6 2.4-.6 1 0 1.8.3 2.5.8s1.2 1.2 1.4 2.2l-1.3.3c-.2-.7-.6-1.3-1-1.6-.4-.3-1-.5-1.7-.5-.8 0-1.4.2-1.9.6-.5.4-.9.9-1.1 1.5-.2.6-.3 1.3-.3 1.9 0 .9.1 1.6.4 2.2.2.6.6 1.1 1.2 1.4.5.3 1.1.5 1.7.5.7 0 1.4-.2 1.9-.6.4-.5.7-1.1.9-2zm2.9 3.5v-10h2l2.4 7.1c.2.7.4 1.2.5 1.5.1-.4.3-.9.5-1.6l2.4-7h1.8v10h-1.3v-8.4l-2.9 8.4H290l-2.9-8.5v8.5h-1.3zm14.6 0v-4.2l-3.9-5.8h1.6l2 3c.4.6.7 1.1 1 1.7.3-.5.7-1.1 1.1-1.8l1.9-3h1.5l-4 5.8v4.2h-1.2zm6.4 0v-10h1.3v5l5-5h1.8l-4.2 4.1 4.4 6h-1.8l-3.6-5.1-1.6 1.6v3.5h-1.3zm11-5.8v-1.4h-1.4v1.4h1.4zm0 5.8v-1.4h-1.4v1.4h1.4zm13.3-3.5l1.3.3c-.3 1.1-.8 1.9-1.5 2.5-.7.6-1.6.9-2.6.9-1.1 0-2-.2-2.6-.7-.7-.4-1.2-1.1-1.5-1.9-.4-.8-.5-1.7-.5-2.7 0-1 .2-2 .6-2.7.4-.8 1-1.4 1.7-1.8.7-.4 1.5-.6 2.4-.6 1 0 1.8.3 2.5.8s1.2 1.2 1.4 2.2l-1.3.3c-.2-.7-.6-1.3-1-1.6-.4-.3-1-.5-1.7-.5-.8 0-1.4.2-1.9.6-.5.4-.9.9-1.1 1.5-.2.6-.3 1.3-.3 1.9 0 .9.1 1.6.4 2.2.2.6.6 1.1 1.2 1.4.5.3 1.1.5 1.7.5.7 0 1.4-.2 1.9-.6.4-.5.8-1.1.9-2zm9 2.4v1.2h-6.6c0-.3 0-.6.1-.9.2-.5.4-.9.8-1.3s.9-.9 1.6-1.5c1.1-.9 1.8-1.6 2.2-2.1.4-.5.6-1 .6-1.5s-.2-.9-.5-1.2c-.3-.3-.8-.5-1.4-.5-.6 0-1.1.2-1.4.5-.4.4-.5.8-.5 1.5l-1.3-.1c.1-.9.4-1.7 1-2.2.6-.5 1.3-.7 2.3-.7 1 0 1.7.3 2.3.8.6.5.8 1.2.8 2 0 .4-.1.8-.2 1.2-.2.4-.4.8-.8 1.2-.4.4-1 1-1.9 1.8-.7.6-1.2 1-1.4 1.3-.2.2-.4.4-.5.7h4.8zm1.4-7.6v-1.2h6.5v1c-.6.7-1.3 1.6-1.9 2.7-.6 1.1-1.1 2.3-1.4 3.5-.2.8-.4 1.8-.5 2.8h-1.3c0-.8.2-1.7.5-2.9.3-1.1.7-2.2 1.3-3.2.6-1 1.1-1.9 1.8-2.6h-5zm12 8.7v-10h2l2.4 7.1c.2.7.4 1.2.5 1.5.1-.4.3-.9.5-1.6l2.4-7h1.8v10h-1.3v-8.4l-2.9 8.4h-1.2l-2.9-8.5v8.5h-1.3zm17.7-1.1v1.2h-6.6c0-.3 0-.6.1-.9.2-.5.4-.9.8-1.3s.9-.9 1.6-1.5c1.1-.9 1.8-1.6 2.2-2.1.4-.5.6-1 .6-1.5s-.2-.9-.5-1.2c-.3-.3-.8-.5-1.4-.5-.6 0-1.1.2-1.4.5-.4.4-.5.8-.5 1.5l-1.3-.1c.1-.9.4-1.7 1-2.2.6-.5 1.3-.7 2.3-.7 1 0 1.7.3 2.3.8.6.5.8 1.2.8 2 0 .4-.1.8-.2 1.2-.2.4-.4.8-.8 1.2-.4.4-1 1-1.9 1.8-.7.6-1.2 1-1.4 1.3-.2.2-.4.4-.5.7h4.8zm5.9 1.1h-1.2v-7.9c-.3.3-.7.6-1.2.8-.5.3-.9.5-1.3.6v-1.2c.7-.3 1.3-.7 1.8-1.2s.9-.9 1.1-1.3h.8v10.2zm10.2 0v-4.2l-3.9-5.8h1.6l2 3c.4.6.7 1.1 1 1.7.3-.5.7-1.1 1.1-1.8l1.9-3h1.5l-4 5.8v4.2h-1.2zm10.6 0h-1.2v-7.9c-.3.3-.7.6-1.2.8-.5.3-.9.5-1.3.6v-1.2c.7-.3 1.3-.7 1.8-1.2s.9-.9 1.1-1.3h.8v10.2zm5.1-5.4c-.5-.2-.9-.5-1.1-.8-.2-.3-.4-.8-.4-1.2 0-.7.3-1.3.8-1.8s1.2-.7 2.1-.7c.9 0 1.6.3 2.1.8s.8 1.1.8 1.9c0 .5-.1.9-.4 1.2-.2.3-.6.6-1.1.8.6.2 1.1.5 1.4 1 .3.4.5 1 .5 1.6 0 .9-.3 1.6-.9 2.2-.6.6-1.4.9-2.4.9s-1.8-.3-2.4-.9c-.6-.6-.9-1.3-.9-2.2 0-.7.2-1.2.5-1.6.3-.7.7-1 1.4-1.2zm-.7 2.5c0 .4.1.7.2 1 .2.3.4.6.7.8.3.2.7.3 1.1.3.6 0 1.1-.2 1.5-.6.4-.4.6-.9.6-1.4 0-.6-.2-1.1-.6-1.5-.4-.4-.9-.6-1.5-.6s-1.1.2-1.4.6c-.4.4-.6.9-.6 1.4zm.4-4.6c0 .5.2.9.5 1.2.3.3.7.5 1.2.5s.9-.1 1.2-.4c.3-.3.5-.7.5-1.1 0-.5-.2-.8-.5-1.1-.3-.3-.7-.5-1.2-.5s-.9.2-1.2.5c-.3.1-.5.5-.5.9zm-126.9 24.5v-10h4.4c.9 0 1.6.1 2 .3.5.2.8.5 1.1 1 .3.5.4 1 .4 1.5 0 .7-.2 1.3-.7 1.8-.5.5-1.2.8-2.1.9.4.2.6.3.8.5.4.4.8.8 1.1 1.3l1.7 2.7h-1.7l-1.3-2.1c-.4-.6-.7-1.1-1-1.4l-.7-.7-.6-.3H277v4.5h-1.2zm1.3-5.6h2.9c.6 0 1.1-.1 1.4-.2.3-.1.6-.3.8-.6.2-.3.3-.6.3-.9 0-.5-.2-.9-.5-1.2-.3-.3-.9-.5-1.6-.5h-3.2v3.4zm13.5 1.7v-1.2h4.2v3.7c-.7.5-1.3.9-2 1.2-.7.3-1.4.4-2.1.4-1 0-1.9-.2-2.7-.6-.8-.4-1.4-1-1.8-1.8-.4-.8-.6-1.7-.6-2.7 0-1 .2-1.9.6-2.7.4-.8 1-1.5 1.8-1.9.8-.4 1.6-.6 2.6-.6.7 0 1.4.1 2 .4.6.2 1 .6 1.4 1 .3.4.6 1 .8 1.6l-1.2.3c-.2-.5-.3-.9-.6-1.2-.2-.3-.5-.5-1-.7-.4-.2-.9-.3-1.4-.3-.6 0-1.1.1-1.6.3-.4.2-.8.4-1.1.7-.3.3-.5.6-.6 1-.3.6-.4 1.3-.4 2 0 .9.2 1.6.5 2.2.3.6.8 1 1.3 1.3.6.3 1.2.4 1.9.4.6 0 1.1-.1 1.7-.3s1-.5 1.2-.7v-1.9h-2.9zm6.1 3.9v-10h3.8c.8 0 1.4.1 1.8.3.5.2.8.5 1.1.9.3.4.4.9.4 1.3s-.1.8-.4 1.2c-.2.4-.6.7-1.1.9.6.2 1.1.5 1.4.9.3.4.5.9.5 1.5 0 .5-.1.9-.3 1.3-.2.4-.4.7-.7.9-.3.2-.7.4-1.1.5-.4.1-1 .2-1.6.2h-3.8zm1.3-5.8h2.2c.6 0 1 0 1.3-.1.3-.1.6-.3.8-.5.2-.2.3-.5.3-.9 0-.3-.1-.6-.2-.9-.2-.3-.4-.4-.7-.5-.3-.1-.8-.1-1.5-.1h-2v3zm0 4.7h3.4c.3-.1.6-.1.8-.3.2-.1.4-.3.5-.6.1-.2.2-.5.2-.8 0-.4-.1-.7-.3-1-.2-.3-.5-.5-.8-.6-.3-.1-.8-.2-1.5-.2H298v3.5zm8.3-4.7v-1.4h1.4v1.4h-1.4zm0 5.8v-1.4h1.4v1.4h-1.4zm7.6 0v-10h4.4c.9 0 1.6.1 2 .3.5.2.8.5 1.1 1 .3.5.4 1 .4 1.5 0 .7-.2 1.3-.7 1.8-.5.5-1.2.8-2.1.9.4.2.6.3.8.5.4.4.8.8 1.1 1.3l1.7 2.7h-1.7l-1.3-2.1c-.4-.6-.7-1.1-1-1.4l-.7-.7-.6-.3h-2.2v4.5h-1.2zm1.3-5.6h2.9c.6 0 1.1-.1 1.4-.2.3-.1.6-.3.8-.6.2-.3.3-.6.3-.9 0-.5-.2-.9-.5-1.2-.3-.3-.9-.5-1.6-.5h-3.2v3.4zm12.9 5.6h-1.2v-7.9c-.3.3-.7.6-1.2.8-.5.3-.9.5-1.3.6v-1.2c.7-.3 1.3-.7 1.8-1.2s.9-.9 1.1-1.3h.8v10.2zm3.2-8.7v-1.2h6.5v1c-.6.7-1.3 1.6-1.9 2.7-.6 1.1-1.1 2.3-1.4 3.5-.2.8-.4 1.8-.5 2.8h-1.3c0-.8.2-1.7.5-2.9.3-1.1.7-2.2 1.3-3.2.6-1 1.1-1.9 1.8-2.6h-5zm9.7 3.3c-.5-.2-.9-.5-1.1-.8-.2-.3-.4-.8-.4-1.2 0-.7.3-1.3.8-1.8s1.2-.7 2.1-.7c.9 0 1.6.3 2.1.8s.8 1.1.8 1.9c0 .5-.1.9-.4 1.2-.2.3-.6.6-1.1.8.6.2 1.1.5 1.4 1 .3.4.5 1 .5 1.6 0 .9-.3 1.6-.9 2.2-.6.6-1.4.9-2.4.9s-1.8-.3-2.4-.9c-.6-.6-.9-1.3-.9-2.2 0-.7.2-1.2.5-1.6.3-.7.7-1 1.4-1.2zm-.7 2.5c0 .4.1.7.2 1 .2.3.4.6.7.8.3.2.7.3 1.1.3.6 0 1.1-.2 1.5-.6.4-.4.6-.9.6-1.4 0-.6-.2-1.1-.6-1.5-.4-.4-.9-.6-1.5-.6s-1.1.2-1.4.6c-.4.4-.6.9-.6 1.4zm.4-4.6c0 .5.2.9.5 1.2.3.3.7.5 1.2.5s.9-.1 1.2-.4c.3-.3.5-.7.5-1.1 0-.5-.2-.8-.5-1.1-.3-.3-.7-.5-1.2-.5s-.9.2-1.2.5c-.3.1-.5.5-.5.9zm15.2 3.6v-1.2h4.2v3.7c-.7.5-1.3.9-2 1.2-.7.3-1.4.4-2.1.4-1 0-1.9-.2-2.7-.6-.8-.4-1.4-1-1.8-1.8-.4-.8-.6-1.7-.6-2.7 0-1 .2-1.9.6-2.7.4-.8 1-1.5 1.8-1.9.8-.4 1.6-.6 2.6-.6.7 0 1.4.1 2 .4.6.2 1 .6 1.4 1 .3.4.6 1 .8 1.6l-1.2.3c-.2-.5-.3-.9-.6-1.2-.2-.3-.5-.5-1-.7-.4-.2-.9-.3-1.4-.3-.6 0-1.1.1-1.6.3-.4.2-.8.4-1.1.7-.3.3-.5.6-.6 1-.3.6-.4 1.3-.4 2 0 .9.2 1.6.5 2.2.3.6.8 1 1.3 1.3.6.3 1.2.4 1.9.4.6 0 1.1-.1 1.7-.3s1-.5 1.2-.7v-1.9h-2.9zm10.3 3.9H365v-7.9c-.3.3-.7.6-1.2.8-.5.3-.9.5-1.3.6v-1.2c.7-.3 1.3-.7 1.8-1.2s.9-.9 1.1-1.3h.8v10.2zm5.1-5.4c-.5-.2-.9-.5-1.1-.8s-.4-.8-.4-1.2c0-.7.3-1.3.8-1.8s1.2-.7 2.1-.7c.9 0 1.6.3 2.1.8s.8 1.1.8 1.9c0 .5-.1.9-.4 1.2-.2.3-.6.6-1.1.8.6.2 1.1.5 1.4 1 .3.4.5 1 .5 1.6 0 .9-.3 1.6-.9 2.2-.6.6-1.4.9-2.4.9s-1.8-.3-2.4-.9c-.6-.6-.9-1.3-.9-2.2 0-.7.2-1.2.5-1.6.3-.7.8-1 1.4-1.2zm-.6 2.5c0 .4.1.7.2 1 .2.3.4.6.7.8.3.2.7.3 1.1.3.6 0 1.1-.2 1.5-.6.4-.4.6-.9.6-1.4 0-.6-.2-1.1-.6-1.5-.4-.4-.9-.6-1.5-.6s-1.1.2-1.4.6c-.5.4-.6.9-.6 1.4zm.4-4.6c0 .5.2.9.5 1.2.3.3.7.5 1.2.5s.9-.1 1.2-.4c.3-.3.5-.7.5-1.1 0-.5-.2-.8-.5-1.1-.3-.3-.7-.5-1.2-.5s-.9.2-1.2.5c-.4.1-.5.5-.5.9zm6.1 2.6c0-1.2.1-2.1.4-2.9.2-.7.6-1.3 1.1-1.7.5-.4 1.1-.6 1.8-.6.5 0 1 .1 1.4.3.4.2.7.5 1 .9.3.4.5.9.6 1.5.2.6.2 1.4.2 2.4 0 1.2-.1 2.1-.4 2.9-.2.7-.6 1.3-1.1 1.7-.5.4-1.1.6-1.8.6-1 0-1.7-.3-2.3-1-.6-.9-.9-2.2-.9-4.1zm1.3 0c0 1.7.2 2.8.6 3.3.4.5.9.8 1.4.8.6 0 1-.3 1.4-.8.4-.5.6-1.6.6-3.3 0-1.7-.2-2.8-.6-3.3-.4-.5-.9-.8-1.4-.8-.6 0-1 .2-1.4.7-.4.6-.6 1.7-.6 3.4zm10.8 4.9v-10h3.8c.8 0 1.4.1 1.8.3.5.2.8.5 1.1.9.3.4.4.9.4 1.3s-.1.8-.4 1.2c-.2.4-.6.7-1.1.9.6.2 1.1.5 1.4.9.3.4.5.9.5 1.5 0 .5-.1.9-.3 1.3-.2.4-.4.7-.7.9-.3.2-.7.4-1.1.5-.4.1-1 .2-1.6.2h-3.8zm1.4-5.8h2.2c.6 0 1 0 1.3-.1.3-.1.6-.3.8-.5.2-.2.3-.5.3-.9 0-.3-.1-.6-.2-.9-.2-.3-.4-.4-.7-.5-.3-.1-.8-.1-1.5-.1h-2v3zm0 4.7h3.4c.3-.1.6-.1.8-.3.2-.1.4-.3.5-.6.1-.2.2-.5.2-.8 0-.4-.1-.7-.3-1-.2-.3-.5-.5-.8-.6-.3-.1-.8-.2-1.5-.2h-2.3v3.5zm12.1 1.1h-1.2v-7.9c-.3.3-.7.6-1.2.8-.5.3-.9.5-1.3.6v-1.2c.7-.3 1.3-.7 1.8-1.2s.9-.9 1.1-1.3h.8v10.2zm5.1-5.4c-.5-.2-.9-.5-1.1-.8-.2-.3-.4-.8-.4-1.2 0-.7.3-1.3.8-1.8s1.2-.7 2.1-.7c.9 0 1.6.3 2.1.8s.8 1.1.8 1.9c0 .5-.1.9-.4 1.2-.2.3-.6.6-1.1.8.6.2 1.1.5 1.4 1 .3.4.5 1 .5 1.6 0 .9-.3 1.6-.9 2.2-.6.6-1.4.9-2.4.9s-1.8-.3-2.4-.9c-.6-.6-.9-1.3-.9-2.2 0-.7.2-1.2.5-1.6.3-.7.8-1 1.4-1.2zm-.7 2.5c0 .4.1.7.2 1 .2.3.4.6.7.8.3.2.7.3 1.1.3.6 0 1.1-.2 1.5-.6.4-.4.6-.9.6-1.4 0-.6-.2-1.1-.6-1.5-.4-.4-.9-.6-1.5-.6s-1.1.2-1.4.6c-.4.4-.6.9-.6 1.4zm.4-4.6c0 .5.2.9.5 1.2.3.3.7.5 1.2.5s.9-.1 1.2-.4c.3-.3.5-.7.5-1.1 0-.5-.2-.8-.5-1.1-.3-.3-.7-.5-1.2-.5s-.9.2-1.2.5c-.3.1-.5.5-.5.9zm10.8 7.5h-1.2v-7.9c-.3.3-.7.6-1.2.8-.5.3-.9.5-1.3.6v-1.2c.7-.3 1.3-.7 1.8-1.2s.9-.9 1.1-1.3h.8v10.2zm-134.7 60.7l1.3.3c-.3 1.1-.8 1.9-1.5 2.5-.7.6-1.6.9-2.6.9-1.1 0-2-.2-2.6-.7-.7-.4-1.2-1.1-1.5-1.9-.4-.8-.5-1.7-.5-2.7 0-1 .2-2 .6-2.7.4-.8 1-1.4 1.7-1.8.7-.4 1.5-.6 2.4-.6 1 0 1.8.3 2.5.8s1.2 1.2 1.4 2.2l-1.3.3c-.2-.7-.6-1.3-1-1.6-.4-.3-1-.5-1.7-.5-.8 0-1.4.2-1.9.6-.5.4-.9.9-1.1 1.5-.2.6-.3 1.3-.3 1.9 0 .9.1 1.6.4 2.2.2.6.6 1.1 1.2 1.4.5.3 1.1.5 1.7.5.7 0 1.4-.2 1.9-.6.4-.5.7-1.2.9-2zm2.3-.1c0-1.3.4-2.3 1.1-3 .6-.5 1.4-.8 2.3-.8 1 0 1.8.3 2.4 1 .6.7.9 1.6.9 2.7 0 .9-.1 1.7-.4 2.2-.3.5-.7 1-1.2 1.2-.5.3-1.1.4-1.8.4-1 0-1.8-.3-2.5-1-.5-.6-.8-1.5-.8-2.7zm1.3 0c0 .9.2 1.6.6 2.1.4.5.9.7 1.5.7s1.1-.2 1.5-.7c.4-.5.6-1.2.6-2.1 0-.9-.2-1.6-.6-2-.4-.5-.9-.7-1.5-.7s-1.1.2-1.5.7c-.4.3-.6 1-.6 2zm6.9 3.6v-10h1.2v10h-1.2zm2.7-3.6c0-1.3.4-2.3 1.1-3 .6-.5 1.4-.8 2.3-.8 1 0 1.8.3 2.4 1 .6.7.9 1.6.9 2.7 0 .9-.1 1.7-.4 2.2-.3.5-.7 1-1.2 1.2-.5.3-1.1.4-1.8.4-1 0-1.8-.3-2.5-1-.5-.6-.8-1.5-.8-2.7zm1.3 0c0 .9.2 1.6.6 2.1.4.5.9.7 1.5.7s1.1-.2 1.5-.7c.4-.5.6-1.2.6-2.1 0-.9-.2-1.6-.6-2-.4-.5-.9-.7-1.5-.7s-1.1.2-1.5.7c-.4.3-.6 1-.6 2zm7 3.6v-7.3h1.1v1.1c.3-.5.5-.9.8-1 .2-.2.5-.2.8-.2.4 0 .8.1 1.3.4l-.4 1.1c-.3-.2-.6-.3-.9-.3-.3 0-.5.1-.7.2-.2.2-.4.4-.5.7-.1.4-.2.9-.2 1.4v3.8h-1.3zm-25.8 17v-4.2l-3.9-5.8h1.6l2 3c.4.6.7 1.1 1 1.7.3-.5.7-1.1 1.1-1.8l1.9-3h1.5l-4 5.8v4.2h-1.2zm10-2.4l1.3.2c-.2.7-.6 1.3-1.1 1.7-.5.4-1.2.6-2.1.6-1.1 0-1.9-.3-2.5-1-.6-.7-.9-1.6-.9-2.7 0-1.2.3-2.2.9-2.8.6-.7 1.4-1 2.4-1s1.8.3 2.4 1c.6.7.9 1.6.9 2.8v.3h-5.4c0 .8.3 1.4.7 1.8.4.4.9.6 1.5.6.5 0 .8-.1 1.2-.4.3-.2.5-.5.7-1.1zm-4.1-1.9h4.1c-.1-.6-.2-1.1-.5-1.4-.4-.5-.9-.7-1.5-.7s-1 .2-1.4.6c-.4.3-.6.8-.7 1.5zm6.9 4.3v-10h1.2v10h-1.2zm2.7-3.6c0-1.3.4-2.3 1.1-3 .6-.5 1.4-.8 2.3-.8 1 0 1.8.3 2.4 1 .6.7.9 1.6.9 2.7 0 .9-.1 1.7-.4 2.2-.3.5-.7 1-1.2 1.2-.5.3-1.1.4-1.8.4-1 0-1.8-.3-2.5-1-.5-.6-.8-1.5-.8-2.7zm1.2 0c0 .9.2 1.6.6 2.1.4.5.9.7 1.5.7s1.1-.2 1.5-.7.6-1.2.6-2.1c0-.9-.2-1.6-.6-2-.4-.5-.9-.7-1.5-.7s-1.1.2-1.5.7c-.4.3-.6 1-.6 2zm8.3 3.6l-2.2-7.3h1.3l1.2 4.2.4 1.6c0-.1.1-.6.4-1.5l1.2-4.3h1.3l1.1 4.2.4 1.4.4-1.4 1.3-4.2h1.2l-2.3 7.3h-1.3l-1.2-4.4-.3-1.2-1.5 5.6h-1.4zm9.1-5.9v-1.4h1.4v1.4h-1.4zm0 5.9v-1.4h1.4v1.4h-1.4zm-29.8 13.5l1.3.3c-.3 1.1-.8 1.9-1.5 2.5-.7.6-1.6.9-2.6.9-1.1 0-2-.2-2.6-.7-.7-.4-1.2-1.1-1.5-1.9-.4-.8-.5-1.7-.5-2.7 0-1 .2-2 .6-2.7.4-.8 1-1.4 1.7-1.8.7-.4 1.5-.6 2.4-.6 1 0 1.8.3 2.5.8s1.2 1.2 1.4 2.2l-1.3.3c-.2-.7-.6-1.3-1-1.6-.4-.3-1-.5-1.7-.5-.8 0-1.4.2-1.9.6-.5.4-.9.9-1.1 1.5-.2.6-.3 1.3-.3 1.9 0 .9.1 1.6.4 2.2.2.6.6 1.1 1.2 1.4.5.3 1.1.5 1.7.5.7 0 1.4-.2 1.9-.6.4-.5.7-1.2.9-2zm2.9 3.5v-10h2l2.4 7.1c.2.7.4 1.2.5 1.5.1-.4.3-.9.5-1.6l2.4-7h1.8v10h-1.3v-8.4l-2.9 8.4h-1.2l-2.9-8.5v8.5h-1.3zm14.5 0v-4.2l-3.9-5.8h1.6l2 3c.4.6.7 1.1 1 1.7.3-.5.7-1.1 1.1-1.8l1.9-3h1.5l-4 5.8v4.2h-1.2zm6.5 0v-10h1.3v5l5-5h1.8l-4.2 4.1 4.4 6h-1.8l-3.6-5.1-1.6 1.6v3.5h-1.3zm9.6-5.9v-1.4h1.4v1.4h-1.4zm0 5.9v-1.4h1.4v1.4h-1.4zm14.7-3.5l1.3.3c-.3 1.1-.8 1.9-1.5 2.5-.7.6-1.6.9-2.6.9-1.1 0-2-.2-2.6-.7-.7-.4-1.2-1.1-1.5-1.9-.4-.8-.5-1.7-.5-2.7 0-1 .2-2 .6-2.7.4-.8 1-1.4 1.7-1.8.7-.4 1.5-.6 2.4-.6 1 0 1.8.3 2.5.8s1.2 1.2 1.4 2.2l-1.3.3c-.2-.7-.6-1.3-1-1.6-.4-.3-1-.5-1.7-.5-.8 0-1.4.2-1.9.6-.5.4-.9.9-1.1 1.5-.2.6-.3 1.3-.3 1.9 0 .9.1 1.6.4 2.2.2.6.6 1.1 1.2 1.4.5.3 1.1.5 1.7.5.7 0 1.4-.2 1.9-.6.4-.5.7-1.2.9-2zm7.1 3.5h-1.2v-7.9c-.3.3-.7.6-1.2.8-.5.3-.9.5-1.3.6v-1.2c.7-.3 1.3-.7 1.8-1.2s.9-.9 1.1-1.3h.8v10.2zm7.5 0v-10h2l2.4 7.1c.2.7.4 1.2.5 1.5.1-.4.3-.9.5-1.6l2.4-7h1.8v10h-1.3v-8.4l-2.9 8.4h-1.2l-2.9-8.5v8.5h-1.3zm17.7-1.2v1.2h-6.6c0-.3 0-.6.1-.9.2-.5.4-.9.8-1.3s.9-.9 1.6-1.5c1.1-.9 1.8-1.6 2.2-2.1.4-.5.6-1 .6-1.5s-.2-.9-.5-1.2c-.3-.3-.8-.5-1.4-.5-.6 0-1.1.2-1.4.5-.4.4-.5.9-.5 1.5l-1.3-.1c.1-.9.4-1.7 1-2.2.6-.5 1.3-.7 2.3-.7 1 0 1.7.3 2.3.8.6.5.8 1.2.8 2 0 .4-.1.8-.2 1.2-.2.4-.4.8-.8 1.2-.4.4-1 1-1.9 1.8-.7.6-1.2 1-1.4 1.3-.2.2-.4.4-.5.7h4.8zm3.2-4.2c-.5-.2-.9-.5-1.1-.8-.2-.3-.4-.8-.4-1.2 0-.7.3-1.3.8-1.8s1.2-.7 2.1-.7c.9 0 1.6.3 2.1.8s.8 1.1.8 1.9c0 .5-.1.9-.4 1.2-.2.3-.6.6-1.1.8.6.2 1.1.5 1.4 1 .3.4.5 1 .5 1.6 0 .9-.3 1.6-.9 2.2-.6.6-1.4.9-2.4.9s-1.8-.3-2.4-.9c-.6-.6-.9-1.3-.9-2.2 0-.7.2-1.2.5-1.6.3-.8.8-1.1 1.4-1.2zm-.7 2.5c0 .4.1.7.2 1 .2.3.4.6.7.8.3.2.7.3 1.1.3.6 0 1.1-.2 1.5-.6.4-.4.6-.9.6-1.4 0-.6-.2-1.1-.6-1.5-.4-.4-.9-.6-1.5-.6s-1.1.2-1.4.6c-.4.3-.6.8-.6 1.4zm.4-4.6c0 .5.2.9.5 1.2.3.3.7.5 1.2.5s.9-.1 1.2-.4c.3-.3.5-.7.5-1.1 0-.5-.2-.8-.5-1.1-.3-.3-.7-.5-1.2-.5s-.9.2-1.2.5c-.3.1-.5.4-.5.9zm13.1 7.5v-4.2l-3.9-5.8h1.6l2 3c.4.6.7 1.1 1 1.7.3-.5.7-1.1 1.1-1.8l1.9-3h1.5l-4 5.8v4.2h-1.2zm6.2-2.3l1.2-.1c.1.5.3.9.6 1.2.3.2.6.4 1.1.4.4 0 .7-.1 1-.3.3-.2.5-.4.7-.7.2-.3.3-.7.5-1.2.1-.5.2-1 .2-1.5v-.2c-.2.4-.6.7-1 1-.4.2-.9.4-1.4.4-.8 0-1.5-.3-2.1-.9-.6-.6-.9-1.4-.9-2.4s.3-1.8.9-2.5c.6-.6 1.3-.9 2.2-.9.6 0 1.2.2 1.8.5.5.4.9.9 1.2 1.5.3.7.4 1.6.4 2.8 0 1.3-.1 2.3-.4 3.1-.3.8-.7 1.3-1.2 1.7-.5.4-1.2.6-1.9.6-.8 0-1.4-.2-1.9-.7-.6-.4-.9-1-1-1.8zm5-4.5c0-.7-.2-1.3-.6-1.7-.4-.4-.8-.6-1.3-.6s-1 .2-1.4.7c-.4.4-.6 1-.6 1.7 0 .6.2 1.2.6 1.6.4.4.9.6 1.4.6.6 0 1-.2 1.4-.6.4-.4.5-1 .5-1.7zm7.3 6.8h-1.2v-7.9c-.3.3-.7.6-1.2.8-.5.3-.9.5-1.3.6v-1.2c.7-.3 1.3-.7 1.8-1.2s.9-.9 1.1-1.3h.8v10.2zm7.5 0v-10h1.3v5l5-5h1.8l-4.2 4.1 4.4 6h-1.8l-3.6-5.1-1.6 1.6v3.5h-1.3zm15.3-1.2v1.2h-6.6c0-.3 0-.6.1-.9.2-.5.4-.9.8-1.3s.9-.9 1.6-1.5c1.1-.9 1.8-1.6 2.2-2.1.4-.5.6-1 .6-1.5s-.2-.9-.5-1.2c-.3-.3-.8-.5-1.4-.5-.6 0-1.1.2-1.4.5-.4.4-.5.9-.5 1.5l-1.3-.1c.1-.9.4-1.7 1-2.2.6-.5 1.3-.7 2.3-.7 1 0 1.7.3 2.3.8.6.5.8 1.2.8 2 0 .4-.1.8-.2 1.2-.2.4-.4.8-.8 1.2-.4.4-1 1-1.9 1.8-.7.6-1.2 1-1.4 1.3-.2.2-.4.4-.5.7h4.8zm-145 18.2v-10h4.4c.9 0 1.6.1 2 .3.5.2.8.5 1.1 1 .3.5.4 1 .4 1.5 0 .7-.2 1.3-.7 1.8-.5.5-1.2.8-2.1.9.4.2.6.3.8.5.4.4.8.8 1.1 1.3l1.7 2.7h-1.7l-1.3-2.1c-.4-.6-.7-1.1-1-1.4l-.7-.7-.6-.3h-2.2v4.5h-1.2zm1.4-5.6h2.9c.6 0 1.1-.1 1.4-.2.3-.1.6-.3.8-.6.2-.3.3-.6.3-.9 0-.5-.2-.9-.5-1.2-.3-.3-.9-.5-1.6-.5H278v3.4zm13.4 1.7v-1.2h4.2v3.7c-.7.5-1.3.9-2 1.2-.7.3-1.4.4-2.1.4-1 0-1.9-.2-2.7-.6-.8-.4-1.4-1-1.8-1.8-.4-.8-.6-1.7-.6-2.7 0-1 .2-1.9.6-2.7.4-.8 1-1.5 1.8-1.9.8-.4 1.6-.6 2.6-.6.7 0 1.4.1 2 .4.6.2 1 .6 1.4 1 .3.4.6 1 .8 1.6l-1.2.3c-.2-.5-.3-.9-.6-1.2-.2-.3-.5-.5-1-.7-.4-.2-.9-.3-1.4-.3-.6 0-1.1.1-1.6.3-.4.2-.8.4-1.1.7-.3.3-.5.6-.6 1-.3.6-.4 1.3-.4 2 0 .9.2 1.6.5 2.2.3.6.8 1.1 1.3 1.3.6.3 1.2.4 1.9.4.6 0 1.1-.1 1.7-.3.5-.2 1-.5 1.2-.7v-1.9h-2.9zm6.2 3.9v-10h3.8c.8 0 1.4.1 1.8.3.5.2.8.5 1.1.9.3.4.4.9.4 1.3s-.1.8-.4 1.2c-.2.4-.6.7-1.1.9.6.2 1.1.5 1.4.9.3.4.5.9.5 1.5 0 .5-.1.9-.3 1.3-.2.4-.4.7-.7.9-.3.2-.7.4-1.1.5-.4.1-1 .2-1.6.2h-3.8zm1.3-5.8h2.2c.6 0 1 0 1.3-.1.3-.1.6-.3.8-.5.2-.2.3-.5.3-.9 0-.3-.1-.6-.2-.9-.2-.3-.4-.4-.7-.5-.3-.1-.8-.1-1.5-.1h-2v3zm0 4.6h3.4c.3-.1.6-.1.8-.3.2-.1.4-.3.5-.6.1-.2.2-.5.2-.8 0-.4-.1-.7-.3-1-.2-.3-.5-.5-.8-.6-.3-.1-.8-.2-1.5-.2h-2.3v3.5zm9.6-4.7v-1.4H307v1.4h1.4zm0 5.9v-1.4H307v1.4h1.4zm6.3 0v-10h4.4c.9 0 1.6.1 2 .3.5.2.8.5 1.1 1 .3.5.4 1 .4 1.5 0 .7-.2 1.3-.7 1.8-.5.5-1.2.8-2.1.9.4.2.6.3.8.5.4.4.8.8 1.1 1.3l1.7 2.7h-1.7l-1.3-2.1c-.4-.6-.7-1.1-1-1.4l-.7-.7-.6-.3H316v4.5h-1.3zm1.3-5.6h2.9c.6 0 1.1-.1 1.4-.2.3-.1.6-.3.8-.6.2-.3.3-.6.3-.9 0-.5-.2-.9-.5-1.2-.3-.3-.9-.5-1.6-.5H316v3.4zm14.7 4.4v1.2h-6.6c0-.3 0-.6.1-.9.2-.5.4-.9.8-1.3s.9-.9 1.6-1.5c1.1-.9 1.8-1.6 2.2-2.1.4-.5.6-1 .6-1.5s-.2-.9-.5-1.2c-.3-.3-.8-.5-1.4-.5-.6 0-1.1.2-1.4.5-.4.4-.5.9-.5 1.5l-1.3-.1c.1-.9.4-1.7 1-2.2.6-.5 1.3-.7 2.3-.7 1 0 1.7.3 2.3.8.6.5.8 1.2.8 2 0 .4-.1.8-.2 1.2-.2.4-.4.8-.8 1.2-.4.4-1 1-1.9 1.8-.7.6-1.2 1-1.4 1.3-.2.2-.4.4-.5.7h4.8zm7.8 0v1.2h-6.6c0-.3 0-.6.1-.9.2-.5.4-.9.8-1.3s.9-.9 1.6-1.5c1.1-.9 1.8-1.6 2.2-2.1.4-.5.6-1 .6-1.5s-.2-.9-.5-1.2c-.3-.3-.8-.5-1.4-.5-.6 0-1.1.2-1.4.5-.4.4-.5.9-.5 1.5l-1.3-.1c.1-.9.4-1.7 1-2.2.6-.5 1.3-.7 2.3-.7 1 0 1.7.3 2.3.8.6.5.8 1.2.8 2 0 .4-.1.8-.2 1.2-.2.4-.4.8-.8 1.2-.4.4-1 1-1.9 1.8-.7.6-1.2 1-1.4 1.3-.2.2-.4.4-.5.7h4.8zm1.3-1.4l1.3-.1c.1.6.3 1.1.7 1.4.3.3.8.5 1.3.5.6 0 1.1-.2 1.5-.7.4-.4.6-1 .6-1.8 0-.7-.2-1.3-.6-1.7-.4-.4-.9-.6-1.5-.6-.4 0-.8.1-1.1.3s-.6.4-.7.7l-1.2-.2 1-5.2h5v1.2h-4l-.5 2.7c.6-.4 1.2-.6 1.9-.6.9 0 1.6.3 2.2.9.6.6.9 1.4.9 2.3 0 .9-.3 1.7-.8 2.4-.6.8-1.5 1.2-2.6 1.2-.9 0-1.7-.3-2.2-.8-.8-.4-1.1-1.1-1.2-1.9zm16.9-1.3v-1.2h4.2v3.7c-.7.5-1.3.9-2 1.2-.7.3-1.4.4-2.1.4-1 0-1.9-.2-2.7-.6-.8-.4-1.4-1-1.8-1.8-.4-.8-.6-1.7-.6-2.7 0-1 .2-1.9.6-2.7.4-.8 1-1.5 1.8-1.9.8-.4 1.6-.6 2.6-.6.7 0 1.4.1 2 .4.6.2 1 .6 1.4 1 .3.4.6 1 .8 1.6l-1.2.3c-.2-.5-.3-.9-.6-1.2-.2-.3-.5-.5-1-.7-.4-.2-.9-.3-1.4-.3-.6 0-1.1.1-1.6.3-.4.2-.8.4-1.1.7-.3.3-.5.6-.6 1-.3.6-.4 1.3-.4 2 0 .9.2 1.6.5 2.2.3.6.8 1.1 1.3 1.3.6.3 1.2.4 1.9.4.6 0 1.1-.1 1.7-.3.5-.2 1-.5 1.2-.7v-1.9h-2.9zm10.3 3.9h-1.2v-7.9c-.3.3-.7.6-1.2.8-.5.3-.9.5-1.3.6v-1.2c.7-.3 1.3-.7 1.8-1.2s.9-.9 1.1-1.3h.8v10.2zm3.3-8.7v-1.2h6.5v1c-.6.7-1.3 1.6-1.9 2.7-.6 1.1-1.1 2.3-1.4 3.5-.2.8-.4 1.8-.5 2.8h-1.3c0-.8.2-1.7.5-2.9.3-1.1.7-2.2 1.3-3.2s1.1-1.9 1.8-2.6h-5zm7.7 0v-1.2h6.5v1c-.6.7-1.3 1.6-1.9 2.7-.6 1.1-1.1 2.3-1.4 3.5-.2.8-.4 1.8-.5 2.8h-1.3c0-.8.2-1.7.5-2.9.3-1.1.7-2.2 1.3-3.2.6-1 1.1-1.9 1.8-2.6h-5zm12.1 8.7v-10h3.8c.8 0 1.4.1 1.8.3.5.2.8.5 1.1.9.3.4.4.9.4 1.3s-.1.8-.4 1.2c-.2.4-.6.7-1.1.9.6.2 1.1.5 1.4.9.3.4.5.9.5 1.5 0 .5-.1.9-.3 1.3-.2.4-.4.7-.7.9-.3.2-.7.4-1.1.5-.4.1-1 .2-1.6.2h-3.8zm1.3-5.8h2.2c.6 0 1 0 1.3-.1.3-.1.6-.3.8-.5.2-.2.3-.5.3-.9 0-.3-.1-.6-.2-.9-.2-.3-.4-.4-.7-.5-.3-.1-.8-.1-1.5-.1h-2v3zm0 4.6h3.4c.3-.1.6-.1.8-.3.2-.1.4-.3.5-.6.1-.2.2-.5.2-.8 0-.4-.1-.7-.3-1-.2-.3-.5-.5-.8-.6-.3-.1-.8-.2-1.5-.2h-2.3v3.5zm7.6-1.4l1.3-.1c.1.6.3 1.1.7 1.4.3.3.8.5 1.3.5.6 0 1.1-.2 1.5-.7.4-.4.6-1 .6-1.8 0-.7-.2-1.3-.6-1.7-.4-.4-.9-.6-1.5-.6-.4 0-.8.1-1.1.3s-.6.4-.7.7l-1.2-.2 1-5.2h5v1.2h-4l-.5 2.7c.6-.4 1.2-.6 1.9-.6.9 0 1.6.3 2.2.9.6.6.9 1.4.9 2.3 0 .9-.3 1.7-.8 2.4-.6.8-1.5 1.2-2.6 1.2-.9 0-1.7-.3-2.2-.8-.8-.4-1.1-1.1-1.2-1.9zm7.8-6.1v-1.2h6.5v1c-.6.7-1.3 1.6-1.9 2.7-.6 1.1-1.1 2.3-1.4 3.5-.2.8-.4 1.8-.5 2.8h-1.3c0-.8.2-1.7.5-2.9.3-1.1.7-2.2 1.3-3.2.6-1 1.1-1.9 1.8-2.6h-5zm-130.3 25.7v-10h3.8c.7 0 1.2 0 1.5.1.5.1.9.2 1.2.5.3.2.6.6.8 1 .2.4.3.9.3 1.4 0 .9-.3 1.6-.8 2.2-.5.6-1.5.9-2.9.9h-2.6v4.1h-1.3zm1.4-5.3h2.6c.9 0 1.5-.2 1.8-.5.4-.3.5-.8.5-1.3 0-.4-.1-.8-.3-1.1-.2-.3-.5-.5-.8-.6-.2-.1-.6-.1-1.2-.1h-2.6v3.6zm7.9 5.3v-10h2l2.4 7.1c.2.7.4 1.2.5 1.5.1-.4.3-.9.5-1.6l2.4-7h1.8v10h-1.3v-8.4l-2.9 8.4H290l-2.9-8.5v8.5h-1.3zm11.3-3.2l1.2-.1c.1.5.2.9.4 1.2.2.3.5.6 1 .8.5.2 1 .3 1.5.3s.9-.1 1.3-.2c.4-.2.7-.4.9-.6.2-.3.3-.5.3-.9 0-.3-.1-.6-.3-.8-.2-.2-.5-.4-.9-.6-.3-.1-.9-.3-1.8-.5s-1.6-.4-1.9-.6c-.5-.3-.8-.6-1.1-.9-.2-.4-.4-.8-.4-1.3s.1-1 .4-1.4c.3-.4.7-.8 1.3-1 .5-.2 1.2-.3 1.8-.3.7 0 1.4.1 2 .4.6.2 1 .6 1.3 1.1.3.5.5 1 .5 1.6l-1.3.1c-.1-.6-.3-1.1-.7-1.4-.4-.3-1-.5-1.7-.5-.8 0-1.4.1-1.8.4-.4.3-.5.6-.5 1.1 0 .4.1.7.4.9.3.2.9.5 2 .7 1.1.2 1.8.5 2.2.6.6.3 1 .6 1.3 1 .3.4.4.9.4 1.4 0 .5-.2 1-.5 1.5s-.7.8-1.3 1.1c-.6.3-1.2.4-1.9.4-.9 0-1.7-.1-2.3-.4-.6-.3-1.1-.7-1.4-1.2-.2-.7-.4-1.3-.4-1.9zm11.3-2.7v-1.4H307v1.4h1.4zm0 5.9v-1.4H307v1.4h1.4zm10.4 0h-1.2v-7.9c-.3.3-.7.6-1.2.8-.5.3-.9.5-1.3.6v-1.2c.7-.3 1.3-.7 1.8-1.2s.9-.9 1.1-1.3h.8v10.2zm3.1-2.7l1.2-.2c.1.7.4 1.2.7 1.5.3.3.7.5 1.2.5.6 0 1.1-.2 1.5-.6.4-.4.6-.9.6-1.5s-.2-1-.5-1.4c-.4-.4-.8-.6-1.4-.6-.2 0-.5 0-.9.1l.1-1.1h.2c.5 0 1-.1 1.4-.4.4-.3.6-.7.6-1.3 0-.5-.2-.8-.5-1.1-.3-.3-.7-.4-1.2-.4s-.9.1-1.2.4-.5.7-.6 1.3l-1.2-.2c.1-.8.5-1.5 1-1.9.5-.5 1.2-.7 2-.7.5 0 1 .1 1.5.4.5.2.8.6 1.1 1 .2.4.4.8.4 1.3 0 .4-.1.8-.3 1.2-.2.4-.6.6-1 .8.6.1 1.1.4 1.4.9.3.4.5 1 .5 1.6 0 .9-.3 1.6-1 2.2-.6.6-1.4.9-2.4.9-.9 0-1.6-.3-2.2-.8-.5-.3-.9-1-1-1.9zm7.8-2.3c0-1.2.1-2.1.4-2.9.2-.7.6-1.3 1.1-1.7.5-.4 1.1-.6 1.8-.6.5 0 1 .1 1.4.3.4.2.7.5 1 .9.3.4.5.9.6 1.5.2.6.2 1.4.2 2.4 0 1.2-.1 2.1-.4 2.9-.2.7-.6 1.3-1.1 1.7-.5.4-1.1.6-1.8.6-1 0-1.7-.3-2.3-1-.5-.8-.9-2.2-.9-4.1zm1.3 0c0 1.7.2 2.8.6 3.3.4.5.9.8 1.4.8.6 0 1-.3 1.4-.8.4-.5.6-1.6.6-3.3 0-1.7-.2-2.8-.6-3.3-.4-.5-.9-.8-1.4-.8-.6 0-1 .2-1.4.7-.4.7-.6 1.8-.6 3.4zm14.2 1.5l1.3.3c-.3 1.1-.8 1.9-1.5 2.5-.7.6-1.6.9-2.6.9-1.1 0-2-.2-2.6-.7-.7-.4-1.2-1.1-1.5-1.9-.4-.8-.5-1.7-.5-2.7 0-1 .2-2 .6-2.7.4-.8 1-1.4 1.7-1.8.7-.4 1.5-.6 2.4-.6 1 0 1.8.3 2.5.8s1.2 1.2 1.4 2.2l-1.3.3c-.2-.7-.6-1.3-1-1.6-.4-.3-1-.5-1.7-.5-.8 0-1.4.2-1.9.6-.5.4-.9.9-1.1 1.5-.2.6-.3 1.3-.3 1.9 0 .9.1 1.6.4 2.2.2.6.6 1.1 1.2 1.4.5.3 1.1.5 1.7.5.7 0 1.4-.2 1.9-.6.3-.5.7-1.2.9-2zm-68.7 37.5v-10h3.8c.8 0 1.4.1 1.8.3.5.2.8.5 1.1.9.3.4.4.9.4 1.3s-.1.8-.4 1.2c-.2.4-.6.7-1.1.9.6.2 1.1.5 1.4.9.3.4.5.9.5 1.5 0 .5-.1.9-.3 1.3-.2.4-.4.7-.7.9-.3.2-.7.4-1.1.5-.4.1-1 .2-1.6.2h-3.8zm1.3-5.8h2.2c.6 0 1 0 1.3-.1.3-.1.6-.3.8-.5.2-.2.3-.5.3-.9 0-.3-.1-.6-.2-.9-.2-.3-.4-.4-.7-.5-.3-.1-.8-.1-1.5-.1h-2v3zm0 4.6h3.4c.3-.1.6-.1.8-.3.2-.1.4-.3.5-.6.1-.2.2-.5.2-.8 0-.4-.1-.7-.3-1-.2-.3-.5-.5-.8-.6-.3-.1-.8-.2-1.5-.2h-2.3v3.5zm7.9 1.2v-10h1.2v10h-1.2zm7.9 0v-1.1c-.6.8-1.3 1.2-2.3 1.2-.4 0-.8-.1-1.2-.2-.4-.2-.6-.4-.8-.6-.2-.2-.3-.6-.4-.9 0-.2-.1-.6-.1-1.1v-4.5h1.2v4c0 .6 0 1.1.1 1.3.1.3.2.6.5.8.3.2.6.3.9.3.4 0 .7-.1 1-.3.3-.2.6-.4.7-.8.1-.3.2-.8.2-1.4v-3.9h1.2v7.3h-1zm8-2.4l1.3.2c-.2.7-.6 1.3-1.1 1.7-.5.4-1.2.6-2.1.6-1.1 0-1.9-.3-2.5-1-.6-.7-.9-1.6-.9-2.7 0-1.2.3-2.2.9-2.8.6-.7 1.4-1 2.4-1s1.8.3 2.4 1c.6.7.9 1.6.9 2.8v.3h-5.4c0 .8.3 1.4.7 1.8.4.4.9.6 1.5.6.5 0 .8-.1 1.2-.4.2-.2.5-.5.7-1.1zm-4.1-1.9h4.1c-.1-.6-.2-1.1-.5-1.4-.4-.5-.9-.7-1.5-.7s-1 .2-1.4.6c-.4.3-.6.8-.7 1.5zm7.2-1.6v-1.4h1.4v1.4h-1.4zm0 5.9v-1.4h1.4v1.4h-1.4zm-21 13.5l1.3.3c-.3 1.1-.8 1.9-1.5 2.5-.7.6-1.6.9-2.6.9-1.1 0-2-.2-2.6-.7-.7-.4-1.2-1.1-1.5-1.9-.4-.8-.5-1.7-.5-2.7 0-1 .2-2 .6-2.7.4-.8 1-1.4 1.7-1.8.7-.4 1.5-.6 2.4-.6 1 0 1.8.3 2.5.8s1.2 1.2 1.4 2.2l-1.3.3c-.2-.7-.6-1.3-1-1.6-.4-.3-1-.5-1.7-.5-.8 0-1.4.2-1.9.6-.5.4-.9.9-1.1 1.5-.2.6-.3 1.3-.3 1.9 0 .9.1 1.6.4 2.2.2.6.6 1.1 1.2 1.4.5.3 1.1.5 1.7.5.7 0 1.4-.2 1.9-.6.4-.5.7-1.2.9-2zm2.9 3.5v-10h2l2.4 7.1c.2.7.4 1.2.5 1.5.1-.4.3-.9.5-1.6l2.4-7h1.8v10h-1.3v-8.4l-2.9 8.4h-1.2l-2.9-8.5v8.5h-1.3zm14.5 0v-4.2l-3.9-5.8h1.6l2 3c.4.6.7 1.1 1 1.7.3-.5.7-1.1 1.1-1.8l1.9-3h1.5l-4 5.8v4.2h-1.2zm6.5 0v-10h1.3v5l5-5h1.8l-4.2 4.1 4.4 6h-1.8l-3.6-5.1-1.6 1.6v3.5h-1.3zm9.6-5.9v-1.4h1.4v1.4h-1.4zm0 5.9v-1.4h1.4v1.4h-1.4zm14.7-3.5l1.3.3c-.3 1.1-.8 1.9-1.5 2.5-.7.6-1.6.9-2.6.9-1.1 0-2-.2-2.6-.7-.7-.4-1.2-1.1-1.5-1.9-.4-.8-.5-1.7-.5-2.7 0-1 .2-2 .6-2.7.4-.8 1-1.4 1.7-1.8.7-.4 1.5-.6 2.4-.6 1 0 1.8.3 2.5.8s1.2 1.2 1.4 2.2l-1.3.3c-.2-.7-.6-1.3-1-1.6-.4-.3-1-.5-1.7-.5-.8 0-1.4.2-1.9.6-.5.4-.9.9-1.1 1.5-.2.6-.3 1.3-.3 1.9 0 .9.1 1.6.4 2.2.2.6.6 1.1 1.2 1.4.5.3 1.1.5 1.7.5.7 0 1.4-.2 1.9-.6.4-.5.7-1.2.9-2zm6.4 3.5v-2.4H334v-1.1l4.6-6.5h1v6.5h1.4v1.1h-1.4v2.4h-1.3zm0-3.5v-4.5l-3.1 4.5h3.1zm4 1.2l1.2-.1c.1.5.3.9.6 1.2.3.2.6.4 1.1.4.4 0 .7-.1 1-.3.3-.2.5-.4.7-.7.2-.3.3-.7.5-1.2.1-.5.2-1 .2-1.5v-.2c-.2.4-.6.7-1 1-.4.2-.9.4-1.4.4-.8 0-1.5-.3-2.1-.9-.6-.6-.9-1.4-.9-2.4s.3-1.8.9-2.5c.6-.6 1.3-.9 2.2-.9.6 0 1.2.2 1.8.5.5.4.9.9 1.2 1.5s.4 1.6.4 2.8c0 1.3-.1 2.3-.4 3.1-.3.8-.7 1.3-1.2 1.7-.5.4-1.2.6-1.9.6-.8 0-1.4-.2-1.9-.7-.6-.4-.9-1-1-1.8zm5-4.5c0-.7-.2-1.3-.6-1.7-.4-.4-.8-.6-1.3-.6s-1 .2-1.4.7c-.4.4-.6 1-.6 1.7 0 .6.2 1.2.6 1.6.4.4.9.6 1.4.6.6 0 1-.2 1.4-.6.4-.4.5-1 .5-1.7zm7 6.8v-10h2l2.4 7.1c.2.7.4 1.2.5 1.5.1-.4.3-.9.5-1.6l2.4-7h1.8v10h-1.3v-8.4l-2.9 8.4h-1.2l-2.9-8.5v8.5h-1.3zm15.8 0h-1.2v-7.9c-.3.3-.7.6-1.2.8-.5.3-.9.5-1.3.6v-1.2c.7-.3 1.3-.7 1.8-1.2s.9-.9 1.1-1.3h.8v10.2zm6.8 0h-1.2v-7.9c-.3.3-.7.6-1.2.8-.5.3-.9.5-1.3.6v-1.2c.7-.3 1.3-.7 1.8-1.2s.9-.9 1.1-1.3h.8v10.2zm-100.4 17v-10h4.4c.9 0 1.6.1 2 .3.5.2.8.5 1.1 1 .3.5.4 1 .4 1.5 0 .7-.2 1.3-.7 1.8-.5.5-1.2.8-2.1.9.4.2.6.3.8.5.4.4.8.8 1.1 1.3l1.7 2.7h-1.7l-1.3-2.1c-.4-.6-.7-1.1-1-1.4l-.7-.7-.6-.3h-2.2v4.5h-1.2zm1.4-5.6h2.9c.6 0 1.1-.1 1.4-.2.3-.1.6-.3.8-.6.2-.3.3-.6.3-.9 0-.5-.2-.9-.5-1.2-.3-.3-.9-.5-1.6-.5H278v3.4zm13.4 1.7v-1.2h4.2v3.7c-.7.5-1.3.9-2 1.2-.7.3-1.4.4-2.1.4-1 0-1.9-.2-2.7-.6-.8-.4-1.4-1-1.8-1.8-.4-.8-.6-1.7-.6-2.7 0-1 .2-1.9.6-2.7.4-.8 1-1.5 1.8-1.9.8-.4 1.6-.6 2.6-.6.7 0 1.4.1 2 .4.6.2 1 .6 1.4 1 .3.4.6 1 .8 1.6l-1.2.3c-.2-.5-.3-.9-.6-1.2-.2-.3-.5-.5-1-.7-.4-.2-.9-.3-1.4-.3-.6 0-1.1.1-1.6.3-.4.2-.8.4-1.1.7-.3.3-.5.6-.6 1-.3.6-.4 1.3-.4 2 0 .9.2 1.6.5 2.2.3.6.8 1 1.3 1.3.6.3 1.2.4 1.9.4.6 0 1.1-.1 1.7-.3.5-.2 1-.5 1.2-.7v-1.9h-2.9zm6.2 3.9v-10h3.8c.8 0 1.4.1 1.8.3.5.2.8.5 1.1.9.3.4.4.9.4 1.3s-.1.8-.4 1.2c-.2.4-.6.7-1.1.9.6.2 1.1.5 1.4.9.3.4.5.9.5 1.5 0 .5-.1.9-.3 1.3-.2.4-.4.7-.7.9-.3.2-.7.4-1.1.5-.4.1-1 .2-1.6.2h-3.8zm1.3-5.8h2.2c.6 0 1 0 1.3-.1.3-.1.6-.3.8-.5.2-.2.3-.5.3-.9 0-.3-.1-.6-.2-.9-.2-.3-.4-.4-.7-.5-.3-.1-.8-.1-1.5-.1h-2v3zm0 4.6h3.4c.3-.1.6-.1.8-.3.2-.1.4-.3.5-.6.1-.2.2-.5.2-.8 0-.4-.1-.7-.3-1-.2-.3-.5-.5-.8-.6-.3-.1-.8-.2-1.5-.2h-2.3v3.5zm8.2-4.7v-1.4h1.4v1.4H307zm0 5.9v-1.4h1.4v1.4H307zm7.7 0v-10h4.4c.9 0 1.6.1 2 .3.5.2.8.5 1.1 1 .3.5.4 1 .4 1.5 0 .7-.2 1.3-.7 1.8-.5.5-1.2.8-2.1.9.4.2.6.3.8.5.4.4.8.8 1.1 1.3l1.7 2.7h-1.7l-1.3-2.1c-.4-.6-.7-1.1-1-1.4l-.7-.7-.6-.3H316v4.5h-1.3zm1.3-5.6h2.9c.6 0 1.1-.1 1.4-.2.3-.1.6-.3.8-.6.2-.3.3-.6.3-.9 0-.5-.2-.9-.5-1.2-.3-.3-.9-.5-1.6-.5H316v3.4zm12.9 5.6h-1.2v-7.9c-.3.3-.7.6-1.2.8-.5.3-.9.5-1.3.6v-1.2c.7-.3 1.3-.7 1.8-1.2s.9-.9 1.1-1.3h.8v10.2zm3.2-2.7l1.2-.2c.1.7.4 1.2.7 1.5.3.3.7.5 1.2.5.6 0 1.1-.2 1.5-.6.4-.4.6-.9.6-1.5s-.2-1-.5-1.4c-.4-.4-.8-.6-1.4-.6-.2 0-.5 0-.9.1l.1-1.1h.2c.5 0 1-.1 1.4-.4.4-.3.6-.7.6-1.3 0-.5-.2-.8-.5-1.1-.3-.3-.7-.4-1.2-.4s-.9.2-1.2.4c-.3.3-.5.7-.6 1.3l-1.2-.2c.1-.8.5-1.5 1-1.9.5-.5 1.2-.7 2-.7.5 0 1 .1 1.5.4.5.2.8.6 1.1 1 .2.4.4.8.4 1.3 0 .4-.1.8-.3 1.2-.2.4-.6.6-1 .8.6.1 1.1.4 1.4.9.3.4.5 1 .5 1.6 0 .9-.3 1.6-1 2.2-.6.6-1.4.9-2.4.9-.9 0-1.6-.3-2.2-.8-.6-.3-1-1-1-1.9zm9.6-2.7c-.5-.2-.9-.5-1.1-.8-.2-.3-.4-.8-.4-1.2 0-.7.3-1.3.8-1.8s1.2-.7 2.1-.7c.9 0 1.6.3 2.1.8s.8 1.1.8 1.9c0 .5-.1.9-.4 1.2-.2.3-.6.6-1.1.8.6.2 1.1.5 1.4 1 .3.4.5 1 .5 1.6 0 .9-.3 1.6-.9 2.2-.6.6-1.4.9-2.4.9s-1.8-.3-2.4-.9c-.6-.6-.9-1.3-.9-2.2 0-.7.2-1.2.5-1.6.3-.8.8-1.1 1.4-1.2zm-.6 2.5c0 .4.1.7.2 1 .2.3.4.6.7.8.3.2.7.3 1.1.3.6 0 1.1-.2 1.5-.6.4-.4.6-.9.6-1.4 0-.6-.2-1.1-.6-1.5-.4-.4-.9-.6-1.5-.6s-1.1.2-1.4.6c-.4.3-.6.8-.6 1.4zm.4-4.6c0 .5.2.9.5 1.2.3.3.7.5 1.2.5s.9-.1 1.2-.4c.3-.3.5-.7.5-1.1 0-.5-.2-.8-.5-1.1-.3-.3-.7-.5-1.2-.5s-.9.2-1.2.5c-.4.1-.5.5-.5.9zm15.2 3.6v-1.2h4.2v3.7c-.7.5-1.3.9-2 1.2-.7.3-1.4.4-2.1.4-1 0-1.9-.2-2.7-.6-.8-.4-1.4-1-1.8-1.8-.4-.8-.6-1.7-.6-2.7 0-1 .2-1.9.6-2.7.4-.8 1-1.5 1.8-1.9.8-.4 1.6-.6 2.6-.6.7 0 1.4.1 2 .4.6.2 1 .6 1.4 1 .3.4.6 1 .8 1.6l-1.2.3c-.2-.5-.3-.9-.6-1.2-.2-.3-.5-.5-1-.7-.4-.2-.9-.3-1.4-.3-.6 0-1.1.1-1.6.3-.4.2-.8.4-1.1.7-.3.3-.5.6-.6 1-.3.6-.4 1.3-.4 2 0 .9.2 1.6.5 2.2.3.6.8 1 1.3 1.3.6.3 1.2.4 1.9.4.6 0 1.1-.1 1.7-.3.5-.2 1-.5 1.2-.7v-1.9h-2.9zm10.3 3.9h-1.2v-7.9c-.3.3-.7.6-1.2.8-.5.3-.9.5-1.3.6v-1.2c.7-.3 1.3-.7 1.8-1.2s.9-.9 1.1-1.3h.8v10.2zm5.1-5.4c-.5-.2-.9-.5-1.1-.8-.2-.3-.4-.8-.4-1.2 0-.7.3-1.3.8-1.8s1.2-.7 2.1-.7c.9 0 1.6.3 2.1.8s.8 1.1.8 1.9c0 .5-.1.9-.4 1.2-.2.3-.6.6-1.1.8.6.2 1.1.5 1.4 1 .3.4.5 1 .5 1.6 0 .9-.3 1.6-.9 2.2-.6.6-1.4.9-2.4.9s-1.8-.3-2.4-.9c-.6-.6-.9-1.3-.9-2.2 0-.7.2-1.2.5-1.6.3-.8.8-1.1 1.4-1.2zm-.7 2.5c0 .4.1.7.2 1 .2.3.4.6.7.8.3.2.7.3 1.1.3.6 0 1.1-.2 1.5-.6.4-.4.6-.9.6-1.4 0-.6-.2-1.1-.6-1.5-.4-.4-.9-.6-1.5-.6s-1.1.2-1.4.6-.6.8-.6 1.4zm.4-4.6c0 .5.2.9.5 1.2.3.3.7.5 1.2.5s.9-.1 1.2-.4c.3-.3.5-.7.5-1.1 0-.5-.2-.8-.5-1.1-.3-.3-.7-.5-1.2-.5s-.9.2-1.2.5c-.3.1-.5.5-.5.9zm6.2 2.5c0-1.2.1-2.1.4-2.9.2-.7.6-1.3 1.1-1.7.5-.4 1.1-.6 1.8-.6.5 0 1 .1 1.4.3s.7.5 1 .9c.3.4.5.9.6 1.5.2.6.2 1.4.2 2.4 0 1.2-.1 2.1-.4 2.9-.2.7-.6 1.3-1.1 1.7-.5.4-1.1.6-1.8.6-1 0-1.7-.3-2.3-1-.6-.8-.9-2.2-.9-4.1zm1.2 0c0 1.7.2 2.8.6 3.3.4.5.9.8 1.4.8.6 0 1-.3 1.4-.8s.6-1.6.6-3.3c0-1.7-.2-2.8-.6-3.3-.4-.5-.9-.8-1.4-.8-.6 0-1 .2-1.4.7-.4.7-.6 1.8-.6 3.4zm10.9 5v-10h3.8c.8 0 1.4.1 1.8.3.5.2.8.5 1.1.9.3.4.4.9.4 1.3s-.1.8-.4 1.2c-.2.4-.6.7-1.1.9.6.2 1.1.5 1.4.9.3.4.5.9.5 1.5 0 .5-.1.9-.3 1.3-.2.4-.4.7-.7.9-.3.2-.7.4-1.1.5-.4.1-1 .2-1.6.2h-3.8zm1.3-5.8h2.2c.6 0 1 0 1.3-.1.3-.1.6-.3.8-.5.2-.2.3-.5.3-.9 0-.3-.1-.6-.2-.9-.2-.3-.4-.4-.7-.5-.3-.1-.8-.1-1.5-.1h-2v3zm0 4.6h3.4c.3-.1.6-.1.8-.3.2-.1.4-.3.5-.6.1-.2.2-.5.2-.8 0-.4-.1-.7-.3-1-.2-.3-.5-.5-.8-.6-.3-.1-.8-.2-1.5-.2h-2.3v3.5zm14 0v1.2h-6.6c0-.3 0-.6.1-.9.2-.5.4-.9.8-1.3s.9-.9 1.6-1.5c1.1-.9 1.8-1.6 2.2-2.1.4-.5.6-1 .6-1.5s-.2-.9-.5-1.2c-.3-.3-.8-.5-1.4-.5-.6 0-1.1.2-1.4.5-.4.4-.5.9-.5 1.5l-1.3-.1c.1-.9.4-1.7 1-2.2.6-.5 1.3-.7 2.3-.7 1 0 1.7.3 2.3.8.6.5.8 1.2.8 2 0 .4-.1.8-.2 1.2-.2.4-.4.8-.8 1.2-.4.4-1 1-1.9 1.8-.7.6-1.2 1-1.4 1.3-.2.2-.4.4-.5.7h4.8zm6 1.2h-1.2v-7.9c-.3.3-.7.6-1.2.8-.5.3-.9.5-1.3.6v-1.2c.7-.3 1.3-.7 1.8-1.2s.9-.9 1.1-1.3h.8v10.2zm7.1 0v-2.4h-4.3v-1.1l4.6-6.5h1v6.5h1.4v1.1h-1.4v2.4h-1.3zm0-3.5v-4.5l-3.1 4.5h3.1zm-142 20.5v-10h3.8c.7 0 1.2 0 1.5.1.5.1.9.2 1.2.5.3.2.6.6.8 1 .2.4.3.9.3 1.4 0 .9-.3 1.6-.8 2.2-.5.6-1.5.9-2.9.9h-2.6v4.1h-1.3zm1.4-5.3h2.6c.9 0 1.5-.2 1.8-.5.4-.3.5-.8.5-1.3 0-.4-.1-.8-.3-1.1-.2-.3-.5-.5-.8-.6-.2-.1-.6-.1-1.2-.1h-2.6v3.6zm7.9 5.3v-10h2l2.4 7.1c.2.7.4 1.2.5 1.5.1-.4.3-.9.5-1.6l2.4-7h1.8v10h-1.3v-8.4l-2.9 8.4H290l-2.9-8.5v8.5h-1.3zm11.3-3.2l1.2-.1c.1.5.2.9.4 1.2.2.3.5.6 1 .8.5.2 1 .3 1.5.3s.9-.1 1.3-.2c.4-.2.7-.4.9-.6.2-.3.3-.5.3-.9 0-.3-.1-.6-.3-.8-.2-.2-.5-.4-.9-.6-.3-.1-.9-.3-1.8-.5s-1.6-.4-1.9-.6c-.5-.3-.8-.6-1.1-.9-.2-.4-.4-.8-.4-1.3s.1-1 .4-1.4c.3-.4.7-.8 1.3-1 .5-.2 1.2-.3 1.8-.3.7 0 1.4.1 2 .4.6.2 1 .6 1.3 1.1.3.5.5 1 .5 1.6l-1.3.1c-.1-.6-.3-1.1-.7-1.4-.4-.3-1-.5-1.7-.5-.8 0-1.4.1-1.8.4-.4.3-.5.6-.5 1.1 0 .4.1.7.4.9.3.2.9.5 2 .7 1.1.2 1.8.5 2.2.6.6.3 1 .6 1.3 1 .3.4.4.9.4 1.4 0 .5-.2 1-.5 1.5s-.7.8-1.3 1.1-1.2.4-1.9.4c-.9 0-1.7-.1-2.3-.4-.6-.3-1.1-.7-1.4-1.2-.2-.7-.4-1.3-.4-1.9zm9.9-2.7v-1.4h1.4v1.4H307zm0 5.9v-1.4h1.4v1.4H307zm13.6-1.2v1.2H314c0-.3 0-.6.1-.9.2-.5.4-.9.8-1.3s.9-.9 1.6-1.5c1.1-.9 1.8-1.6 2.2-2.1.4-.5.6-1 .6-1.5s-.2-.9-.5-1.2c-.3-.3-.8-.5-1.4-.5-.6 0-1.1.2-1.4.5-.4.4-.5.9-.5 1.5l-1.3-.1c.1-.9.4-1.7 1-2.2.6-.5 1.3-.7 2.3-.7 1 0 1.7.3 2.3.8.6.5.8 1.2.8 2 0 .4-.1.8-.2 1.2-.2.4-.4.8-.8 1.2-.4.4-1 1-1.9 1.8-.7.6-1.2 1-1.4 1.3-.2.2-.4.4-.5.7h4.8zm1.5-1.1l1.2-.1c.1.5.3.9.6 1.2.3.2.6.4 1.1.4.4 0 .7-.1 1-.3.3-.2.5-.4.7-.7.2-.3.3-.7.5-1.2.1-.5.2-1 .2-1.5v-.2c-.2.4-.6.7-1 1-.4.2-.9.4-1.4.4-.8 0-1.5-.3-2.1-.9-.6-.6-.9-1.4-.9-2.4s.3-1.8.9-2.5c.6-.6 1.3-.9 2.2-.9.6 0 1.2.2 1.8.5.5.4.9.9 1.2 1.5.3.7.4 1.6.4 2.8 0 1.3-.1 2.3-.4 3.1-.3.8-.7 1.3-1.2 1.7-.5.4-1.2.6-1.9.6-.8 0-1.4-.2-1.9-.7-.6-.4-.9-1-1-1.8zm5-4.5c0-.7-.2-1.3-.6-1.7-.4-.4-.8-.6-1.3-.6s-1 .2-1.4.7c-.4.4-.6 1-.6 1.7 0 .6.2 1.2.6 1.6.4.4.9.6 1.4.6.6 0 1-.2 1.4-.6.3-.4.5-1 .5-1.7zm9.1 5.6v1.2h-6.6c0-.3 0-.6.1-.9.2-.5.4-.9.8-1.3s.9-.9 1.6-1.5c1.1-.9 1.8-1.6 2.2-2.1.4-.5.6-1 .6-1.5s-.2-.9-.5-1.2c-.3-.3-.8-.5-1.4-.5-.6 0-1.1.2-1.4.5-.4.4-.5.9-.5 1.5l-1.3-.1c.1-.9.4-1.7 1-2.2.6-.5 1.3-.7 2.3-.7 1 0 1.7.3 2.3.8.6.5.8 1.2.8 2 0 .4-.1.8-.2 1.2-.2.4-.4.8-.8 1.2-.4.4-1 1-1.9 1.8-.7.6-1.2 1-1.4 1.3-.2.2-.4.4-.5.7h4.8zm9-2.3l1.3.3c-.3 1.1-.8 1.9-1.5 2.5-.7.6-1.6.9-2.6.9-1.1 0-2-.2-2.6-.7-.7-.4-1.2-1.1-1.5-1.9-.4-.8-.5-1.7-.5-2.7 0-1 .2-2 .6-2.7.4-.8 1-1.4 1.7-1.8.7-.4 1.5-.6 2.4-.6 1 0 1.8.3 2.5.8s1.2 1.2 1.4 2.2l-1.3.3c-.2-.7-.6-1.3-1-1.6-.4-.3-1-.5-1.7-.5-.8 0-1.4.2-1.9.6-.5.4-.9.9-1.1 1.5-.2.6-.3 1.3-.3 1.9 0 .9.1 1.6.4 2.2.2.6.6 1.1 1.2 1.4.5.3 1.1.5 1.7.5.7 0 1.4-.2 1.9-.6.3-.5.7-1.2.9-2zm-64 33.6v-1.2h4.2v3.7c-.7.5-1.3.9-2 1.2-.7.3-1.4.4-2.1.4-1 0-1.9-.2-2.7-.6-.8-.4-1.4-1-1.8-1.8-.4-.8-.6-1.7-.6-2.7 0-1 .2-1.9.6-2.7.4-.8 1-1.5 1.8-1.9.8-.4 1.6-.6 2.6-.6.7 0 1.4.1 2 .4.6.2 1 .6 1.4 1 .3.4.6 1 .8 1.6l-1.2.3c-.2-.5-.3-.9-.6-1.2-.2-.3-.5-.5-1-.7-.4-.2-.9-.3-1.4-.3-.6 0-1.1.1-1.6.3-.4.2-.8.4-1.1.7-.3.3-.5.6-.6 1-.3.6-.4 1.3-.4 2 0 .9.2 1.6.5 2.2.3.6.8 1 1.3 1.3.6.3 1.2.4 1.9.4.6 0 1.1-.1 1.7-.3s1-.5 1.2-.7v-1.9h-2.9zm6 3.9v-7.3h1.1v1.1c.3-.5.5-.9.8-1 .2-.2.5-.2.8-.2.4 0 .8.1 1.3.4l-.4 1.1c-.3-.2-.6-.3-.9-.3-.3 0-.5.1-.7.2-.2.2-.4.4-.5.7-.1.4-.2.9-.2 1.4v3.8h-1.3zm9.7-2.4l1.3.2c-.2.7-.6 1.3-1.1 1.7-.5.4-1.2.6-2.1.6-1.1 0-1.9-.3-2.5-1-.6-.7-.9-1.6-.9-2.7 0-1.2.3-2.2.9-2.8.6-.7 1.4-1 2.4-1s1.8.3 2.4 1c.6.7.9 1.6.9 2.8v.3h-5.4c0 .8.3 1.4.7 1.8.4.4.9.6 1.5.6.5 0 .8-.1 1.2-.4.3-.2.5-.5.7-1.1zm-4.1-1.9h4.1c-.1-.6-.2-1.1-.5-1.4-.4-.5-.9-.7-1.5-.7s-1 .2-1.4.6c-.4.3-.6.8-.7 1.5zm11.9 1.9l1.3.2c-.2.7-.6 1.3-1.1 1.7-.5.4-1.2.6-2.1.6-1.1 0-1.9-.3-2.5-1-.6-.7-.9-1.6-.9-2.7 0-1.2.3-2.2.9-2.8.6-.7 1.4-1 2.4-1s1.8.3 2.4 1c.6.7.9 1.6.9 2.8v.3h-5.4c0 .8.3 1.4.7 1.8.4.4.9.6 1.5.6.5 0 .8-.1 1.2-.4.2-.2.5-.5.7-1.1zm-4.1-1.9h4.1c-.1-.6-.2-1.1-.5-1.4-.4-.5-.9-.7-1.5-.7s-1 .2-1.4.6c-.4.3-.6.8-.7 1.5zm6.9 4.3v-7.3h1.1v1c.5-.8 1.3-1.2 2.3-1.2.4 0 .8.1 1.2.2.4.2.6.4.8.6.2.3.3.6.4.9 0 .2.1.6.1 1.2v4.5h-1.2V-80c0-.5 0-.9-.1-1.1-.1-.2-.3-.4-.5-.6-.2-.1-.5-.2-.9-.2-.5 0-1 .2-1.3.5-.4.3-.6 1-.6 1.9v4h-1.3zm9.5-5.9v-1.4h-1.4v1.4h1.4zm0 5.9V-77h-1.4v1.4h1.4zm-33.3 13.5l1.3.3c-.3 1.1-.8 1.9-1.5 2.5-.7.6-1.6.9-2.6.9-1.1 0-2-.2-2.6-.7-.7-.4-1.2-1.1-1.5-1.9-.4-.8-.5-1.7-.5-2.7 0-1 .2-2 .6-2.7.4-.8 1-1.4 1.7-1.8.7-.4 1.5-.6 2.4-.6 1 0 1.8.3 2.5.8s1.2 1.2 1.4 2.2l-1.3.3c-.2-.7-.6-1.3-1-1.6-.4-.3-1-.5-1.7-.5-.8 0-1.4.2-1.9.6-.5.4-.9.9-1.1 1.5-.2.6-.3 1.3-.3 1.9 0 .9.1 1.6.4 2.2.2.6.6 1.1 1.2 1.4.5.3 1.1.5 1.7.5.7 0 1.4-.2 1.9-.6.4-.5.7-1.2.9-2zm2.9 3.5v-10h2l2.4 7.1c.2.7.4 1.2.5 1.5.1-.4.3-.9.5-1.6l2.4-7h1.8v10h-1.3V-67l-2.9 8.4h-1.2l-2.9-8.5v8.5h-1.3zm14.5 0v-4.2l-3.9-5.8h1.6l2 3c.4.6.7 1.1 1 1.7.3-.5.7-1.1 1.1-1.8l1.9-3h1.5l-4 5.8v4.2h-1.2zm6.5 0v-10h1.3v5l5-5h1.8l-4.2 4.1 4.4 6h-1.8l-3.6-5.1-1.6 1.6v3.5h-1.3zm9.6-5.9v-1.4h1.4v1.4h-1.4zm0 5.9V-60h1.4v1.4h-1.4zm14.7-3.5l1.3.3c-.3 1.1-.8 1.9-1.5 2.5-.7.6-1.6.9-2.6.9-1.1 0-2-.2-2.6-.7-.7-.4-1.2-1.1-1.5-1.9-.4-.8-.5-1.7-.5-2.7 0-1 .2-2 .6-2.7.4-.8 1-1.4 1.7-1.8.7-.4 1.5-.6 2.4-.6 1 0 1.8.3 2.5.8s1.2 1.2 1.4 2.2l-1.3.3c-.2-.7-.6-1.3-1-1.6-.4-.3-1-.5-1.7-.5-.8 0-1.4.2-1.9.6-.5.4-.9.9-1.1 1.5-.2.6-.3 1.3-.3 1.9 0 .9.1 1.6.4 2.2.2.6.6 1.1 1.2 1.4.5.3 1.1.5 1.7.5.7 0 1.4-.2 1.9-.6.4-.5.7-1.2.9-2zm8.9-4.1l-1.2.1c-.1-.5-.3-.8-.5-1.1-.3-.4-.7-.5-1.2-.5-.4 0-.7.1-1 .3-.4.3-.7.7-.9 1.2-.2.5-.3 1.3-.3 2.3.3-.5.7-.8 1.1-1 .4-.2.9-.3 1.3-.3.8 0 1.5.3 2.1.9.6.6.9 1.4.9 2.3 0 .6-.1 1.2-.4 1.8-.3.5-.6 1-1.1 1.2-.5.3-1 .4-1.6.4-1 0-1.9-.4-2.5-1.1-.6-.8-1-2-1-3.7 0-1.9.4-3.4 1.1-4.2.6-.8 1.5-1.2 2.5-1.2.8 0 1.4.2 1.9.7.4.5.7 1.1.8 1.9zm-5.1 4.3c0 .4.1.8.3 1.2.2.4.4.7.7.9.3.2.7.3 1 .3.5 0 1-.2 1.3-.6.4-.4.6-1 .6-1.7s-.2-1.2-.5-1.6c-.4-.4-.8-.6-1.4-.6-.6 0-1 .2-1.4.6-.4.4-.6.9-.6 1.5zm6.6 1l1.2-.1c.1.5.3.9.6 1.2.3.2.6.4 1.1.4.4 0 .7-.1 1-.3.3-.2.5-.4.7-.7.2-.3.3-.7.5-1.2.1-.5.2-1 .2-1.5v-.2c-.2.4-.6.7-1 1-.4.2-.9.4-1.4.4-.8 0-1.5-.3-2.1-.9-.6-.6-.9-1.4-.9-2.4s.3-1.8.9-2.5c.6-.6 1.3-.9 2.2-.9.6 0 1.2.2 1.8.5.5.4.9.9 1.2 1.5s.4 1.6.4 2.8c0 1.3-.1 2.3-.4 3.1-.3.8-.7 1.3-1.2 1.7-.5.4-1.2.6-1.9.6-.8 0-1.4-.2-1.9-.7-.6-.4-.9-1-1-1.8zm5-4.5c0-.7-.2-1.3-.6-1.7-.4-.4-.8-.6-1.3-.6s-1 .2-1.4.7c-.4.4-.6 1-.6 1.7 0 .6.2 1.2.6 1.6.4.4.9.6 1.4.6.6 0 1-.2 1.4-.6.4-.4.5-1 .5-1.7zm9.6 6.8v-4.2l-3.9-5.8h1.6l2 3c.4.6.7 1.1 1 1.7.3-.5.7-1.1 1.1-1.8l1.9-3h1.5l-4 5.8v4.2h-1.2zm6-2.7l1.2-.2c.1.7.4 1.2.7 1.5.3.3.7.5 1.2.5.6 0 1.1-.2 1.5-.6.4-.4.6-.9.6-1.5s-.2-1-.5-1.4c-.4-.4-.8-.6-1.4-.6-.2 0-.5 0-.9.1l.1-1.1h.2c.5 0 1-.1 1.4-.4.4-.3.6-.7.6-1.3 0-.5-.2-.8-.5-1.1-.3-.3-.7-.4-1.2-.4s-.9.2-1.2.4c-.3.3-.5.7-.6 1.3l-1.2-.2c.1-.8.5-1.5 1-1.9.5-.5 1.2-.7 2-.7.5 0 1 .1 1.5.4.5.2.8.6 1.1 1 .2.4.4.8.4 1.3 0 .4-.1.8-.3 1.2-.2.4-.6.6-1 .8.6.1 1.1.4 1.4.9.3.4.5 1 .5 1.6 0 .9-.3 1.6-1 2.2-.6.6-1.4.9-2.4.9-.9 0-1.6-.3-2.2-.8-.6-.3-.9-1-1-1.9zm7.9-6v-1.2h6.5v1c-.6.7-1.3 1.6-1.9 2.7-.6 1.1-1.1 2.3-1.4 3.5-.2.8-.4 1.8-.5 2.8h-1.3c0-.8.2-1.7.5-2.9.3-1.1.7-2.2 1.3-3.2.6-1 1.1-1.9 1.8-2.6h-5zm-94.3 25.7v-10h4.4c.9 0 1.6.1 2 .3.5.2.8.5 1.1 1 .3.5.4 1 .4 1.5 0 .7-.2 1.3-.7 1.8-.5.5-1.2.8-2.1.9.4.2.6.3.8.5.4.4.8.8 1.1 1.3l1.7 2.7h-1.7l-1.3-2.1c-.4-.6-.7-1.1-1-1.4l-.7-.7-.6-.3h-2.2v4.5h-1.2zm1.4-5.6h2.9c.6 0 1.1-.1 1.4-.2.3-.1.6-.3.8-.6.2-.3.3-.6.3-.9 0-.5-.2-.9-.5-1.2-.3-.3-.9-.5-1.6-.5H278v3.4zm13.4 1.7v-1.2h4.2v3.7c-.7.5-1.3.9-2 1.2-.7.3-1.4.4-2.1.4-1 0-1.9-.2-2.7-.6-.8-.4-1.4-1-1.8-1.8-.4-.8-.6-1.7-.6-2.7 0-1 .2-1.9.6-2.7.4-.8 1-1.5 1.8-1.9.8-.4 1.6-.6 2.6-.6.7 0 1.4.1 2 .4.6.2 1 .6 1.4 1 .3.4.6 1 .8 1.6l-1.2.3c-.2-.5-.3-.9-.6-1.2-.2-.3-.5-.5-1-.7-.4-.2-.9-.3-1.4-.3-.6 0-1.1.1-1.6.3-.4.2-.8.4-1.1.7-.3.3-.5.6-.6 1-.3.6-.4 1.3-.4 2 0 .9.2 1.6.5 2.2.3.6.8 1 1.3 1.3.6.3 1.2.4 1.9.4.6 0 1.1-.1 1.7-.3s1-.5 1.2-.7v-1.9h-2.9zm6.2 3.9v-10h3.8c.8 0 1.4.1 1.8.3.5.2.8.5 1.1.9.3.4.4.9.4 1.3s-.1.8-.4 1.2c-.2.4-.6.7-1.1.9.6.2 1.1.5 1.4.9.3.4.5.9.5 1.5 0 .5-.1.9-.3 1.3-.2.4-.4.7-.7.9-.3.2-.7.4-1.1.5-.4.1-1 .2-1.6.2h-3.8zm1.3-5.8h2.2c.6 0 1 0 1.3-.1.3-.1.6-.3.8-.5.2-.2.3-.5.3-.9 0-.3-.1-.6-.2-.9-.2-.3-.4-.4-.7-.5-.3-.1-.8-.1-1.5-.1h-2v3zm0 4.6h3.4c.3-.1.6-.1.8-.3.2-.1.4-.3.5-.6.1-.2.2-.5.2-.8 0-.4-.1-.7-.3-1-.2-.3-.5-.5-.8-.6-.3-.1-.8-.2-1.5-.2h-2.3v3.5zm8.2-4.7v-1.4h1.4v1.4H307zm0 5.9V-43h1.4v1.4H307zm7.7 0v-10h4.4c.9 0 1.6.1 2 .3.5.2.8.5 1.1 1 .3.5.4 1 .4 1.5 0 .7-.2 1.3-.7 1.8-.5.5-1.2.8-2.1.9.4.2.6.3.8.5.4.4.8.8 1.1 1.3l1.7 2.7h-1.7l-1.3-2.1c-.4-.6-.7-1.1-1-1.4l-.7-.7-.6-.3H316v4.5h-1.3zm1.3-5.6h2.9c.6 0 1.1-.1 1.4-.2.3-.1.6-.3.8-.6.2-.3.3-.6.3-.9 0-.5-.2-.9-.5-1.2-.3-.3-.9-.5-1.6-.5H316v3.4zm12.9 5.6h-1.2v-7.9c-.3.3-.7.6-1.2.8-.5.3-.9.5-1.3.6v-1.2c.7-.3 1.3-.7 1.8-1.2s.9-.9 1.1-1.3h.8v10.2zm6.7 0h-1.2v-7.9c-.3.3-.7.6-1.2.8-.5.3-.9.5-1.3.6v-1.2c.7-.3 1.3-.7 1.8-1.2s.9-.9 1.1-1.3h.8v10.2zm3.2-5c0-1.2.1-2.1.4-2.9.2-.7.6-1.3 1.1-1.7.5-.4 1.1-.6 1.8-.6.5 0 1 .1 1.4.3.4.2.7.5 1 .9.3.4.5.9.6 1.5.2.6.2 1.4.2 2.4 0 1.2-.1 2.1-.4 2.9-.2.7-.6 1.3-1.1 1.7-.5.4-1.1.6-1.8.6-1 0-1.7-.3-2.3-1-.6-.8-.9-2.2-.9-4.1zm1.3 0c0 1.7.2 2.8.6 3.3.4.5.9.8 1.4.8.6 0 1-.3 1.4-.8.4-.5.6-1.6.6-3.3 0-1.7-.2-2.8-.6-3.3-.4-.5-.9-.8-1.4-.8-.6 0-1 .2-1.4.7-.4.7-.6 1.8-.6 3.4zm15.6 1.1v-1.2h4.2v3.7c-.7.5-1.3.9-2 1.2-.7.3-1.4.4-2.1.4-1 0-1.9-.2-2.7-.6-.8-.4-1.4-1-1.8-1.8-.4-.8-.6-1.7-.6-2.7 0-1 .2-1.9.6-2.7.4-.8 1-1.5 1.8-1.9.8-.4 1.6-.6 2.6-.6.7 0 1.4.1 2 .4.6.2 1 .6 1.4 1 .3.4.6 1 .8 1.6l-1.2.3c-.2-.5-.3-.9-.6-1.2-.2-.3-.5-.5-1-.7-.4-.2-.9-.3-1.4-.3-.6 0-1.1.1-1.6.3-.4.2-.8.4-1.1.7-.3.3-.5.6-.6 1-.3.6-.4 1.3-.4 2 0 .9.2 1.6.5 2.2.3.6.8 1 1.3 1.3.6.3 1.2.4 1.9.4.6 0 1.1-.1 1.7-.3s1-.5 1.2-.7v-1.9h-2.9zm10.3 3.9h-1.2v-7.9c-.3.3-.7.6-1.2.8-.5.3-.9.5-1.3.6v-1.2c.7-.3 1.3-.7 1.8-1.2s.9-.9 1.1-1.3h.8v10.2zm3.2-8.7v-1.2h6.5v1c-.6.7-1.3 1.6-1.9 2.7-.6 1.1-1.1 2.3-1.4 3.5-.2.8-.4 1.8-.5 2.8h-1.3c0-.8.2-1.7.5-2.9.3-1.1.7-2.2 1.3-3.2.6-1 1.1-1.9 1.8-2.6h-5zm7.9 6.4l1.2-.1c.1.5.3.9.6 1.2.3.2.6.4 1.1.4.4 0 .7-.1 1-.3.3-.2.5-.4.7-.7.2-.3.3-.7.5-1.2.1-.5.2-1 .2-1.5v-.2c-.2.4-.6.7-1 1-.4.2-.9.4-1.4.4-.8 0-1.5-.3-2.1-.9-.6-.6-.9-1.4-.9-2.4s.3-1.8.9-2.5c.6-.6 1.3-.9 2.2-.9.6 0 1.2.2 1.8.5.5.4.9.9 1.2 1.5.3.7.4 1.6.4 2.8 0 1.3-.1 2.3-.4 3.1-.3.8-.7 1.3-1.2 1.7-.5.4-1.2.6-1.9.6-.8 0-1.4-.2-1.9-.7s-.9-1-1-1.8zm5-4.5c0-.7-.2-1.3-.6-1.7-.4-.4-.8-.6-1.3-.6s-1 .2-1.4.7c-.4.4-.6 1-.6 1.7 0 .6.2 1.2.6 1.6.4.4.9.6 1.4.6.6 0 1-.2 1.4-.6.3-.4.5-1 .5-1.7zm7 6.8v-10h3.8c.8 0 1.4.1 1.8.3.5.2.8.5 1.1.9.3.4.4.9.4 1.3s-.1.8-.4 1.2c-.2.4-.6.7-1.1.9.6.2 1.1.5 1.4.9.3.4.5.9.5 1.5 0 .5-.1.9-.3 1.3-.2.4-.4.7-.7.9-.3.2-.7.4-1.1.5-.4.1-1 .2-1.6.2h-3.8zm1.3-5.8h2.2c.6 0 1 0 1.3-.1.3-.1.6-.3.8-.5.2-.2.3-.5.3-.9 0-.3-.1-.6-.2-.9-.2-.3-.4-.4-.7-.5-.3-.1-.8-.1-1.5-.1h-2v3zm0 4.6h3.4c.3-.1.6-.1.8-.3.2-.1.4-.3.5-.6.1-.2.2-.5.2-.8 0-.4-.1-.7-.3-1-.2-.3-.5-.5-.8-.6-.3-.1-.8-.2-1.5-.2h-2.3v3.5zm16.1 1.2h-1.2v-7.9c-.3.3-.7.6-1.2.8-.5.3-.9.5-1.3.6v-1.2c.7-.3 1.3-.7 1.8-1.2s.9-.9 1.1-1.3h.8v10.2zm9.5-7.6l-1.2.1c-.1-.5-.3-.8-.5-1.1-.3-.4-.7-.5-1.2-.5-.4 0-.7.1-1 .3-.4.3-.7.7-.9 1.2-.2.5-.3 1.3-.3 2.3.3-.5.7-.8 1.1-1 .4-.2.9-.3 1.3-.3.8 0 1.5.3 2.1.9.6.6.9 1.4.9 2.3 0 .6-.1 1.2-.4 1.8-.3.5-.6 1-1.1 1.2-.5.3-1 .4-1.6.4-1 0-1.9-.4-2.5-1.1-.6-.8-1-2-1-3.7 0-1.9.4-3.4 1.1-4.2.6-.8 1.5-1.2 2.5-1.2.8 0 1.4.2 1.9.7.4.5.7 1.1.8 1.9zm-5 4.3c0 .4.1.8.3 1.2.2.4.4.7.7.9.3.2.7.3 1 .3.5 0 1-.2 1.3-.6.4-.4.6-1 .6-1.7s-.2-1.2-.5-1.6c-.4-.4-.8-.6-1.4-.6-.6 0-1 .2-1.4.6-.4.4-.6.9-.6 1.5zm10.3 3.3V-44H417v-1.1l4.6-6.5h1v6.5h1.4v1.1h-1.4v2.4h-1.3zm0-3.5v-4.5l-3.1 4.5h3.1zM276.5-24.6v-10h3.8c.7 0 1.2 0 1.5.1.5.1.9.2 1.2.5.3.2.6.6.8 1 .2.4.3.9.3 1.4 0 .9-.3 1.6-.8 2.2-.5.6-1.5.9-2.9.9h-2.6v4.1h-1.3zm1.4-5.3h2.6c.9 0 1.5-.2 1.8-.5.4-.3.5-.8.5-1.3 0-.4-.1-.8-.3-1.1-.2-.3-.5-.5-.8-.6-.2-.1-.6-.1-1.2-.1h-2.6v3.6zm7.9 5.3v-10h2l2.4 7.1c.2.7.4 1.2.5 1.5.1-.4.3-.9.5-1.6l2.4-7h1.8v10h-1.3V-33l-2.9 8.4H290l-2.9-8.5v8.5h-1.3zm11.3-3.2l1.2-.1c.1.5.2.9.4 1.2.2.3.5.6 1 .8.5.2 1 .3 1.5.3s.9-.1 1.3-.2c.4-.2.7-.4.9-.6.2-.3.3-.5.3-.9 0-.3-.1-.6-.3-.8-.2-.2-.5-.4-.9-.6-.3-.1-.9-.3-1.8-.5s-1.6-.4-1.9-.6c-.5-.3-.8-.6-1.1-.9-.2-.4-.4-.8-.4-1.3s.1-1 .4-1.4c.3-.4.7-.8 1.3-1 .5-.2 1.2-.3 1.8-.3.7 0 1.4.1 2 .4.6.2 1 .6 1.3 1.1.3.5.5 1 .5 1.6l-1.3.1c-.1-.6-.3-1.1-.7-1.4-.4-.3-1-.5-1.7-.5-.8 0-1.4.1-1.8.4-.4.3-.5.6-.5 1.1 0 .4.1.7.4.9.3.2.9.5 2 .7 1.1.2 1.8.5 2.2.6.6.3 1 .6 1.3 1 .3.4.4.9.4 1.4 0 .5-.2 1-.5 1.5s-.7.8-1.3 1.1-1.2.4-1.9.4c-.9 0-1.7-.1-2.3-.4-.6-.3-1.1-.7-1.4-1.2-.2-.7-.4-1.3-.4-1.9zm9.9-2.7v-1.4h1.4v1.4H307zm0 5.9V-26h1.4v1.4H307zm7.2-2.7l1.2-.2c.1.7.4 1.2.7 1.5.3.3.7.5 1.2.5.6 0 1.1-.2 1.5-.6.4-.4.6-.9.6-1.5s-.2-1-.5-1.4c-.4-.4-.8-.6-1.4-.6-.2 0-.5 0-.9.1l.1-1.1h.2c.5 0 1-.1 1.4-.4.4-.3.6-.7.6-1.3 0-.5-.2-.8-.5-1.1-.3-.3-.7-.4-1.2-.4s-.9.2-1.2.4c-.3.3-.5.7-.6 1.3l-1.2-.2c.1-.8.5-1.5 1-1.9.5-.5 1.2-.7 2-.7.5 0 1 .1 1.5.4.5.2.8.6 1.1 1 .2.4.4.8.4 1.3 0 .4-.1.8-.3 1.2-.2.4-.6.6-1 .8.6.1 1.1.4 1.4.9.3.4.5 1 .5 1.6 0 .9-.3 1.6-1 2.2-.6.6-1.4.9-2.4.9-.9 0-1.6-.3-2.2-.8-.6-.3-1-1-1-1.9zm14.2 1.5v1.2h-6.6c0-.3 0-.6.1-.9.2-.5.4-.9.8-1.3s.9-.9 1.6-1.5c1.1-.9 1.8-1.6 2.2-2.1.4-.5.6-1 .6-1.5s-.2-.9-.5-1.2c-.3-.3-.8-.5-1.4-.5-.6 0-1.1.2-1.4.5-.4.4-.5.9-.5 1.5l-1.3-.1c.1-.9.4-1.7 1-2.2.6-.5 1.3-.7 2.3-.7 1 0 1.7.3 2.3.8.6.5.8 1.2.8 2 0 .4-.1.8-.2 1.2-.2.4-.4.8-.8 1.2-.4.4-1 1-1.9 1.8-.7.6-1.2 1-1.4 1.3-.2.2-.4.4-.5.7h4.8zm7.7-6.4l-1.2.1c-.1-.5-.3-.8-.5-1.1-.3-.4-.7-.5-1.2-.5-.4 0-.7.1-1 .3-.4.3-.7.7-.9 1.2-.2.5-.3 1.3-.3 2.3.3-.5.7-.8 1.1-1 .4-.2.9-.3 1.3-.3.8 0 1.5.3 2.1.9.6.6.9 1.4.9 2.3 0 .6-.1 1.2-.4 1.8-.3.5-.6 1-1.1 1.2-.5.3-1 .4-1.6.4-1 0-1.9-.4-2.5-1.1-.6-.8-1-2-1-3.7 0-1.9.4-3.4 1.1-4.2.6-.8 1.5-1.2 2.5-1.2.8 0 1.4.2 1.9.7.4.5.7 1.1.8 1.9zm-5 4.3c0 .4.1.8.3 1.2.2.4.4.7.7.9s.7.3 1 .3c.5 0 1-.2 1.3-.6.4-.4.6-1 .6-1.7s-.2-1.2-.5-1.6c-.4-.4-.8-.6-1.4-.6-.6 0-1 .2-1.4.6-.4.4-.6.9-.6 1.5zm6.4.7l1.3-.1c.1.6.3 1.1.7 1.4.3.3.8.5 1.3.5.6 0 1.1-.2 1.5-.7.4-.4.6-1 .6-1.8 0-.7-.2-1.3-.6-1.7-.4-.4-.9-.6-1.5-.6-.4 0-.8.1-1.1.3s-.6.4-.7.7l-1.2-.2 1-5.2h5v1.2h-4l-.5 2.7c.6-.4 1.2-.6 1.9-.6.9 0 1.6.3 2.2.9.6.6.9 1.4.9 2.3 0 .9-.3 1.7-.8 2.4-.6.8-1.5 1.2-2.6 1.2-.9 0-1.7-.3-2.2-.8-.8-.4-1.1-1.1-1.2-1.9zm15.4-.9l1.3.3c-.3 1.1-.8 1.9-1.5 2.5-.7.6-1.6.9-2.6.9-1.1 0-2-.2-2.6-.7-.7-.4-1.2-1.1-1.5-1.9-.4-.8-.5-1.7-.5-2.7 0-1 .2-2 .6-2.7.4-.8 1-1.4 1.7-1.8.7-.4 1.5-.6 2.4-.6 1 0 1.8.3 2.5.8s1.2 1.2 1.4 2.2l-1.3.3c-.2-.7-.6-1.3-1-1.6-.4-.3-1-.5-1.7-.5-.8 0-1.4.2-1.9.6-.5.4-.9.9-1.1 1.5-.2.6-.3 1.3-.3 1.9 0 .9.1 1.6.4 2.2.2.6.6 1.1 1.2 1.4.5.3 1.1.5 1.7.5.7 0 1.4-.2 1.9-.6.4-.5.8-1.2.9-2z"/><path class="st2" d="M22.3 33.3v4.6h.1c1.4-2.1 3.1-3.6 4.9-4.5 1.8-.9 4.1-1.3 6.7-1.3 3.2 0 5.8.6 7.8 1.9 2 1.2 3.5 3 4.5 5.2.9 2.3 1.4 4.9 1.4 8v22.4H34.8V50.1c0-2.3-.4-4.2-1.1-5.7-.7-1.5-2.3-2.2-4.7-2.2-4.5 0-6.7 2.8-6.7 8.4v18.8H9.4V33.3h12.9zm71.1 18.9v1.3H66.3c0 5.4 2.7 8.1 8.1 8.1 2.8 0 4.9-1.1 6.2-3.3H93c-.7 2.7-1.9 5-3.8 6.9-1.8 1.9-4 3.3-6.6 4.2-2.6.9-5.3 1.4-8.1 1.4-4.1 0-7.7-.8-10.9-2.2-3.2-1.5-5.7-3.7-7.5-6.6-1.8-2.9-2.7-6.4-2.7-10.5 0-3.9.8-7.4 2.5-10.3 1.7-2.9 4.1-5.2 7.1-6.8 3.1-1.6 6.5-2.3 10.4-2.3 3.1 0 5.9.5 8.4 1.4 2.5.9 4.6 2.3 6.3 4 1.7 1.8 3 3.9 3.9 6.4.9 2.4 1.4 5.2 1.4 8.3zm-26.9-6h15c-.3-1.7-1.2-3.1-2.5-4.1-1.4-1.1-3-1.6-4.8-1.6-1.9 0-3.6.5-5 1.5-1.4.9-2.3 2.3-2.7 4.2zm45.7-12.9v4.5h.1c2.9-3.8 6.7-5.7 11.5-5.7 5.7 0 9.9 2.3 12.4 6.9 1.2-2.2 2.9-3.9 5.1-5.1 2.2-1.2 4.6-1.8 7.1-1.8 8.2 0 12.3 4.8 12.3 14.4v23.1h-12.9V52.2c0-2.9-.3-5.3-.9-7.1-.6-1.8-2.1-2.8-4.3-2.8-2.6 0-4.3.9-5 2.7-.7 1.8-1.1 4.2-1.1 7.2v17.3h-12.9V52.2c0-3-.3-5.5-1-7.4-.7-1.9-2.2-2.8-4.8-2.8-2.5 0-4.1.9-4.8 2.8-.7 1.9-1 4.3-1 7.4v17.3H99.3V33.3h12.9z"/><path class="st3" d="M197.8 41.5c.5-1.2.7-2.9.7-4.3 0-3.7-1.8-7.2-4.7-8.9-.1-.1-.2-.1-.3-.2-2.9-1.8-5.8-4-5.8-7.7 0-5.5 4.5-10 10-10 1.1 0 2.2.1 3.3.4 2.1.7 4.2 1.6 6.2 2.7.4.2.7.4 1 .8.2.4.3.7.3 1.1-.3 9.9-4.2 18.8-10.2 26.3 0 0-.3.3-.4.2-.3 0-.1-.4-.1-.4z"/><path class="st4" d="M195 10.1c-5.1.5-10 5.3-10 10.4 0 3.7-.7 6.9-3.6 8.6-.1.1-.2.1-.3.2-1.4.8-3.1 1.3-4.9 1.3-4.8 0-8.9-3.4-9.9-7.9-.5-2.3-.7-4.7-.8-7.1 0-.4.1-.7.3-1.1.2-.4.5-.6 1-.8 8.8-4.7 18.8-6 28.3-3.9 0 0 .4.1.4.2-.1 0-.5.1-.5.1z"/><path class="st5" d="M168.8 28.5c1.9 2.6 5.3 4.5 8.5 4.5 1.8 0 3.4-.5 4.9-1.3.1-.1.2-.1.3-.2 3-2 7.1-2.4 9.4-1.2.1.1.2.1.3.2 2.9 1.8 4.9 5 4.9 8.6 0 2.9-1.2 5.6-3.3 7.5-1.6 1.5-3.4 2.8-5.3 4-.5.3-.9.4-1.5.4s-1-.1-1.5-.4c-8.2-5.2-14.2-13-17.1-22 0 0-.1-.5 0-.5l.4.4z"/><path class="st2" d="M12.8 78.2H14v5.2h-1.2v-.5c-.5.5-1 .7-1.6.7-.7 0-1.3-.3-1.8-.8s-.7-1.2-.7-2 .2-1.4.7-2c.5-.5 1.1-.8 1.8-.8.6 0 1.2.3 1.6.8v-.6zm-2.9 2.6c0 .5.1.9.4 1.2.3.3.6.5 1 .5s.8-.2 1.1-.5c.3-.3.4-.7.4-1.2s-.1-.9-.4-1.2c-.3-.3-.6-.5-1.1-.5-.4 0-.8.2-1 .5-.2.3-.4.7-.4 1.2zm9-2.6h1.2v.5c.4-.4.9-.6 1.4-.6.6 0 1.1.2 1.4.6.3.3.4.9.4 1.6v3.2h-1.2v-2.9c0-.5-.1-.9-.2-1.1-.1-.2-.4-.3-.8-.3s-.7.1-.8.4c-.2.3-.2.7-.2 1.4v2.5h-1.2v-5.3zm10.7 2.9h-3.7c0 .4.2.8.4 1 .2.2.6.4.9.4.3 0 .5-.1.7-.2.2-.1.4-.4.7-.8l1 .6c-.2.3-.3.5-.5.7-.2.2-.4.3-.6.5l-.6.3c-.2.1-.5.1-.8.1-.8 0-1.4-.3-1.9-.8s-.7-1.2-.7-2 .2-1.5.7-2c.5-.5 1.1-.8 1.8-.8.8 0 1.4.2 1.8.7.4.5.7 1.2.7 2l.1.3zm-1.2-1c-.2-.6-.6-1-1.2-1-.1 0-.3 0-.4.1-.1 0-.2.1-.4.2l-.3.3c0 .1-.1.3-.1.4h2.4zm3-1.9l1.4 3 1.5-3.5 1.5 3.5 1.4-3h1.4l-2.7 5.6-1.5-3.4-1.5 3.4-2.7-5.6h1.2zm16 2.9h-3.7c0 .4.2.8.4 1 .2.2.6.4.9.4.3 0 .5-.1.7-.2.2-.1.4-.4.7-.8l1 .6c-.2.3-.3.5-.5.7-.2.2-.4.3-.6.5l-.6.3c-.2.1-.5.1-.8.1-.8 0-1.4-.3-1.9-.8s-.7-1.2-.7-2 .2-1.5.7-2c.5-.5 1.1-.8 1.8-.8.8 0 1.4.2 1.8.7.4.5.7 1.2.7 2l.1.3zm-1.3-1c-.2-.6-.6-1-1.2-1-.1 0-.3 0-.4.1-.1 0-.2.1-.4.2l-.3.3c-.1.1-.1.3-.2.4h2.5zm6.6-1.7V80c-.3-.3-.5-.6-.7-.7-.2-.1-.5-.2-.8-.2-.5 0-.8.2-1.1.5-.3.3-.5.7-.5 1.2s.1.9.4 1.2c.3.3.7.5 1.1.5.3 0 .5-.1.8-.2.2-.1.5-.4.8-.7v1.6c-.5.3-1 .4-1.5.4-.8 0-1.5-.3-2-.8s-.8-1.2-.8-2 .3-1.4.8-2c.6-.5 1.2-.8 2-.8.6.1 1.1.2 1.5.4zm.9 2.4c0-.8.3-1.4.8-1.9s1.2-.8 2-.8 1.4.3 2 .8c.5.5.8 1.2.8 2s-.3 1.4-.8 2c-.5.5-1.2.8-2 .8s-1.4-.3-2-.8c-.5-.7-.8-1.3-.8-2.1zm1.2 0c0 .5.1.9.4 1.2.3.3.7.5 1.1.5.5 0 .9-.2 1.1-.5.3-.3.4-.7.4-1.2s-.1-.9-.4-1.2c-.3-.3-.7-.5-1.1-.5-.5 0-.8.2-1.1.5-.2.3-.4.7-.4 1.2zm5.6-2.6h1.2v.5c.4-.4.9-.6 1.4-.6.6 0 1.1.2 1.4.6.3.3.4.9.4 1.6v3.2h-1.2v-2.9c0-.5-.1-.9-.2-1.1-.1-.2-.4-.3-.8-.3s-.7.1-.8.4c-.2.3-.2.7-.2 1.4v2.5h-1.2v-5.3zm5.8 2.6c0-.8.3-1.4.8-1.9s1.2-.8 2-.8 1.4.3 2 .8c.5.5.8 1.2.8 2s-.3 1.4-.8 2c-.5.5-1.2.8-2 .8s-1.4-.3-2-.8c-.6-.7-.8-1.3-.8-2.1zm1.2 0c0 .5.1.9.4 1.2.3.3.7.5 1.1.5.5 0 .9-.2 1.1-.5.3-.3.4-.7.4-1.2s-.1-.9-.4-1.2c-.3-.3-.7-.5-1.1-.5-.5 0-.8.2-1.1.5-.2.3-.4.7-.4 1.2zm5.6-2.6h1.2v.5c.2-.2.4-.4.6-.5.2-.1.4-.1.7-.1.6 0 1.1.3 1.4.8.4-.5.9-.8 1.5-.8 1.2 0 1.8.7 1.8 2.1v3.2H79v-2.9c0-.5-.1-.9-.2-1.1-.1-.2-.3-.3-.6-.3s-.6.1-.7.4c-.2.2-.2.7-.2 1.2v2.7H76v-2.9c0-.9-.3-1.4-.8-1.4-.3 0-.6.1-.7.4-.2.3-.2.7-.2 1.2v2.7H73v-5.2zm10.1 4.3l-2.3-4.3h1.4l1.6 3 1.5-3h1.4l-4.2 8.1h-1.4l2-3.8zm10.7-3.4l-1 .5c-.2-.3-.4-.5-.6-.5-.1 0-.2 0-.3.1-.1.1-.1.2-.1.3 0 .2.2.4.7.6.6.3 1.1.5 1.3.8.2.2.3.5.3.9 0 .5-.2.9-.6 1.3-.4.3-.8.5-1.3.5-.9 0-1.5-.4-1.9-1.3l1-.5c.1.2.3.4.3.5.1.1.3.2.5.2.4 0 .6-.2.6-.6 0-.2-.2-.4-.5-.6-.1-.1-.2-.1-.4-.2.2 0 .1-.1-.1-.1-.4-.2-.6-.3-.7-.5-.2-.2-.3-.5-.3-.8 0-.5.2-.8.5-1.1.3-.3.7-.4 1.2-.4.6-.1 1.1.2 1.4.9zm2.7.2v4.1h-1.2v-4.1h-.5v-1.1h.5v-1.9h1.2v1.9h.9v1.1h-.9zm5.7-1.1h1.2v5.2h-1.2v-.5c-.5.5-1 .7-1.6.7-.7 0-1.3-.3-1.8-.8s-.7-1.2-.7-2 .2-1.4.7-2c.5-.5 1.1-.8 1.8-.8.6 0 1.2.3 1.6.8v-.6zm-2.9 2.6c0 .5.1.9.4 1.2.3.3.6.5 1 .5s.8-.2 1.1-.5c.3-.3.4-.7.4-1.2s-.1-.9-.4-1.2c-.3-.3-.6-.5-1.1-.5-.4 0-.8.2-1 .5-.3.3-.4.7-.4 1.2zm5.6-2.6h1.2v.5c.2-.2.4-.4.6-.5.2-.1.4-.1.6-.1.3 0 .7.1 1 .3l-.6 1.1c-.2-.2-.5-.2-.7-.2-.7 0-1 .5-1 1.5v2.7h-1.2v-5.3zm5.7 1.1v4.1h-1.2v-4.1h-.5v-1.1h.5v-1.9h1.2v1.9h.9v1.1h-.9zm4.8-.2l-1 .5c-.2-.3-.4-.5-.6-.5-.1 0-.2 0-.3.1-.1.1-.1.2-.1.3 0 .2.2.4.7.6.6.3 1.1.5 1.3.8.2.2.3.5.3.9 0 .5-.2.9-.6 1.3-.4.3-.8.5-1.3.5-.9 0-1.5-.4-1.9-1.3l1-.5c.1.2.3.4.3.5.1.1.3.2.5.2.4 0 .6-.2.6-.6 0-.2-.2-.4-.5-.6-.1-.1-.2-.1-.4-.2-.1-.1-.2-.1-.4-.2-.4-.2-.6-.3-.7-.5-.2-.2-.3-.5-.3-.8 0-.5.2-.8.5-1.1.3-.3.7-.4 1.2-.4.8 0 1.3.3 1.7 1zm5.4-.9l1.4 3 1.5-3.5 1.5 3.5 1.4-3h1.4l-2.7 5.6-1.5-3.4-1.5 3.4-2.7-5.6h1.2zm7.6-2.2c0-.2.1-.4.2-.5.2-.2.3-.2.6-.2.2 0 .4.1.6.2.2.2.2.3.2.6 0 .2-.1.4-.2.6-.2.2-.3.2-.6.2-.2 0-.4-.1-.6-.2-.1-.3-.2-.4-.2-.7zm1.4 2.2v5.2h-1.2v-5.2h1.2zm2.7 1.1v4.1h-1.2v-4.1h-.5v-1.1h.5v-1.9h1.2v1.9h.9v1.1h-.9zm2-4.9h1.2v4.3c.4-.4.9-.6 1.4-.6.6 0 1.1.2 1.4.6.3.3.4.9.4 1.6v3.2h-1.2v-3.1c0-.4-.1-.7-.2-.9-.1-.2-.4-.3-.7-.3-.4 0-.7.1-.9.4-.2.3-.3.7-.3 1.4v2.5h-1.2v-9.1zm11 8.1l-2.3-4.3h1.4l1.6 3 1.5-3h1.4l-4.2 8.1h-1.4l2-3.8zm3.9-1.7c0-.8.3-1.4.8-1.9s1.2-.8 2-.8 1.4.3 2 .8c.5.5.8 1.2.8 2s-.3 1.4-.8 2c-.5.5-1.2.8-2 .8s-1.4-.3-2-.8c-.6-.7-.8-1.3-.8-2.1zm1.2 0c0 .5.1.9.4 1.2.3.3.7.5 1.1.5.5 0 .9-.2 1.1-.5.3-.3.4-.7.4-1.2s-.1-.9-.4-1.2c-.3-.3-.7-.5-1.1-.5-.5 0-.8.2-1.1.5-.3.3-.4.7-.4 1.2zm6.8-2.6v3c0 .9.3 1.3 1 1.3s1-.4 1-1.3v-3h1.2v3c0 .4-.1.8-.2 1.1-.1.3-.3.5-.5.7-.4.4-.9.5-1.6.5-.6 0-1.1-.2-1.5-.5-.2-.2-.4-.5-.5-.7-.1-.2-.1-.6-.1-1.1v-3h1.2zm4.9 4.6c0-.2.1-.4.2-.5.1-.1.3-.2.5-.2s.4.1.5.2c.1.1.2.3.2.5s-.1.4-.2.5c-.1.1-.3.2-.5.2s-.4-.1-.5-.2c-.1-.1-.2-.3-.2-.5z"/><path d="M73.6-321.9c-1.7 0-3.5-.2-5.6-1.5-27.8-17.6-47.4-46.2-54-78.4-1.4-6.8-2.2-13.8-2.4-20.7-.1-1.6.3-3 1.1-4.4 1-1.8 2.3-2.6 3.6-3.2 17.5-9.3 37.3-14.3 57.2-14.3 13.3 0 26.4 2.2 39 6.4 6.3 2.1 12.4 4.8 18.2 7.9 1.3.7 2.6 1.5 3.6 3.2.8 1.4 1.1 2.7 1.1 4.4-1 33.4-15.9 65.3-41 87.5-4.8 4.3-10 8.2-15.5 11.7-1.8 1.2-3.4 1.4-5.3 1.4z"/><path class="st6" d="M101.7-353.1c1.4-3 1.8-7.5 1.8-11.2 0-9.5-4.6-18.7-12.2-23.2-.2-.1-.5-.3-.7-.4-7.6-4.6-15.1-10.5-15.1-20 0-14.4 11.7-26.1 26.1-26.1 3 0 5.8.3 8.5 1.2 5.5 1.9 10.9 4.2 16.2 7 1.1.6 1.9 1.1 2.5 2.2.6 1 .7 1.8.7 2.9-.8 25.8-11 48.9-26.6 68.4 0 0-.8.8-1.1.6-.6-.4-.1-1.4-.1-1.4z"/><path class="st6" d="M94.4-434.9c-13.2 1.3-26 13.8-26 27 0 9.5-1.8 17.8-9.4 22.4-.2.1-.5.3-.7.4-3.7 2.1-8.1 3.3-12.7 3.3-12.6 0-23.2-8.8-25.7-20.6-1.2-6-2-12.1-2.1-18.4 0-1.1.2-1.9.7-2.9.6-1.1 1.4-1.6 2.5-2.2 22.8-12.2 48.9-15.6 73.6-10.2 0 0 1.1.2 1.1.6 0 .5-1.3.6-1.3.6z"/><path class="st6" d="M26.3-387c5.1 6.9 13.7 11.8 22.1 11.8 4.6 0 8.9-1.2 12.7-3.3.3-.1.5-.3.7-.4 7.9-5.3 18.5-6.2 24.5-3 .2.2.5.3.7.4 7.6 4.6 12.7 12.9 12.7 22.4 0 7.7-3.2 14.7-8.5 19.4-4.3 3.8-8.9 7.2-13.7 10.3-1.3.8-2.3 1-3.8 1s-2.7-.2-4-1c-21.3-13.5-36.9-33.9-44.6-57.3 0 0-.4-1.2 0-1.3.3 0 1.2 1 1.2 1z"/><path d="M72.5-159.5c-1.7 0-3.5-.2-5.6-1.5-27.8-17.6-47.4-46.2-54-78.4-1.4-6.8-2.2-13.8-2.4-20.7-.1-1.6.3-3 1.1-4.4 1-1.8 2.3-2.6 3.6-3.2C32.7-277 52.5-282 72.4-282c13.3 0 26.4 2.2 39 6.4 6.3 2.1 12.4 4.8 18.2 7.9 1.3.7 2.6 1.5 3.6 3.2.8 1.4 1.1 2.7 1.1 4.4-1 33.4-15.9 65.3-41 87.5-4.8 4.3-10 8.2-15.5 11.7-1.8 1.2-3.4 1.4-5.3 1.4z"/><path class="st3" d="M100.6-190.7c1.4-3 1.8-7.5 1.8-11.2 0-9.5-4.6-18.7-12.2-23.2-.2-.1-.5-.3-.7-.4-7.6-4.6-15.1-10.5-15.1-20 0-14.4 11.7-26.1 26.1-26.1 3 0 5.8.3 8.5 1.2 5.5 1.9 10.9 4.2 16.2 7 1.1.6 1.9 1.1 2.5 2.2.6 1 .7 1.8.7 2.9-.8 25.8-11 48.9-26.6 68.4 0 0-.8.8-1.1.6-.6-.4-.1-1.4-.1-1.4z"/><path class="st4" d="M93.3-272.5c-13.2 1.3-26 13.8-26 27 0 9.5-1.8 17.8-9.4 22.4-.2.1-.5.3-.7.4-3.7 2.1-8.1 3.3-12.7 3.3-12.6 0-23.2-8.8-25.7-20.6-1.2-6-2-12.1-2.1-18.4 0-1.1.2-1.9.7-2.9.6-1.1 1.4-1.6 2.5-2.2 22.8-12.2 48.9-15.6 73.6-10.2 0 0 1.1.2 1.1.6 0 .4-1.3.6-1.3.6z"/><path class="st5" d="M25.2-224.6c5.1 6.9 13.7 11.8 22.1 11.8 4.6 0 8.9-1.2 12.7-3.3.3-.1.5-.3.7-.4 7.9-5.3 18.5-6.2 24.5-3 .2.2.5.3.7.4 7.6 4.6 12.7 12.9 12.7 22.4 0 7.7-3.2 14.7-8.5 19.4-4.3 3.8-8.9 7.2-13.7 10.3-1.3.8-2.3 1-3.8 1s-2.7-.2-4-1c-21.3-13.5-36.9-33.9-44.6-57.3 0 0-.4-1.2 0-1.3.3 0 1.2 1 1.2 1z"/><path d="M283.6 35.7l1.3.3c-.3 1.1-.8 1.9-1.5 2.5-.7.6-1.6.9-2.6.9-1.1 0-2-.2-2.6-.7-.7-.4-1.2-1.1-1.5-1.9-.4-.8-.5-1.7-.5-2.7 0-1 .2-2 .6-2.7.4-.8 1-1.4 1.7-1.8.7-.4 1.5-.6 2.4-.6 1 0 1.8.3 2.5.8s1.2 1.2 1.4 2.2l-1.3.3c-.2-.7-.6-1.3-1-1.6-.4-.3-1-.5-1.7-.5-.8 0-1.4.2-1.9.6-.5.4-.9.9-1.1 1.5-.2.6-.3 1.3-.3 1.9 0 .9.1 1.6.4 2.2.2.6.6 1.1 1.2 1.4.5.3 1.1.5 1.7.5.7 0 1.4-.2 1.9-.6.4-.5.7-1.1.9-2zm2.4-.1c0-1.3.4-2.3 1.1-3 .6-.5 1.4-.8 2.3-.8 1 0 1.8.3 2.4 1 .6.7.9 1.6.9 2.7 0 .9-.1 1.7-.4 2.2-.3.5-.7 1-1.2 1.2-.5.3-1.1.4-1.8.4-1 0-1.8-.3-2.5-1-.5-.5-.8-1.5-.8-2.7zm1.2 0c0 .9.2 1.6.6 2.1.4.5.9.7 1.5.7s1.1-.2 1.5-.7c.4-.5.6-1.2.6-2.1 0-.9-.2-1.6-.6-2-.4-.5-.9-.7-1.5-.7s-1.1.2-1.5.7c-.4.4-.6 1.1-.6 2zm7 3.6v-10h1.2v10h-1.2zm2.6-3.6c0-1.3.4-2.3 1.1-3 .6-.5 1.4-.8 2.3-.8 1 0 1.8.3 2.4 1 .6.7.9 1.6.9 2.7 0 .9-.1 1.7-.4 2.2-.3.5-.7 1-1.2 1.2-.5.3-1.1.4-1.8.4-1 0-1.8-.3-2.5-1-.4-.5-.8-1.5-.8-2.7zm1.3 0c0 .9.2 1.6.6 2.1s.9.7 1.5.7 1.1-.2 1.5-.7c.4-.5.6-1.2.6-2.1 0-.9-.2-1.6-.6-2-.4-.5-.9-.7-1.5-.7s-1.1.2-1.5.7c-.4.4-.6 1.1-.6 2zm7 3.6V32h1.1v1.1c.3-.5.5-.9.8-1 .2-.2.5-.2.8-.2.4 0 .8.1 1.3.4l-.4 1.1c-.3-.2-.6-.3-.9-.3-.3 0-.5.1-.7.2-.2.2-.4.4-.5.7-.1.4-.2.9-.2 1.4v3.8h-1.3zm-24 13.1v-1.2h4.2v3.7c-.7.5-1.3.9-2 1.2-.7.3-1.4.4-2.1.4-1 0-1.9-.2-2.7-.6-.8-.4-1.4-1-1.8-1.8-.4-.8-.6-1.7-.6-2.7 0-1 .2-1.9.6-2.7.4-.8 1-1.5 1.8-1.9.8-.4 1.6-.6 2.6-.6.7 0 1.4.1 2 .4.6.2 1 .6 1.4 1 .3.4.6 1 .8 1.6l-1.2.3c-.2-.5-.3-.9-.6-1.2-.2-.3-.5-.5-1-.7-.4-.2-.9-.3-1.4-.3-.6 0-1.1.1-1.6.3-.4.2-.8.4-1.1.7-.3.3-.5.6-.6 1-.3.6-.4 1.3-.4 2 0 .9.2 1.6.5 2.2.3.6.8 1 1.3 1.3.6.3 1.2.4 1.9.4.6 0 1.1-.1 1.7-.3.5-.2 1-.5 1.2-.7v-1.9h-2.9zm6.1 3.9V49h1.1v1.1c.3-.5.5-.9.8-1 .2-.2.5-.2.8-.2.4 0 .8.1 1.3.4l-.4 1.1c-.3-.2-.6-.3-.9-.3-.3 0-.5.1-.7.2-.2.2-.4.4-.5.7-.1.4-.2.9-.2 1.4v3.8h-1.3zm9.4-.9c-.4.4-.9.7-1.3.8-.4.2-.9.2-1.4.2-.8 0-1.4-.2-1.9-.6-.4-.4-.6-.9-.6-1.5 0-.4.1-.7.2-1 .2-.3.4-.5.6-.7.3-.2.6-.3.9-.4.2-.1.6-.1 1.1-.2 1-.1 1.7-.3 2.2-.4v-.3c0-.5-.1-.9-.4-1.1-.3-.3-.8-.4-1.4-.4-.6 0-1 .1-1.3.3-.3.2-.5.6-.6 1.1l-1.2-.2c.1-.5.3-.9.5-1.2.3-.3.6-.6 1.1-.7.5-.2 1-.3 1.7-.3.6 0 1.1.1 1.5.2.4.1.7.3.9.5.2.2.3.5.4.8 0 .2.1.6.1 1.1v1.6c0 1.1 0 1.9.1 2.2l.3.9h-1.3c-.1 0-.2-.3-.2-.7zm-.1-2.7c-.4.2-1.1.3-2 .5-.5.1-.9.2-1.1.2-.2.1-.4.2-.5.4-.1.2-.2.4-.2.6 0 .3.1.6.4.8s.6.3 1.1.3c.5 0 .9-.1 1.3-.3.4-.2.6-.5.8-.8.1-.3.2-.7.2-1.2v-.5zm3.1 6.4l-.1-1.1c.3.1.5.1.7.1.3 0 .5 0 .7-.1.2-.1.3-.2.4-.4.1-.1.2-.4.4-.9 0-.1.1-.2.1-.3L299 49h1.3l1.5 4.2c.2.5.4 1.1.5 1.7.1-.5.3-1.1.5-1.6l1.5-4.2h1.2l-2.7 7.4c-.3.8-.5 1.3-.7 1.6-.2.4-.5.7-.8.9-.3.2-.6.3-1 .3-.2-.1-.4-.2-.7-.3zm-16 10.7l1.3.3c-.3 1.1-.8 1.9-1.5 2.5-.7.6-1.6.9-2.6.9-1.1 0-2-.2-2.6-.7-.7-.4-1.2-1.1-1.5-1.9-.4-.8-.5-1.7-.5-2.7 0-1 .2-2 .6-2.7.4-.8 1-1.4 1.7-1.8.7-.4 1.5-.6 2.4-.6 1 0 1.8.3 2.5.8s1.2 1.2 1.4 2.2l-1.3.3c-.2-.7-.6-1.3-1-1.6-.4-.3-1-.5-1.7-.5-.8 0-1.4.2-1.9.6-.5.4-.9.9-1.1 1.5-.2.6-.3 1.3-.3 1.9 0 .9.1 1.6.4 2.2.2.6.6 1.1 1.2 1.4.5.3 1.1.5 1.7.5.7 0 1.4-.2 1.9-.6.4-.5.7-1.1.9-2zm2.9 3.5v-10h2l2.4 7.1c.2.7.4 1.2.5 1.5.1-.4.3-.9.5-1.6l2.4-7h1.8v10h-1.3v-8.4l-2.9 8.4h-1.2l-2.9-8.5v8.5h-1.3zm14.6 0V69l-3.9-5.8h1.6l2 3c.4.6.7 1.1 1 1.7.3-.5.7-1.1 1.1-1.8l1.9-3h1.5l-4 5.8v4.2h-1.2zm6.4 0v-10h1.3v5l5-5h1.8l-4.2 4.1 4.4 6H314l-3.6-5.1-1.6 1.6v3.5h-1.3zm11-5.8V66h-1.4v1.4h1.4zm0 5.8v-1.4h-1.4v1.4h1.4zm6.1 0v-10h1.3v5l5-5h1.8l-4.2 4.1 4.4 6h-1.8l-3.6-5.1-1.6 1.6v3.5h-1.3zm9-8.7v-1.2h6.5v1c-.6.7-1.3 1.6-1.9 2.7-.6 1.1-1.1 2.3-1.4 3.5-.2.8-.4 1.8-.5 2.8H335c0-.8.2-1.7.5-2.9.3-1.1.7-2.2 1.3-3.2.6-1 1.1-1.9 1.8-2.6h-5zm7.8 0v-1.2h6.5v1c-.6.7-1.3 1.6-1.9 2.7-.6 1.1-1.1 2.3-1.4 3.5-.2.8-.4 1.8-.5 2.8h-1.3c0-.8.2-1.7.5-2.9.3-1.1.7-2.2 1.3-3.2.6-1 1.1-1.9 1.8-2.6h-5zm-64.9 25.7v-10h4.4c.9 0 1.6.1 2 .3.5.2.8.5 1.1 1 .3.5.4 1 .4 1.5 0 .7-.2 1.3-.7 1.8-.5.5-1.2.8-2.1.9.4.2.6.3.8.5.4.4.8.8 1.1 1.3l1.7 2.7h-1.7l-1.3-2.1c-.4-.6-.7-1.1-1-1.4l-.7-.7-.6-.3h-2.2v4.5h-1.2zm1.3-5.6h2.9c.6 0 1.1-.1 1.4-.2.3-.1.6-.3.8-.6.2-.3.3-.6.3-.9 0-.5-.2-.9-.5-1.2-.3-.3-.9-.5-1.6-.5h-3.2v3.4zm13.4 1.7v-1.2h4.2v3.7c-.7.5-1.3.9-2 1.2-.7.3-1.4.4-2.1.4-1 0-1.9-.2-2.7-.6-.8-.4-1.4-1-1.8-1.8-.4-.8-.6-1.7-.6-2.7 0-1 .2-1.9.6-2.7.4-.8 1-1.5 1.8-1.9.8-.4 1.6-.6 2.6-.6.7 0 1.4.1 2 .4.6.2 1 .6 1.4 1 .3.4.6 1 .8 1.6l-1.2.3c-.2-.5-.3-.9-.6-1.2-.2-.3-.5-.5-1-.7-.4-.2-.9-.3-1.4-.3-.6 0-1.1.1-1.6.3-.4.2-.8.4-1.1.7-.3.3-.5.6-.6 1-.3.6-.4 1.3-.4 2 0 .9.2 1.6.5 2.2.3.6.8 1 1.3 1.3.6.3 1.2.4 1.9.4.6 0 1.1-.1 1.7-.3.5-.2 1-.5 1.2-.7v-1.9h-2.9zm6.2 3.9v-10h3.8c.8 0 1.4.1 1.8.3.5.2.8.5 1.1.9.3.4.4.9.4 1.3s-.1.8-.4 1.2c-.2.4-.6.7-1.1.9.6.2 1.1.5 1.4.9.3.4.5.9.5 1.5 0 .5-.1.9-.3 1.3-.2.4-.4.7-.7.9-.3.2-.7.4-1.1.5-.4.1-1 .2-1.6.2h-3.8zm1.3-5.8h2.2c.6 0 1 0 1.3-.1.3-.1.6-.3.8-.5.2-.2.3-.5.3-.9 0-.3-.1-.6-.2-.9-.2-.3-.4-.4-.7-.5-.3-.1-.8-.1-1.5-.1h-2v3zm0 4.7h3.4c.3-.1.6-.1.8-.3.2-.1.4-.3.5-.6.1-.2.2-.5.2-.8 0-.4-.1-.7-.3-1-.2-.3-.5-.5-.8-.6-.3-.1-.8-.2-1.5-.2h-2.3v3.5zm8.3-4.7V83h1.4v1.4H307zm0 5.8v-1.4h1.4v1.4H307zm7.6 0v-10h4.4c.9 0 1.6.1 2 .3.5.2.8.5 1.1 1 .3.5.4 1 .4 1.5 0 .7-.2 1.3-.7 1.8-.5.5-1.2.8-2.1.9.4.2.6.3.8.5.4.4.8.8 1.1 1.3l1.7 2.7h-1.7l-1.3-2.1c-.4-.6-.7-1.1-1-1.4l-.7-.7-.6-.3h-2.2v4.5h-1.2zm1.3-5.6h2.9c.6 0 1.1-.1 1.4-.2.3-.1.6-.3.8-.6.2-.3.3-.6.3-.9 0-.5-.2-.9-.5-1.2-.3-.3-.9-.5-1.6-.5H316v3.4zm10.2.2c-.5-.2-.9-.5-1.1-.8-.2-.3-.4-.8-.4-1.2 0-.7.3-1.3.8-1.8s1.2-.7 2.1-.7c.9 0 1.6.3 2.1.8s.8 1.1.8 1.9c0 .5-.1.9-.4 1.2-.2.3-.6.6-1.1.8.6.2 1.1.5 1.4 1 .3.4.5 1 .5 1.6 0 .9-.3 1.6-.9 2.2-.6.6-1.4.9-2.4.9s-1.8-.3-2.4-.9c-.6-.6-.9-1.3-.9-2.2 0-.7.2-1.2.5-1.6.3-.7.8-1 1.4-1.2zm-.7 2.5c0 .4.1.7.2 1 .2.3.4.6.7.8.3.2.7.3 1.1.3.6 0 1.1-.2 1.5-.6.4-.4.6-.9.6-1.4 0-.6-.2-1.1-.6-1.5-.4-.4-.9-.6-1.5-.6s-1.1.2-1.4.6c-.4.4-.6.9-.6 1.4zm.4-4.6c0 .5.2.9.5 1.2.3.3.7.5 1.2.5s.9-.1 1.2-.4c.3-.3.5-.7.5-1.1 0-.5-.2-.8-.5-1.1-.3-.3-.7-.5-1.2-.5s-.9.2-1.2.5c-.3.1-.5.5-.5.9zm6.2 4.9l1.2-.2c.1.7.4 1.2.7 1.5.3.3.7.5 1.2.5.6 0 1.1-.2 1.5-.6.4-.4.6-.9.6-1.5s-.2-1-.5-1.4c-.4-.4-.8-.6-1.4-.6-.2 0-.5 0-.9.1l.1-1.1h.2c.5 0 1-.1 1.4-.4.4-.3.6-.7.6-1.3 0-.5-.2-.8-.5-1.1-.3-.3-.7-.4-1.2-.4s-.9.1-1.2.4c-.3.3-.5.7-.6 1.3l-1.2-.2c.1-.8.5-1.5 1-1.9.5-.5 1.2-.7 2-.7.5 0 1 .1 1.5.4.5.2.8.6 1.1 1 .2.4.4.8.4 1.3 0 .4-.1.8-.3 1.2-.2.4-.6.6-1 .8.6.1 1.1.4 1.4.9.3.4.5 1 .5 1.6 0 .9-.3 1.6-1 2.2-.6.6-1.4.9-2.4.9-.9 0-1.6-.3-2.2-.8-.6-.4-.9-1.1-1-1.9zm16.8-1.3v-1.2h4.2v3.7c-.7.5-1.3.9-2 1.2-.7.3-1.4.4-2.1.4-1 0-1.9-.2-2.7-.6-.8-.4-1.4-1-1.8-1.8-.4-.8-.6-1.7-.6-2.7 0-1 .2-1.9.6-2.7.4-.8 1-1.5 1.8-1.9.8-.4 1.6-.6 2.6-.6.7 0 1.4.1 2 .4.6.2 1 .6 1.4 1 .3.4.6 1 .8 1.6l-1.2.3c-.2-.5-.3-.9-.6-1.2-.2-.3-.5-.5-1-.7-.4-.2-.9-.3-1.4-.3-.6 0-1.1.1-1.6.3-.4.2-.8.4-1.1.7-.3.3-.5.6-.6 1-.3.6-.4 1.3-.4 2 0 .9.2 1.6.5 2.2.3.6.8 1 1.3 1.3.6.3 1.2.4 1.9.4.6 0 1.1-.1 1.7-.3.5-.2 1-.5 1.2-.7v-1.9h-2.9zm7.6-1.5c-.5-.2-.9-.5-1.1-.8-.2-.3-.4-.8-.4-1.2 0-.7.3-1.3.8-1.8s1.2-.7 2.1-.7c.9 0 1.6.3 2.1.8s.8 1.1.8 1.9c0 .5-.1.9-.4 1.2-.2.3-.6.6-1.1.8.6.2 1.1.5 1.4 1 .3.4.5 1 .5 1.6 0 .9-.3 1.6-.9 2.2-.6.6-1.4.9-2.4.9s-1.8-.3-2.4-.9c-.6-.6-.9-1.3-.9-2.2 0-.7.2-1.2.5-1.6.3-.7.8-1 1.4-1.2zm-.6 2.5c0 .4.1.7.2 1 .2.3.4.6.7.8.3.2.7.3 1.1.3.6 0 1.1-.2 1.5-.6.4-.4.6-.9.6-1.4 0-.6-.2-1.1-.6-1.5-.4-.4-.9-.6-1.5-.6s-1.1.2-1.4.6c-.4.4-.6.9-.6 1.4zm.4-4.6c0 .5.2.9.5 1.2.3.3.7.5 1.2.5s.9-.1 1.2-.4c.3-.3.5-.7.5-1.1 0-.5-.2-.8-.5-1.1-.3-.3-.7-.5-1.2-.5s-.9.2-1.2.5c-.4.1-.5.5-.5.9zm6.1 4.9l1.3-.1c.1.6.3 1.1.7 1.4.3.3.8.5 1.3.5.6 0 1.1-.2 1.5-.7.4-.4.6-1 .6-1.8 0-.7-.2-1.3-.6-1.7-.4-.4-.9-.6-1.5-.6-.4 0-.8.1-1.1.3-.3.2-.6.4-.7.7l-1.2-.2 1-5.2h5v1.2h-4l-.5 2.7c.6-.4 1.2-.6 1.9-.6.9 0 1.6.3 2.2.9.6.6.9 1.4.9 2.3 0 .9-.3 1.7-.8 2.4-.6.8-1.5 1.2-2.6 1.2-.9 0-1.7-.3-2.2-.8-.8-.4-1.1-1-1.2-1.9zm12.1 2.6v-10h3.8c.8 0 1.4.1 1.8.3.5.2.8.5 1.1.9.3.4.4.9.4 1.3s-.1.8-.4 1.2c-.2.4-.6.7-1.1.9.6.2 1.1.5 1.4.9.3.4.5.9.5 1.5 0 .5-.1.9-.3 1.3-.2.4-.4.7-.7.9-.3.2-.7.4-1.1.5-.4.1-1 .2-1.6.2h-3.8zm1.4-5.8h2.2c.6 0 1 0 1.3-.1.3-.1.6-.3.8-.5.2-.2.3-.5.3-.9 0-.3-.1-.6-.2-.9-.2-.3-.4-.4-.7-.5-.3-.1-.8-.1-1.5-.1h-2v3zm0 4.7h3.4c.3-.1.6-.1.8-.3.2-.1.4-.3.5-.6.1-.2.2-.5.2-.8 0-.4-.1-.7-.3-1-.2-.3-.5-.5-.8-.6-.3-.1-.8-.2-1.5-.2h-2.3v3.5zm9.4-4.3c-.5-.2-.9-.5-1.1-.8-.2-.3-.4-.8-.4-1.2 0-.7.3-1.3.8-1.8s1.2-.7 2.1-.7c.9 0 1.6.3 2.1.8s.8 1.1.8 1.9c0 .5-.1.9-.4 1.2-.2.3-.6.6-1.1.8.6.2 1.1.5 1.4 1 .3.4.5 1 .5 1.6 0 .9-.3 1.6-.9 2.2-.6.6-1.4.9-2.4.9s-1.8-.3-2.4-.9c-.6-.6-.9-1.3-.9-2.2 0-.7.2-1.2.5-1.6.3-.7.8-1 1.4-1.2zm-.6 2.5c0 .4.1.7.2 1 .2.3.4.6.7.8.3.2.7.3 1.1.3.6 0 1.1-.2 1.5-.6.4-.4.6-.9.6-1.4 0-.6-.2-1.1-.6-1.5-.4-.4-.9-.6-1.5-.6s-1.1.2-1.4.6c-.4.4-.6.9-.6 1.4zm.4-4.6c0 .5.2.9.5 1.2.3.3.7.5 1.2.5s.9-.1 1.2-.4c.3-.3.5-.7.5-1.1 0-.5-.2-.8-.5-1.1-.3-.3-.7-.5-1.2-.5s-.9.2-1.2.5c-.4.1-.5.5-.5.9zm10.1 7.5v-2.4h-4.3v-1.1l4.6-6.5h1v6.5h1.4v1.1h-1.4v2.4h-1.3zm0-3.5v-4.5l-3.1 4.5h3.1zm-118.6 20.5v-10h3.8c.7 0 1.2 0 1.5.1.5.1.9.2 1.2.5.3.2.6.6.8 1s.3.9.3 1.4c0 .9-.3 1.6-.8 2.2-.5.6-1.5.9-2.9.9h-2.6v4.1h-1.3zm1.3-5.2h2.6c.9 0 1.5-.2 1.8-.5.4-.3.5-.8.5-1.3 0-.4-.1-.8-.3-1.1-.2-.3-.5-.5-.8-.6-.2-.1-.6-.1-1.2-.1h-2.6v3.6zm7.9 5.2v-10h2l2.4 7.1c.2.7.4 1.2.5 1.5.1-.4.3-.9.5-1.6l2.4-7h1.8v10H294v-8.4l-2.9 8.4h-1.2l-2.9-8.5v8.5h-1.3zM297 104l1.2-.1c.1.5.2.9.4 1.2.2.3.5.6 1 .8.5.2 1 .3 1.5.3s.9-.1 1.3-.2c.4-.2.7-.4.9-.6.2-.3.3-.5.3-.9 0-.3-.1-.6-.3-.8-.2-.2-.5-.4-.9-.6-.3-.1-.9-.3-1.8-.5s-1.6-.4-1.9-.6c-.5-.3-.8-.6-1.1-.9-.2-.4-.4-.8-.4-1.3s.1-1 .4-1.4c.3-.4.7-.8 1.3-1 .6-.2 1.2-.3 1.8-.3.7 0 1.4.1 2 .4.6.2 1 .6 1.3 1.1.3.5.5 1 .5 1.6l-1.3.1c-.1-.6-.3-1.1-.7-1.4-.4-.3-1-.5-1.7-.5-.8 0-1.4.1-1.8.4-.4.3-.5.6-.5 1.1 0 .4.1.7.4.9.3.2.9.5 2 .7 1.1.2 1.8.5 2.2.6.6.3 1 .6 1.3 1 .3.4.4.9.4 1.4 0 .5-.2 1-.5 1.5s-.7.8-1.3 1.1c-.6.3-1.2.4-1.9.4-.9 0-1.7-.1-2.3-.4-.6-.3-1.1-.7-1.4-1.2-.2-.6-.4-1.2-.4-1.9zm10-2.6V100h1.4v1.4H307zm0 5.8v-1.4h1.4v1.4H307zm11 0v-2.4h-4.3v-1.1l4.6-6.5h1v6.5h1.4v1.1h-1.4v2.4H318zm0-3.5v-4.5l-3.1 4.5h3.1zm10.3 2.4v1.2h-6.6c0-.3 0-.6.1-.9.2-.5.4-.9.8-1.3s.9-.9 1.6-1.5c1.1-.9 1.8-1.6 2.2-2.1.4-.5.6-1 .6-1.5s-.2-.9-.5-1.2c-.3-.3-.8-.5-1.4-.5-.6 0-1.1.2-1.4.5-.4.4-.5.8-.5 1.5l-1.3-.1c.1-.9.4-1.7 1-2.2.6-.5 1.3-.7 2.3-.7 1 0 1.7.3 2.3.8.6.5.8 1.2.8 2 0 .4-.1.8-.2 1.2-.2.4-.4.8-.8 1.2-.4.4-1 1-1.9 1.8-.7.6-1.2 1-1.4 1.3-.2.2-.4.4-.5.7h4.8zm1.3-1.5l1.3-.1c.1.6.3 1.1.7 1.4.3.3.8.5 1.3.5.6 0 1.1-.2 1.5-.7.4-.4.6-1 .6-1.8 0-.7-.2-1.3-.6-1.7-.4-.4-.9-.6-1.5-.6-.4 0-.8.1-1.1.3-.3.2-.6.4-.7.7l-1.2-.2 1-5.2h5v1.2h-4l-.5 2.7c.6-.4 1.2-.6 1.9-.6.9 0 1.6.3 2.2.9.6.6.9 1.4.9 2.3 0 .9-.3 1.7-.8 2.4-.6.8-1.5 1.2-2.6 1.2-.9 0-1.7-.3-2.2-.8-.7-.4-1.1-1-1.2-1.9zm15.5-.9l1.3.3c-.3 1.1-.8 1.9-1.5 2.5-.7.6-1.6.9-2.6.9-1.1 0-2-.2-2.6-.7-.7-.4-1.2-1.1-1.5-1.9-.4-.8-.5-1.7-.5-2.7 0-1 .2-2 .6-2.7.4-.8 1-1.4 1.7-1.8.7-.4 1.5-.6 2.4-.6 1 0 1.8.3 2.5.8s1.2 1.2 1.4 2.2l-1.3.3c-.2-.7-.6-1.3-1-1.6-.4-.3-1-.5-1.7-.5-.8 0-1.4.2-1.9.6-.5.4-.9.9-1.1 1.5-.2.6-.3 1.3-.3 1.9 0 .9.1 1.6.4 2.2.2.6.6 1.1 1.2 1.4.5.3 1.1.5 1.7.5.7 0 1.4-.2 1.9-.6.4-.5.7-1.1.9-2zm-68.7 54.5v-10h3.8c.8 0 1.4.1 1.8.3.5.2.8.5 1.1.9.3.4.4.9.4 1.3s-.1.8-.4 1.2c-.2.4-.6.7-1.1.9.6.2 1.1.5 1.4.9.3.4.5.9.5 1.5 0 .5-.1.9-.3 1.3-.2.4-.4.7-.7.9-.3.2-.7.4-1.1.5-.4.1-1 .2-1.6.2h-3.8zm1.3-5.8h2.2c.6 0 1 0 1.3-.1.3-.1.6-.3.8-.5.2-.2.3-.5.3-.9 0-.3-.1-.6-.2-.9-.2-.3-.4-.4-.7-.5-.3-.1-.8-.1-1.5-.1h-2v3zm0 4.7h3.4c.3-.1.6-.1.8-.3.2-.1.4-.3.5-.6.1-.2.2-.5.2-.8 0-.4-.1-.7-.3-1-.2-.3-.5-.5-.8-.6-.3-.1-.8-.2-1.5-.2h-2.3v3.5zm17.6-.1c-.4.4-.8.8-1.3 1-.5.2-1 .3-1.6.3-1 0-1.8-.3-2.4-1-.5-.6-.7-1.2-.7-1.9 0-.6.2-1.2.6-1.7.4-.5 1-.9 1.8-1.3-.5-.5-.8-.9-.9-1.3-.2-.3-.2-.6-.2-.9 0-.6.2-1.1.7-1.6.5-.4 1.1-.7 1.8-.7s1.2.2 1.7.6c.4.4.7.9.7 1.5 0 1-.6 1.8-1.9 2.5l1.8 2.3c.2-.4.4-.9.5-1.4l1.3.3c-.2.9-.5 1.6-.9 2.2.5.6 1 1.1 1.6 1.5l-.8 1c-.8-.3-1.3-.7-1.8-1.4zm-.8-.9l-2.2-2.8c-.7.4-1.1.8-1.3 1.1-.2.3-.3.7-.3 1 0 .4.2.8.5 1.3.3.4.8.7 1.4.7.4 0 .7-.1 1.1-.3.2-.3.5-.6.8-1zm-1.8-4.3c.5-.3.9-.6 1-.8.2-.2.2-.5.2-.8 0-.3-.1-.6-.3-.8-.2-.2-.5-.3-.8-.3-.3 0-.6.1-.8.3-.2.2-.3.5-.3.8 0 .2 0 .3.1.5s.2.4.4.5l.5.6zm11.9 6.4l-2.6-10h1.4l1.5 6.6c.2.7.3 1.4.4 2 .3-1.1.4-1.7.5-1.8l1.9-6.8h1.6l1.4 5.1c.4 1.3.6 2.4.8 3.5.1-.6.3-1.4.5-2.2l1.6-6.5h1.3l-2.7 10h-1.3l-2.1-7.6c-.2-.6-.3-1-.3-1.2-.1.5-.2.9-.3 1.2l-2.1 7.6h-1.5zm-23.5 13.1v-1.2h4.2v3.7c-.7.5-1.3.9-2 1.2-.7.3-1.4.4-2.1.4-1 0-1.9-.2-2.7-.6-.8-.4-1.4-1-1.8-1.8-.4-.8-.6-1.7-.6-2.7 0-1 .2-1.9.6-2.7.4-.8 1-1.5 1.8-1.9.8-.4 1.6-.6 2.6-.6.7 0 1.4.1 2 .4.6.2 1 .6 1.4 1 .3.4.6 1 .8 1.6l-1.2.3c-.2-.5-.3-.9-.6-1.2-.2-.3-.5-.5-1-.7-.4-.2-.9-.3-1.4-.3-.6 0-1.1.1-1.6.3s-.8.4-1.1.7c-.3.3-.5.6-.6 1-.3.6-.4 1.3-.4 2 0 .9.2 1.6.5 2.2.3.6.8 1 1.3 1.3.6.3 1.2.4 1.9.4.6 0 1.1-.1 1.7-.3.5-.2 1-.5 1.2-.7v-1.9h-2.9zm6.1 3.9V168h1.1v1.1c.3-.5.5-.9.8-1 .2-.2.5-.2.8-.2.4 0 .8.1 1.3.4l-.4 1.1c-.3-.2-.6-.3-.9-.3-.3 0-.5.1-.7.2-.2.2-.4.4-.5.7-.1.4-.2.9-.2 1.4v3.8h-1.3zm9.4-.9c-.4.4-.9.7-1.3.8-.4.2-.9.2-1.4.2-.8 0-1.4-.2-1.9-.6-.4-.4-.6-.9-.6-1.5 0-.4.1-.7.2-1 .2-.3.4-.5.6-.7.3-.2.6-.3.9-.4.2-.1.6-.1 1.1-.2 1-.1 1.7-.3 2.2-.4v-.3c0-.5-.1-.9-.4-1.1-.3-.3-.8-.4-1.4-.4-.6 0-1 .1-1.3.3-.3.2-.5.6-.6 1.1l-1.2-.2c.1-.5.3-.9.5-1.2.3-.3.6-.6 1.1-.7.5-.2 1-.3 1.7-.3.6 0 1.1.1 1.5.2.4.1.7.3.9.5.2.2.3.5.4.8 0 .2.1.6.1 1.1v1.6c0 1.1 0 1.9.1 2.2l.3.9h-1.3c-.1 0-.2-.3-.2-.7zm-.1-2.7c-.4.2-1.1.3-2 .5-.5.1-.9.2-1.1.2-.2.1-.4.2-.5.4-.1.2-.2.4-.2.6 0 .3.1.6.4.8s.6.3 1.1.3c.5 0 .9-.1 1.3-.3.4-.2.6-.5.8-.8.1-.3.2-.7.2-1.2v-.5zm3.1 6.4l-.1-1.1c.3.1.5.1.7.1.3 0 .5 0 .7-.1.2-.1.3-.2.4-.4.1-.1.2-.4.4-.9 0-.1.1-.2.1-.3L299 168h1.3l1.5 4.2c.2.5.4 1.1.5 1.7.1-.5.3-1.1.5-1.6l1.5-4.2h1.2l-2.7 7.4c-.3.8-.5 1.3-.7 1.6-.2.4-.5.7-.8.9-.3.2-.6.3-1 .3-.2-.1-.4-.2-.7-.3zm-16 10.7l1.3.3c-.3 1.1-.8 1.9-1.5 2.5-.7.6-1.6.9-2.6.9-1.1 0-2-.2-2.6-.7-.7-.4-1.2-1.1-1.5-1.9-.4-.8-.5-1.7-.5-2.7 0-1 .2-2 .6-2.7.4-.8 1-1.4 1.7-1.8.7-.4 1.5-.6 2.4-.6 1 0 1.8.3 2.5.8s1.2 1.2 1.4 2.2l-1.3.3c-.2-.7-.6-1.3-1-1.6-.4-.3-1-.5-1.7-.5-.8 0-1.4.2-1.9.6-.5.4-.9.9-1.1 1.5-.2.6-.3 1.3-.3 1.9 0 .9.1 1.6.4 2.2.2.6.6 1.1 1.2 1.4.5.3 1.1.5 1.7.5.7 0 1.4-.2 1.9-.6.4-.5.7-1.1.9-2zm2.9 3.5v-10h2l2.4 7.1c.2.7.4 1.2.5 1.5.1-.4.3-.9.5-1.6l2.4-7h1.8v10h-1.3v-8.4l-2.9 8.4h-1.2l-2.9-8.5v8.5h-1.3zm14.6 0V188l-3.9-5.8h1.6l2 3c.4.6.7 1.1 1 1.7.3-.5.7-1.1 1.1-1.8l1.9-3h1.5l-4 5.8v4.2h-1.2zm6.4 0v-10h1.3v5l5-5h1.8l-4.2 4.1 4.4 6H314l-3.6-5.1-1.6 1.6v3.5h-1.3zm9.6-5.8V185h1.4v1.4h-1.4zm0 5.8v-1.4h1.4v1.4h-1.4zm7.5 0v-10h1.3v5l5-5h1.8l-4.2 4.1 4.4 6h-1.8l-3.6-5.1-1.6 1.6v3.5h-1.3zm9-8.7v-1.2h6.5v1c-.6.7-1.3 1.6-1.9 2.7-.6 1.1-1.1 2.3-1.4 3.5-.2.8-.4 1.8-.5 2.8H335c0-.8.2-1.7.5-2.9.3-1.1.7-2.2 1.3-3.2.6-1 1.1-1.9 1.8-2.6h-5zm7.8 0v-1.2h6.5v1c-.6.7-1.3 1.6-1.9 2.7-.6 1.1-1.1 2.3-1.4 3.5-.2.8-.4 1.8-.5 2.8h-1.3c0-.8.2-1.7.5-2.9.3-1.1.7-2.2 1.3-3.2.6-1 1.1-1.9 1.8-2.6h-5zm-64.9 25.7v-10h4.4c.9 0 1.6.1 2 .3.5.2.8.5 1.1 1 .3.5.4 1 .4 1.5 0 .7-.2 1.3-.7 1.8-.5.5-1.2.8-2.1.9.4.2.6.3.8.5.4.4.8.8 1.1 1.3l1.7 2.7h-1.7l-1.3-2.1c-.4-.6-.7-1.1-1-1.4l-.7-.7-.6-.3h-2.2v4.5h-1.2zm1.3-5.6h2.9c.6 0 1.1-.1 1.4-.2.3-.1.6-.3.8-.6.2-.3.3-.6.3-.9 0-.5-.2-.9-.5-1.2-.3-.3-.9-.5-1.6-.5h-3.2v3.4zm13.4 1.7v-1.2h4.2v3.7c-.7.5-1.3.9-2 1.2-.7.3-1.4.4-2.1.4-1 0-1.9-.2-2.7-.6-.8-.4-1.4-1-1.8-1.8-.4-.8-.6-1.7-.6-2.7 0-1 .2-1.9.6-2.7.4-.8 1-1.5 1.8-1.9.8-.4 1.6-.6 2.6-.6.7 0 1.4.1 2 .4.6.2 1 .6 1.4 1 .3.4.6 1 .8 1.6l-1.2.3c-.2-.5-.3-.9-.6-1.2-.2-.3-.5-.5-1-.7-.4-.2-.9-.3-1.4-.3-.6 0-1.1.1-1.6.3-.4.2-.8.4-1.1.7-.3.3-.5.6-.6 1-.3.6-.4 1.3-.4 2 0 .9.2 1.6.5 2.2.3.6.8 1 1.3 1.3.6.3 1.2.4 1.9.4.6 0 1.1-.1 1.7-.3.5-.2 1-.5 1.2-.7v-1.9h-2.9zm6.2 3.9v-10h3.8c.8 0 1.4.1 1.8.3.5.2.8.5 1.1.9.3.4.4.9.4 1.3s-.1.8-.4 1.2c-.2.4-.6.7-1.1.9.6.2 1.1.5 1.4.9.3.4.5.9.5 1.5 0 .5-.1.9-.3 1.3-.2.4-.4.7-.7.9-.3.2-.7.4-1.1.5-.4.1-1 .2-1.6.2h-3.8zm1.3-5.8h2.2c.6 0 1 0 1.3-.1.3-.1.6-.3.8-.5.2-.2.3-.5.3-.9 0-.3-.1-.6-.2-.9-.2-.3-.4-.4-.7-.5-.3-.1-.8-.1-1.5-.1h-2v3zm0 4.7h3.4c.3-.1.6-.1.8-.3.2-.1.4-.3.5-.6.1-.2.2-.5.2-.8 0-.4-.1-.7-.3-1-.2-.3-.5-.5-.8-.6-.3-.1-.8-.2-1.5-.2h-2.3v3.5zm8.3-4.7V202h1.4v1.4H307zm0 5.8v-1.4h1.4v1.4H307zm7.6 0v-10h4.4c.9 0 1.6.1 2 .3.5.2.8.5 1.1 1 .3.5.4 1 .4 1.5 0 .7-.2 1.3-.7 1.8-.5.5-1.2.8-2.1.9.4.2.6.3.8.5.4.4.8.8 1.1 1.3l1.7 2.7h-1.7l-1.3-2.1c-.4-.6-.7-1.1-1-1.4l-.7-.7-.6-.3h-2.2v4.5h-1.2zm1.3-5.6h2.9c.6 0 1.1-.1 1.4-.2.3-.1.6-.3.8-.6.2-.3.3-.6.3-.9 0-.5-.2-.9-.5-1.2-.3-.3-.9-.5-1.6-.5H316v3.4zm10.2.2c-.5-.2-.9-.5-1.1-.8-.2-.3-.4-.8-.4-1.2 0-.7.3-1.3.8-1.8s1.2-.7 2.1-.7c.9 0 1.6.3 2.1.8s.8 1.1.8 1.9c0 .5-.1.9-.4 1.2-.2.3-.6.6-1.1.8.6.2 1.1.5 1.4 1 .3.4.5 1 .5 1.6 0 .9-.3 1.6-.9 2.2-.6.6-1.4.9-2.4.9s-1.8-.3-2.4-.9c-.6-.6-.9-1.3-.9-2.2 0-.7.2-1.2.5-1.6.3-.7.8-1 1.4-1.2zm-.7 2.5c0 .4.1.7.2 1 .2.3.4.6.7.8.3.2.7.3 1.1.3.6 0 1.1-.2 1.5-.6.4-.4.6-.9.6-1.4 0-.6-.2-1.1-.6-1.5-.4-.4-.9-.6-1.5-.6s-1.1.2-1.4.6c-.4.4-.6.9-.6 1.4zm.4-4.6c0 .5.2.9.5 1.2.3.3.7.5 1.2.5s.9-.1 1.2-.4c.3-.3.5-.7.5-1.1 0-.5-.2-.8-.5-1.1-.3-.3-.7-.5-1.2-.5s-.9.2-1.2.5c-.3.1-.5.5-.5.9zm6.2 4.9l1.2-.2c.1.7.4 1.2.7 1.5.3.3.7.5 1.2.5.6 0 1.1-.2 1.5-.6.4-.4.6-.9.6-1.5s-.2-1-.5-1.4c-.4-.4-.8-.6-1.4-.6-.2 0-.5 0-.9.1l.1-1.1h.2c.5 0 1-.1 1.4-.4.4-.3.6-.7.6-1.3 0-.5-.2-.8-.5-1.1-.3-.3-.7-.4-1.2-.4s-.9.1-1.2.4c-.3.3-.5.7-.6 1.3l-1.2-.2c.1-.8.5-1.5 1-1.9.5-.5 1.2-.7 2-.7.5 0 1 .1 1.5.4.5.2.8.6 1.1 1 .2.4.4.8.4 1.3 0 .4-.1.8-.3 1.2-.2.4-.6.6-1 .8.6.1 1.1.4 1.4.9.3.4.5 1 .5 1.6 0 .9-.3 1.6-1 2.2-.6.6-1.4.9-2.4.9-.9 0-1.6-.3-2.2-.8-.6-.4-.9-1.1-1-1.9zm16.8-1.3v-1.2h4.2v3.7c-.7.5-1.3.9-2 1.2-.7.3-1.4.4-2.1.4-1 0-1.9-.2-2.7-.6-.8-.4-1.4-1-1.8-1.8-.4-.8-.6-1.7-.6-2.7 0-1 .2-1.9.6-2.7.4-.8 1-1.5 1.8-1.9.8-.4 1.6-.6 2.6-.6.7 0 1.4.1 2 .4.6.2 1 .6 1.4 1 .3.4.6 1 .8 1.6l-1.2.3c-.2-.5-.3-.9-.6-1.2-.2-.3-.5-.5-1-.7-.4-.2-.9-.3-1.4-.3-.6 0-1.1.1-1.6.3-.4.2-.8.4-1.1.7-.3.3-.5.6-.6 1-.3.6-.4 1.3-.4 2 0 .9.2 1.6.5 2.2.3.6.8 1 1.3 1.3.6.3 1.2.4 1.9.4.6 0 1.1-.1 1.7-.3.5-.2 1-.5 1.2-.7v-1.9h-2.9zm7.6-1.5c-.5-.2-.9-.5-1.1-.8-.2-.3-.4-.8-.4-1.2 0-.7.3-1.3.8-1.8s1.2-.7 2.1-.7c.9 0 1.6.3 2.1.8s.8 1.1.8 1.9c0 .5-.1.9-.4 1.2-.2.3-.6.6-1.1.8.6.2 1.1.5 1.4 1 .3.4.5 1 .5 1.6 0 .9-.3 1.6-.9 2.2-.6.6-1.4.9-2.4.9s-1.8-.3-2.4-.9c-.6-.6-.9-1.3-.9-2.2 0-.7.2-1.2.5-1.6.3-.7.8-1 1.4-1.2zm-.6 2.5c0 .4.1.7.2 1 .2.3.4.6.7.8.3.2.7.3 1.1.3.6 0 1.1-.2 1.5-.6.4-.4.6-.9.6-1.4 0-.6-.2-1.1-.6-1.5-.4-.4-.9-.6-1.5-.6s-1.1.2-1.4.6c-.4.4-.6.9-.6 1.4zm.4-4.6c0 .5.2.9.5 1.2.3.3.7.5 1.2.5s.9-.1 1.2-.4c.3-.3.5-.7.5-1.1 0-.5-.2-.8-.5-1.1-.3-.3-.7-.5-1.2-.5s-.9.2-1.2.5c-.4.1-.5.5-.5.9zm6.1 4.9l1.3-.1c.1.6.3 1.1.7 1.4.3.3.8.5 1.3.5.6 0 1.1-.2 1.5-.7.4-.4.6-1 .6-1.8 0-.7-.2-1.3-.6-1.7-.4-.4-.9-.6-1.5-.6-.4 0-.8.1-1.1.3-.3.2-.6.4-.7.7l-1.2-.2 1-5.2h5v1.2h-4l-.5 2.7c.6-.4 1.2-.6 1.9-.6.9 0 1.6.3 2.2.9.6.6.9 1.4.9 2.3 0 .9-.3 1.7-.8 2.4-.6.8-1.5 1.2-2.6 1.2-.9 0-1.7-.3-2.2-.8-.8-.4-1.1-1-1.2-1.9zm12.1 2.6v-10h3.8c.8 0 1.4.1 1.8.3.5.2.8.5 1.1.9.3.4.4.9.4 1.3s-.1.8-.4 1.2c-.2.4-.6.7-1.1.9.6.2 1.1.5 1.4.9.3.4.5.9.5 1.5 0 .5-.1.9-.3 1.3-.2.4-.4.7-.7.9-.3.2-.7.4-1.1.5-.4.1-1 .2-1.6.2h-3.8zm1.4-5.8h2.2c.6 0 1 0 1.3-.1.3-.1.6-.3.8-.5.2-.2.3-.5.3-.9 0-.3-.1-.6-.2-.9-.2-.3-.4-.4-.7-.5-.3-.1-.8-.1-1.5-.1h-2v3zm0 4.7h3.4c.3-.1.6-.1.8-.3.2-.1.4-.3.5-.6.1-.2.2-.5.2-.8 0-.4-.1-.7-.3-1-.2-.3-.5-.5-.8-.6-.3-.1-.8-.2-1.5-.2h-2.3v3.5zm9.4-4.3c-.5-.2-.9-.5-1.1-.8-.2-.3-.4-.8-.4-1.2 0-.7.3-1.3.8-1.8s1.2-.7 2.1-.7c.9 0 1.6.3 2.1.8s.8 1.1.8 1.9c0 .5-.1.9-.4 1.2-.2.3-.6.6-1.1.8.6.2 1.1.5 1.4 1 .3.4.5 1 .5 1.6 0 .9-.3 1.6-.9 2.2-.6.6-1.4.9-2.4.9s-1.8-.3-2.4-.9c-.6-.6-.9-1.3-.9-2.2 0-.7.2-1.2.5-1.6.3-.7.8-1 1.4-1.2zm-.6 2.5c0 .4.1.7.2 1 .2.3.4.6.7.8.3.2.7.3 1.1.3.6 0 1.1-.2 1.5-.6.4-.4.6-.9.6-1.4 0-.6-.2-1.1-.6-1.5-.4-.4-.9-.6-1.5-.6s-1.1.2-1.4.6c-.4.4-.6.9-.6 1.4zm.4-4.6c0 .5.2.9.5 1.2.3.3.7.5 1.2.5s.9-.1 1.2-.4c.3-.3.5-.7.5-1.1 0-.5-.2-.8-.5-1.1-.3-.3-.7-.5-1.2-.5s-.9.2-1.2.5c-.4.1-.5.5-.5.9zm10.1 7.5v-2.4h-4.3v-1.1l4.6-6.5h1v6.5h1.4v1.1h-1.4v2.4h-1.3zm0-3.5v-4.5l-3.1 4.5h3.1z"/><path class="st7" d="M22.4 150.6v4.6h.1c1.4-2.1 3.1-3.6 4.9-4.5 1.8-.9 4.1-1.3 6.7-1.3 3.2 0 5.8.6 7.8 1.9 2 1.2 3.5 3 4.5 5.2.9 2.3 1.4 4.9 1.4 8v22.4H34.9v-19.4c0-2.3-.4-4.2-1.1-5.7-.7-1.5-2.3-2.2-4.7-2.2-4.5 0-6.7 2.8-6.7 8.4v18.8H9.5v-36.2h12.9zm71.1 18.9v1.3H66.4c0 5.4 2.7 8.1 8.1 8.1 2.8 0 4.9-1.1 6.2-3.3H93c-.7 2.7-1.9 5-3.8 6.9-1.8 1.9-4 3.3-6.6 4.2-2.6.9-5.3 1.4-8.1 1.4-4.1 0-7.7-.8-10.9-2.2-3.2-1.5-5.7-3.7-7.5-6.6-1.8-2.9-2.7-6.4-2.7-10.5 0-3.9.8-7.4 2.5-10.3 1.7-2.9 4.1-5.2 7.1-6.8 3.1-1.6 6.5-2.3 10.4-2.3 3.1 0 5.9.5 8.4 1.4 2.5.9 4.6 2.3 6.3 4 1.7 1.8 3 3.9 3.9 6.4 1.1 2.4 1.5 5.2 1.5 8.3zm-26.9-6h15c-.3-1.7-1.2-3.1-2.5-4.1-1.4-1.1-3-1.6-4.8-1.6-1.9 0-3.6.5-5 1.5-1.4.9-2.3 2.3-2.7 4.2zm45.7-12.9v4.5h.1c2.9-3.8 6.7-5.7 11.5-5.7 5.7 0 9.9 2.3 12.4 6.9 1.2-2.2 2.9-3.9 5.1-5.1 2.2-1.2 4.6-1.8 7.1-1.8 8.2 0 12.3 4.8 12.3 14.4v23.1H148v-17.3c0-2.9-.3-5.3-.9-7.1-.6-1.8-2.1-2.8-4.3-2.8-2.6 0-4.3.9-5 2.7-.7 1.8-1.1 4.2-1.1 7.2v17.3h-12.9v-17.3c0-3-.3-5.5-1-7.4-.7-1.9-2.2-2.8-4.8-2.8-2.5 0-4.1.9-4.8 2.8-.7 1.9-1 4.3-1 7.4v17.3H99.4v-36.2h12.9z"/><path d="M187.1 170.8c-.6 0-1.3-.1-2.1-.6-10.7-6.8-18.2-17.7-20.8-30.1-.5-2.6-.8-5.3-.9-8 0-.6.1-1.1.4-1.7.4-.7.9-1 1.4-1.2 6.7-3.6 14.3-5.5 22-5.5 5.1 0 10.2.8 15 2.5 2.4.8 4.8 1.8 7 3 .5.3 1 .6 1.4 1.2.3.5.4 1 .4 1.7-.4 12.8-6.1 25.1-15.7 33.6-1.8 1.6-3.8 3.1-5.9 4.5-.9.5-1.5.6-2.2.6z"/><path class="st6" d="M197.9 158.8c.5-1.2.7-2.9.7-4.3 0-3.7-1.8-7.2-4.7-8.9-.1-.1-.2-.1-.3-.2-2.9-1.8-5.8-4-5.8-7.7 0-5.5 4.5-10 10-10 1.1 0 2.2.1 3.3.4 2.1.7 4.2 1.6 6.2 2.7.4.2.7.4 1 .8.2.4.3.7.3 1.1-.3 9.9-4.2 18.8-10.2 26.3 0 0-.3.3-.4.2-.3 0-.1-.4-.1-.4z"/><path class="st6" d="M195.1 127.4c-5.1.5-10 5.3-10 10.4 0 3.7-.7 6.9-3.6 8.6-.1.1-.2.1-.3.2-1.4.8-3.1 1.3-4.9 1.3-4.8 0-8.9-3.4-9.9-7.9-.5-2.3-.7-4.7-.8-7.1 0-.4.1-.7.3-1.1.2-.4.5-.6 1-.8 8.8-4.7 18.8-6 28.3-3.9 0 0 .4.1.4.2s-.5.1-.5.1z"/><path class="st6" d="M168.9 145.8c2 2.6 5.3 4.5 8.5 4.5 1.8 0 3.4-.5 4.9-1.3.1-.1.2-.1.3-.2 3-2 7.1-2.4 9.4-1.2.1.1.2.1.3.2 2.9 1.8 4.9 5 4.9 8.6 0 2.9-1.2 5.6-3.3 7.5-1.6 1.5-3.4 2.8-5.3 4-.5.3-.9.4-1.5.4s-1-.1-1.5-.4c-8.2-5.2-14.2-13-17.1-22 0 0-.1-.5 0-.5s.4.4.4.4z"/><path class="st7" d="M12.9 195.5h1.2v5.2h-1.2v-.5c-.5.5-1 .7-1.6.7-.7 0-1.3-.3-1.8-.8s-.7-1.2-.7-2 .2-1.4.7-2c.5-.5 1.1-.8 1.8-.8.6 0 1.2.3 1.6.8v-.6zm-2.8 2.6c0 .5.1.9.4 1.2.3.3.6.5 1 .5s.8-.2 1.1-.5c.3-.3.4-.7.4-1.2s-.1-.9-.4-1.2c-.3-.3-.6-.5-1.1-.5-.4 0-.8.2-1 .5-.3.3-.4.7-.4 1.2zm8.9-2.6h1.2v.5c.4-.4.9-.6 1.4-.6.6 0 1.1.2 1.4.6.3.3.4.9.4 1.6v3.2h-1.2v-2.9c0-.5-.1-.9-.2-1.1-.1-.2-.4-.3-.8-.3s-.7.1-.8.4c-.2.3-.2.7-.2 1.4v2.5H19v-5.3zm10.8 2.9H26c0 .4.2.8.4 1 .2.2.6.4.9.4.3 0 .5-.1.7-.2.2-.1.4-.4.7-.8l1 .6c-.2.3-.3.5-.5.7-.2.2-.4.3-.6.5l-.6.3c-.2.1-.5.1-.8.1-.8 0-1.4-.3-1.9-.8s-.7-1.2-.7-2 .2-1.5.7-2c.5-.5 1.1-.8 1.8-.8.8 0 1.4.2 1.8.7.4.5.7 1.2.7 2l.2.3zm-1.3-1c-.2-.6-.6-1-1.2-1-.1 0-.3 0-.4.1-.1 0-.2.1-.4.2l-.3.3c-.1.1-.1.3-.2.4h2.5zm3-1.9l1.4 3 1.5-3.5 1.5 3.5 1.4-3h1.4l-2.7 5.6-1.5-3.4-1.5 3.4-2.7-5.6h1.2zm16 2.9h-3.7c0 .4.2.8.4 1 .2.2.6.4.9.4.3 0 .5-.1.7-.2.2-.1.4-.4.7-.8l1 .6c-.2.3-.3.5-.5.7-.2.2-.4.3-.6.5l-.6.3c-.2.1-.5.1-.8.1-.8 0-1.4-.3-1.9-.8s-.7-1.2-.7-2 .2-1.5.7-2c.5-.5 1.1-.8 1.8-.8.8 0 1.4.2 1.8.7.4.5.7 1.2.7 2l.1.3zm-1.3-1c-.2-.6-.6-1-1.2-1-.1 0-.3 0-.4.1-.1 0-.2.1-.4.2l-.3.3c-.1.1-.1.3-.2.4h2.5zm6.6-1.7v1.6c-.3-.3-.5-.6-.7-.7-.2-.1-.5-.2-.8-.2-.5 0-.8.2-1.1.5-.3.3-.5.7-.5 1.2s.1.9.4 1.2c.3.3.7.5 1.1.5.3 0 .5-.1.8-.2.2-.1.5-.4.8-.7v1.6c-.5.3-1 .4-1.5.4-.8 0-1.5-.3-2-.8s-.8-1.2-.8-2 .3-1.4.8-2c.6-.5 1.2-.8 2-.8.6.1 1.1.2 1.5.4zm.9 2.4c0-.8.3-1.4.8-1.9s1.2-.8 2-.8 1.4.3 2 .8c.5.5.8 1.2.8 2s-.3 1.4-.8 2c-.5.5-1.2.8-2 .8s-1.4-.3-2-.8c-.5-.6-.8-1.3-.8-2.1zm1.3 0c0 .5.1.9.4 1.2.3.3.7.5 1.1.5.5 0 .8-.2 1.1-.5.3-.3.4-.7.4-1.2s-.1-.9-.4-1.2c-.3-.3-.7-.5-1.1-.5-.5 0-.8.2-1.1.5-.3.3-.4.7-.4 1.2zm5.6-2.6h1.2v.5c.4-.4.9-.6 1.4-.6.6 0 1.1.2 1.4.6.3.3.4.9.4 1.6v3.2h-1.2v-2.9c0-.5-.1-.9-.2-1.1-.1-.2-.4-.3-.8-.3s-.7.1-.8.4c-.2.3-.2.7-.2 1.4v2.5h-1.2v-5.3zm5.7 2.6c0-.8.3-1.4.8-1.9s1.2-.8 2-.8 1.4.3 2 .8c.5.5.8 1.2.8 2s-.3 1.4-.8 2c-.5.5-1.2.8-2 .8s-1.4-.3-2-.8c-.5-.6-.8-1.3-.8-2.1zm1.2 0c0 .5.1.9.4 1.2.3.3.7.5 1.1.5.5 0 .8-.2 1.1-.5.3-.3.4-.7.4-1.2s-.1-.9-.4-1.2c-.3-.3-.7-.5-1.1-.5-.5 0-.8.2-1.1.5-.2.3-.4.7-.4 1.2zm5.6-2.6h1.2v.5c.2-.2.4-.4.6-.5.2-.1.4-.1.7-.1.6 0 1.1.3 1.4.8.4-.5.9-.8 1.5-.8 1.2 0 1.8.7 1.8 2.1v3.2h-1.2v-2.9c0-.5-.1-.9-.2-1.1-.1-.2-.3-.3-.6-.3s-.6.1-.7.4c-.2.2-.2.7-.2 1.2v2.7h-1.2v-2.9c0-.9-.3-1.4-.8-1.4-.3 0-.6.1-.7.4-.2.3-.2.7-.2 1.2v2.7h-1.2v-5.2zm10.2 4.3l-2.3-4.3h1.4l1.6 3 1.5-3h1.4l-4.2 8.1h-1.4l2-3.8zm10.6-3.4l-1 .5c-.2-.3-.4-.5-.6-.5-.1 0-.2 0-.3.1-.1.1-.1.2-.1.3 0 .2.2.4.7.6.6.3 1.1.5 1.3.8.2.2.3.5.3.9 0 .5-.2.9-.6 1.3-.4.3-.8.5-1.3.5-.9 0-1.5-.4-1.9-1.3l1-.5c.1.2.3.4.3.5.1.1.3.2.5.2.4 0 .6-.2.6-.6 0-.2-.2-.4-.5-.6-.1-.1-.2-.1-.4-.2-.1-.1-.2-.1-.4-.2-.3-.2-.6-.3-.7-.5-.2-.2-.3-.5-.3-.8 0-.5.2-.8.5-1.1.3-.3.7-.4 1.2-.4.9 0 1.4.3 1.7 1zm2.7.2v4.1h-1.2v-4.1h-.5v-1.1h.5v-1.9h1.2v1.9h.9v1.1h-.9zm5.7-1.1h1.2v5.2h-1.2v-.5c-.5.5-1 .7-1.6.7-.7 0-1.3-.3-1.8-.8s-.7-1.2-.7-2 .2-1.4.7-2c.5-.5 1.1-.8 1.8-.8.6 0 1.2.3 1.6.8v-.6zm-2.9 2.6c0 .5.1.9.4 1.2.3.3.6.5 1 .5s.8-.2 1.1-.5c.3-.3.4-.7.4-1.2s-.1-.9-.4-1.2c-.3-.3-.6-.5-1.1-.5-.4 0-.8.2-1 .5-.3.3-.4.7-.4 1.2zm5.6-2.6h1.2v.5c.2-.2.4-.4.6-.5.2-.1.4-.1.6-.1.3 0 .7.1 1 .3l-.6 1.1c-.2-.2-.5-.2-.7-.2-.7 0-1 .5-1 1.5v2.7H105v-5.3zm5.7 1.1v4.1h-1.2v-4.1h-.5v-1.1h.5v-1.9h1.2v1.9h.9v1.1h-.9zm4.8-.2l-1 .5c-.2-.3-.4-.5-.6-.5-.1 0-.2 0-.3.1-.1.1-.1.2-.1.3 0 .2.2.4.7.6.6.3 1.1.5 1.3.8.2.2.3.5.3.9 0 .5-.2.9-.6 1.3-.4.3-.8.5-1.3.5-.9 0-1.5-.4-1.9-1.3l1-.5c.1.2.3.4.3.5.1.1.3.2.5.2.4 0 .6-.2.6-.6 0-.2-.2-.4-.5-.6-.1-.1-.2-.1-.4-.2-.1-.1-.2-.1-.4-.2-.3-.2-.6-.3-.7-.5-.2-.2-.3-.5-.3-.8 0-.5.2-.8.5-1.1.3-.3.7-.4 1.2-.4.9 0 1.3.3 1.7 1zm5.4-.9l1.4 3 1.5-3.5 1.5 3.5 1.4-3h1.4l-2.7 5.6-1.5-3.4-1.5 3.4-2.7-5.6h1.2zm7.6-2.2c0-.2.1-.4.2-.5.2-.2.3-.2.6-.2.2 0 .4.1.6.2.2.2.2.3.2.6s-.1.4-.2.6c-.2.2-.3.2-.6.2-.2 0-.4-.1-.6-.2s-.2-.4-.2-.7zm1.4 2.2v5.2h-1.2v-5.2h1.2zm2.8 1.1v4.1h-1.2v-4.1h-.5v-1.1h.5v-1.9h1.2v1.9h.9v1.1h-.9zm1.9-4.9h1.2v4.3c.4-.4.9-.6 1.4-.6.6 0 1.1.2 1.4.6.3.3.5.9.5 1.6v3.2h-1.2v-3.1c0-.4-.1-.7-.2-.9-.1-.2-.4-.3-.7-.3-.4 0-.7.1-.9.4-.2.3-.3.7-.3 1.4v2.5h-1.2v-9.1zm11 8.1l-2.3-4.3h1.4l1.6 3 1.5-3h1.4l-4.2 8.1h-1.4l2-3.8zm3.9-1.7c0-.8.3-1.4.8-1.9s1.2-.8 2-.8 1.4.3 2 .8c.5.5.8 1.2.8 2s-.3 1.4-.8 2c-.5.5-1.2.8-2 .8s-1.4-.3-2-.8c-.6-.6-.8-1.3-.8-2.1zm1.2 0c0 .5.1.9.4 1.2.3.3.7.5 1.1.5.5 0 .9-.2 1.1-.5.3-.3.4-.7.4-1.2s-.1-.9-.4-1.2c-.3-.3-.7-.5-1.1-.5-.5 0-.8.2-1.1.5-.2.3-.4.7-.4 1.2zm6.8-2.6v3c0 .9.3 1.3 1 1.3s1-.4 1-1.3v-3h1.2v3c0 .4-.1.8-.2 1.1-.1.3-.3.5-.5.7-.4.4-.9.5-1.6.5-.6 0-1.1-.2-1.5-.5-.2-.2-.4-.5-.5-.7-.1-.2-.1-.6-.1-1.1v-3h1.2zm4.9 4.6c0-.2.1-.4.2-.5.1-.1.3-.2.5-.2s.4.1.5.2c.1.1.2.3.2.5s-.1.4-.2.5c-.1.1-.3.2-.5.2s-.4-.1-.5-.2c-.1-.1-.2-.2-.2-.5z"/></svg>