<svg xmlns="http://www.w3.org/2000/svg" width="200" height="200" viewBox="0 0 300 300"><path fill="#a4a4a4" d="M149.849 297.143c-.609-.332-1.127-.597-1.628-.89C82.349 257.678 32.544 194.182 12.273 118.137a292.341 292.341 0 0 1-7.265-36.564C3.34 69.11 2.518 56.592 2.409 44.023c-.019-2.161-.213-1.81 1.637-2.86C28.798 27.112 55.024 16.834 82.753 10.39a293.17 293.17 0 0 1 30.998-5.479c14.35-1.745 28.757-2.462 43.209-2.099a299.17 299.17 0 0 1 24.229 1.584c40.387 4.306 78.263 16.446 113.657 36.355.511.288 1.006.607 1.532.864.599.293.869.73.838 1.399-.032.703-.004 1.408-.015 2.112-.106 7.277-.392 14.546-1 21.799-.872 10.414-2.268 20.758-4.241 31.021-4.236 22.04-10.888 43.326-20.043 63.818-14.536 32.536-34.334 61.489-59.341 86.875-18.051 18.325-38.163 34.019-60.313 47.098-.755.448-1.518.885-2.414 1.406zM15.953 51.214v1.742c.008 10.337.683 20.634 1.918 30.893a264.691 264.691 0 0 0 4.811 27.544c.368 1.605.865 3.138 1.571 4.639 12.63 26.88 41.894 41.174 70.912 34.605 22.127-5.009 40.052-22.061 46.209-43.889 1.702-6.036 2.283-12.205 2.474-18.431.126-4.112.513-8.192 1.284-12.235 4.72-24.727 21.259-45.156 44.418-54.849 1.298-.543 2.622-1.022 3.929-1.543.185-.074.482-.097.394-.436-3.637-1.298-25.495-3.478-38.605-3.736-28.127-.554-55.69 3.141-82.646 11.222-19.795 5.934-38.645 14.07-56.669 24.474zm207.566 168.642c.773-.364 1.075-.958 1.463-1.44a261.512 261.512 0 0 0 15.882-21.948c17.649-27.278 29.963-56.777 36.825-88.542a263.944 263.944 0 0 0 4.941-32.688c.657-7.486 1.025-14.983 1.029-22.497 0-.518-.053-1.037-.081-1.55-.73-.43-1.379-.826-2.04-1.199-5.775-3.258-11.652-6.32-17.661-9.124-8.666-4.043-17.455-7.785-26.592-10.65-11.122-3.487-22.357-3.874-33.691-1.141-32.261 7.779-52.878 39.356-46.77 71.961 3.387 18.08 13.085 32.026 28.64 41.873 1.041.659 2.105 1.28 3.155 1.923 11.364 6.955 20.269 16.267 26.631 27.967 6.691 12.304 9.699 25.47 8.925 39.47-.136 2.454-.42 4.899-.656 7.585zm-73.568 62.922c.577-.326 1.24-.689 1.891-1.072 17.73-10.427 34.008-22.778 48.94-36.914.952-.902 1.69-1.945 2.278-3.103.957-1.882 1.932-3.757 2.847-5.66 7.065-14.687 8.58-29.903 3.893-45.545-9.113-30.41-38.433-47.86-67.792-44.192-8.389 1.048-16.239 3.719-23.559 7.831-13.991 7.859-28.911 11.098-44.875 9.572-7.833-.749-15.339-2.75-22.54-5.911-5.67-2.489-10.935-5.656-15.823-9.455-.34-.264-.723-.473-1.357-.884.209.698.296 1.084.439 1.448a264.653 264.653 0 0 0 23.272 45.729 267.65 267.65 0 0 0 34.405 43.359 268.708 268.708 0 0 0 42.555 35.397c6.776 4.547 13.341 8.556 15.426 9.4z"/></svg>