<?xml version="1.0" encoding="utf-8"?>
<!-- Generator: Adobe Illustrator 17.0.0, SVG Export Plug-In . SVG Version: 6.00 Build 0)  -->
<!DOCTYPE svg PUBLIC "-//W3C//DTD SVG 1.1//EN" "http://www.w3.org/Graphics/SVG/1.1/DTD/svg11.dtd">
<svg version="1.1" id="Layer_1" xmlns="http://www.w3.org/2000/svg" xmlns:xlink="http://www.w3.org/1999/xlink" x="0px" y="0px"
	 width="200px" height="200px" viewBox="0 0 300 300" enable-background="new 0 0 300 300" xml:space="preserve">
<g>
	<path fill="#a4a4a4" d="M149.849,297.143c-0.609-0.332-1.127-0.597-1.628-0.89C82.349,257.678,32.544,194.182,12.273,118.137
		c-3.207-12.03-5.613-24.221-7.265-36.564c-1.668-12.463-2.49-24.981-2.599-37.55c-0.019-2.161-0.213-1.81,1.637-2.86
		c24.752-14.051,50.978-24.329,78.707-30.773c10.237-2.379,20.569-4.211,30.998-5.479c14.35-1.745,28.757-2.462,43.209-2.099
		c8.095,0.203,16.173,0.725,24.229,1.584c40.387,4.306,78.263,16.446,113.657,36.355c0.511,0.288,1.006,0.607,1.532,0.864
		c0.599,0.293,0.869,0.73,0.838,1.399c-0.032,0.703-0.004,1.408-0.015,2.112c-0.106,7.277-0.392,14.546-1,21.799
		c-0.872,10.414-2.268,20.758-4.241,31.021c-4.236,22.04-10.888,43.326-20.043,63.818c-14.536,32.536-34.334,61.489-59.341,86.875
		c-18.051,18.325-38.163,34.019-60.313,47.098C151.508,296.185,150.745,296.622,149.849,297.143z M15.953,51.214
		c0,0.692,0,1.217,0,1.742c0.008,10.337,0.683,20.634,1.918,30.893c1.115,9.265,2.725,18.446,4.811,27.544
		c0.368,1.605,0.865,3.138,1.571,4.639c12.63,26.88,41.894,41.174,70.912,34.605c22.127-5.009,40.052-22.061,46.209-43.889
		c1.702-6.036,2.283-12.205,2.474-18.431c0.126-4.112,0.513-8.192,1.284-12.235c4.72-24.727,21.259-45.156,44.418-54.849
		c1.298-0.543,2.622-1.022,3.929-1.543c0.185-0.074,0.482-0.097,0.394-0.436c-3.637-1.298-25.495-3.478-38.605-3.736
		c-28.127-0.554-55.69,3.141-82.646,11.222C52.827,32.674,33.977,40.81,15.953,51.214z M223.519,219.856
		c0.773-0.364,1.075-0.958,1.463-1.44c5.671-7.043,10.97-14.357,15.882-21.948c17.649-27.278,29.963-56.777,36.825-88.542
		c2.332-10.793,3.975-21.688,4.941-32.688c0.657-7.486,1.025-14.983,1.029-22.497c0-0.518-0.053-1.037-0.081-1.55
		c-0.73-0.43-1.379-0.826-2.04-1.199c-5.775-3.258-11.652-6.32-17.661-9.124c-8.666-4.043-17.455-7.785-26.592-10.65
		c-11.122-3.487-22.357-3.874-33.691-1.141c-32.261,7.779-52.878,39.356-46.77,71.961c3.387,18.08,13.085,32.026,28.64,41.873
		c1.041,0.659,2.105,1.28,3.155,1.923c11.364,6.955,20.269,16.267,26.631,27.967c6.691,12.304,9.699,25.47,8.925,39.47
		C224.039,214.725,223.755,217.17,223.519,219.856z M149.951,282.778c0.577-0.326,1.24-0.689,1.891-1.072
		c17.73-10.427,34.008-22.778,48.94-36.914c0.952-0.902,1.69-1.945,2.278-3.103c0.957-1.882,1.932-3.757,2.847-5.66
		c7.065-14.687,8.58-29.903,3.893-45.545c-9.113-30.41-38.433-47.86-67.792-44.192c-8.389,1.048-16.239,3.719-23.559,7.831
		c-13.991,7.859-28.911,11.098-44.875,9.572c-7.833-0.749-15.339-2.75-22.54-5.911c-5.67-2.489-10.935-5.656-15.823-9.455
		c-0.34-0.264-0.723-0.473-1.357-0.884c0.209,0.698,0.296,1.084,0.439,1.448c6.271,15.999,14.039,31.238,23.272,45.729
		c9.967,15.643,21.441,30.094,34.405,43.359c12.964,13.265,27.153,25.061,42.555,35.397
		C141.301,277.925,147.866,281.934,149.951,282.778z"/>

</g>
</svg>
