<svg xmlns="http://www.w3.org/2000/svg" width="300" height="300" viewBox="0 0 300 300"><path d="M149.849 297.143c-.609-.332-1.127-.597-1.628-.89C82.349 257.678 32.544 194.182 12.273 118.137a292.341 292.341 0 0 1-7.265-36.564C3.34 69.11 2.518 56.592 2.409 44.023c-.019-2.161-.213-1.81 1.637-2.86C28.798 27.112 55.024 16.834 82.753 10.39a293.17 293.17 0 0 1 30.998-5.479c14.35-1.745 28.757-2.462 43.209-2.099a299.17 299.17 0 0 1 24.229 1.584c40.387 4.306 78.263 16.446 113.657 36.355.511.288 1.006.607 1.532.864.599.293.869.73.838 1.399-.032.703-.004 1.408-.015 2.112-.106 7.277-.392 14.546-1 21.799-.872 10.414-2.268 20.758-4.241 31.021-4.236 22.04-10.888 43.326-20.043 63.818-14.536 32.536-34.334 61.489-59.341 86.875-18.051 18.325-38.163 34.019-60.313 47.098-.755.448-1.518.885-2.414 1.406zM15.953 51.214v1.742c.008 10.337.683 20.634 1.918 30.893a264.691 264.691 0 0 0 4.811 27.544c.368 1.605.865 3.138 1.571 4.639 12.63 26.88 41.894 41.174 70.912 34.605 22.127-5.009 40.052-22.061 46.209-43.889 1.702-6.036 2.283-12.205 2.474-18.431.126-4.112.513-8.192 1.284-12.235 4.72-24.727 21.259-45.156 44.418-54.849 1.298-.543 2.622-1.022 3.929-1.543.185-.074.482-.097.394-.436-3.637-1.298-25.495-3.478-38.605-3.736-28.127-.554-55.69 3.141-82.646 11.222-19.795 5.934-38.645 14.07-56.669 24.474zm207.566 168.642c.773-.364 1.075-.958 1.463-1.44a261.512 261.512 0 0 0 15.882-21.948c17.649-27.278 29.963-56.777 36.825-88.542a263.944 263.944 0 0 0 4.941-32.688c.657-7.486 1.025-14.983 1.029-22.497 0-.518-.053-1.037-.081-1.55-.73-.43-1.379-.826-2.04-1.199-5.775-3.258-11.652-6.32-17.661-9.124-8.666-4.043-17.455-7.785-26.592-10.65-11.122-3.487-22.357-3.874-33.691-1.141-32.261 7.779-52.878 39.356-46.77 71.961 3.387 18.08 13.085 32.026 28.64 41.873 1.041.659 2.105 1.28 3.155 1.923 11.364 6.955 20.269 16.267 26.631 27.967 6.691 12.304 9.699 25.47 8.925 39.47-.136 2.454-.42 4.899-.656 7.585zm-73.568 62.922c.577-.326 1.24-.689 1.891-1.072 17.73-10.427 34.008-22.778 48.94-36.914.952-.902 1.69-1.945 2.278-3.103.957-1.882 1.932-3.757 2.847-5.66 7.065-14.687 8.58-29.903 3.893-45.545-9.113-30.41-38.433-47.86-67.792-44.192-8.389 1.048-16.239 3.719-23.559 7.831-13.991 7.859-28.911 11.098-44.875 9.572-7.833-.749-15.339-2.75-22.54-5.911-5.67-2.489-10.935-5.656-15.823-9.455-.34-.264-.723-.473-1.357-.884.209.698.296 1.084.439 1.448a264.653 264.653 0 0 0 23.272 45.729 267.65 267.65 0 0 0 34.405 43.359 268.708 268.708 0 0 0 42.555 35.397c6.776 4.547 13.341 8.556 15.426 9.4z"/><path fill="#F7A800" d="M15.953 51.214c18.024-10.405 36.874-18.54 56.67-24.474 26.956-8.08 54.519-11.776 82.646-11.222 13.109.258 34.967 2.438 38.605 3.736.087.339-.209.362-.394.436-1.307.521-2.631 1-3.929 1.543-23.16 9.692-39.698 30.122-44.418 54.849-.772 4.043-1.158 8.123-1.284 12.235-.191 6.227-.771 12.396-2.474 18.431-6.156 21.827-24.082 38.88-46.209 43.889-29.018 6.569-58.282-7.725-70.912-34.605-.705-1.501-1.203-3.035-1.571-4.639a264.381 264.381 0 0 1-4.811-27.544c-1.235-10.259-1.91-20.556-1.918-30.893l-.001-1.742z"/><path fill="#67B2E8" d="M223.519 219.856c.236-2.686.52-5.131.656-7.585.774-14-2.234-27.166-8.925-39.47-6.362-11.7-15.267-21.013-26.631-27.967-1.051-.643-2.115-1.265-3.155-1.923-15.555-9.847-25.253-23.793-28.64-41.873-6.108-32.605 14.509-64.182 46.77-71.961 11.333-2.733 22.569-2.345 33.691 1.141 9.137 2.865 17.927 6.607 26.592 10.65 6.009 2.803 11.886 5.865 17.661 9.124.661.373 1.31.769 2.04 1.199.028.514.081 1.032.081 1.55-.004 7.514-.372 15.011-1.029 22.497-.966 11-2.609 21.895-4.941 32.688-6.863 31.765-19.177 61.264-36.825 88.542a261.348 261.348 0 0 1-15.882 21.948c-.388.482-.69 1.076-1.463 1.44z"/><path fill="#00C4B3" d="M149.951 282.778c-2.085-.843-8.65-4.852-15.425-9.399a268.752 268.752 0 0 1-42.555-35.397 267.607 267.607 0 0 1-34.405-43.359 264.582 264.582 0 0 1-23.272-45.729c-.143-.364-.229-.75-.439-1.448.634.41 1.017.62 1.357.884 4.888 3.8 10.153 6.967 15.823 9.455 7.201 3.161 14.706 5.162 22.54 5.911 15.964 1.526 30.884-1.713 44.875-9.572 7.32-4.112 15.17-6.783 23.559-7.831 29.359-3.669 58.679 13.782 67.792 44.192 4.687 15.641 3.173 30.858-3.893 45.545-.915 1.903-1.89 3.777-2.847 5.66-.589 1.157-1.326 2.201-2.278 3.103-14.933 14.136-31.211 26.487-48.94 36.914-.653.381-1.316.744-1.892 1.071z"/></svg>