<svg data-name="Layer 1" xmlns="http://www.w3.org/2000/svg" height="50" viewBox="0 0 264.45 85.58"><title>nemLogo</title><path d="M232.74 63.36l-.35-.19a63.43 63.43 0 0 1-29.26-38.33 62.88 62.88 0 0 1-1.56-7.87 65.11 65.11 0 0 1-.56-8.08c0-.47 0-.39.35-.62a63.45 63.45 0 0 1 32.9-8.25q2.61.07 5.21.34a63 63 0 0 1 24.46 7.82l.33.19a.29.29 0 0 1 .18.3v.45c0 1.57-.08 3.13-.22 4.69a63.41 63.41 0 0 1-.91 6.68A62.46 62.46 0 0 1 259 34.22a63.64 63.64 0 0 1-25.75 28.83zm-28.82-52.89v.38a56 56 0 0 0 .41 6.65 56.84 56.84 0 0 0 1 5.93 4.89 4.89 0 0 0 .34 1 13.49 13.49 0 0 0 25.2-2 16.32 16.32 0 0 0 .53-4 16.82 16.82 0 0 1 .28-2.63A16 16 0 0 1 241.24 4l.85-.33s.1 0 .08-.09a53.7 53.7 0 0 0-8.31-.8 57.44 57.44 0 0 0-29.94 7.69zm44.67 36.29a.86.86 0 0 0 .31-.31 56.36 56.36 0 0 0 3.42-4.72 57.08 57.08 0 0 0 9-26.09c.14-1.61.22-3.22.22-4.84v-.33l-.44-.26c-1.24-.7-2.51-1.36-3.8-2a46.55 46.55 0 0 0-5.72-2.29 13.47 13.47 0 0 0-17.31 15.24 13.16 13.16 0 0 0 6.16 9l.68.41a16 16 0 0 1 7.65 14.51c-.06.55-.12 1.07-.17 1.65zm-15.83 13.51l.41-.23a58.21 58.21 0 0 0 10.53-7.94 2.41 2.41 0 0 0 .49-.67c.21-.4.42-.81.61-1.22a13.19 13.19 0 0 0 .84-9.8 13.46 13.46 0 0 0-14.59-9.51 13.75 13.75 0 0 0-5.07 1.69 16.13 16.13 0 0 1-9.66 2.06 15.71 15.71 0 0 1-4.85-1.27 16 16 0 0 1-3.4-2l-.29-.19c0 .15.06.23.09.31a57 57 0 0 0 5 9.84 57.86 57.86 0 0 0 16.56 16.95 30.35 30.35 0 0 0 3.33 1.98z"/><path d="M203.92 10.47a57 57 0 0 1 12.2-5.3 57.62 57.62 0 0 1 17.78-2.41 53.7 53.7 0 0 1 8.31.8c0 .07 0 .08-.08.09l-.85.33a16 16 0 0 0-9.56 11.8 16.8 16.8 0 0 0-.28 2.63 16.33 16.33 0 0 1-.53 4 13.49 13.49 0 0 1-25.2 2 4.88 4.88 0 0 1-.34-1 56.86 56.86 0 0 1-1-5.93 56 56 0 0 1-.41-6.65c-.04-.13-.04-.24-.04-.36z" fill="#f7a800"/><path d="M248.59 46.73c.05-.58.11-1.1.14-1.63a16 16 0 0 0-7.65-14.51l-.68-.41a13.16 13.16 0 0 1-6.16-9 13.47 13.47 0 0 1 17.31-15.26 46.34 46.34 0 0 1 5.72 2.29c1.29.6 2.56 1.26 3.8 2l.44.26v.33c0 1.62-.08 3.23-.22 4.84a57.08 57.08 0 0 1-9 26.09 56.36 56.36 0 0 1-3.42 4.72.86.86 0 0 1-.28.28z" fill="#67b2e8"/><path d="M232.76 60.27a30.47 30.47 0 0 1-3.32-2 57.85 57.85 0 0 1-9.16-7.62 57.61 57.61 0 0 1-7.4-9.33 56.91 56.91 0 0 1-5.05-9.85c0-.08 0-.16-.09-.31l.29.19a16 16 0 0 0 3.4 2 15.73 15.73 0 0 0 4.85 1.27 16.13 16.13 0 0 0 9.66-2.06 13.77 13.77 0 0 1 5.07-1.69 13.46 13.46 0 0 1 14.59 9.51 13.19 13.19 0 0 1-.84 9.8c-.2.41-.41.81-.61 1.22a2.41 2.41 0 0 1-.49.67 58.21 58.21 0 0 1-10.53 7.94z" fill="#00c4b3"/><path d="M0 31.94h14.88v7.53a32 32 0 0 1 2.79-3.21 19.49 19.49 0 0 1 3.38-2.71 16.76 16.76 0 0 1 4.11-1.87 17.33 17.33 0 0 1 5.09-.69q8.52 0 13.17 5.19t4.65 14.29v34H33.19V55.21q0-5.27-2.35-8a8.38 8.38 0 0 0-6.66-2.69 8.84 8.84 0 0 0-6.8 2.69q-2.5 2.68-2.5 8v29.2H0V31.94zm84.77 53.64a29.9 29.9 0 0 1-10.91-2A25.24 25.24 0 0 1 65.15 78a25.78 25.78 0 0 1-5.74-8.53 28.41 28.41 0 0 1-2.06-11v-.2a29.34 29.34 0 0 1 1.91-10.57 26.89 26.89 0 0 1 5.34-8.71 24.89 24.89 0 0 1 18.7-8 25.56 25.56 0 0 1 11.36 2.35 23.1 23.1 0 0 1 8 6.31 26.28 26.28 0 0 1 4.7 9.1 37.67 37.67 0 0 1 1.47 10.72v1.86q0 .98-.15 2.06H72.14a12.53 12.53 0 0 0 4.45 7.68 13.33 13.33 0 0 0 8.37 2.59 16.57 16.57 0 0 0 6.66-1.27 22.64 22.64 0 0 0 6.07-4.11l8.52 7.54a26.4 26.4 0 0 1-9 7.2 27.94 27.94 0 0 1-12.44 2.56zm9.59-31.52a14.5 14.5 0 0 0-3.53-8.08 9.76 9.76 0 0 0-7.54-3.08 10 10 0 0 0-7.59 3 15.23 15.23 0 0 0-3.77 8.13h22.43zm23.78-22.12h14.88v7.53a32 32 0 0 1 2.81-3.24 19.49 19.49 0 0 1 3.38-2.71 16.57 16.57 0 0 1 4.16-1.87 19.54 19.54 0 0 1 14.1 1.48 14.65 14.65 0 0 1 5.82 6.21 23.91 23.91 0 0 1 7.64-6.26 21 21 0 0 1 9.59-2.12q8.32 0 13 4.89t4.7 14.39v34.17h-14.88v-29.2q0-5.27-2.25-8a8 8 0 0 0-6.46-2.69 8.41 8.41 0 0 0-6.61 2.69q-2.4 2.68-2.4 8v29.2h-14.88v-29.2q0-5.27-2.25-8a8 8 0 0 0-6.46-2.69 8.41 8.41 0 0 0-6.61 2.69q-2.4 2.68-2.4 8v29.2h-14.88V31.94z"/></svg>