<?xml version="1.0" encoding="utf-8"?>
<!-- Generator: Adobe Illustrator 16.0.0, SVG Export Plug-In . SVG Version: 6.00 Build 0)  -->
<!DOCTYPE svg PUBLIC "-//W3C//DTD SVG 1.1//EN" "http://www.w3.org/Graphics/SVG/1.1/DTD/svg11.dtd">
<svg version="1.1" id="Layer_1" xmlns="http://www.w3.org/2000/svg" xmlns:xlink="http://www.w3.org/1999/xlink" x="0px" y="0px"
	 width="194.419px" height="298.172px" viewBox="0 0 194.419 298.172" enable-background="new 0 0 194.419 298.172"
	 xml:space="preserve">
<g>
	<path d="M193.867,130.346c-0.347-0.17-0.672-0.379-1.007-0.568c-23.246-13.076-48.122-21.049-74.648-23.877
		c-5.293-0.564-10.598-0.907-15.914-1.039c-9.492-0.24-18.954,0.231-28.379,1.378c-6.85,0.834-13.636,2.036-20.359,3.599
		c-18.211,4.232-35.436,10.983-51.692,20.211c-1.216,0.689-1.087,0.459-1.076,1.879c0.03,3.359,0.158,6.712,0.348,10.06
		c0.277,4.879,0.71,9.748,1.359,14.603c1.084,8.106,2.667,16.114,4.771,24.013c12.511,46.933,42.154,86.576,81.58,112.212
		c0.112,0.071,0.221,0.148,0.334,0.221c2.424,1.569,4.88,3.091,7.376,4.554c0.329,0.192,0.669,0.365,1.069,0.583
		c0.588-0.342,1.089-0.628,1.585-0.921c1.932-1.142,3.837-2.316,5.722-3.519c12.307-7.845,23.61-16.979,33.892-27.417
		c16.424-16.672,29.427-35.688,38.974-57.059c6.014-13.458,10.383-27.438,13.164-41.913c1.297-6.742,2.212-13.535,2.786-20.375
		c0.139-1.655,0.244-3.31,0.334-4.967c0.174-3.113,0.275-6.23,0.321-9.35c0.008-0.463-0.011-0.926,0.011-1.388
		C194.438,130.825,194.261,130.538,193.867,130.346 M184.837,152.428c-0.634,7.226-1.714,14.38-3.245,21.468
		c-1.602,7.414-3.664,14.637-6.167,21.677c-0.069,0.196-0.139,0.395-0.207,0.592c-0.272,0.755-0.554,1.505-0.835,2.256
		c-0.246,0.663-0.493,1.326-0.747,1.984c-0.015,0.039-0.031,0.077-0.046,0.114c-14.595,37.617-41.71,68.698-76.081,87.819
		c-0.101,0.06-0.194,0.12-0.291,0.18c-0.007-0.003-0.015-0.008-0.021-0.012c-1.665-0.819-5.319-3.065-9.16-5.627
		c-29.798-21.258-52.921-49.818-66.094-82.712c-2.788-6.96-5.135-14.113-7-21.436c-3.438-13.498-5.255-27.562-5.255-42.014
		c24.543-14.2,51.769-21.983,79.253-23.334c0.162-0.008,0.325-0.015,0.487-0.022c1.128-0.053,2.255-0.092,3.384-0.122
		c0.287-0.007,0.573-0.018,0.86-0.023c1.19-0.026,2.378-0.04,3.568-0.043c0.139,0,0.279-0.003,0.419-0.003
		c1.381,0,2.765,0.017,4.146,0.049c0.011,0,0.018,0,0.026,0c0.819,0.021,1.639,0.059,2.458,0.089
		c4.602,0.205,10.043,0.647,14.438,1.13c2.311,0.278,4.616,0.613,6.914,0.983c11.064,1.78,21.986,4.621,32.612,8.521
		c9.338,3.429,18.445,7.678,27.212,12.746c0.018,0.319,0.048,0.641,0.048,0.962C185.51,142.587,185.269,147.511,184.837,152.428"/>
	<path fill="#3BA949" d="M97.239,113.174c-1.188,0.002-2.378,0.016-3.568,0.043c-0.287,0.004-0.573,0.016-0.86,0.023
		c-1.128,0.031-2.257,0.069-3.384,0.121c-0.163,0.008-0.325,0.016-0.487,0.023c-27.485,1.35-54.709,9.135-79.254,23.334
		c0,14.452,1.818,28.516,5.257,42.015c1.864,7.322,4.212,14.475,6.999,21.435c13.173,32.894,36.296,61.454,66.093,82.712
		c3.842,2.562,7.495,4.808,9.161,5.628c0.007,0.003,0.016,0.008,0.021,0.011c0.098-0.06,0.192-0.12,0.291-0.18
		c0.029-0.018,0.061-0.036,0.092-0.052V113.17C97.48,113.172,97.359,113.174,97.239,113.174"/>
	<path fill="#328540" d="M185.464,136.689c-8.767-5.068-17.873-9.317-27.212-12.746c-10.624-3.9-21.548-6.742-32.612-8.521
		c-2.298-0.37-4.604-0.705-6.914-0.983c-4.395-0.483-9.836-0.926-14.437-1.13c-0.821-0.03-1.64-0.068-2.459-0.089
		c-0.009,0-0.016,0-0.025,0c-1.382-0.032-2.766-0.049-4.147-0.049c-0.02,0-0.038,0-0.058,0v175.115
		c34.329-19.126,61.408-50.182,75.99-87.767c0.016-0.037,0.031-0.075,0.046-0.114c0.254-0.658,0.5-1.321,0.747-1.984
		c0.281-0.751,0.562-1.501,0.835-2.256c0.068-0.197,0.139-0.396,0.207-0.592c2.503-7.04,4.566-14.263,6.167-21.677
		c1.532-7.088,2.61-14.242,3.245-21.468c0.433-4.917,0.673-9.841,0.675-14.776C185.512,137.33,185.481,137.009,185.464,136.689"/>
	<g opacity="0.1">
		<g>
			<defs>
				<rect id="SVGID_1_" x="0.782" y="104.799" width="193.637" height="193.373"/>
			</defs>
			<clipPath id="SVGID_2_">
				<use xlink:href="#SVGID_1_"  overflow="visible"/>
			</clipPath>
			<path clip-path="url(#SVGID_2_)" fill="#FFFFFF" d="M97.629,298.172c-0.399-0.218-0.74-0.391-1.07-0.583
				c-43.263-25.337-75.976-67.04-89.288-116.984c-2.106-7.9-3.687-15.908-4.771-24.015c-1.095-8.187-1.637-16.407-1.708-24.663
				c-0.011-1.419-0.14-1.188,1.075-1.879c16.257-9.228,33.482-15.979,51.694-20.21c6.723-1.562,13.509-2.766,20.359-3.6
				c9.425-1.146,18.887-1.617,28.378-1.378c5.318,0.133,10.622,0.476,15.914,1.04c26.526,2.828,51.402,10.802,74.649,23.878
				c0.334,0.188,0.659,0.399,1.006,0.567c0.393,0.193,0.57,0.48,0.551,0.92c-0.023,0.461-0.003,0.923-0.012,1.387
				c-0.069,4.778-0.256,9.552-0.655,14.317c-0.574,6.84-1.489,13.634-2.786,20.374c-2.781,14.477-7.15,28.456-13.164,41.914
				c-9.547,21.37-22.55,40.387-38.974,57.059c-11.856,12.038-25.064,22.345-39.613,30.936
				C98.718,297.544,98.217,297.83,97.629,298.172 M9.688,136.649c0,0.455,0,0.8,0,1.146c0.005,6.788,0.448,13.551,1.259,20.288
				c0.733,6.086,1.79,12.117,3.161,18.091c0.241,1.055,0.568,2.062,1.031,3.047c8.295,17.655,27.516,27.042,46.574,22.729
				c14.531-3.291,26.306-14.489,30.349-28.826c1.118-3.963,1.499-8.016,1.624-12.105c0.083-2.7,0.336-5.381,0.844-8.035
				c3.1-16.241,13.962-29.659,29.173-36.025c0.852-0.356,1.723-0.671,2.581-1.013c0.121-0.049,0.316-0.064,0.258-0.287
				c-2.389-0.853-16.745-2.284-25.354-2.454c-18.472-0.365-36.576,2.063-54.281,7.37C33.906,124.473,21.525,129.816,9.688,136.649
				 M146.015,247.411c0.506-0.238,0.706-0.631,0.96-0.947c3.725-4.623,7.204-9.429,10.43-14.415
				c11.593-17.914,19.681-37.289,24.188-58.153c1.532-7.088,2.611-14.242,3.245-21.468c0.433-4.917,0.673-9.84,0.675-14.776
				c0-0.34-0.032-0.68-0.052-1.018c-0.479-0.282-0.903-0.543-1.34-0.788c-3.792-2.141-7.653-4.151-11.599-5.992
				c-5.692-2.656-11.465-5.113-17.466-6.995c-7.306-2.29-14.685-2.544-22.129-0.75c-21.188,5.109-34.729,25.849-30.717,47.264
				c2.225,11.875,8.595,21.034,18.81,27.502c0.684,0.432,1.383,0.84,2.073,1.262c7.463,4.569,13.312,10.686,17.49,18.369
				c4.395,8.081,6.37,16.729,5.861,25.923C146.355,244.041,146.168,245.648,146.015,247.411 M97.694,288.737
				c0.38-0.215,0.814-0.452,1.241-0.705c11.646-6.846,22.337-14.959,32.146-24.245c0.624-0.592,1.109-1.276,1.495-2.036
				c0.629-1.236,1.27-2.467,1.871-3.717c4.64-9.646,5.634-19.641,2.556-29.913c-5.983-19.975-25.241-31.436-44.525-29.024
				c-5.51,0.686-10.665,2.441-15.472,5.143c-9.189,5.162-18.99,7.288-29.474,6.287c-5.145-0.491-10.075-1.807-14.804-3.882
				c-3.725-1.635-7.182-3.715-10.392-6.211c-0.224-0.174-0.476-0.312-0.892-0.58c0.138,0.457,0.194,0.711,0.288,0.951
				c4.119,10.507,9.221,20.516,15.286,30.033c6.546,10.275,14.082,19.767,22.597,28.478c8.515,8.713,17.834,16.46,27.95,23.25
				C92.015,285.551,96.326,288.184,97.694,288.737"/>
		</g>
	</g>
	<path fill="#FFFFFF" d="M193.867,130.346c-0.347-0.17-0.672-0.379-1.007-0.568c-23.246-13.076-48.122-21.049-74.648-23.877
		c-5.293-0.564-10.598-0.907-15.914-1.039c-9.492-0.24-18.954,0.231-28.379,1.378c-6.85,0.834-13.636,2.036-20.359,3.599
		c-18.211,4.232-35.436,10.983-51.692,20.211c-1.216,0.689-1.087,0.459-1.076,1.879c0.03,3.359,0.158,6.712,0.348,10.06
		c0.277,4.879,0.71,9.748,1.359,14.603c1.084,8.106,2.667,16.114,4.771,24.013c12.511,46.933,42.154,86.576,81.58,112.212
		c0.112,0.071,0.221,0.148,0.334,0.221c2.424,1.569,4.88,3.091,7.376,4.554c0.329,0.192,0.669,0.365,1.069,0.583
		c0.588-0.342,1.089-0.628,1.585-0.921c1.932-1.142,3.837-2.316,5.722-3.519c12.307-7.845,23.61-16.979,33.892-27.417
		c16.424-16.672,29.427-35.688,38.974-57.059c6.014-13.458,10.383-27.438,13.164-41.913c1.297-6.742,2.212-13.535,2.786-20.375
		c0.139-1.655,0.244-3.31,0.334-4.967c0.174-3.113,0.275-6.23,0.321-9.35c0.008-0.463-0.011-0.926,0.011-1.388
		C194.438,130.825,194.261,130.538,193.867,130.346 M184.837,152.428c-0.634,7.226-1.714,14.38-3.245,21.468
		c-1.602,7.414-3.664,14.637-6.167,21.677c-0.069,0.196-0.139,0.395-0.207,0.592c-0.272,0.755-0.554,1.505-0.835,2.256
		c-0.246,0.663-0.493,1.326-0.747,1.984c-0.015,0.039-0.031,0.077-0.046,0.114c-14.595,37.617-41.71,68.698-76.081,87.819
		c-0.101,0.06-0.194,0.12-0.291,0.18c-0.007-0.003-0.015-0.008-0.021-0.012c-1.665-0.819-5.319-3.065-9.16-5.627
		c-29.798-21.258-52.921-49.818-66.094-82.712c-2.788-6.96-5.135-14.113-7-21.436c-3.438-13.498-5.255-27.562-5.255-42.014
		c24.543-14.2,51.769-21.983,79.253-23.334c0.162-0.008,0.325-0.015,0.487-0.022c1.128-0.053,2.255-0.092,3.384-0.122
		c0.287-0.007,0.573-0.018,0.86-0.023c1.19-0.026,2.378-0.04,3.568-0.043c0.139,0,0.279-0.003,0.419-0.003
		c1.381,0,2.765,0.017,4.146,0.049c0.011,0,0.018,0,0.026,0c0.819,0.021,1.639,0.059,2.458,0.089
		c4.602,0.205,10.043,0.647,14.438,1.13c2.311,0.278,4.616,0.613,6.914,0.983c11.064,1.78,21.986,4.621,32.612,8.521
		c9.338,3.429,18.445,7.678,27.212,12.746c0.018,0.319,0.048,0.641,0.048,0.962C185.51,142.587,185.269,147.511,184.837,152.428"/>
	<path fill="#FFFFFF" d="M92.121,221.581c0.316-1.774,0.615-3.471,0.923-5.161c0.395-2.177,0.825-4.346,1.171-6.527
		c0.053-0.327-0.188-0.771-0.42-1.056c-1.42-1.749-1.578-4.138-0.354-6.008c0.948-1.449,2.55-2.263,4.215-2.25v-13.182H79.851
		v-1.049c0-4.816,0-9.634,0-14.449c0-7.893,5.245-14.84,12.848-17.015c1.658-0.475,3.322-0.667,4.958-0.656v-7.878
		c-6.612-0.007-12.483,2.268-17.488,6.88c-4.87,4.491-7.709,10.093-8.161,16.715c-0.289,4.256-0.169,8.538-0.222,12.812
		c-0.019,1.504-0.003,3.011-0.003,4.562c-3.415,0.634-4.416,1.848-4.416,5.192c-0.001,11.466-0.006,22.931,0.011,34.399
		c0.002,0.827,0.067,1.679,0.272,2.475c0.986,3.835,4.188,6.19,8.359,6.195c4.979,0.007,9.958,0.001,14.936,0
		c2.237,0,4.475,0.001,6.712,0.002v-14.003H92.121z"/>
	<path fill="#C0C0C0" d="M127.831,191.656c-0.002-2.019-1.258-3.664-3.124-4.125c-0.392-0.095-0.8-0.119-1.31-0.193
		c0-2.176,0.038-4.29-0.007-6.404c-0.095-4.204,0.09-8.445-0.417-12.601c-1.413-11.545-11.469-20.991-23.011-21.898
		c-0.778-0.061-1.546-0.083-2.305-0.084v7.878c8.625,0.052,16.434,6.442,17.648,15.444c0.028,0.223,0.031,0.447,0.031,0.672
		c0.004,5.46,0.004,10.918,0,16.376c0,0.19-0.022,0.38-0.041,0.676H97.658v13.183c0.476,0.004,0.959,0.064,1.431,0.211
		c2.1,0.649,3.561,2.655,3.517,4.878c-0.023,1.23-0.489,2.293-1.259,3.255c-0.219,0.272-0.354,0.741-0.295,1.079
		c0.603,3.538,1.253,7.064,1.887,10.599c0.053,0.302,0.066,0.614,0.104,0.98h-5.385v14.002c7.205,0.004,14.409,0.008,21.614-0.012
		c5.067-0.015,8.533-3.512,8.555-8.553c0.011-2.729,0.004-5.459,0.006-8.19C127.833,209.771,127.838,200.714,127.831,191.656"/>
	<path fill="#FFFFFF" d="M0.649,0.95h14.436v7.277c0.821-1.084,1.724-2.121,2.706-3.109c0.981-0.988,2.073-1.863,3.277-2.63
		c1.2-0.764,2.531-1.371,3.988-1.818C26.512,0.224,28.156,0,29.994,0c5.507,0,9.765,1.678,12.772,5.034
		c3.006,3.356,4.511,7.977,4.511,13.863v32.954H32.842V23.526c0-3.41-0.759-5.985-2.279-7.72c-1.519-1.736-3.673-2.606-6.458-2.606
		c-2.786,0-4.986,0.87-6.6,2.606c-1.614,1.735-2.421,4.31-2.421,7.72v28.325H0.649V0.95z"/>
	<path fill="#FFFFFF" d="M82.874,52.991c-3.797,0-7.328-0.634-10.587-1.9c-3.262-1.265-6.079-3.069-8.452-5.413
		c-2.375-2.341-4.226-5.111-5.556-8.31c-1.33-3.195-1.995-6.756-1.995-10.683v-0.19c0-3.609,0.618-7.026,1.852-10.256
		c1.235-3.229,2.958-6.044,5.175-8.451c2.216-2.406,4.858-4.305,7.931-5.698C74.312,0.698,77.714,0,81.451,0
		c4.24,0,7.913,0.76,11.015,2.279c3.103,1.521,5.682,3.562,7.74,6.126c2.057,2.564,3.576,5.508,4.56,8.832
		c0.979,3.323,1.47,6.789,1.47,10.398c0,0.57-0.016,1.172-0.047,1.804c-0.033,0.633-0.08,1.299-0.141,1.995H70.625
		c0.697,3.292,2.137,5.777,4.321,7.455c2.184,1.678,4.89,2.516,8.119,2.516c2.406,0,4.559-0.411,6.458-1.234
		c1.899-0.821,3.86-2.151,5.888-3.988l8.261,7.312c-2.406,2.977-5.317,5.304-8.735,6.981C91.517,52.151,87.496,52.991,82.874,52.991
		 M92.182,22.412c-0.444-3.229-1.583-5.841-3.418-7.834c-1.837-1.995-4.274-2.992-7.312-2.992c-3.039,0-5.493,0.983-7.36,2.944
		c-1.869,1.962-3.087,4.591-3.656,7.882H92.182z"/>
	<path fill="#FFFFFF" d="M115.245,0.95h14.435v7.277c0.821-1.084,1.726-2.121,2.706-3.109s2.073-1.863,3.278-2.63
		c1.2-0.764,2.545-1.371,4.035-1.818c1.484-0.447,3.148-0.67,4.985-0.67c3.355,0,6.25,0.702,8.689,2.104
		c2.437,1.404,4.32,3.411,5.649,6.026c2.216-2.677,4.685-4.702,7.408-6.074C169.153,0.687,172.256,0,175.736,0
		c5.383,0,9.595,1.584,12.631,4.749c3.039,3.166,4.56,7.819,4.56,13.959v33.143h-14.434V23.526c0-3.41-0.729-5.985-2.185-7.72
		c-1.458-1.736-3.546-2.606-6.268-2.606c-2.724,0-4.86,0.87-6.412,2.606c-1.552,1.735-2.326,4.31-2.326,7.72v28.325h-14.434V23.526
		c0-3.41-0.729-5.985-2.185-7.72c-1.458-1.736-3.547-2.606-6.268-2.606c-2.723,0-4.86,0.87-6.412,2.606
		c-1.551,1.735-2.325,4.31-2.325,7.72v28.325h-14.435V0.95z"/>
	<path fill="#3BA949" d="M0.649,86.505l2.04-2.625c2.268,2.632,5.122,3.948,8.563,3.948c2.215,0,3.842-0.476,4.881-1.429
		c1.041-0.952,1.561-2.06,1.561-3.326c0-1.278-0.554-2.297-1.662-3.056c-1.109-0.759-2.457-1.36-4.043-1.801
		c-1.585-0.442-3.175-0.885-4.768-1.328c-1.594-0.443-2.944-1.217-4.05-2.324c-1.107-1.104-1.662-2.57-1.662-4.395
		c0-2.231,0.887-4.053,2.663-5.469c1.772-1.414,4.027-2.121,6.76-2.121c4.016,0,7.236,1.274,9.663,3.822l-2.04,2.505
		c-1.934-2.191-4.568-3.287-7.902-3.287c-1.64,0-2.988,0.409-4.042,1.224c-1.053,0.815-1.58,1.869-1.58,3.163
		c0,0.97,0.401,1.772,1.205,2.405c0.802,0.634,1.792,1.122,2.967,1.463c1.175,0.34,2.473,0.718,3.891,1.129
		c1.418,0.413,2.723,0.868,3.913,1.364c1.189,0.497,2.188,1.303,2.998,2.415c0.807,1.113,1.212,2.458,1.212,4.035
		c0,2.217-0.827,4.112-2.481,5.688c-1.654,1.575-4.188,2.363-7.602,2.363C6.704,90.868,3.21,89.415,0.649,86.505"/>
	<path fill="none" stroke="#3BA949" stroke-miterlimit="10" d="M0.649,86.505l2.04-2.625c2.268,2.632,5.122,3.948,8.563,3.948
		c2.215,0,3.842-0.476,4.881-1.429c1.041-0.952,1.561-2.06,1.561-3.326c0-1.278-0.554-2.297-1.662-3.056
		c-1.109-0.759-2.457-1.36-4.043-1.801c-1.585-0.442-3.175-0.885-4.768-1.328c-1.594-0.443-2.944-1.217-4.05-2.324
		c-1.107-1.104-1.662-2.57-1.662-4.395c0-2.231,0.887-4.053,2.663-5.469c1.772-1.414,4.027-2.121,6.76-2.121
		c4.016,0,7.236,1.274,9.663,3.822l-2.04,2.505c-1.934-2.191-4.568-3.287-7.902-3.287c-1.64,0-2.988,0.409-4.042,1.224
		c-1.053,0.815-1.58,1.869-1.58,3.163c0,0.97,0.401,1.772,1.205,2.405c0.802,0.634,1.792,1.122,2.967,1.463
		c1.175,0.34,2.473,0.718,3.891,1.129c1.418,0.413,2.723,0.868,3.913,1.364c1.189,0.497,2.188,1.303,2.998,2.415
		c0.807,1.113,1.212,2.458,1.212,4.035c0,2.217-0.827,4.112-2.481,5.688c-1.654,1.575-4.188,2.363-7.602,2.363
		C6.704,90.868,3.21,89.415,0.649,86.505z"/>
	<polygon fill="#3BA949" points="26.153,90.368 26.153,63.04 44.06,63.04 44.06,66.081 29.554,66.081 29.554,74.864 43.759,74.864 
		43.759,77.905 29.554,77.905 29.554,87.326 44.06,87.326 44.06,90.368 	"/>
	<polygon fill="none" stroke="#3BA949" stroke-miterlimit="10" points="26.153,90.368 26.153,63.04 44.06,63.04 44.06,66.081 
		29.554,66.081 29.554,74.864 43.759,74.864 43.759,77.905 29.554,77.905 29.554,87.326 44.06,87.326 44.06,90.368 	"/>
	<path fill="#3BA949" d="M51.781,86.908c-2.688-2.642-4.031-6.036-4.031-10.184s1.343-7.543,4.031-10.183
		c2.688-2.642,6.026-3.961,10.015-3.961c4.4,0,7.854,1.808,10.362,5.42l-2.82,1.601c-0.788-1.2-1.859-2.164-3.212-2.89
		c-1.354-0.728-2.797-1.09-4.33-1.09c-3.028,0-5.54,1.037-7.534,3.111c-1.993,2.073-2.99,4.738-2.99,7.992
		c0,3.228,1.002,5.886,3.01,7.972c2.008,2.088,4.511,3.131,7.514,3.131c1.533,0,2.973-0.37,4.32-1.11
		c1.347-0.741,2.421-1.697,3.222-2.872l2.86,1.561c-2.641,3.642-6.109,5.463-10.402,5.463
		C57.807,90.869,54.469,89.549,51.781,86.908"/>
	<path fill="none" stroke="#3BA949" stroke-miterlimit="10" d="M51.781,86.908c-2.688-2.642-4.031-6.036-4.031-10.184
		s1.343-7.543,4.031-10.183c2.688-2.642,6.026-3.961,10.015-3.961c4.4,0,7.854,1.808,10.362,5.42l-2.82,1.601
		c-0.788-1.2-1.859-2.164-3.212-2.89c-1.354-0.728-2.797-1.09-4.33-1.09c-3.028,0-5.54,1.037-7.534,3.111
		c-1.993,2.073-2.99,4.738-2.99,7.992c0,3.228,1.002,5.886,3.01,7.972c2.008,2.088,4.511,3.131,7.514,3.131
		c1.533,0,2.973-0.37,4.32-1.11c1.347-0.741,2.421-1.697,3.222-2.872l2.86,1.561c-2.641,3.642-6.109,5.463-10.402,5.463
		C57.807,90.869,54.469,89.549,51.781,86.908z"/>
	<path fill="#3BA949" d="M76.06,79.765V63.04h3.4v16.625c0,2.534,0.661,4.529,1.984,5.983c1.321,1.453,3.228,2.18,5.718,2.18
		c2.492,0,4.408-0.724,5.75-2.169c1.341-1.448,2.013-3.444,2.013-5.994V63.04h3.401v16.685c0,3.469-0.955,6.193-2.863,8.173
		c-1.91,1.98-4.673,2.971-8.291,2.971c-3.592,0-6.342-0.991-8.25-2.971C77.014,85.917,76.06,83.206,76.06,79.765"/>
	<path fill="none" stroke="#3BA949" stroke-miterlimit="10" d="M76.06,79.765V63.04h3.4v16.625c0,2.534,0.661,4.529,1.984,5.983
		c1.321,1.453,3.228,2.18,5.718,2.18c2.492,0,4.408-0.724,5.75-2.169c1.341-1.448,2.013-3.444,2.013-5.994V63.04h3.401v16.685
		c0,3.469-0.955,6.193-2.863,8.173c-1.91,1.98-4.673,2.971-8.291,2.971c-3.592,0-6.342-0.991-8.25-2.971
		C77.014,85.917,76.06,83.206,76.06,79.765z"/>
	<path fill="#3BA949" d="M104.682,90.368V63.041h10.984c2.534,0,4.602,0.75,6.203,2.25c1.6,1.5,2.4,3.498,2.4,5.993
		c0,2.362-0.69,4.244-2.071,5.647c-1.38,1.403-3.072,2.186-5.072,2.35l7.383,11.088h-4.021l-6.921-10.802h-5.482v10.802H104.682z
		 M108.084,76.523h7.162c1.614,0,2.934-0.493,3.962-1.479c1.026-0.988,1.54-2.242,1.54-3.761c0-1.561-0.514-2.818-1.54-3.771
		c-1.028-0.955-2.348-1.431-3.962-1.431h-7.162V76.523z"/>
	<path fill="none" stroke="#3BA949" stroke-miterlimit="10" d="M104.682,90.368V63.041h10.984c2.534,0,4.602,0.75,6.203,2.25
		c1.6,1.5,2.4,3.498,2.4,5.993c0,2.362-0.69,4.244-2.071,5.647c-1.38,1.403-3.072,2.186-5.072,2.35l7.383,11.088h-4.021
		l-6.921-10.802h-5.482v10.802H104.682z M108.084,76.523h7.162c1.614,0,2.934-0.493,3.962-1.479c1.026-0.988,1.54-2.242,1.54-3.761
		c0-1.561-0.514-2.818-1.54-3.771c-1.028-0.955-2.348-1.431-3.962-1.431h-7.162V76.523z"/>
	<rect x="129.445" y="63.04" fill="#3BA949" width="3.401" height="27.329"/>
	<rect x="129.445" y="63.04" fill="none" stroke="#3BA949" stroke-miterlimit="10" width="3.401" height="27.329"/>
	<polygon fill="#3BA949" points="136.804,66.081 136.804,63.04 157.53,63.04 157.53,66.081 148.847,66.081 148.847,90.368 
		145.446,90.368 145.446,66.081 	"/>
	<polygon fill="none" stroke="#3BA949" stroke-miterlimit="10" points="136.804,66.081 136.804,63.04 157.53,63.04 157.53,66.081 
		148.847,66.081 148.847,90.368 145.446,90.368 145.446,66.081 	"/>
	<polygon fill="#3BA949" points="160.144,63.04 164.126,63.04 172.61,75.744 181.093,63.04 185.071,63.04 174.328,78.805 
		174.328,90.369 170.929,90.369 170.929,78.805 	"/>
	<polygon fill="none" stroke="#3BA949" stroke-miterlimit="10" points="160.144,63.04 164.126,63.04 172.61,75.744 181.093,63.04 
		185.071,63.04 174.328,78.805 174.328,90.369 170.929,90.369 170.929,78.805 	"/>
</g>
</svg>
