<?xml version="1.0" encoding="utf-8"?>
<!-- Generator: Adobe Illustrator 16.0.0, SVG Export Plug-In . SVG Version: 6.00 Build 0)  -->
<!DOCTYPE svg PUBLIC "-//W3C//DTD SVG 1.1//EN" "http://www.w3.org/Graphics/SVG/1.1/DTD/svg11.dtd">
<svg version="1.1" id="Layer_1" xmlns="http://www.w3.org/2000/svg" xmlns:xlink="http://www.w3.org/1999/xlink" x="0px" y="0px"
	 width="196.858px" height="298.96px" viewBox="21.98 0 196.858 298.96" enable-background="new 21.98 0 196.858 298.96"
	 xml:space="preserve">
<g>
	<g>
		<path fill="#A4A2A2" d="M21.98,85.628l3.125-4.444c2.317,2.434,5.143,3.656,8.477,3.669c1.497,0,2.643-0.291,3.438-0.875
			c0.794-0.583,1.191-1.287,1.191-2.113c0-0.721-0.378-1.317-1.133-1.789c-0.755-0.472-1.693-0.844-2.812-1.116
			c-1.12-0.272-2.354-0.572-3.701-0.9c-1.348-0.327-2.587-0.746-3.72-1.256c-1.133-0.51-2.08-1.313-2.842-2.411
			c-0.762-1.097-1.143-2.437-1.143-4.018c0-2.284,0.921-4.202,2.764-5.754c1.842-1.551,4.293-2.326,7.354-2.326
			c4.259,0,7.74,1.228,10.445,3.683l-3.185,4.24c-2.101-1.948-4.67-2.923-7.709-2.923c-0.026,0-0.046,0-0.059,0
			c-1.172,0-2.093,0.235-2.764,0.706c-0.671,0.471-1.006,1.105-1.006,1.905c0,0.632,0.385,1.157,1.153,1.576
			c0.77,0.42,1.715,0.773,2.838,1.062c1.123,0.288,2.351,0.604,3.682,0.945c1.331,0.341,2.565,0.777,3.702,1.307
			c1.136,0.529,2.083,1.346,2.84,2.45s1.136,2.456,1.136,4.057c0,2.558-0.915,4.623-2.745,6.194
			c-1.83,1.571-4.482,2.356-7.958,2.356C28.595,89.852,24.806,88.444,21.98,85.628z"/>
		<path fill="#A4A2A2" d="M47.801,89.364v-26.68h18.887v5H53.484v5.605h12.91v5h-12.91v6.074h13.203v5H47.801V89.364z"/>
		<path fill="#A4A2A2" d="M69.832,76.034c0-4.072,1.351-7.391,4.053-9.954c2.702-2.563,6.097-3.845,10.186-3.845
			c4.987,0,8.691,2.158,11.113,6.473l-4.883,2.416c-0.586-1.126-1.445-2.056-2.578-2.789c-1.133-0.732-2.351-1.1-3.652-1.1
			c-2.422,0-4.427,0.828-6.016,2.484c-1.589,1.656-2.383,3.762-2.383,6.314c0,2.552,0.791,4.661,2.373,6.324s3.59,2.494,6.025,2.494
			c1.302,0,2.52-0.37,3.652-1.109c1.133-0.74,1.992-1.673,2.578-2.799l4.883,2.376c-2.474,4.355-6.179,6.532-11.113,6.532
			c-4.076,0-7.468-1.29-10.176-3.87C71.186,83.402,69.832,80.086,69.832,76.034z"/>
		<path fill="#A4A2A2" d="M98.562,78.68V62.684h5.684v15.868c0,1.917,0.547,3.446,1.643,4.588c1.096,1.142,2.644,1.712,4.646,1.712
			c2.001,0,3.544-0.57,4.626-1.712c1.083-1.142,1.624-2.671,1.624-4.588V62.684h5.84V78.68c0,3.411-1.025,6.126-3.077,8.145
			c-2.051,2.019-5.052,3.027-9.003,3.027s-6.937-1.009-8.955-3.027C99.572,84.806,98.562,82.091,98.562,78.68z"/>
		<path fill="#A4A2A2" d="M127.918,89.364v-26.68h12.48c2.746,0,4.935,0.801,6.562,2.402c1.627,1.602,2.44,3.665,2.44,6.191
			c0,2.188-0.58,3.962-1.737,5.322c-1.159,1.36-2.539,2.229-4.142,2.607l6.035,10.156h-6.562l-5.234-9.473h-4.159v9.473h-5.684
			V89.364z M133.602,74.891h5.996c1.146,0,2.092-0.329,2.842-0.986c0.748-0.657,1.123-1.546,1.123-2.666
			c0-1.067-0.375-1.927-1.123-2.578c-0.75-0.651-1.696-0.977-2.842-0.977h-5.996V74.891z"/>
		<path fill="#A4A2A2" d="M153.621,89.364v-26.68h5.684v26.68H153.621z"/>
		<path fill="#A4A2A2" d="M162.918,67.684v-5h21.309v5h-7.793v21.68h-5.684v-21.68H162.918z"/>
		<path fill="#A4A2A2" d="M185.047,62.684h6.484l6.602,10.684l6.582-10.684h6.445l-10.195,15.762v10.918h-5.684V78.446
			L185.047,62.684z"/>
	</g>
	<g>
		<g>
			<path fill="#F6F6F6" d="M21.98,0.972h14.778v7.449c0.842-1.109,1.766-2.171,2.771-3.183c1.004-1.011,2.122-1.908,3.354-2.692
				c1.23-0.784,2.592-1.403,4.083-1.861C48.457,0.229,50.142,0,52.022,0c5.638,0,9.997,1.718,13.076,5.153
				c3.078,3.436,4.618,8.167,4.618,14.194v33.736H54.939V24.085c0-3.491-0.778-6.127-2.333-7.904
				c-1.556-1.778-3.76-2.668-6.611-2.668c-2.852,0-5.104,0.89-6.757,2.668c-1.652,1.777-2.479,4.413-2.479,7.904v28.998H21.98V0.972
				z"/>
			<path fill="#F6F6F6" d="M106.16,54.249c-3.888,0-7.503-0.649-10.84-1.944c-3.339-1.296-6.222-3.143-8.653-5.542
				c-2.431-2.397-4.327-5.233-5.688-8.507c-1.361-3.272-2.042-6.918-2.042-10.937v-0.194c0-3.694,0.632-7.194,1.896-10.499
				c1.264-3.306,3.029-6.189,5.299-8.653C88.4,5.51,91.106,3.566,94.25,2.14C97.393,0.714,100.876,0,104.702,0
				c4.342,0,8.101,0.778,11.276,2.333c3.176,1.556,5.817,3.646,7.924,6.271c2.105,2.625,3.662,5.639,4.668,9.041
				c1.004,3.403,1.507,6.952,1.507,10.646c0,0.583-0.017,1.2-0.05,1.847c-0.033,0.649-0.082,1.329-0.146,2.042H93.619
				c0.712,3.37,2.187,5.915,4.423,7.632c2.236,1.718,5.007,2.576,8.313,2.576c2.462,0,4.667-0.42,6.611-1.264
				c1.945-0.842,3.953-2.203,6.028-4.083l8.458,7.486c-2.464,3.047-5.444,5.429-8.944,7.146
				C115.007,53.39,110.891,54.249,106.16,54.249z M115.688,22.944c-0.453-3.305-1.621-5.979-3.5-8.021
				c-1.88-2.042-4.375-3.063-7.485-3.063c-3.111,0-5.624,1.006-7.535,3.014c-1.912,2.01-3.16,4.7-3.743,8.069L115.688,22.944
				L115.688,22.944z"/>
			<path fill="#F6F6F6" d="M139.298,0.972h14.778v7.449c0.842-1.109,1.766-2.171,2.771-3.183c1.004-1.011,2.121-1.908,3.354-2.692
				c1.23-0.784,2.607-1.403,4.132-1.861C165.855,0.229,167.557,0,169.438,0c3.436,0,6.4,0.718,8.896,2.154
				c2.495,1.437,4.424,3.492,5.785,6.169c2.268-2.74,4.796-4.814,7.583-6.218C194.486,0.702,197.664,0,201.229,0
				c5.508,0,9.819,1.621,12.931,4.861c3.11,3.242,4.667,8.006,4.667,14.292v33.93h-14.778V24.085c0-3.491-0.746-6.127-2.235-7.904
				c-1.492-1.778-3.631-2.668-6.418-2.668s-4.975,0.89-6.562,2.668c-1.589,1.777-2.382,4.413-2.382,7.904v28.998h-14.777V24.085
				c0-3.491-0.746-6.127-2.235-7.904c-1.492-1.778-3.631-2.668-6.418-2.668s-4.975,0.89-6.562,2.668
				c-1.589,1.777-2.382,4.413-2.382,7.904v28.998h-14.778L139.298,0.972L139.298,0.972z"/>
		</g>
		<path fill="#A4A2A2" d="M120.438,298.96c-0.408-0.222-0.754-0.399-1.088-0.594c-43.982-25.757-77.239-68.154-90.773-118.931
			c-2.141-8.033-3.748-16.172-4.851-24.414c-1.113-8.321-1.663-16.68-1.735-25.071c-0.012-1.443-0.142-1.209,1.093-1.91
			c16.527-9.382,34.039-16.245,52.553-20.547c6.835-1.588,13.734-2.812,20.698-3.659c9.582-1.165,19.201-1.644,28.852-1.402
			c5.404,0.136,10.799,0.484,16.178,1.057c26.967,2.875,52.257,10.98,75.89,24.275c0.341,0.192,0.672,0.405,1.022,0.577
			c0.4,0.196,0.58,0.487,0.561,0.934c-0.021,0.469-0.003,0.94-0.01,1.41c-0.071,4.859-0.262,9.712-0.668,14.555
			c-0.582,6.953-1.514,13.861-2.831,20.713c-2.828,14.716-7.271,28.929-13.384,42.611c-9.705,21.726-22.924,41.058-39.621,58.009
			c-12.053,12.235-25.482,22.715-40.272,31.448C121.545,298.32,121.036,298.611,120.438,298.96z M31.033,134.75
			c0,0.462,0,0.813,0,1.163c0.005,6.902,0.456,13.778,1.281,20.628c0.745,6.186,1.819,12.316,3.213,18.391
			c0.246,1.072,0.578,2.096,1.049,3.099c8.433,17.948,27.973,27.491,47.349,23.106c14.775-3.346,26.743-14.731,30.854-29.306
			c1.137-4.03,1.523-8.149,1.652-12.308c0.084-2.746,0.342-5.469,0.857-8.17c3.152-16.51,14.195-30.151,29.659-36.623
			c0.866-0.363,1.751-0.682,2.622-1.031c0.125-0.049,0.322-0.065,0.264-0.291c-2.43-0.866-17.023-2.322-25.777-2.494
			c-18.781-0.37-37.185,2.098-55.184,7.493C55.654,122.371,43.068,127.803,31.033,134.75z M169.627,247.354
			c0.516-0.242,0.719-0.64,0.977-0.961c3.787-4.703,7.326-9.586,10.605-14.654c11.784-18.215,20.006-37.91,24.589-59.121
			c1.558-7.207,2.654-14.481,3.3-21.826c0.438-4.998,0.684-10.004,0.687-15.022c0-0.346-0.035-0.692-0.054-1.035
			c-0.487-0.287-0.922-0.551-1.362-0.801c-3.856-2.176-7.78-4.22-11.793-6.092c-5.786-2.7-11.655-5.198-17.757-7.111
			c-7.426-2.328-14.928-2.587-22.495-0.762c-21.541,5.194-35.308,26.278-31.229,48.05c2.262,12.071,8.737,21.383,19.123,27.959
			c0.695,0.439,1.405,0.854,2.107,1.283c7.588,4.645,13.533,10.862,17.781,18.674c4.467,8.217,6.477,17.008,5.959,26.354
			C169.975,243.928,169.785,245.561,169.627,247.354z M120.505,289.368c0.386-0.218,0.828-0.46,1.263-0.716
			c11.838-6.963,22.707-15.209,32.678-24.648c0.636-0.602,1.128-1.299,1.521-2.072c0.64-1.257,1.29-2.509,1.901-3.779
			c4.718-9.805,5.729-19.967,2.599-30.41c-6.085-20.305-25.661-31.957-45.265-29.508c-5.601,0.701-10.843,2.483-15.73,5.229
			c-9.342,5.248-19.304,7.41-29.964,6.392c-5.23-0.5-10.242-1.836-15.05-3.947c-3.786-1.662-7.302-3.776-10.565-6.312
			c-0.227-0.177-0.483-0.316-0.906-0.591c0.14,0.466,0.198,0.724,0.293,0.968c4.187,10.683,9.374,20.857,15.539,30.533
			c6.655,10.445,14.316,20.094,22.973,28.951s18.13,16.734,28.414,23.635C114.73,286.128,119.113,288.805,120.505,289.368z"/>
	</g>
</g>
</svg>
