<svg xmlns="http://www.w3.org/2000/svg" xmlns:xlink="http://www.w3.org/1999/xlink" width="194.419" height="298.172" viewBox="0 0 194.419 298.172"><path d="M193.867 130.346c-.347-.17-.672-.379-1.007-.568-23.246-13.076-48.122-21.049-74.648-23.877a196.064 196.064 0 0 0-15.914-1.039c-9.492-.24-18.954.231-28.379 1.378a192.686 192.686 0 0 0-20.359 3.599c-18.211 4.232-35.436 10.983-51.692 20.211-1.216.689-1.087.459-1.076 1.879.03 3.359.158 6.712.348 10.06.277 4.879.71 9.748 1.359 14.603a192.162 192.162 0 0 0 4.771 24.013c12.511 46.933 42.154 86.576 81.58 112.212.112.071.221.148.334.221a195.683 195.683 0 0 0 7.376 4.554c.329.192.669.365 1.069.583.588-.342 1.089-.628 1.585-.921a196.427 196.427 0 0 0 5.722-3.519 193.182 193.182 0 0 0 33.892-27.417c16.424-16.672 29.427-35.688 38.974-57.059 6.014-13.458 10.383-27.438 13.164-41.913a193.346 193.346 0 0 0 2.786-20.375c.139-1.655.244-3.31.334-4.967.174-3.113.275-6.23.321-9.35.008-.463-.011-.926.011-1.388.02-.441-.157-.728-.551-.92m-9.03 22.082a173.312 173.312 0 0 1-3.245 21.468 174.912 174.912 0 0 1-6.167 21.677l-.207.592c-.272.755-.554 1.505-.835 2.256a161.98 161.98 0 0 1-.747 1.984l-.046.114c-14.595 37.617-41.71 68.698-76.081 87.819-.101.06-.194.12-.291.18a.143.143 0 0 1-.021-.012c-1.665-.819-5.319-3.065-9.16-5.627-29.798-21.258-52.921-49.818-66.094-82.712a169.947 169.947 0 0 1-12.255-63.45c24.543-14.2 51.769-21.983 79.253-23.334l.487-.022a166.03 166.03 0 0 1 3.384-.122c.287-.007.573-.018.86-.023 1.19-.026 2.378-.04 3.568-.043.139 0 .279-.003.419-.003 1.381 0 2.765.017 4.146.049h.026c.819.021 1.639.059 2.458.089 4.602.205 10.043.647 14.438 1.13 2.311.278 4.616.613 6.914.983a175.585 175.585 0 0 1 32.612 8.521 174.657 174.657 0 0 1 27.212 12.746c.018.319.048.641.048.962a169.94 169.94 0 0 1-.676 14.778"/><path fill="#3BA949" d="M97.239 113.174c-1.188.002-2.378.016-3.568.043-.287.004-.573.016-.86.023-1.128.031-2.257.069-3.384.121l-.487.023c-27.485 1.35-54.709 9.135-79.254 23.334 0 14.452 1.818 28.516 5.257 42.015a171.418 171.418 0 0 0 6.999 21.435c13.173 32.894 36.296 61.454 66.093 82.712 3.842 2.562 7.495 4.808 9.161 5.628a.201.201 0 0 1 .021.011c.098-.06.192-.12.291-.18.029-.018.061-.036.092-.052V113.17c-.12.002-.241.004-.361.004"/><path fill="#328540" d="M185.464 136.689a174.615 174.615 0 0 0-27.212-12.746 175.466 175.466 0 0 0-32.612-8.521c-2.298-.37-4.604-.705-6.914-.983-4.395-.483-9.836-.926-14.437-1.13-.821-.03-1.64-.068-2.459-.089h-.025a179.251 179.251 0 0 0-4.147-.049H97.6v175.115c34.329-19.126 61.408-50.182 75.99-87.767l.046-.114c.254-.658.5-1.321.747-1.984.281-.751.562-1.501.835-2.256l.207-.592a174.74 174.74 0 0 0 6.167-21.677 173.312 173.312 0 0 0 3.245-21.468c.433-4.917.673-9.841.675-14.776 0-.322-.031-.643-.048-.963"/><g opacity=".1"><defs><path id="a" d="M.782 104.799h193.637v193.373H.782z"/></defs><clipPath id="b"><use xlink:href="#a" overflow="visible"/></clipPath><path clip-path="url(#b)" fill="#FFF" d="M97.629 298.172c-.399-.218-.74-.391-1.07-.583-43.263-25.337-75.976-67.04-89.288-116.984A191.832 191.832 0 0 1 2.5 156.59C1.405 148.403.863 140.183.792 131.927c-.011-1.419-.14-1.188 1.075-1.879 16.257-9.228 33.482-15.979 51.694-20.21a194.314 194.314 0 0 1 48.737-4.978 196.43 196.43 0 0 1 15.914 1.04c26.526 2.828 51.402 10.802 74.649 23.878.334.188.659.399 1.006.567.393.193.57.48.551.92-.023.461-.003.923-.012 1.387-.069 4.778-.256 9.552-.655 14.317a193.256 193.256 0 0 1-2.786 20.374c-2.781 14.477-7.15 28.456-13.164 41.914-9.547 21.37-22.55 40.387-38.974 57.059a193.328 193.328 0 0 1-39.613 30.936c-.496.292-.997.578-1.585.92M9.688 136.649v1.146c.005 6.788.448 13.551 1.259 20.288a173.683 173.683 0 0 0 3.161 18.091 14.864 14.864 0 0 0 1.031 3.047c8.295 17.655 27.516 27.042 46.574 22.729 14.531-3.291 26.306-14.489 30.349-28.826 1.118-3.963 1.499-8.016 1.624-12.105.083-2.7.336-5.381.844-8.035 3.1-16.241 13.962-29.659 29.173-36.025.852-.356 1.723-.671 2.581-1.013.121-.049.316-.064.258-.287-2.389-.853-16.745-2.284-25.354-2.454-18.472-.365-36.576 2.063-54.281 7.37a174.192 174.192 0 0 0-37.219 16.074m136.327 110.762c.506-.238.706-.631.96-.947a171.128 171.128 0 0 0 10.43-14.415c11.593-17.914 19.681-37.289 24.188-58.153a173.124 173.124 0 0 0 3.245-21.468c.433-4.917.673-9.84.675-14.776 0-.34-.032-.68-.052-1.018-.479-.282-.903-.543-1.34-.788a168.541 168.541 0 0 0-11.599-5.992c-5.692-2.656-11.465-5.113-17.466-6.995-7.306-2.29-14.685-2.544-22.129-.75-21.188 5.109-34.729 25.849-30.717 47.264 2.225 11.875 8.595 21.034 18.81 27.502.684.432 1.383.84 2.073 1.262 7.463 4.569 13.312 10.686 17.49 18.369 4.395 8.081 6.37 16.729 5.861 25.923-.089 1.612-.276 3.219-.429 4.982m-48.321 41.326c.38-.215.814-.452 1.241-.705 11.646-6.846 22.337-14.959 32.146-24.245a7.356 7.356 0 0 0 1.495-2.036c.629-1.236 1.27-2.467 1.871-3.717 4.64-9.646 5.634-19.641 2.556-29.913-5.983-19.975-25.241-31.436-44.525-29.024-5.51.686-10.665 2.441-15.472 5.143-9.189 5.162-18.99 7.288-29.474 6.287-5.145-.491-10.075-1.807-14.804-3.882a48.886 48.886 0 0 1-10.392-6.211c-.224-.174-.476-.312-.892-.58.138.457.194.711.288.951a173.789 173.789 0 0 0 15.286 30.033 175.667 175.667 0 0 0 22.597 28.478 176.548 176.548 0 0 0 27.95 23.25c4.45 2.985 8.761 5.618 10.129 6.171"/></g><path fill="#FFF" d="M193.867 130.346c-.347-.17-.672-.379-1.007-.568-23.246-13.076-48.122-21.049-74.648-23.877a196.064 196.064 0 0 0-15.914-1.039c-9.492-.24-18.954.231-28.379 1.378a192.686 192.686 0 0 0-20.359 3.599c-18.211 4.232-35.436 10.983-51.692 20.211-1.216.689-1.087.459-1.076 1.879.03 3.359.158 6.712.348 10.06.277 4.879.71 9.748 1.359 14.603a192.162 192.162 0 0 0 4.771 24.013c12.511 46.933 42.154 86.576 81.58 112.212.112.071.221.148.334.221a195.683 195.683 0 0 0 7.376 4.554c.329.192.669.365 1.069.583.588-.342 1.089-.628 1.585-.921a196.427 196.427 0 0 0 5.722-3.519 193.182 193.182 0 0 0 33.892-27.417c16.424-16.672 29.427-35.688 38.974-57.059 6.014-13.458 10.383-27.438 13.164-41.913a193.346 193.346 0 0 0 2.786-20.375c.139-1.655.244-3.31.334-4.967.174-3.113.275-6.23.321-9.35.008-.463-.011-.926.011-1.388.02-.441-.157-.728-.551-.92m-9.03 22.082a173.312 173.312 0 0 1-3.245 21.468 174.912 174.912 0 0 1-6.167 21.677l-.207.592c-.272.755-.554 1.505-.835 2.256a161.98 161.98 0 0 1-.747 1.984l-.046.114c-14.595 37.617-41.71 68.698-76.081 87.819-.101.06-.194.12-.291.18a.143.143 0 0 1-.021-.012c-1.665-.819-5.319-3.065-9.16-5.627-29.798-21.258-52.921-49.818-66.094-82.712a169.947 169.947 0 0 1-12.255-63.45c24.543-14.2 51.769-21.983 79.253-23.334l.487-.022a166.03 166.03 0 0 1 3.384-.122c.287-.007.573-.018.86-.023 1.19-.026 2.378-.04 3.568-.043.139 0 .279-.003.419-.003 1.381 0 2.765.017 4.146.049h.026c.819.021 1.639.059 2.458.089 4.602.205 10.043.647 14.438 1.13 2.311.278 4.616.613 6.914.983a175.585 175.585 0 0 1 32.612 8.521 174.657 174.657 0 0 1 27.212 12.746c.018.319.048.641.048.962a169.94 169.94 0 0 1-.676 14.778"/><path fill="#FFF" d="M92.121 221.581c.316-1.774.615-3.471.923-5.161.395-2.177.825-4.346 1.171-6.527.053-.327-.188-.771-.42-1.056-1.42-1.749-1.578-4.138-.354-6.008a4.98 4.98 0 0 1 4.215-2.25v-13.182H79.851v-15.498c0-7.893 5.245-14.84 12.848-17.015a17.496 17.496 0 0 1 4.958-.656v-7.878c-6.612-.007-12.483 2.268-17.488 6.88-4.87 4.491-7.709 10.093-8.161 16.715-.289 4.256-.169 8.538-.222 12.812-.019 1.504-.003 3.011-.003 4.562-3.415.634-4.416 1.848-4.416 5.192-.001 11.466-.006 22.931.011 34.399.002.827.067 1.679.272 2.475.986 3.835 4.188 6.19 8.359 6.195 4.979.007 9.958.001 14.936 0l6.712.002v-14.003h-5.536z"/><path fill="#C0C0C0" d="M127.831 191.656c-.002-2.019-1.258-3.664-3.124-4.125-.392-.095-.8-.119-1.31-.193 0-2.176.038-4.29-.007-6.404-.095-4.204.09-8.445-.417-12.601-1.413-11.545-11.469-20.991-23.011-21.898a29.93 29.93 0 0 0-2.305-.084v7.878c8.625.052 16.434 6.442 17.648 15.444.028.223.031.447.031.672.004 5.46.004 10.918 0 16.376 0 .19-.022.38-.041.676H97.658v13.183c.476.004.959.064 1.431.211a5.031 5.031 0 0 1 3.517 4.878c-.023 1.23-.489 2.293-1.259 3.255-.219.272-.354.741-.295 1.079.603 3.538 1.253 7.064 1.887 10.599.053.302.066.614.104.98h-5.385v14.002c7.205.004 14.409.008 21.614-.012 5.067-.015 8.533-3.512 8.555-8.553.011-2.729.004-5.459.006-8.19 0-9.058.005-18.115-.002-27.173"/><path fill="#FFF" d="M.649.95h14.436v7.277a30.731 30.731 0 0 1 2.706-3.109 18.925 18.925 0 0 1 3.277-2.63A16.278 16.278 0 0 1 25.056.67c1.456-.446 3.1-.67 4.938-.67 5.507 0 9.765 1.678 12.772 5.034 3.006 3.356 4.511 7.977 4.511 13.863v32.954H32.842V23.526c0-3.41-.759-5.985-2.279-7.72-1.519-1.736-3.673-2.606-6.458-2.606-2.786 0-4.986.87-6.6 2.606-1.614 1.735-2.421 4.31-2.421 7.72v28.325H.649V.95zm82.225 52.041c-3.797 0-7.328-.634-10.587-1.9-3.262-1.265-6.079-3.069-8.452-5.413-2.375-2.341-4.226-5.111-5.556-8.31-1.33-3.195-1.995-6.756-1.995-10.683v-.19c0-3.609.618-7.026 1.852-10.256 1.235-3.229 2.958-6.044 5.175-8.451 2.216-2.406 4.858-4.305 7.931-5.698C74.312.698 77.714 0 81.451 0c4.24 0 7.913.76 11.015 2.279 3.103 1.521 5.682 3.562 7.74 6.126 2.057 2.564 3.576 5.508 4.56 8.832.979 3.323 1.47 6.789 1.47 10.398 0 .57-.016 1.172-.047 1.804-.033.633-.08 1.299-.141 1.995H70.625c.697 3.292 2.137 5.777 4.321 7.455 2.184 1.678 4.89 2.516 8.119 2.516 2.406 0 4.559-.411 6.458-1.234 1.899-.821 3.86-2.151 5.888-3.988l8.261 7.312a25.61 25.61 0 0 1-8.735 6.981c-3.42 1.675-7.441 2.515-12.063 2.515m9.308-30.579c-.444-3.229-1.583-5.841-3.418-7.834-1.837-1.995-4.274-2.992-7.312-2.992-3.039 0-5.493.983-7.36 2.944-1.869 1.962-3.087 4.591-3.656 7.882h21.746zM115.245.95h14.435v7.277c.821-1.084 1.726-2.121 2.706-3.109s2.073-1.863 3.278-2.63c1.2-.764 2.545-1.371 4.035-1.818 1.484-.447 3.148-.67 4.985-.67 3.355 0 6.25.702 8.689 2.104 2.437 1.404 4.32 3.411 5.649 6.026 2.216-2.677 4.685-4.702 7.408-6.074C169.153.687 172.256 0 175.736 0c5.383 0 9.595 1.584 12.631 4.749 3.039 3.166 4.56 7.819 4.56 13.959v33.143h-14.434V23.526c0-3.41-.729-5.985-2.185-7.72-1.458-1.736-3.546-2.606-6.268-2.606-2.724 0-4.86.87-6.412 2.606-1.552 1.735-2.326 4.31-2.326 7.72v28.325h-14.434V23.526c0-3.41-.729-5.985-2.185-7.72-1.458-1.736-3.547-2.606-6.268-2.606-2.723 0-4.86.87-6.412 2.606-1.551 1.735-2.325 4.31-2.325 7.72v28.325h-14.435V.95z"/><path fill="#3BA949" d="M.649 86.505l2.04-2.625c2.268 2.632 5.122 3.948 8.563 3.948 2.215 0 3.842-.476 4.881-1.429 1.041-.952 1.561-2.06 1.561-3.326 0-1.278-.554-2.297-1.662-3.056-1.109-.759-2.457-1.36-4.043-1.801l-4.768-1.328c-1.594-.443-2.944-1.217-4.05-2.324-1.107-1.104-1.662-2.57-1.662-4.395 0-2.231.887-4.053 2.663-5.469 1.772-1.414 4.027-2.121 6.76-2.121 4.016 0 7.236 1.274 9.663 3.822l-2.04 2.505c-1.934-2.191-4.568-3.287-7.902-3.287-1.64 0-2.988.409-4.042 1.224-1.053.815-1.58 1.869-1.58 3.163 0 .97.401 1.772 1.205 2.405.802.634 1.792 1.122 2.967 1.463l3.891 1.129c1.418.413 2.723.868 3.913 1.364 1.189.497 2.188 1.303 2.998 2.415.807 1.113 1.212 2.458 1.212 4.035 0 2.217-.827 4.112-2.481 5.688-1.654 1.575-4.188 2.363-7.602 2.363-4.43 0-7.924-1.453-10.485-4.363"/><path fill="none" stroke="#3BA949" stroke-miterlimit="10" d="M.649 86.505l2.04-2.625c2.268 2.632 5.122 3.948 8.563 3.948 2.215 0 3.842-.476 4.881-1.429 1.041-.952 1.561-2.06 1.561-3.326 0-1.278-.554-2.297-1.662-3.056-1.109-.759-2.457-1.36-4.043-1.801l-4.768-1.328c-1.594-.443-2.944-1.217-4.05-2.324-1.107-1.104-1.662-2.57-1.662-4.395 0-2.231.887-4.053 2.663-5.469 1.772-1.414 4.027-2.121 6.76-2.121 4.016 0 7.236 1.274 9.663 3.822l-2.04 2.505c-1.934-2.191-4.568-3.287-7.902-3.287-1.64 0-2.988.409-4.042 1.224-1.053.815-1.58 1.869-1.58 3.163 0 .97.401 1.772 1.205 2.405.802.634 1.792 1.122 2.967 1.463l3.891 1.129c1.418.413 2.723.868 3.913 1.364 1.189.497 2.188 1.303 2.998 2.415.807 1.113 1.212 2.458 1.212 4.035 0 2.217-.827 4.112-2.481 5.688-1.654 1.575-4.188 2.363-7.602 2.363-4.43 0-7.924-1.453-10.485-4.363z"/><path fill="#3BA949" d="M26.153 90.368V63.04H44.06v3.041H29.554v8.783h14.205v3.041H29.554v9.421H44.06v3.042z"/><path fill="none" stroke="#3BA949" stroke-miterlimit="10" d="M26.153 90.368V63.04H44.06v3.041H29.554v8.783h14.205v3.041H29.554v9.421H44.06v3.042z"/><path fill="#3BA949" d="M51.781 86.908c-2.688-2.642-4.031-6.036-4.031-10.184s1.343-7.543 4.031-10.183c2.688-2.642 6.026-3.961 10.015-3.961 4.4 0 7.854 1.808 10.362 5.42l-2.82 1.601c-.788-1.2-1.859-2.164-3.212-2.89a9.005 9.005 0 0 0-4.33-1.09c-3.028 0-5.54 1.037-7.534 3.111-1.993 2.073-2.99 4.738-2.99 7.992 0 3.228 1.002 5.886 3.01 7.972 2.008 2.088 4.511 3.131 7.514 3.131 1.533 0 2.973-.37 4.32-1.11 1.347-.741 2.421-1.697 3.222-2.872l2.86 1.561c-2.641 3.642-6.109 5.463-10.402 5.463-3.989 0-7.327-1.32-10.015-3.961"/><path fill="none" stroke="#3BA949" stroke-miterlimit="10" d="M51.781 86.908c-2.688-2.642-4.031-6.036-4.031-10.184s1.343-7.543 4.031-10.183c2.688-2.642 6.026-3.961 10.015-3.961 4.4 0 7.854 1.808 10.362 5.42l-2.82 1.601c-.788-1.2-1.859-2.164-3.212-2.89a9.005 9.005 0 0 0-4.33-1.09c-3.028 0-5.54 1.037-7.534 3.111-1.993 2.073-2.99 4.738-2.99 7.992 0 3.228 1.002 5.886 3.01 7.972 2.008 2.088 4.511 3.131 7.514 3.131 1.533 0 2.973-.37 4.32-1.11 1.347-.741 2.421-1.697 3.222-2.872l2.86 1.561c-2.641 3.642-6.109 5.463-10.402 5.463-3.989 0-7.327-1.32-10.015-3.961z"/><path fill="#3BA949" d="M76.06 79.765V63.04h3.4v16.625c0 2.534.661 4.529 1.984 5.983 1.321 1.453 3.228 2.18 5.718 2.18 2.492 0 4.408-.724 5.75-2.169 1.341-1.448 2.013-3.444 2.013-5.994V63.04h3.401v16.685c0 3.469-.955 6.193-2.863 8.173-1.91 1.98-4.673 2.971-8.291 2.971-3.592 0-6.342-.991-8.25-2.971-1.908-1.981-2.862-4.692-2.862-8.133"/><path fill="none" stroke="#3BA949" stroke-miterlimit="10" d="M76.06 79.765V63.04h3.4v16.625c0 2.534.661 4.529 1.984 5.983 1.321 1.453 3.228 2.18 5.718 2.18 2.492 0 4.408-.724 5.75-2.169 1.341-1.448 2.013-3.444 2.013-5.994V63.04h3.401v16.685c0 3.469-.955 6.193-2.863 8.173-1.91 1.98-4.673 2.971-8.291 2.971-3.592 0-6.342-.991-8.25-2.971-1.908-1.981-2.862-4.692-2.862-8.133z"/><path fill="#3BA949" d="M104.682 90.368V63.041h10.984c2.534 0 4.602.75 6.203 2.25 1.6 1.5 2.4 3.498 2.4 5.993 0 2.362-.69 4.244-2.071 5.647-1.38 1.403-3.072 2.186-5.072 2.35l7.383 11.088h-4.021l-6.921-10.802h-5.482v10.802h-3.403zm3.402-13.845h7.162c1.614 0 2.934-.493 3.962-1.479 1.026-.988 1.54-2.242 1.54-3.761 0-1.561-.514-2.818-1.54-3.771-1.028-.955-2.348-1.431-3.962-1.431h-7.162v10.442z"/><path fill="none" stroke="#3BA949" stroke-miterlimit="10" d="M104.682 90.368V63.041h10.984c2.534 0 4.602.75 6.203 2.25 1.6 1.5 2.4 3.498 2.4 5.993 0 2.362-.69 4.244-2.071 5.647-1.38 1.403-3.072 2.186-5.072 2.35l7.383 11.088h-4.021l-6.921-10.802h-5.482v10.802h-3.403zm3.402-13.845h7.162c1.614 0 2.934-.493 3.962-1.479 1.026-.988 1.54-2.242 1.54-3.761 0-1.561-.514-2.818-1.54-3.771-1.028-.955-2.348-1.431-3.962-1.431h-7.162v10.442z"/><path fill="#3BA949" d="M129.445 63.04h3.401v27.329h-3.401z"/><path fill="none" stroke="#3BA949" stroke-miterlimit="10" d="M129.445 63.04h3.401v27.329h-3.401z"/><path fill="#3BA949" d="M136.804 66.081V63.04h20.726v3.041h-8.683v24.287h-3.401V66.081z"/><path fill="none" stroke="#3BA949" stroke-miterlimit="10" d="M136.804 66.081V63.04h20.726v3.041h-8.683v24.287h-3.401V66.081z"/><path fill="#3BA949" d="M160.144 63.04h3.982l8.484 12.704 8.483-12.704h3.978l-10.743 15.765v11.564h-3.399V78.805z"/><path fill="none" stroke="#3BA949" stroke-miterlimit="10" d="M160.144 63.04h3.982l8.484 12.704 8.483-12.704h3.978l-10.743 15.765v11.564h-3.399V78.805z"/></svg>