<svg xmlns="http://www.w3.org/2000/svg" width="446.843" height="446.843" viewBox="0 0 446.843 446.843"><path fill="#444" d="M444.09 93.103a14.343 14.343 0 0 0-11.584-5.888H155.321c-7.92 0-14.337 6.417-14.337 14.337s6.417 14.337 14.337 14.337h257.537l-10.338 32.259H186.782c-7.92 0-14.337 6.417-14.337 14.337s6.417 14.337 14.337 14.337h206.543l-11.868 37.038H203.509c-7.92 0-14.337 6.417-14.337 14.34 0 7.92 6.417 14.337 14.337 14.337h168.759l-9.955 31.064H172.692L94.794 49.064a14.352 14.352 0 0 0-8.3-8.646L19.586 14.134c-7.374-2.887-15.695.735-18.591 8.1-2.891 7.369.73 15.695 8.1 18.591l60.768 23.872 74.381 214.399c-3.283 1.144-6.065 3.663-7.332 7.187l-21.506 59.739a11.928 11.928 0 0 0 1.468 10.916 11.95 11.95 0 0 0 9.773 5.078h11.044c-6.844 7.616-11.044 17.646-11.044 28.675 0 23.718 19.298 43.012 43.012 43.012s43.012-19.294 43.012-43.012c0-11.029-4.2-21.059-11.044-28.675h93.776c-6.847 7.616-11.048 17.646-11.048 28.675 0 23.718 19.294 43.012 43.013 43.012 23.718 0 43.012-19.294 43.012-43.012 0-11.029-4.2-21.059-11.043-28.675h13.433c6.599 0 11.947-5.349 11.947-11.948s-5.349-11.947-11.947-11.947H143.647l13.319-36.996c1.72.724 3.578 1.152 5.523 1.152h210.278a14.33 14.33 0 0 0 13.65-9.959l59.739-186.387a14.33 14.33 0 0 0-2.066-12.828zM169.659 409.807c-10.543 0-19.116-8.573-19.116-19.116s8.573-19.117 19.116-19.117 19.116 8.574 19.116 19.117-8.573 19.116-19.116 19.116zm157.708 0c-10.543 0-19.117-8.573-19.117-19.116s8.574-19.117 19.117-19.117c10.542 0 19.116 8.574 19.116 19.117s-8.574 19.116-19.116 19.116z"/></svg>